<?xml version="1.0" encoding="utf-8"?>
<svg xmlns="http://www.w3.org/2000/svg" xmlns:xlink="http://www.w3.org/1999/xlink" width="600" height="400" viewBox="0 0 2400 1600">
<defs>
  <clipPath id="clip600">
    <rect x="0" y="0" width="2400" height="1600"/>
  </clipPath>
</defs>
<path clip-path="url(#clip600)" d="M0 1600 L2400 1600 L2400 0 L0 0  Z" fill="#ffffff" fill-rule="evenodd" fill-opacity="1"/>
<defs>
  <clipPath id="clip601">
    <rect x="480" y="0" width="1681" height="1600"/>
  </clipPath>
</defs>
<path clip-path="url(#clip600)" d="M102.74 1505.26 L2352.76 1505.26 L2352.76 47.2441 L102.74 47.2441  Z" fill="#ffffff" fill-rule="evenodd" fill-opacity="1"/>
<defs>
  <clipPath id="clip602">
    <rect x="102" y="47" width="2251" height="1459"/>
  </clipPath>
</defs>
<polyline clip-path="url(#clip602)" style="stroke:#000000; stroke-linecap:round; stroke-linejoin:round; stroke-width:2; stroke-opacity:0.1; fill:none" points="206.194,47.2441 206.194,1505.26 "/>
<polyline clip-path="url(#clip602)" style="stroke:#000000; stroke-linecap:round; stroke-linejoin:round; stroke-width:2; stroke-opacity:0.1; fill:none" points="619.41,47.2441 619.41,1505.26 "/>
<polyline clip-path="url(#clip602)" style="stroke:#000000; stroke-linecap:round; stroke-linejoin:round; stroke-width:2; stroke-opacity:0.1; fill:none" points="1032.63,47.2441 1032.63,1505.26 "/>
<polyline clip-path="url(#clip602)" style="stroke:#000000; stroke-linecap:round; stroke-linejoin:round; stroke-width:2; stroke-opacity:0.1; fill:none" points="1445.84,47.2441 1445.84,1505.26 "/>
<polyline clip-path="url(#clip602)" style="stroke:#000000; stroke-linecap:round; stroke-linejoin:round; stroke-width:2; stroke-opacity:0.1; fill:none" points="1859.06,47.2441 1859.06,1505.26 "/>
<polyline clip-path="url(#clip602)" style="stroke:#000000; stroke-linecap:round; stroke-linejoin:round; stroke-width:2; stroke-opacity:0.1; fill:none" points="2272.28,47.2441 2272.28,1505.26 "/>
<polyline clip-path="url(#clip600)" style="stroke:#000000; stroke-linecap:round; stroke-linejoin:round; stroke-width:4; stroke-opacity:1; fill:none" points="102.74,1505.26 2352.76,1505.26 "/>
<polyline clip-path="url(#clip600)" style="stroke:#000000; stroke-linecap:round; stroke-linejoin:round; stroke-width:4; stroke-opacity:1; fill:none" points="206.194,1505.26 206.194,1486.36 "/>
<polyline clip-path="url(#clip600)" style="stroke:#000000; stroke-linecap:round; stroke-linejoin:round; stroke-width:4; stroke-opacity:1; fill:none" points="619.41,1505.26 619.41,1486.36 "/>
<polyline clip-path="url(#clip600)" style="stroke:#000000; stroke-linecap:round; stroke-linejoin:round; stroke-width:4; stroke-opacity:1; fill:none" points="1032.63,1505.26 1032.63,1486.36 "/>
<polyline clip-path="url(#clip600)" style="stroke:#000000; stroke-linecap:round; stroke-linejoin:round; stroke-width:4; stroke-opacity:1; fill:none" points="1445.84,1505.26 1445.84,1486.36 "/>
<polyline clip-path="url(#clip600)" style="stroke:#000000; stroke-linecap:round; stroke-linejoin:round; stroke-width:4; stroke-opacity:1; fill:none" points="1859.06,1505.26 1859.06,1486.36 "/>
<polyline clip-path="url(#clip600)" style="stroke:#000000; stroke-linecap:round; stroke-linejoin:round; stroke-width:4; stroke-opacity:1; fill:none" points="2272.28,1505.26 2272.28,1486.36 "/>
<path clip-path="url(#clip600)" d="M206.194 1536.18 Q202.583 1536.18 200.754 1539.74 Q198.949 1543.28 198.949 1550.41 Q198.949 1557.52 200.754 1561.09 Q202.583 1564.63 206.194 1564.63 Q209.828 1564.63 211.634 1561.09 Q213.463 1557.52 213.463 1550.41 Q213.463 1543.28 211.634 1539.74 Q209.828 1536.18 206.194 1536.18 M206.194 1532.47 Q212.004 1532.47 215.06 1537.08 Q218.139 1541.66 218.139 1550.41 Q218.139 1559.14 215.06 1563.75 Q212.004 1568.33 206.194 1568.33 Q200.384 1568.33 197.305 1563.75 Q194.25 1559.14 194.25 1550.41 Q194.25 1541.66 197.305 1537.08 Q200.384 1532.47 206.194 1532.47 Z" fill="#000000" fill-rule="nonzero" fill-opacity="1" /><path clip-path="url(#clip600)" d="M609.792 1563.72 L617.431 1563.72 L617.431 1537.36 L609.121 1539.03 L609.121 1534.77 L617.385 1533.1 L622.061 1533.1 L622.061 1563.72 L629.7 1563.72 L629.7 1567.66 L609.792 1567.66 L609.792 1563.72 Z" fill="#000000" fill-rule="nonzero" fill-opacity="1" /><path clip-path="url(#clip600)" d="M1027.28 1563.72 L1043.6 1563.72 L1043.6 1567.66 L1021.65 1567.66 L1021.65 1563.72 Q1024.32 1560.97 1028.9 1556.34 Q1033.51 1551.69 1034.69 1550.35 Q1036.93 1547.82 1037.81 1546.09 Q1038.71 1544.33 1038.71 1542.64 Q1038.71 1539.88 1036.77 1538.15 Q1034.85 1536.41 1031.75 1536.41 Q1029.55 1536.41 1027.09 1537.17 Q1024.66 1537.94 1021.89 1539.49 L1021.89 1534.77 Q1024.71 1533.63 1027.16 1533.05 Q1029.62 1532.47 1031.65 1532.47 Q1037.02 1532.47 1040.22 1535.16 Q1043.41 1537.85 1043.41 1542.34 Q1043.41 1544.47 1042.6 1546.39 Q1041.82 1548.28 1039.71 1550.88 Q1039.13 1551.55 1036.03 1554.77 Q1032.93 1557.96 1027.28 1563.72 Z" fill="#000000" fill-rule="nonzero" fill-opacity="1" /><path clip-path="url(#clip600)" d="M1450.09 1549.03 Q1453.45 1549.74 1455.32 1552.01 Q1457.22 1554.28 1457.22 1557.61 Q1457.22 1562.73 1453.7 1565.53 Q1450.18 1568.33 1443.7 1568.33 Q1441.53 1568.33 1439.21 1567.89 Q1436.92 1567.47 1434.47 1566.62 L1434.47 1562.1 Q1436.41 1563.24 1438.72 1563.82 Q1441.04 1564.4 1443.56 1564.4 Q1447.96 1564.4 1450.25 1562.66 Q1452.57 1560.92 1452.57 1557.61 Q1452.57 1554.56 1450.41 1552.85 Q1448.28 1551.11 1444.47 1551.11 L1440.44 1551.11 L1440.44 1547.27 L1444.65 1547.27 Q1448.1 1547.27 1449.93 1545.9 Q1451.76 1544.51 1451.76 1541.92 Q1451.76 1539.26 1449.86 1537.85 Q1447.98 1536.41 1444.47 1536.41 Q1442.54 1536.41 1440.35 1536.83 Q1438.15 1537.24 1435.51 1538.12 L1435.51 1533.96 Q1438.17 1533.22 1440.48 1532.85 Q1442.82 1532.47 1444.88 1532.47 Q1450.21 1532.47 1453.31 1534.91 Q1456.41 1537.31 1456.41 1541.43 Q1456.41 1544.3 1454.77 1546.29 Q1453.12 1548.26 1450.09 1549.03 Z" fill="#000000" fill-rule="nonzero" fill-opacity="1" /><path clip-path="url(#clip600)" d="M1862.07 1537.17 L1850.26 1555.62 L1862.07 1555.62 L1862.07 1537.17 M1860.84 1533.1 L1866.72 1533.1 L1866.72 1555.62 L1871.65 1555.62 L1871.65 1559.51 L1866.72 1559.51 L1866.72 1567.66 L1862.07 1567.66 L1862.07 1559.51 L1846.47 1559.51 L1846.47 1555 L1860.84 1533.1 Z" fill="#000000" fill-rule="nonzero" fill-opacity="1" /><path clip-path="url(#clip600)" d="M2262.55 1533.1 L2280.91 1533.1 L2280.91 1537.04 L2266.84 1537.04 L2266.84 1545.51 Q2267.85 1545.16 2268.87 1545 Q2269.89 1544.81 2270.91 1544.81 Q2276.7 1544.81 2280.08 1547.98 Q2283.46 1551.16 2283.46 1556.57 Q2283.46 1562.15 2279.98 1565.25 Q2276.51 1568.33 2270.19 1568.33 Q2268.02 1568.33 2265.75 1567.96 Q2263.5 1567.59 2261.09 1566.85 L2261.09 1562.15 Q2263.18 1563.28 2265.4 1563.84 Q2267.62 1564.4 2270.1 1564.4 Q2274.1 1564.4 2276.44 1562.29 Q2278.78 1560.18 2278.78 1556.57 Q2278.78 1552.96 2276.44 1550.85 Q2274.1 1548.75 2270.1 1548.75 Q2268.22 1548.75 2266.35 1549.16 Q2264.5 1549.58 2262.55 1550.46 L2262.55 1533.1 Z" fill="#000000" fill-rule="nonzero" fill-opacity="1" /><path clip-path="url(#clip600)" d="M1244.36 1614.48 L1231.47 1631.82 L1245.03 1650.12 L1238.12 1650.12 L1227.75 1636.12 L1217.37 1650.12 L1210.47 1650.12 L1224.31 1631.47 L1211.64 1614.48 L1218.55 1614.48 L1228 1627.18 L1237.46 1614.48 L1244.36 1614.48 Z" fill="#000000" fill-rule="nonzero" fill-opacity="1" /><polyline clip-path="url(#clip602)" style="stroke:#000000; stroke-linecap:round; stroke-linejoin:round; stroke-width:2; stroke-opacity:0.1; fill:none" points="102.74,89.2659 2352.76,89.2659 "/>
<polyline clip-path="url(#clip602)" style="stroke:#000000; stroke-linecap:round; stroke-linejoin:round; stroke-width:2; stroke-opacity:0.1; fill:none" points="102.74,502.482 2352.76,502.482 "/>
<polyline clip-path="url(#clip602)" style="stroke:#000000; stroke-linecap:round; stroke-linejoin:round; stroke-width:2; stroke-opacity:0.1; fill:none" points="102.74,915.698 2352.76,915.698 "/>
<polyline clip-path="url(#clip602)" style="stroke:#000000; stroke-linecap:round; stroke-linejoin:round; stroke-width:2; stroke-opacity:0.1; fill:none" points="102.74,1328.91 2352.76,1328.91 "/>
<polyline clip-path="url(#clip600)" style="stroke:#000000; stroke-linecap:round; stroke-linejoin:round; stroke-width:4; stroke-opacity:1; fill:none" points="102.74,47.2441 102.74,1505.26 "/>
<polyline clip-path="url(#clip600)" style="stroke:#000000; stroke-linecap:round; stroke-linejoin:round; stroke-width:4; stroke-opacity:1; fill:none" points="102.74,89.2659 121.638,89.2659 "/>
<polyline clip-path="url(#clip600)" style="stroke:#000000; stroke-linecap:round; stroke-linejoin:round; stroke-width:4; stroke-opacity:1; fill:none" points="102.74,502.482 121.638,502.482 "/>
<polyline clip-path="url(#clip600)" style="stroke:#000000; stroke-linecap:round; stroke-linejoin:round; stroke-width:4; stroke-opacity:1; fill:none" points="102.74,915.698 121.638,915.698 "/>
<polyline clip-path="url(#clip600)" style="stroke:#000000; stroke-linecap:round; stroke-linejoin:round; stroke-width:4; stroke-opacity:1; fill:none" points="102.74,1328.91 121.638,1328.91 "/>
<path clip-path="url(#clip600)" d="M6.25437 89.7173 L35.9301 89.7173 L35.9301 93.6525 L6.25437 93.6525 L6.25437 89.7173 Z" fill="#000000" fill-rule="nonzero" fill-opacity="1" /><path clip-path="url(#clip600)" d="M46.8329 102.611 L54.4717 102.611 L54.4717 76.2451 L46.1616 77.9118 L46.1616 73.6526 L54.4254 71.9859 L59.1013 71.9859 L59.1013 102.611 L66.7402 102.611 L66.7402 106.546 L46.8329 106.546 L46.8329 102.611 Z" fill="#000000" fill-rule="nonzero" fill-opacity="1" /><path clip-path="url(#clip600)" d="M54.7958 488.281 Q51.1847 488.281 49.356 491.846 Q47.5504 495.387 47.5504 502.517 Q47.5504 509.623 49.356 513.188 Q51.1847 516.73 54.7958 516.73 Q58.43 516.73 60.2356 513.188 Q62.0643 509.623 62.0643 502.517 Q62.0643 495.387 60.2356 491.846 Q58.43 488.281 54.7958 488.281 M54.7958 484.577 Q60.6059 484.577 63.6615 489.184 Q66.7402 493.767 66.7402 502.517 Q66.7402 511.244 63.6615 515.85 Q60.6059 520.433 54.7958 520.433 Q48.9856 520.433 45.9069 515.85 Q42.8514 511.244 42.8514 502.517 Q42.8514 493.767 45.9069 489.184 Q48.9856 484.577 54.7958 484.577 Z" fill="#000000" fill-rule="nonzero" fill-opacity="1" /><path clip-path="url(#clip600)" d="M46.8329 929.043 L54.4717 929.043 L54.4717 902.678 L46.1616 904.344 L46.1616 900.085 L54.4254 898.418 L59.1013 898.418 L59.1013 929.043 L66.7402 929.043 L66.7402 932.978 L46.8329 932.978 L46.8329 929.043 Z" fill="#000000" fill-rule="nonzero" fill-opacity="1" /><path clip-path="url(#clip600)" d="M50.4208 1342.26 L66.7402 1342.26 L66.7402 1346.19 L44.7958 1346.19 L44.7958 1342.26 Q47.4579 1339.5 52.0412 1334.88 Q56.6476 1330.22 57.8282 1328.88 Q60.0735 1326.36 60.9532 1324.62 Q61.8559 1322.86 61.8559 1321.17 Q61.8559 1318.42 59.9115 1316.68 Q57.9902 1314.94 54.8884 1314.94 Q52.6893 1314.94 50.2356 1315.71 Q47.8051 1316.47 45.0273 1318.02 L45.0273 1313.3 Q47.8514 1312.17 50.3051 1311.59 Q52.7588 1311.01 54.7958 1311.01 Q60.1661 1311.01 63.3605 1313.69 Q66.555 1316.38 66.555 1320.87 Q66.555 1323 65.7448 1324.92 Q64.9578 1326.82 62.8513 1329.41 Q62.2726 1330.08 59.1708 1333.3 Q56.0689 1336.5 50.4208 1342.26 Z" fill="#000000" fill-rule="nonzero" fill-opacity="1" /><path clip-path="url(#clip600)" d="M-40.6915 774.565 Q-34.3258 777.048 -32.3842 779.403 Q-30.4427 781.758 -30.4427 785.705 L-30.4427 790.384 L-35.3443 790.384 L-35.3443 786.946 Q-35.3443 784.527 -36.4901 783.191 Q-37.6359 781.854 -41.9009 780.231 L-44.5745 779.18 L-79.6496 793.599 L-79.6496 787.392 L-51.7678 776.252 L-79.6496 765.112 L-79.6496 758.905 L-40.6915 774.565 Z" fill="#000000" fill-rule="nonzero" fill-opacity="1" /><polyline clip-path="url(#clip602)" style="stroke:#000000; stroke-linecap:round; stroke-linejoin:round; stroke-width:4; stroke-opacity:1; fill:none" points="206.194,399.178 227.064,399.178 247.933,399.178 268.803,399.178 289.672,399.178 310.542,399.178 331.411,399.178 352.281,399.178 373.15,399.178 394.02,399.178 414.889,399.178 435.759,399.178 456.628,399.178 477.498,399.178 498.367,399.178 519.237,399.178 540.106,399.178 560.976,399.178 581.845,399.178 602.715,399.178 623.584,399.178 644.454,399.178 665.323,399.178 686.193,399.178 707.062,399.178 727.932,399.178 748.801,399.178 769.671,399.178 790.54,399.178 811.41,399.178 832.279,399.178 853.149,399.178 874.018,399.178 894.888,399.178 915.757,399.178 936.627,399.178 957.496,399.178 978.366,399.178 999.235,399.178 1020.1,399.178 1040.97,399.178 1061.84,399.178 1082.71,399.178 1103.58,399.178 1124.45,399.178 1145.32,399.178 1166.19,399.178 1187.06,399.178 1207.93,399.178 1228.8,399.178 1249.67,399.178 1270.54,399.178 1291.41,399.178 1312.28,399.178 1333.15,399.178 1354.02,399.178 1374.89,399.178 1395.76,399.178 1416.63,399.178 1437.49,399.178 1458.36,399.178 1479.23,399.178 1500.1,399.178 1520.97,399.178 1541.84,399.178 1562.71,399.178 1583.58,399.178 1604.45,399.178 1625.32,399.178 1646.19,399.178 1667.06,399.178 1687.93,399.178 1708.8,399.178 1729.67,399.178 1750.54,399.178 1771.41,399.178 1792.28,399.178 1813.15,399.178 1834.02,399.178 1854.89,399.178 1875.75,399.178 1896.62,399.178 1917.49,399.178 1938.36,399.178 1959.23,399.178 1980.1,399.178 2000.97,399.178 2021.84,399.178 2042.71,399.178 2063.58,399.178 2084.45,399.178 2105.32,399.178 2126.19,399.178 2147.06,399.178 2167.93,399.178 2188.8,399.178 2209.67,399.178 2230.54,399.178 2251.41,399.178 2272.28,399.178 2272.28,502.482 2272.28,709.09 2272.28,812.394 2251.41,812.394 2230.54,812.394 2209.67,812.394 2188.8,812.394 2167.93,812.394 2147.06,812.394 2126.19,812.394 2105.32,812.394 2084.45,812.394 2063.58,812.394 2042.71,812.394 2021.84,812.394 2000.97,812.394 1980.1,812.394 1959.23,812.394 1938.36,812.394 1917.49,812.394 1896.62,812.394 1875.75,812.394 1854.89,812.394 1834.02,812.394 1813.15,812.394 1792.28,812.394 1771.41,812.394 1750.54,812.394 1729.67,812.394 1708.8,812.394 1687.93,812.394 1667.06,812.394 1646.19,812.394 1625.32,812.394 1604.45,812.394 1583.58,812.394 1562.71,812.394 1541.84,812.394 1520.97,812.394 1500.1,812.394 1479.23,812.394 1458.36,812.394 1437.49,812.394 1416.63,812.394 1395.76,812.394 1374.89,812.394 1354.02,812.394 1333.15,812.394 1312.28,812.394 1291.41,812.394 1270.54,812.394 1249.67,812.394 1228.8,812.394 1207.93,812.394 1187.06,812.394 1166.19,812.394 1145.32,812.394 1124.45,812.394 1103.58,812.394 1082.71,812.394 1061.84,812.394 1040.97,812.394 1020.1,812.394 999.235,812.394 978.366,812.394 957.496,812.394 936.627,812.394 915.757,812.394 894.888,812.394 874.018,812.394 853.149,812.394 832.279,812.394 811.41,812.394 790.54,812.394 769.671,812.394 748.801,812.394 727.932,812.394 707.062,812.394 686.193,812.394 665.323,812.394 644.454,812.394 623.584,812.394 602.715,812.394 581.845,812.394 560.976,812.394 540.106,812.394 519.237,812.394 498.367,812.394 477.498,812.394 456.628,812.394 435.759,812.394 414.889,812.394 394.02,812.394 373.15,812.394 352.281,812.394 331.411,812.394 310.542,812.394 289.672,812.394 268.803,812.394 247.933,812.394 227.064,812.394 206.194,812.394 206.194,709.09 206.194,502.482 206.194,399.178 "/>
<polyline clip-path="url(#clip602)" style="stroke:#000000; stroke-linecap:round; stroke-linejoin:round; stroke-width:4; stroke-opacity:1; fill:none" points="190.192,843.46 211.144,838.653 232.098,833.856 253.052,829.069 274.008,824.291 294.965,819.523 315.924,814.764 336.884,810.016 357.846,805.277 378.809,800.548 399.774,795.83 420.741,791.122 441.71,786.424 462.68,781.737 483.653,777.062 504.628,772.397 525.605,767.745 546.585,763.104 567.567,758.475 588.552,753.859 609.54,749.255 630.53,744.665 651.523,740.089 672.519,735.526 693.519,730.978 714.521,726.445 735.527,721.927 756.537,717.426 777.55,712.94 798.567,708.472 819.587,704.021 840.612,699.589 861.64,695.175 882.673,690.781 903.71,686.407 924.752,682.054 945.798,677.722 966.849,673.413 987.905,669.127 1008.97,664.865 1030.03,660.628 1051.1,656.416 1072.18,652.231 1093.26,648.074 1114.35,643.945 1135.44,639.846 1156.54,635.777 1177.65,631.739 1198.76,627.734 1219.88,623.763 1241.01,619.827 1262.14,615.927 1283.28,612.064 1304.43,608.24 1325.58,604.456 1346.74,600.712 1367.91,597.011 1389.09,593.354 1410.27,589.742 1431.47,586.177 1452.67,582.66 1473.88,579.193 1495.1,575.777 1516.32,572.413 1537.56,569.105 1558.81,565.852 1580.06,562.657 1601.32,559.522 1622.6,556.448 1643.88,553.437 1665.18,550.491 1686.48,547.613 1707.8,544.803 1729.13,542.063 1750.46,539.397 1771.81,536.806 1793.17,534.291 1814.54,531.856 1835.93,529.502 1857.32,527.231 1878.73,525.047 1900.15,522.95 1921.58,520.944 1943.03,519.031 1964.49,517.213 1985.96,515.493 2007.44,513.873 2028.94,512.356 2050.46,510.944 2071.98,509.641 2093.53,508.449 2115.08,507.37 2136.65,506.407 2158.24,505.564 2179.84,504.843 2201.46,504.248 2223.09,503.78 2244.74,503.444 2266.41,503.241 2288.09,503.177 2272.28,709.09 2252.21,709.16 2232.12,709.367 2212.02,709.709 2191.9,710.181 2171.76,710.782 2151.61,711.508 2131.45,712.356 2111.27,713.323 2091.07,714.407 2070.86,715.605 2050.64,716.913 2030.4,718.33 2010.15,719.852 1989.88,721.476 1969.61,723.202 1949.31,725.025 1929.01,726.943 1908.69,728.954 1888.36,731.056 1868.02,733.245 1847.66,735.521 1827.29,737.88 1806.92,740.32 1786.53,742.839 1766.12,745.436 1745.71,748.107 1725.29,750.851 1704.85,753.666 1684.41,756.55 1663.96,759.501 1643.49,762.517 1623.02,765.596 1602.53,768.736 1582.04,771.936 1561.53,775.194 1541.02,778.507 1520.5,781.876 1499.97,785.297 1479.43,788.769 1458.88,792.291 1438.33,795.861 1417.76,799.478 1397.19,803.14 1376.61,806.846 1356.03,810.595 1335.43,814.384 1314.83,818.214 1294.22,822.081 1273.61,825.986 1252.99,829.928 1232.36,833.904 1211.72,837.913 1191.08,841.956 1170.43,846.03 1149.78,850.134 1129.12,854.268 1108.46,858.431 1087.79,862.621 1067.11,866.837 1046.43,871.079 1025.75,875.346 1005.06,879.637 984.36,883.952 963.66,888.288 942.955,892.646 922.246,897.025 901.533,901.425 880.816,905.843 860.095,910.281 839.37,914.736 818.641,919.21 797.908,923.7 777.172,928.207 756.433,932.729 735.691,937.268 714.945,941.821 694.196,946.388 673.444,950.97 652.69,955.565 631.933,960.173 611.173,964.794 590.41,969.428 569.646,974.074 548.879,978.732 528.109,983.401 507.338,988.082 486.565,992.774 465.79,997.476 445.013,1002.19 424.234,1006.91 403.453,1011.65 382.672,1016.39 361.888,1021.14 341.103,1025.91 320.317,1030.68 299.53,1035.46 278.741,1040.26 257.952,1045.06 237.161,1049.87 "/>
<polyline clip-path="url(#clip602)" style="stroke:#ff0000; stroke-linecap:round; stroke-linejoin:round; stroke-width:4; stroke-opacity:1; fill:none" points="166.42,740.351 187.423,735.548 208.427,730.754 229.433,725.969 250.441,721.195 271.45,716.43 292.462,711.675 313.476,706.93 334.492,702.195 355.51,697.47 376.531,692.756 397.555,688.052 418.582,683.36 439.613,678.678 460.646,674.007 481.684,669.348 502.725,664.701 523.77,660.066 544.819,655.443 565.872,650.833 586.931,646.236 607.993,641.653 629.061,637.083 650.135,632.528 671.213,627.987 692.298,623.462 713.388,618.952 734.484,614.458 755.587,609.981 776.697,605.522 797.813,601.08 818.936,596.657 840.067,592.253 861.206,587.869 882.352,583.505 903.507,579.162 924.669,574.841 945.841,570.543 967.022,566.268 988.211,562.018 1009.41,557.793 1030.62,553.593 1051.84,549.421 1073.07,545.277 1094.31,541.161 1115.56,537.075 1136.82,533.02 1158.1,528.997 1179.38,525.007 1200.68,521.051 1221.99,517.13 1243.31,513.245 1264.65,509.399 1286,505.591 1307.36,501.823 1328.74,498.097 1350.13,494.413 1371.54,490.774 1392.96,487.181 1414.4,483.634 1435.86,480.136 1457.33,476.688 1478.81,473.292 1500.32,469.949 1521.84,466.661 1543.38,463.429 1564.93,460.256 1586.51,457.143 1608.1,454.091 1629.71,451.103 1651.35,448.181 1673,445.325 1694.67,442.54 1716.37,439.825 1738.08,437.184 1759.82,434.618 1781.57,432.129 1803.36,429.72 1825.16,427.393 1846.99,425.15 1868.84,422.993 1890.71,420.925 1912.61,418.947 1934.53,417.063 1956.48,415.275 1978.46,413.585 2000.46,411.996 2022.49,410.51 2044.54,409.13 2066.63,407.859 2088.74,406.7 2110.88,405.654 2133.04,404.725 2155.24,403.917 2177.47,403.231 2199.73,402.67 2222.02,402.238 2244.34,401.938 2266.69,401.773 2289.08,401.746 2288.09,503.177 2272.28,709.09 2271.32,814.116 2251.95,814.15 2232.55,814.321 2213.12,814.627 2193.66,815.065 2174.17,815.631 2154.64,816.323 2135.09,817.138 2115.5,818.073 2095.89,819.125 2076.25,820.29 2056.58,821.568 2036.89,822.954 2017.16,824.445 1997.41,826.041 1977.64,827.737 1957.84,829.531 1938.01,831.421 1918.16,833.405 1898.28,835.479 1878.38,837.642 1858.46,839.891 1838.51,842.225 1818.54,844.64 1798.55,847.134 1778.54,849.706 1758.5,852.354 1738.45,855.075 1718.37,857.867 1698.27,860.728 1678.15,863.656 1658.02,866.651 1637.86,869.708 1617.69,872.828 1597.5,876.007 1577.28,879.245 1557.06,882.539 1536.81,885.888 1516.55,889.29 1496.27,892.744 1475.98,896.248 1455.66,899.801 1435.34,903.401 1415,907.046 1394.64,910.736 1374.27,914.468 1353.89,918.242 1333.49,922.056 1313.08,925.909 1292.65,929.799 1272.22,933.726 1251.77,937.688 1231.31,941.684 1210.83,945.714 1190.35,949.775 1169.85,953.867 1149.35,957.989 1128.83,962.139 1108.3,966.318 1087.76,970.523 1067.21,974.754 1046.66,979.011 1026.09,983.292 1005.52,987.596 984.934,991.923 964.342,996.272 943.742,1000.64 923.135,1005.03 902.52,1009.44 881.897,1013.87 861.268,1018.32 840.632,1022.79 819.989,1027.27 799.34,1031.77 778.685,1036.28 758.025,1040.82 737.358,1045.36 716.686,1049.92 696.009,1054.5 675.327,1059.09 654.641,1063.69 633.95,1068.31 613.255,1072.94 592.555,1077.58 571.852,1082.23 551.145,1086.9 530.434,1091.57 509.721,1096.26 489.004,1100.96 468.284,1105.67 447.561,1110.39 426.836,1115.12 406.108,1119.86 385.379,1124.61 364.647,1129.37 343.913,1134.14 323.178,1138.93 302.44,1143.72 281.702,1148.52 260.962,1153.33 237.161,1049.87 190.192,843.46 166.42,740.351 "/>
<polyline clip-path="url(#clip602)" style="stroke:#ff0000; stroke-linecap:round; stroke-linejoin:round; stroke-width:4; stroke-opacity:1; fill:none" points="190.192,843.46 211.144,838.653 232.098,833.856 253.052,829.069 274.008,824.291 294.965,819.523 315.924,814.764 336.884,810.016 357.846,805.277 378.809,800.548 399.774,795.83 420.741,791.122 441.71,786.424 462.68,781.737 483.653,777.062 504.628,772.397 525.605,767.745 546.585,763.104 567.567,758.475 588.552,753.859 609.54,749.255 630.53,744.665 651.523,740.089 672.519,735.526 693.519,730.978 714.521,726.445 735.527,721.927 756.537,717.426 777.55,712.94 798.567,708.472 819.587,704.021 840.612,699.589 861.64,695.175 882.673,690.781 903.71,686.407 924.752,682.054 945.798,677.722 966.849,673.413 987.905,669.127 1008.97,664.865 1030.03,660.628 1051.1,656.416 1072.18,652.231 1093.26,648.074 1114.35,643.945 1135.44,639.846 1156.54,635.777 1177.65,631.739 1198.76,627.734 1219.88,623.763 1241.01,619.827 1262.14,615.927 1283.28,612.064 1304.43,608.24 1325.58,604.456 1346.74,600.712 1367.91,597.011 1389.09,593.354 1410.27,589.742 1431.47,586.177 1452.67,582.66 1473.88,579.193 1495.1,575.777 1516.32,572.413 1537.56,569.105 1558.81,565.852 1580.06,562.657 1601.32,559.522 1622.6,556.448 1643.88,553.437 1665.18,550.491 1686.48,547.613 1707.8,544.803 1729.13,542.063 1750.46,539.397 1771.81,536.806 1793.17,534.291 1814.54,531.856 1835.93,529.502 1857.32,527.231 1878.73,525.047 1900.15,522.95 1921.58,520.944 1943.03,519.031 1964.49,517.213 1985.96,515.493 2007.44,513.873 2028.94,512.356 2050.46,510.944 2071.98,509.641 2093.53,508.449 2115.08,507.37 2136.65,506.407 2158.24,505.564 2179.84,504.843 2201.46,504.248 2223.09,503.78 2244.74,503.444 2266.41,503.241 2288.09,503.177 2272.28,709.09 2252.21,709.16 2232.12,709.367 2212.02,709.709 2191.9,710.181 2171.76,710.782 2151.61,711.508 2131.45,712.356 2111.27,713.323 2091.07,714.407 2070.86,715.605 2050.64,716.913 2030.4,718.33 2010.15,719.852 1989.88,721.476 1969.61,723.202 1949.31,725.025 1929.01,726.943 1908.69,728.954 1888.36,731.056 1868.02,733.245 1847.66,735.521 1827.29,737.88 1806.92,740.32 1786.53,742.839 1766.12,745.436 1745.71,748.107 1725.29,750.851 1704.85,753.666 1684.41,756.55 1663.96,759.501 1643.49,762.517 1623.02,765.596 1602.53,768.736 1582.04,771.936 1561.53,775.194 1541.02,778.507 1520.5,781.876 1499.97,785.297 1479.43,788.769 1458.88,792.291 1438.33,795.861 1417.76,799.478 1397.19,803.14 1376.61,806.846 1356.03,810.595 1335.43,814.384 1314.83,818.214 1294.22,822.081 1273.61,825.986 1252.99,829.928 1232.36,833.904 1211.72,837.913 1191.08,841.956 1170.43,846.03 1149.78,850.134 1129.12,854.268 1108.46,858.431 1087.79,862.621 1067.11,866.837 1046.43,871.079 1025.75,875.346 1005.06,879.637 984.36,883.952 963.66,888.288 942.955,892.646 922.246,897.025 901.533,901.425 880.816,905.843 860.095,910.281 839.37,914.736 818.641,919.21 797.908,923.7 777.172,928.207 756.433,932.729 735.691,937.268 714.945,941.821 694.196,946.388 673.444,950.97 652.69,955.565 631.933,960.173 611.173,964.794 590.41,969.428 569.646,974.074 548.879,978.732 528.109,983.401 507.338,988.082 486.565,992.774 465.79,997.476 445.013,1002.19 424.234,1006.91 403.453,1011.65 382.672,1016.39 361.888,1021.14 341.103,1025.91 320.317,1030.68 299.53,1035.46 278.741,1040.26 257.952,1045.06 237.161,1049.87 "/>
<path clip-path="url(#clip600)" d="M1521.11 251.365 L2277.76 251.365 L2277.76 95.8446 L1521.11 95.8446  Z" fill="#ffffff" fill-rule="evenodd" fill-opacity="1"/>
<polyline clip-path="url(#clip600)" style="stroke:#000000; stroke-linecap:round; stroke-linejoin:round; stroke-width:4; stroke-opacity:1; fill:none" points="1521.11,251.365 2277.76,251.365 2277.76,95.8446 1521.11,95.8446 1521.11,251.365 "/>
<polyline clip-path="url(#clip600)" style="stroke:#000000; stroke-linecap:round; stroke-linejoin:round; stroke-width:4; stroke-opacity:1; fill:none" points="1546.11,147.685 1696.11,147.685 "/>
<path clip-path="url(#clip600)" d="M1721.11 130.405 L1725.81 130.405 L1725.81 151.4 Q1725.81 156.955 1727.83 159.409 Q1729.84 161.84 1734.36 161.84 Q1738.85 161.84 1740.86 159.409 Q1742.87 156.955 1742.87 151.4 L1742.87 130.405 L1747.57 130.405 L1747.57 151.979 Q1747.57 158.738 1744.22 162.187 Q1740.88 165.636 1734.36 165.636 Q1727.8 165.636 1724.45 162.187 Q1721.11 158.738 1721.11 151.979 L1721.11 130.405 Z" fill="#000000" fill-rule="nonzero" fill-opacity="1" /><path clip-path="url(#clip600)" d="M1777.71 149.317 L1777.71 164.965 L1773.45 164.965 L1773.45 149.455 Q1773.45 145.775 1772.02 143.946 Q1770.58 142.118 1767.71 142.118 Q1764.26 142.118 1762.27 144.317 Q1760.28 146.516 1760.28 150.312 L1760.28 164.965 L1756 164.965 L1756 139.039 L1760.28 139.039 L1760.28 143.067 Q1761.81 140.729 1763.87 139.571 Q1765.95 138.414 1768.66 138.414 Q1773.13 138.414 1775.42 141.192 Q1777.71 143.946 1777.71 149.317 Z" fill="#000000" fill-rule="nonzero" fill-opacity="1" /><path clip-path="url(#clip600)" d="M1803.27 142.974 L1803.27 128.946 L1807.53 128.946 L1807.53 164.965 L1803.27 164.965 L1803.27 161.076 Q1801.92 163.391 1799.86 164.525 Q1797.83 165.636 1794.96 165.636 Q1790.26 165.636 1787.29 161.886 Q1784.35 158.136 1784.35 152.025 Q1784.35 145.914 1787.29 142.164 Q1790.26 138.414 1794.96 138.414 Q1797.83 138.414 1799.86 139.548 Q1801.92 140.659 1803.27 142.974 M1788.75 152.025 Q1788.75 156.724 1790.67 159.409 Q1792.62 162.071 1796 162.071 Q1799.38 162.071 1801.32 159.409 Q1803.27 156.724 1803.27 152.025 Q1803.27 147.326 1801.32 144.664 Q1799.38 141.979 1796 141.979 Q1792.62 141.979 1790.67 144.664 Q1788.75 147.326 1788.75 152.025 Z" fill="#000000" fill-rule="nonzero" fill-opacity="1" /><path clip-path="url(#clip600)" d="M1838.48 150.937 L1838.48 153.02 L1818.89 153.02 Q1819.17 157.418 1821.53 159.733 Q1823.91 162.025 1828.15 162.025 Q1830.6 162.025 1832.9 161.423 Q1835.21 160.821 1837.48 159.617 L1837.48 163.645 Q1835.19 164.617 1832.78 165.127 Q1830.37 165.636 1827.9 165.636 Q1821.69 165.636 1818.06 162.025 Q1814.45 158.414 1814.45 152.256 Q1814.45 145.891 1817.87 142.164 Q1821.32 138.414 1827.16 138.414 Q1832.39 138.414 1835.42 141.793 Q1838.48 145.15 1838.48 150.937 M1834.22 149.687 Q1834.17 146.192 1832.25 144.108 Q1830.35 142.025 1827.2 142.025 Q1823.64 142.025 1821.48 144.039 Q1819.35 146.053 1819.03 149.71 L1834.22 149.687 Z" fill="#000000" fill-rule="nonzero" fill-opacity="1" /><path clip-path="url(#clip600)" d="M1858.59 128.946 L1858.59 132.488 L1854.52 132.488 Q1852.22 132.488 1851.32 133.414 Q1850.44 134.34 1850.44 136.747 L1850.44 139.039 L1857.46 139.039 L1857.46 142.349 L1850.44 142.349 L1850.44 164.965 L1846.16 164.965 L1846.16 142.349 L1842.09 142.349 L1842.09 139.039 L1846.16 139.039 L1846.16 137.233 Q1846.16 132.905 1848.17 130.937 Q1850.19 128.946 1854.56 128.946 L1858.59 128.946 Z" fill="#000000" fill-rule="nonzero" fill-opacity="1" /><path clip-path="url(#clip600)" d="M1872.2 142.025 Q1868.78 142.025 1866.79 144.71 Q1864.79 147.372 1864.79 152.025 Q1864.79 156.678 1866.76 159.363 Q1868.75 162.025 1872.2 162.025 Q1875.6 162.025 1877.6 159.34 Q1879.59 156.654 1879.59 152.025 Q1879.59 147.418 1877.6 144.733 Q1875.6 142.025 1872.2 142.025 M1872.2 138.414 Q1877.76 138.414 1880.93 142.025 Q1884.1 145.636 1884.1 152.025 Q1884.1 158.391 1880.93 162.025 Q1877.76 165.636 1872.2 165.636 Q1866.62 165.636 1863.45 162.025 Q1860.3 158.391 1860.3 152.025 Q1860.3 145.636 1863.45 142.025 Q1866.62 138.414 1872.2 138.414 Z" fill="#000000" fill-rule="nonzero" fill-opacity="1" /><path clip-path="url(#clip600)" d="M1906.18 143.02 Q1905.47 142.604 1904.61 142.418 Q1903.78 142.21 1902.76 142.21 Q1899.15 142.21 1897.2 144.571 Q1895.28 146.909 1895.28 151.307 L1895.28 164.965 L1891 164.965 L1891 139.039 L1895.28 139.039 L1895.28 143.067 Q1896.62 140.705 1898.78 139.571 Q1900.93 138.414 1904.01 138.414 Q1904.45 138.414 1904.98 138.483 Q1905.51 138.53 1906.16 138.645 L1906.18 143.02 Z" fill="#000000" fill-rule="nonzero" fill-opacity="1" /><path clip-path="url(#clip600)" d="M1930 144.016 Q1931.6 141.145 1933.82 139.78 Q1936.04 138.414 1939.05 138.414 Q1943.1 138.414 1945.3 141.261 Q1947.5 144.085 1947.5 149.317 L1947.5 164.965 L1943.22 164.965 L1943.22 149.455 Q1943.22 145.729 1941.9 143.923 Q1940.58 142.118 1937.87 142.118 Q1934.56 142.118 1932.64 144.317 Q1930.72 146.516 1930.72 150.312 L1930.72 164.965 L1926.44 164.965 L1926.44 149.455 Q1926.44 145.705 1925.12 143.923 Q1923.8 142.118 1921.04 142.118 Q1917.78 142.118 1915.86 144.34 Q1913.94 146.539 1913.94 150.312 L1913.94 164.965 L1909.66 164.965 L1909.66 139.039 L1913.94 139.039 L1913.94 143.067 Q1915.4 140.682 1917.43 139.548 Q1919.47 138.414 1922.27 138.414 Q1925.09 138.414 1927.06 139.849 Q1929.05 141.284 1930 144.016 Z" fill="#000000" fill-rule="nonzero" fill-opacity="1" /><path clip-path="url(#clip600)" d="M1978.17 150.937 L1978.17 153.02 L1958.59 153.02 Q1958.87 157.418 1961.23 159.733 Q1963.61 162.025 1967.85 162.025 Q1970.3 162.025 1972.59 161.423 Q1974.91 160.821 1977.18 159.617 L1977.18 163.645 Q1974.89 164.617 1972.48 165.127 Q1970.07 165.636 1967.59 165.636 Q1961.39 165.636 1957.76 162.025 Q1954.15 158.414 1954.15 152.256 Q1954.15 145.891 1957.57 142.164 Q1961.02 138.414 1966.85 138.414 Q1972.09 138.414 1975.12 141.793 Q1978.17 145.15 1978.17 150.937 M1973.91 149.687 Q1973.87 146.192 1971.95 144.108 Q1970.05 142.025 1966.9 142.025 Q1963.34 142.025 1961.18 144.039 Q1959.05 146.053 1958.73 149.71 L1973.91 149.687 Z" fill="#000000" fill-rule="nonzero" fill-opacity="1" /><path clip-path="url(#clip600)" d="M2002.22 142.974 L2002.22 128.946 L2006.48 128.946 L2006.48 164.965 L2002.22 164.965 L2002.22 161.076 Q2000.88 163.391 1998.82 164.525 Q1996.78 165.636 1993.91 165.636 Q1989.21 165.636 1986.25 161.886 Q1983.31 158.136 1983.31 152.025 Q1983.31 145.914 1986.25 142.164 Q1989.21 138.414 1993.91 138.414 Q1996.78 138.414 1998.82 139.548 Q2000.88 140.659 2002.22 142.974 M1987.71 152.025 Q1987.71 156.724 1989.63 159.409 Q1991.58 162.071 1994.96 162.071 Q1998.34 162.071 2000.28 159.409 Q2002.22 156.724 2002.22 152.025 Q2002.22 147.326 2000.28 144.664 Q1998.34 141.979 1994.96 141.979 Q1991.58 141.979 1989.63 144.664 Q1987.71 147.326 1987.71 152.025 Z" fill="#000000" fill-rule="nonzero" fill-opacity="1" /><path clip-path="url(#clip600)" d="M2035.19 148.46 L2035.19 161.122 L2042.69 161.122 Q2046.46 161.122 2048.27 159.571 Q2050.09 157.997 2050.09 154.779 Q2050.09 151.539 2048.27 150.011 Q2046.46 148.46 2042.69 148.46 L2035.19 148.46 M2035.19 134.247 L2035.19 144.664 L2042.11 144.664 Q2045.53 144.664 2047.2 143.391 Q2048.89 142.094 2048.89 139.455 Q2048.89 136.84 2047.2 135.543 Q2045.53 134.247 2042.11 134.247 L2035.19 134.247 M2030.51 130.405 L2042.46 130.405 Q2047.8 130.405 2050.7 132.627 Q2053.59 134.849 2053.59 138.946 Q2053.59 142.118 2052.11 143.993 Q2050.63 145.867 2047.76 146.33 Q2051.21 147.071 2053.1 149.432 Q2055.02 151.77 2055.02 155.289 Q2055.02 159.918 2051.88 162.441 Q2048.73 164.965 2042.92 164.965 L2030.51 164.965 L2030.51 130.405 Z" fill="#000000" fill-rule="nonzero" fill-opacity="1" /><path clip-path="url(#clip600)" d="M2072.9 142.025 Q2069.47 142.025 2067.48 144.71 Q2065.49 147.372 2065.49 152.025 Q2065.49 156.678 2067.46 159.363 Q2069.45 162.025 2072.9 162.025 Q2076.3 162.025 2078.29 159.34 Q2080.28 156.654 2080.28 152.025 Q2080.28 147.418 2078.29 144.733 Q2076.3 142.025 2072.9 142.025 M2072.9 138.414 Q2078.45 138.414 2081.62 142.025 Q2084.79 145.636 2084.79 152.025 Q2084.79 158.391 2081.62 162.025 Q2078.45 165.636 2072.9 165.636 Q2067.32 165.636 2064.15 162.025 Q2061 158.391 2061 152.025 Q2061 145.636 2064.15 142.025 Q2067.32 138.414 2072.9 138.414 Z" fill="#000000" fill-rule="nonzero" fill-opacity="1" /><path clip-path="url(#clip600)" d="M2091.41 154.733 L2091.41 139.039 L2095.67 139.039 L2095.67 154.571 Q2095.67 158.252 2097.11 160.104 Q2098.54 161.932 2101.41 161.932 Q2104.86 161.932 2106.85 159.733 Q2108.87 157.534 2108.87 153.738 L2108.87 139.039 L2113.13 139.039 L2113.13 164.965 L2108.87 164.965 L2108.87 160.983 Q2107.32 163.344 2105.26 164.502 Q2103.22 165.636 2100.51 165.636 Q2096.04 165.636 2093.73 162.858 Q2091.41 160.08 2091.41 154.733 M2102.13 138.414 L2102.13 138.414 Z" fill="#000000" fill-rule="nonzero" fill-opacity="1" /><path clip-path="url(#clip600)" d="M2143.45 149.317 L2143.45 164.965 L2139.19 164.965 L2139.19 149.455 Q2139.19 145.775 2137.76 143.946 Q2136.32 142.118 2133.45 142.118 Q2130 142.118 2128.01 144.317 Q2126.02 146.516 2126.02 150.312 L2126.02 164.965 L2121.74 164.965 L2121.74 139.039 L2126.02 139.039 L2126.02 143.067 Q2127.55 140.729 2129.61 139.571 Q2131.69 138.414 2134.4 138.414 Q2138.87 138.414 2141.16 141.192 Q2143.45 143.946 2143.45 149.317 Z" fill="#000000" fill-rule="nonzero" fill-opacity="1" /><path clip-path="url(#clip600)" d="M2169.01 142.974 L2169.01 128.946 L2173.26 128.946 L2173.26 164.965 L2169.01 164.965 L2169.01 161.076 Q2167.66 163.391 2165.6 164.525 Q2163.57 165.636 2160.7 165.636 Q2156 165.636 2153.03 161.886 Q2150.09 158.136 2150.09 152.025 Q2150.09 145.914 2153.03 142.164 Q2156 138.414 2160.7 138.414 Q2163.57 138.414 2165.6 139.548 Q2167.66 140.659 2169.01 142.974 M2154.49 152.025 Q2154.49 156.724 2156.41 159.409 Q2158.36 162.071 2161.74 162.071 Q2165.12 162.071 2167.06 159.409 Q2169.01 156.724 2169.01 152.025 Q2169.01 147.326 2167.06 144.664 Q2165.12 141.979 2161.74 141.979 Q2158.36 141.979 2156.41 144.664 Q2154.49 147.326 2154.49 152.025 Z" fill="#000000" fill-rule="nonzero" fill-opacity="1" /><path clip-path="url(#clip600)" d="M2193.82 151.932 Q2188.66 151.932 2186.67 153.113 Q2184.68 154.293 2184.68 157.141 Q2184.68 159.409 2186.16 160.752 Q2187.66 162.071 2190.23 162.071 Q2193.77 162.071 2195.9 159.571 Q2198.06 157.048 2198.06 152.881 L2198.06 151.932 L2193.82 151.932 M2202.32 150.173 L2202.32 164.965 L2198.06 164.965 L2198.06 161.029 Q2196.6 163.391 2194.42 164.525 Q2192.25 165.636 2189.1 165.636 Q2185.12 165.636 2182.76 163.414 Q2180.42 161.168 2180.42 157.418 Q2180.42 153.043 2183.33 150.821 Q2186.27 148.599 2192.08 148.599 L2198.06 148.599 L2198.06 148.182 Q2198.06 145.243 2196.11 143.645 Q2194.19 142.025 2190.7 142.025 Q2188.47 142.025 2186.37 142.557 Q2184.26 143.09 2182.32 144.155 L2182.32 140.219 Q2184.65 139.317 2186.85 138.877 Q2189.05 138.414 2191.14 138.414 Q2196.76 138.414 2199.54 141.33 Q2202.32 144.247 2202.32 150.173 Z" fill="#000000" fill-rule="nonzero" fill-opacity="1" /><path clip-path="url(#clip600)" d="M2226.11 143.02 Q2225.39 142.604 2224.54 142.418 Q2223.7 142.21 2222.69 142.21 Q2219.07 142.21 2217.13 144.571 Q2215.21 146.909 2215.21 151.307 L2215.21 164.965 L2210.93 164.965 L2210.93 139.039 L2215.21 139.039 L2215.21 143.067 Q2216.55 140.705 2218.7 139.571 Q2220.86 138.414 2223.94 138.414 Q2224.38 138.414 2224.91 138.483 Q2225.44 138.53 2226.09 138.645 L2226.11 143.02 Z" fill="#000000" fill-rule="nonzero" fill-opacity="1" /><path clip-path="url(#clip600)" d="M2241.37 167.372 Q2239.56 172.002 2237.85 173.414 Q2236.13 174.826 2233.26 174.826 L2229.86 174.826 L2229.86 171.261 L2232.36 171.261 Q2234.12 171.261 2235.09 170.428 Q2236.07 169.594 2237.25 166.492 L2238.01 164.548 L2227.52 139.039 L2232.04 139.039 L2240.14 159.317 L2248.24 139.039 L2252.76 139.039 L2241.37 167.372 Z" fill="#000000" fill-rule="nonzero" fill-opacity="1" /><polyline clip-path="url(#clip600)" style="stroke:#ff0000; stroke-linecap:round; stroke-linejoin:round; stroke-width:4; stroke-opacity:1; fill:none" points="1546.11,199.525 1696.11,199.525 "/>
<path clip-path="url(#clip600)" d="M1725.79 186.087 L1725.79 212.962 L1731.44 212.962 Q1738.59 212.962 1741.9 209.721 Q1745.23 206.481 1745.23 199.49 Q1745.23 192.545 1741.9 189.328 Q1738.59 186.087 1731.44 186.087 L1725.79 186.087 M1721.11 182.245 L1730.72 182.245 Q1740.77 182.245 1745.47 186.434 Q1750.17 190.601 1750.17 199.49 Q1750.17 208.425 1745.44 212.615 Q1740.72 216.805 1730.72 216.805 L1721.11 216.805 L1721.11 182.245 Z" fill="#000000" fill-rule="nonzero" fill-opacity="1" /><path clip-path="url(#clip600)" d="M1779.61 202.777 L1779.61 204.86 L1760.03 204.86 Q1760.3 209.258 1762.67 211.573 Q1765.05 213.865 1769.29 213.865 Q1771.74 213.865 1774.03 213.263 Q1776.35 212.661 1778.61 211.457 L1778.61 215.485 Q1776.32 216.457 1773.92 216.967 Q1771.51 217.476 1769.03 217.476 Q1762.83 217.476 1759.19 213.865 Q1755.58 210.254 1755.58 204.096 Q1755.58 197.731 1759.01 194.004 Q1762.46 190.254 1768.29 190.254 Q1773.52 190.254 1776.55 193.633 Q1779.61 196.99 1779.61 202.777 M1775.35 201.527 Q1775.3 198.032 1773.38 195.948 Q1771.48 193.865 1768.34 193.865 Q1764.77 193.865 1762.62 195.879 Q1760.49 197.893 1760.17 201.55 L1775.35 201.527 Z" fill="#000000" fill-rule="nonzero" fill-opacity="1" /><path clip-path="url(#clip600)" d="M1799.73 180.786 L1799.73 184.328 L1795.65 184.328 Q1793.36 184.328 1792.46 185.254 Q1791.58 186.18 1791.58 188.587 L1791.58 190.879 L1798.59 190.879 L1798.59 194.189 L1791.58 194.189 L1791.58 216.805 L1787.29 216.805 L1787.29 194.189 L1783.22 194.189 L1783.22 190.879 L1787.29 190.879 L1787.29 189.073 Q1787.29 184.745 1789.31 182.777 Q1791.32 180.786 1795.7 180.786 L1799.73 180.786 Z" fill="#000000" fill-rule="nonzero" fill-opacity="1" /><path clip-path="url(#clip600)" d="M1813.34 193.865 Q1809.91 193.865 1807.92 196.55 Q1805.93 199.212 1805.93 203.865 Q1805.93 208.518 1807.9 211.203 Q1809.89 213.865 1813.34 213.865 Q1816.74 213.865 1818.73 211.18 Q1820.72 208.494 1820.72 203.865 Q1820.72 199.258 1818.73 196.573 Q1816.74 193.865 1813.34 193.865 M1813.34 190.254 Q1818.89 190.254 1822.06 193.865 Q1825.23 197.476 1825.23 203.865 Q1825.23 210.231 1822.06 213.865 Q1818.89 217.476 1813.34 217.476 Q1807.76 217.476 1804.59 213.865 Q1801.44 210.231 1801.44 203.865 Q1801.44 197.476 1804.59 193.865 Q1807.76 190.254 1813.34 190.254 Z" fill="#000000" fill-rule="nonzero" fill-opacity="1" /><path clip-path="url(#clip600)" d="M1847.32 194.86 Q1846.6 194.444 1845.74 194.258 Q1844.91 194.05 1843.89 194.05 Q1840.28 194.05 1838.34 196.411 Q1836.41 198.749 1836.41 203.147 L1836.41 216.805 L1832.13 216.805 L1832.13 190.879 L1836.41 190.879 L1836.41 194.907 Q1837.76 192.545 1839.91 191.411 Q1842.06 190.254 1845.14 190.254 Q1845.58 190.254 1846.11 190.323 Q1846.65 190.37 1847.29 190.485 L1847.32 194.86 Z" fill="#000000" fill-rule="nonzero" fill-opacity="1" /><path clip-path="url(#clip600)" d="M1871.14 195.856 Q1872.73 192.985 1874.96 191.62 Q1877.18 190.254 1880.19 190.254 Q1884.24 190.254 1886.44 193.101 Q1888.64 195.925 1888.64 201.157 L1888.64 216.805 L1884.35 216.805 L1884.35 201.295 Q1884.35 197.569 1883.03 195.763 Q1881.72 193.958 1879.01 193.958 Q1875.7 193.958 1873.78 196.157 Q1871.85 198.356 1871.85 202.152 L1871.85 216.805 L1867.57 216.805 L1867.57 201.295 Q1867.57 197.545 1866.25 195.763 Q1864.93 193.958 1862.18 193.958 Q1858.91 193.958 1856.99 196.18 Q1855.07 198.379 1855.07 202.152 L1855.07 216.805 L1850.79 216.805 L1850.79 190.879 L1855.07 190.879 L1855.07 194.907 Q1856.53 192.522 1858.57 191.388 Q1860.6 190.254 1863.41 190.254 Q1866.23 190.254 1868.2 191.689 Q1870.19 193.124 1871.14 195.856 Z" fill="#000000" fill-rule="nonzero" fill-opacity="1" /><path clip-path="url(#clip600)" d="M1919.31 202.777 L1919.31 204.86 L1899.72 204.86 Q1900 209.258 1902.36 211.573 Q1904.75 213.865 1908.98 213.865 Q1911.44 213.865 1913.73 213.263 Q1916.04 212.661 1918.31 211.457 L1918.31 215.485 Q1916.02 216.457 1913.61 216.967 Q1911.21 217.476 1908.73 217.476 Q1902.53 217.476 1898.89 213.865 Q1895.28 210.254 1895.28 204.096 Q1895.28 197.731 1898.71 194.004 Q1902.16 190.254 1907.99 190.254 Q1913.22 190.254 1916.25 193.633 Q1919.31 196.99 1919.31 202.777 M1915.05 201.527 Q1915 198.032 1913.08 195.948 Q1911.18 193.865 1908.03 193.865 Q1904.47 193.865 1902.32 195.879 Q1900.19 197.893 1899.86 201.55 L1915.05 201.527 Z" fill="#000000" fill-rule="nonzero" fill-opacity="1" /><path clip-path="url(#clip600)" d="M1943.36 194.814 L1943.36 180.786 L1947.62 180.786 L1947.62 216.805 L1943.36 216.805 L1943.36 212.916 Q1942.02 215.231 1939.96 216.365 Q1937.92 217.476 1935.05 217.476 Q1930.35 217.476 1927.39 213.726 Q1924.45 209.976 1924.45 203.865 Q1924.45 197.754 1927.39 194.004 Q1930.35 190.254 1935.05 190.254 Q1937.92 190.254 1939.96 191.388 Q1942.02 192.499 1943.36 194.814 M1928.84 203.865 Q1928.84 208.564 1930.77 211.249 Q1932.71 213.911 1936.09 213.911 Q1939.47 213.911 1941.41 211.249 Q1943.36 208.564 1943.36 203.865 Q1943.36 199.166 1941.41 196.504 Q1939.47 193.819 1936.09 193.819 Q1932.71 193.819 1930.77 196.504 Q1928.84 199.166 1928.84 203.865 Z" fill="#000000" fill-rule="nonzero" fill-opacity="1" /><path clip-path="url(#clip600)" d="M1976.32 200.3 L1976.32 212.962 L1983.82 212.962 Q1987.59 212.962 1989.4 211.411 Q1991.23 209.837 1991.23 206.619 Q1991.23 203.379 1989.4 201.851 Q1987.59 200.3 1983.82 200.3 L1976.32 200.3 M1976.32 186.087 L1976.32 196.504 L1983.24 196.504 Q1986.67 196.504 1988.34 195.231 Q1990.03 193.934 1990.03 191.295 Q1990.03 188.68 1988.34 187.383 Q1986.67 186.087 1983.24 186.087 L1976.32 186.087 M1971.65 182.245 L1983.59 182.245 Q1988.94 182.245 1991.83 184.467 Q1994.72 186.689 1994.72 190.786 Q1994.72 193.958 1993.24 195.833 Q1991.76 197.707 1988.89 198.17 Q1992.34 198.911 1994.24 201.272 Q1996.16 203.61 1996.16 207.129 Q1996.16 211.758 1993.01 214.281 Q1989.86 216.805 1984.05 216.805 L1971.65 216.805 L1971.65 182.245 Z" fill="#000000" fill-rule="nonzero" fill-opacity="1" /><path clip-path="url(#clip600)" d="M2014.03 193.865 Q2010.6 193.865 2008.61 196.55 Q2006.62 199.212 2006.62 203.865 Q2006.62 208.518 2008.59 211.203 Q2010.58 213.865 2014.03 213.865 Q2017.43 213.865 2019.42 211.18 Q2021.41 208.494 2021.41 203.865 Q2021.41 199.258 2019.42 196.573 Q2017.43 193.865 2014.03 193.865 M2014.03 190.254 Q2019.59 190.254 2022.76 193.865 Q2025.93 197.476 2025.93 203.865 Q2025.93 210.231 2022.76 213.865 Q2019.59 217.476 2014.03 217.476 Q2008.45 217.476 2005.28 213.865 Q2002.13 210.231 2002.13 203.865 Q2002.13 197.476 2005.28 193.865 Q2008.45 190.254 2014.03 190.254 Z" fill="#000000" fill-rule="nonzero" fill-opacity="1" /><path clip-path="url(#clip600)" d="M2032.55 206.573 L2032.55 190.879 L2036.81 190.879 L2036.81 206.411 Q2036.81 210.092 2038.24 211.944 Q2039.68 213.772 2042.55 213.772 Q2046 213.772 2047.99 211.573 Q2050 209.374 2050 205.578 L2050 190.879 L2054.26 190.879 L2054.26 216.805 L2050 216.805 L2050 212.823 Q2048.45 215.184 2046.39 216.342 Q2044.35 217.476 2041.65 217.476 Q2037.18 217.476 2034.86 214.698 Q2032.55 211.92 2032.55 206.573 M2043.27 190.254 L2043.27 190.254 Z" fill="#000000" fill-rule="nonzero" fill-opacity="1" /><path clip-path="url(#clip600)" d="M2084.58 201.157 L2084.58 216.805 L2080.33 216.805 L2080.33 201.295 Q2080.33 197.615 2078.89 195.786 Q2077.46 193.958 2074.58 193.958 Q2071.14 193.958 2069.15 196.157 Q2067.15 198.356 2067.15 202.152 L2067.15 216.805 L2062.87 216.805 L2062.87 190.879 L2067.15 190.879 L2067.15 194.907 Q2068.68 192.569 2070.74 191.411 Q2072.83 190.254 2075.53 190.254 Q2080 190.254 2082.29 193.032 Q2084.58 195.786 2084.58 201.157 Z" fill="#000000" fill-rule="nonzero" fill-opacity="1" /><path clip-path="url(#clip600)" d="M2110.14 194.814 L2110.14 180.786 L2114.4 180.786 L2114.4 216.805 L2110.14 216.805 L2110.14 212.916 Q2108.8 215.231 2106.74 216.365 Q2104.7 217.476 2101.83 217.476 Q2097.13 217.476 2094.17 213.726 Q2091.23 209.976 2091.23 203.865 Q2091.23 197.754 2094.17 194.004 Q2097.13 190.254 2101.83 190.254 Q2104.7 190.254 2106.74 191.388 Q2108.8 192.499 2110.14 194.814 M2095.63 203.865 Q2095.63 208.564 2097.55 211.249 Q2099.49 213.911 2102.87 213.911 Q2106.25 213.911 2108.2 211.249 Q2110.14 208.564 2110.14 203.865 Q2110.14 199.166 2108.2 196.504 Q2106.25 193.819 2102.87 193.819 Q2099.49 193.819 2097.55 196.504 Q2095.63 199.166 2095.63 203.865 Z" fill="#000000" fill-rule="nonzero" fill-opacity="1" /><path clip-path="url(#clip600)" d="M2134.95 203.772 Q2129.79 203.772 2127.8 204.953 Q2125.81 206.133 2125.81 208.981 Q2125.81 211.249 2127.29 212.592 Q2128.8 213.911 2131.37 213.911 Q2134.91 213.911 2137.04 211.411 Q2139.19 208.888 2139.19 204.721 L2139.19 203.772 L2134.95 203.772 M2143.45 202.013 L2143.45 216.805 L2139.19 216.805 L2139.19 212.869 Q2137.73 215.231 2135.56 216.365 Q2133.38 217.476 2130.23 217.476 Q2126.25 217.476 2123.89 215.254 Q2121.55 213.008 2121.55 209.258 Q2121.55 204.883 2124.47 202.661 Q2127.41 200.439 2133.22 200.439 L2139.19 200.439 L2139.19 200.022 Q2139.19 197.083 2137.25 195.485 Q2135.33 193.865 2131.83 193.865 Q2129.61 193.865 2127.5 194.397 Q2125.39 194.93 2123.45 195.995 L2123.45 192.059 Q2125.79 191.157 2127.99 190.717 Q2130.19 190.254 2132.27 190.254 Q2137.89 190.254 2140.67 193.17 Q2143.45 196.087 2143.45 202.013 Z" fill="#000000" fill-rule="nonzero" fill-opacity="1" /><path clip-path="url(#clip600)" d="M2167.25 194.86 Q2166.53 194.444 2165.67 194.258 Q2164.84 194.05 2163.82 194.05 Q2160.21 194.05 2158.26 196.411 Q2156.34 198.749 2156.34 203.147 L2156.34 216.805 L2152.06 216.805 L2152.06 190.879 L2156.34 190.879 L2156.34 194.907 Q2157.69 192.545 2159.84 191.411 Q2161.99 190.254 2165.07 190.254 Q2165.51 190.254 2166.04 190.323 Q2166.58 190.37 2167.22 190.485 L2167.25 194.86 Z" fill="#000000" fill-rule="nonzero" fill-opacity="1" /><path clip-path="url(#clip600)" d="M2182.5 219.212 Q2180.7 223.842 2178.98 225.254 Q2177.27 226.666 2174.4 226.666 L2171 226.666 L2171 223.101 L2173.5 223.101 Q2175.26 223.101 2176.23 222.268 Q2177.2 221.434 2178.38 218.332 L2179.14 216.388 L2168.66 190.879 L2173.17 190.879 L2181.27 211.157 L2189.38 190.879 L2193.89 190.879 L2182.5 219.212 Z" fill="#000000" fill-rule="nonzero" fill-opacity="1" /></svg>
