<?xml version="1.0" encoding="utf-8"?>
<svg xmlns="http://www.w3.org/2000/svg" xmlns:xlink="http://www.w3.org/1999/xlink" width="600" height="400" viewBox="0 0 2400 1600">
<defs>
  <clipPath id="clip970">
    <rect x="0" y="0" width="2400" height="1600"/>
  </clipPath>
</defs>
<path clip-path="url(#clip970)" d="M0 1600 L2400 1600 L2400 0 L0 0  Z" fill="#ffffff" fill-rule="evenodd" fill-opacity="1"/>
<defs>
  <clipPath id="clip971">
    <rect x="480" y="0" width="1681" height="1600"/>
  </clipPath>
</defs>
<path clip-path="url(#clip970)" d="M102.74 1505.26 L2352.76 1505.26 L2352.76 47.2441 L102.74 47.2441  Z" fill="#ffffff" fill-rule="evenodd" fill-opacity="1"/>
<defs>
  <clipPath id="clip972">
    <rect x="102" y="47" width="2251" height="1459"/>
  </clipPath>
</defs>
<polyline clip-path="url(#clip972)" style="stroke:#000000; stroke-linecap:round; stroke-linejoin:round; stroke-width:2; stroke-opacity:0.1; fill:none" points="191.494,47.2441 191.494,1505.26 "/>
<polyline clip-path="url(#clip972)" style="stroke:#000000; stroke-linecap:round; stroke-linejoin:round; stroke-width:2; stroke-opacity:0.1; fill:none" points="608.131,47.2441 608.131,1505.26 "/>
<polyline clip-path="url(#clip972)" style="stroke:#000000; stroke-linecap:round; stroke-linejoin:round; stroke-width:2; stroke-opacity:0.1; fill:none" points="1024.77,47.2441 1024.77,1505.26 "/>
<polyline clip-path="url(#clip972)" style="stroke:#000000; stroke-linecap:round; stroke-linejoin:round; stroke-width:2; stroke-opacity:0.1; fill:none" points="1441.41,47.2441 1441.41,1505.26 "/>
<polyline clip-path="url(#clip972)" style="stroke:#000000; stroke-linecap:round; stroke-linejoin:round; stroke-width:2; stroke-opacity:0.1; fill:none" points="1858.04,47.2441 1858.04,1505.26 "/>
<polyline clip-path="url(#clip972)" style="stroke:#000000; stroke-linecap:round; stroke-linejoin:round; stroke-width:2; stroke-opacity:0.1; fill:none" points="2274.68,47.2441 2274.68,1505.26 "/>
<polyline clip-path="url(#clip970)" style="stroke:#000000; stroke-linecap:round; stroke-linejoin:round; stroke-width:4; stroke-opacity:1; fill:none" points="102.74,1505.26 2352.76,1505.26 "/>
<polyline clip-path="url(#clip970)" style="stroke:#000000; stroke-linecap:round; stroke-linejoin:round; stroke-width:4; stroke-opacity:1; fill:none" points="191.494,1505.26 191.494,1486.36 "/>
<polyline clip-path="url(#clip970)" style="stroke:#000000; stroke-linecap:round; stroke-linejoin:round; stroke-width:4; stroke-opacity:1; fill:none" points="608.131,1505.26 608.131,1486.36 "/>
<polyline clip-path="url(#clip970)" style="stroke:#000000; stroke-linecap:round; stroke-linejoin:round; stroke-width:4; stroke-opacity:1; fill:none" points="1024.77,1505.26 1024.77,1486.36 "/>
<polyline clip-path="url(#clip970)" style="stroke:#000000; stroke-linecap:round; stroke-linejoin:round; stroke-width:4; stroke-opacity:1; fill:none" points="1441.41,1505.26 1441.41,1486.36 "/>
<polyline clip-path="url(#clip970)" style="stroke:#000000; stroke-linecap:round; stroke-linejoin:round; stroke-width:4; stroke-opacity:1; fill:none" points="1858.04,1505.26 1858.04,1486.36 "/>
<polyline clip-path="url(#clip970)" style="stroke:#000000; stroke-linecap:round; stroke-linejoin:round; stroke-width:4; stroke-opacity:1; fill:none" points="2274.68,1505.26 2274.68,1486.36 "/>
<path clip-path="url(#clip970)" d="M191.494 1536.18 Q187.883 1536.18 186.054 1539.74 Q184.248 1543.28 184.248 1550.41 Q184.248 1557.52 186.054 1561.09 Q187.883 1564.63 191.494 1564.63 Q195.128 1564.63 196.934 1561.09 Q198.762 1557.52 198.762 1550.41 Q198.762 1543.28 196.934 1539.74 Q195.128 1536.18 191.494 1536.18 M191.494 1532.47 Q197.304 1532.47 200.359 1537.08 Q203.438 1541.66 203.438 1550.41 Q203.438 1559.14 200.359 1563.75 Q197.304 1568.33 191.494 1568.33 Q185.684 1568.33 182.605 1563.75 Q179.549 1559.14 179.549 1550.41 Q179.549 1541.66 182.605 1537.08 Q185.684 1532.47 191.494 1532.47 Z" fill="#000000" fill-rule="nonzero" fill-opacity="1" /><path clip-path="url(#clip970)" d="M598.513 1563.72 L606.152 1563.72 L606.152 1537.36 L597.842 1539.03 L597.842 1534.77 L606.106 1533.1 L610.782 1533.1 L610.782 1563.72 L618.42 1563.72 L618.42 1567.66 L598.513 1567.66 L598.513 1563.72 Z" fill="#000000" fill-rule="nonzero" fill-opacity="1" /><path clip-path="url(#clip970)" d="M1019.42 1563.72 L1035.74 1563.72 L1035.74 1567.66 L1013.8 1567.66 L1013.8 1563.72 Q1016.46 1560.97 1021.04 1556.34 Q1025.65 1551.69 1026.83 1550.35 Q1029.07 1547.82 1029.95 1546.09 Q1030.86 1544.33 1030.86 1542.64 Q1030.86 1539.88 1028.91 1538.15 Q1026.99 1536.41 1023.89 1536.41 Q1021.69 1536.41 1019.24 1537.17 Q1016.81 1537.94 1014.03 1539.49 L1014.03 1534.77 Q1016.85 1533.63 1019.31 1533.05 Q1021.76 1532.47 1023.8 1532.47 Q1029.17 1532.47 1032.36 1535.16 Q1035.56 1537.85 1035.56 1542.34 Q1035.56 1544.47 1034.75 1546.39 Q1033.96 1548.28 1031.85 1550.88 Q1031.27 1551.55 1028.17 1554.77 Q1025.07 1557.96 1019.42 1563.72 Z" fill="#000000" fill-rule="nonzero" fill-opacity="1" /><path clip-path="url(#clip970)" d="M1445.65 1549.03 Q1449.01 1549.74 1450.89 1552.01 Q1452.78 1554.28 1452.78 1557.61 Q1452.78 1562.73 1449.26 1565.53 Q1445.75 1568.33 1439.26 1568.33 Q1437.09 1568.33 1434.77 1567.89 Q1432.48 1567.47 1430.03 1566.62 L1430.03 1562.1 Q1431.97 1563.24 1434.29 1563.82 Q1436.6 1564.4 1439.13 1564.4 Q1443.52 1564.4 1445.82 1562.66 Q1448.13 1560.92 1448.13 1557.61 Q1448.13 1554.56 1445.98 1552.85 Q1443.85 1551.11 1440.03 1551.11 L1436 1551.11 L1436 1547.27 L1440.21 1547.27 Q1443.66 1547.27 1445.49 1545.9 Q1447.32 1544.51 1447.32 1541.92 Q1447.32 1539.26 1445.42 1537.85 Q1443.55 1536.41 1440.03 1536.41 Q1438.11 1536.41 1435.91 1536.83 Q1433.71 1537.24 1431.07 1538.12 L1431.07 1533.96 Q1433.73 1533.22 1436.05 1532.85 Q1438.39 1532.47 1440.45 1532.47 Q1445.77 1532.47 1448.87 1534.91 Q1451.97 1537.31 1451.97 1541.43 Q1451.97 1544.3 1450.33 1546.29 Q1448.69 1548.26 1445.65 1549.03 Z" fill="#000000" fill-rule="nonzero" fill-opacity="1" /><path clip-path="url(#clip970)" d="M1861.05 1537.17 L1849.25 1555.62 L1861.05 1555.62 L1861.05 1537.17 M1859.83 1533.1 L1865.71 1533.1 L1865.71 1555.62 L1870.64 1555.62 L1870.64 1559.51 L1865.71 1559.51 L1865.71 1567.66 L1861.05 1567.66 L1861.05 1559.51 L1845.45 1559.51 L1845.45 1555 L1859.83 1533.1 Z" fill="#000000" fill-rule="nonzero" fill-opacity="1" /><path clip-path="url(#clip970)" d="M2264.96 1533.1 L2283.32 1533.1 L2283.32 1537.04 L2269.24 1537.04 L2269.24 1545.51 Q2270.26 1545.16 2271.28 1545 Q2272.3 1544.81 2273.32 1544.81 Q2279.1 1544.81 2282.48 1547.98 Q2285.86 1551.16 2285.86 1556.57 Q2285.86 1562.15 2282.39 1565.25 Q2278.92 1568.33 2272.6 1568.33 Q2270.42 1568.33 2268.15 1567.96 Q2265.91 1567.59 2263.5 1566.85 L2263.5 1562.15 Q2265.58 1563.28 2267.81 1563.84 Q2270.03 1564.4 2272.51 1564.4 Q2276.51 1564.4 2278.85 1562.29 Q2281.19 1560.18 2281.19 1556.57 Q2281.19 1552.96 2278.85 1550.85 Q2276.51 1548.75 2272.51 1548.75 Q2270.63 1548.75 2268.76 1549.16 Q2266.9 1549.58 2264.96 1550.46 L2264.96 1533.1 Z" fill="#000000" fill-rule="nonzero" fill-opacity="1" /><path clip-path="url(#clip970)" d="M1244.36 1614.48 L1231.47 1631.82 L1245.03 1650.12 L1238.12 1650.12 L1227.75 1636.12 L1217.37 1650.12 L1210.47 1650.12 L1224.31 1631.47 L1211.64 1614.48 L1218.55 1614.48 L1228 1627.18 L1237.46 1614.48 L1244.36 1614.48 Z" fill="#000000" fill-rule="nonzero" fill-opacity="1" /><polyline clip-path="url(#clip972)" style="stroke:#000000; stroke-linecap:round; stroke-linejoin:round; stroke-width:2; stroke-opacity:0.1; fill:none" points="102.74,126.501 2352.76,126.501 "/>
<polyline clip-path="url(#clip972)" style="stroke:#000000; stroke-linecap:round; stroke-linejoin:round; stroke-width:2; stroke-opacity:0.1; fill:none" points="102.74,543.139 2352.76,543.139 "/>
<polyline clip-path="url(#clip972)" style="stroke:#000000; stroke-linecap:round; stroke-linejoin:round; stroke-width:2; stroke-opacity:0.1; fill:none" points="102.74,959.776 2352.76,959.776 "/>
<polyline clip-path="url(#clip972)" style="stroke:#000000; stroke-linecap:round; stroke-linejoin:round; stroke-width:2; stroke-opacity:0.1; fill:none" points="102.74,1376.41 2352.76,1376.41 "/>
<polyline clip-path="url(#clip970)" style="stroke:#000000; stroke-linecap:round; stroke-linejoin:round; stroke-width:4; stroke-opacity:1; fill:none" points="102.74,47.2441 102.74,1505.26 "/>
<polyline clip-path="url(#clip970)" style="stroke:#000000; stroke-linecap:round; stroke-linejoin:round; stroke-width:4; stroke-opacity:1; fill:none" points="102.74,126.501 121.638,126.501 "/>
<polyline clip-path="url(#clip970)" style="stroke:#000000; stroke-linecap:round; stroke-linejoin:round; stroke-width:4; stroke-opacity:1; fill:none" points="102.74,543.139 121.638,543.139 "/>
<polyline clip-path="url(#clip970)" style="stroke:#000000; stroke-linecap:round; stroke-linejoin:round; stroke-width:4; stroke-opacity:1; fill:none" points="102.74,959.776 121.638,959.776 "/>
<polyline clip-path="url(#clip970)" style="stroke:#000000; stroke-linecap:round; stroke-linejoin:round; stroke-width:4; stroke-opacity:1; fill:none" points="102.74,1376.41 121.638,1376.41 "/>
<path clip-path="url(#clip970)" d="M6.25437 126.953 L35.9301 126.953 L35.9301 130.888 L6.25437 130.888 L6.25437 126.953 Z" fill="#000000" fill-rule="nonzero" fill-opacity="1" /><path clip-path="url(#clip970)" d="M46.8329 139.846 L54.4717 139.846 L54.4717 113.481 L46.1616 115.147 L46.1616 110.888 L54.4254 109.221 L59.1013 109.221 L59.1013 139.846 L66.7402 139.846 L66.7402 143.781 L46.8329 143.781 L46.8329 139.846 Z" fill="#000000" fill-rule="nonzero" fill-opacity="1" /><path clip-path="url(#clip970)" d="M54.7958 528.938 Q51.1847 528.938 49.356 532.502 Q47.5504 536.044 47.5504 543.174 Q47.5504 550.28 49.356 553.845 Q51.1847 557.386 54.7958 557.386 Q58.43 557.386 60.2356 553.845 Q62.0643 550.28 62.0643 543.174 Q62.0643 536.044 60.2356 532.502 Q58.43 528.938 54.7958 528.938 M54.7958 525.234 Q60.6059 525.234 63.6615 529.84 Q66.7402 534.424 66.7402 543.174 Q66.7402 551.9 63.6615 556.507 Q60.6059 561.09 54.7958 561.09 Q48.9856 561.09 45.9069 556.507 Q42.8514 551.9 42.8514 543.174 Q42.8514 534.424 45.9069 529.84 Q48.9856 525.234 54.7958 525.234 Z" fill="#000000" fill-rule="nonzero" fill-opacity="1" /><path clip-path="url(#clip970)" d="M46.8329 973.121 L54.4717 973.121 L54.4717 946.756 L46.1616 948.422 L46.1616 944.163 L54.4254 942.496 L59.1013 942.496 L59.1013 973.121 L66.7402 973.121 L66.7402 977.056 L46.8329 977.056 L46.8329 973.121 Z" fill="#000000" fill-rule="nonzero" fill-opacity="1" /><path clip-path="url(#clip970)" d="M50.4208 1389.76 L66.7402 1389.76 L66.7402 1393.69 L44.7958 1393.69 L44.7958 1389.76 Q47.4579 1387 52.0412 1382.37 Q56.6476 1377.72 57.8282 1376.38 Q60.0735 1373.86 60.9532 1372.12 Q61.8559 1370.36 61.8559 1368.67 Q61.8559 1365.92 59.9115 1364.18 Q57.9902 1362.44 54.8884 1362.44 Q52.6893 1362.44 50.2356 1363.21 Q47.8051 1363.97 45.0273 1365.52 L45.0273 1360.8 Q47.8514 1359.67 50.3051 1359.09 Q52.7588 1358.51 54.7958 1358.51 Q60.1661 1358.51 63.3605 1361.19 Q66.555 1363.88 66.555 1368.37 Q66.555 1370.5 65.7448 1372.42 Q64.9578 1374.32 62.8513 1376.91 Q62.2726 1377.58 59.1708 1380.8 Q56.0689 1383.99 50.4208 1389.76 Z" fill="#000000" fill-rule="nonzero" fill-opacity="1" /><path clip-path="url(#clip970)" d="M-40.6915 774.565 Q-34.3258 777.048 -32.3842 779.403 Q-30.4427 781.758 -30.4427 785.705 L-30.4427 790.384 L-35.3443 790.384 L-35.3443 786.946 Q-35.3443 784.527 -36.4901 783.191 Q-37.6359 781.854 -41.9009 780.231 L-44.5745 779.18 L-79.6496 793.599 L-79.6496 787.392 L-51.7678 776.252 L-79.6496 765.112 L-79.6496 758.905 L-40.6915 774.565 Z" fill="#000000" fill-rule="nonzero" fill-opacity="1" /><polyline clip-path="url(#clip972)" style="stroke:#000000; stroke-linecap:round; stroke-linejoin:round; stroke-width:4; stroke-opacity:1; fill:none" points="191.494,438.98 212.536,438.98 233.578,438.98 254.621,438.98 275.663,438.98 296.705,438.98 317.747,438.98 338.79,438.98 359.832,438.98 380.874,438.98 401.917,438.98 422.959,438.98 444.001,438.98 465.044,438.98 486.086,438.98 507.128,438.98 528.17,438.98 549.213,438.98 570.255,438.98 591.297,438.98 612.34,438.98 633.382,438.98 654.424,438.98 675.466,438.98 696.509,438.98 717.551,438.98 738.593,438.98 759.636,438.98 780.678,438.98 801.72,438.98 822.763,438.98 843.805,438.98 864.847,438.98 885.889,438.98 906.932,438.98 927.974,438.98 949.016,438.98 970.059,438.98 991.101,438.98 1012.14,438.98 1033.19,438.98 1054.23,438.98 1075.27,438.98 1096.31,438.98 1117.35,438.98 1138.4,438.98 1159.44,438.98 1180.48,438.98 1201.52,438.98 1222.57,438.98 1243.61,438.98 1264.65,438.98 1285.69,438.98 1306.74,438.98 1327.78,438.98 1348.82,438.98 1369.86,438.98 1390.9,438.98 1411.95,438.98 1432.99,438.98 1454.03,438.98 1475.07,438.98 1496.12,438.98 1517.16,438.98 1538.2,438.98 1559.24,438.98 1580.29,438.98 1601.33,438.98 1622.37,438.98 1643.41,438.98 1664.45,438.98 1685.5,438.98 1706.54,438.98 1727.58,438.98 1748.62,438.98 1769.67,438.98 1790.71,438.98 1811.75,438.98 1832.79,438.98 1853.84,438.98 1874.88,438.98 1895.92,438.98 1916.96,438.98 1938,438.98 1959.05,438.98 1980.09,438.98 2001.13,438.98 2022.17,438.98 2043.22,438.98 2064.26,438.98 2085.3,438.98 2106.34,438.98 2127.38,438.98 2148.43,438.98 2169.47,438.98 2190.51,438.98 2211.55,438.98 2232.6,438.98 2253.64,438.98 2274.68,438.98 2274.68,543.139 2274.68,751.458 2274.68,855.617 2253.64,855.617 2232.6,855.617 2211.55,855.617 2190.51,855.617 2169.47,855.617 2148.43,855.617 2127.38,855.617 2106.34,855.617 2085.3,855.617 2064.26,855.617 2043.22,855.617 2022.17,855.617 2001.13,855.617 1980.09,855.617 1959.05,855.617 1938,855.617 1916.96,855.617 1895.92,855.617 1874.88,855.617 1853.84,855.617 1832.79,855.617 1811.75,855.617 1790.71,855.617 1769.67,855.617 1748.62,855.617 1727.58,855.617 1706.54,855.617 1685.5,855.617 1664.45,855.617 1643.41,855.617 1622.37,855.617 1601.33,855.617 1580.29,855.617 1559.24,855.617 1538.2,855.617 1517.16,855.617 1496.12,855.617 1475.07,855.617 1454.03,855.617 1432.99,855.617 1411.95,855.617 1390.9,855.617 1369.86,855.617 1348.82,855.617 1327.78,855.617 1306.74,855.617 1285.69,855.617 1264.65,855.617 1243.61,855.617 1222.57,855.617 1201.52,855.617 1180.48,855.617 1159.44,855.617 1138.4,855.617 1117.35,855.617 1096.31,855.617 1075.27,855.617 1054.23,855.617 1033.19,855.617 1012.14,855.617 991.101,855.617 970.059,855.617 949.016,855.617 927.974,855.617 906.932,855.617 885.889,855.617 864.847,855.617 843.805,855.617 822.763,855.617 801.72,855.617 780.678,855.617 759.636,855.617 738.593,855.617 717.551,855.617 696.509,855.617 675.466,855.617 654.424,855.617 633.382,855.617 612.34,855.617 591.297,855.617 570.255,855.617 549.213,855.617 528.17,855.617 507.128,855.617 486.086,855.617 465.044,855.617 444.001,855.617 422.959,855.617 401.917,855.617 380.874,855.617 359.832,855.617 338.79,855.617 317.747,855.617 296.705,855.617 275.663,855.617 254.621,855.617 233.578,855.617 212.536,855.617 191.494,855.617 191.494,751.458 191.494,543.139 191.494,438.98 "/>
<polyline clip-path="url(#clip972)" style="stroke:#000000; stroke-linecap:round; stroke-linejoin:round; stroke-width:4; stroke-opacity:1; fill:none" points="182.157,801.349 203.219,798.166 224.281,794.976 245.344,791.779 266.408,788.576 287.472,785.365 308.536,782.148 329.602,778.924 350.668,775.693 371.736,772.455 392.804,769.211 413.874,765.961 434.945,762.705 456.018,759.443 477.092,756.175 498.168,752.902 519.245,749.624 540.325,746.341 561.407,743.053 582.491,739.762 603.577,736.467 624.666,733.168 645.757,729.867 666.851,726.563 687.947,723.257 709.047,719.95 730.15,716.642 751.255,713.334 772.365,710.026 793.477,706.718 814.593,703.412 835.713,700.109 856.837,696.808 877.964,693.51 899.096,690.217 920.232,686.929 941.372,683.646 962.516,680.371 983.666,677.102 1004.82,673.842 1025.98,670.592 1047.14,667.351 1068.31,664.122 1089.49,660.904 1110.67,657.7 1131.85,654.51 1153.04,651.335 1174.24,648.176 1195.44,645.035 1216.65,641.912 1237.87,638.809 1259.09,635.727 1280.31,632.667 1301.55,629.631 1322.79,626.619 1344.04,623.633 1365.3,620.675 1386.56,617.745 1407.83,614.846 1429.11,611.979 1450.39,609.144 1471.69,606.344 1492.99,603.58 1514.3,600.854 1535.62,598.168 1556.94,595.522 1578.28,592.918 1599.62,590.36 1620.98,587.847 1642.34,585.381 1663.71,582.966 1685.09,580.601 1706.48,578.29 1727.88,576.034 1749.29,573.835 1770.71,571.695 1792.14,569.616 1813.58,567.599 1835.03,565.648 1856.5,563.763 1877.97,561.948 1899.45,560.204 1920.95,558.534 1942.45,556.939 1963.97,555.422 1985.5,553.985 2007.04,552.63 2028.6,551.36 2050.16,550.178 2071.74,549.085 2093.33,548.084 2114.94,547.178 2136.55,546.369 2158.18,545.659 2179.82,545.051 2201.48,544.549 2223.15,544.153 2244.83,543.868 2266.53,543.696 2288.24,543.639 2274.68,751.458 2254.3,751.516 2233.9,751.691 2213.49,751.978 2193.07,752.375 2172.63,752.88 2152.18,753.49 2131.71,754.201 2111.24,755.013 2090.75,755.921 2070.24,756.924 2049.73,758.019 2029.2,759.203 2008.66,760.475 1988.11,761.831 1967.54,763.27 1946.97,764.789 1926.38,766.386 1905.78,768.059 1885.17,769.805 1864.55,771.622 1843.92,773.509 1823.28,775.462 1802.63,777.481 1781.96,779.562 1761.29,781.704 1740.61,783.905 1719.91,786.163 1699.21,788.477 1678.5,790.843 1657.78,793.261 1637.05,795.728 1616.31,798.243 1595.56,800.804 1574.8,803.409 1554.03,806.057 1533.26,808.746 1512.48,811.474 1491.68,814.239 1470.89,817.041 1450.08,819.878 1429.26,822.748 1408.44,825.649 1387.61,828.58 1366.78,831.541 1345.93,834.528 1325.08,837.542 1304.22,840.581 1283.36,843.643 1262.49,846.727 1241.61,849.832 1220.73,852.956 1199.84,856.1 1178.94,859.261 1158.04,862.438 1137.14,865.63 1116.22,868.836 1095.31,872.055 1074.38,875.287 1053.45,878.53 1032.52,881.782 1011.58,885.044 990.64,888.315 969.693,891.592 948.742,894.877 927.786,898.167 906.826,901.462 885.862,904.762 864.894,908.065 843.922,911.37 822.946,914.678 801.967,917.988 780.985,921.298 760,924.608 739.011,927.918 718.019,931.227 697.024,934.535 676.027,937.841 655.027,941.144 634.025,944.445 613.02,947.742 592.013,951.036 571.003,954.325 549.992,957.61 528.979,960.89 507.964,964.165 486.947,967.435 465.929,970.699 444.909,973.957 423.888,977.21 402.866,980.456 381.842,983.695 360.818,986.928 339.793,990.154 318.767,993.374 297.74,996.586 276.713,999.792 255.686,1002.99 234.658,1006.18 213.63,1009.37 "/>
<polyline clip-path="url(#clip972)" style="stroke:#ff0000; stroke-linecap:round; stroke-linejoin:round; stroke-width:4; stroke-opacity:1; fill:none" points="166.42,697.253 187.454,694.07 208.489,690.881 229.523,687.686 250.559,684.483 271.595,681.274 292.632,678.059 313.671,674.837 334.711,671.608 355.753,668.373 376.796,665.132 397.842,661.885 418.891,658.632 439.941,655.373 460.995,652.109 482.052,648.84 503.112,645.566 524.176,642.288 545.244,639.005 566.315,635.719 587.391,632.429 608.472,629.137 629.557,625.841 650.647,622.544 671.743,619.244 692.844,615.944 713.95,612.643 735.063,609.342 756.182,606.041 777.308,602.742 798.44,599.444 819.58,596.149 840.727,592.857 861.881,589.568 883.043,586.284 904.213,583.006 925.392,579.734 946.579,576.468 967.775,573.21 988.98,569.961 1010.2,566.722 1031.42,563.492 1052.65,560.275 1073.9,557.069 1095.15,553.877 1116.42,550.7 1137.7,547.538 1158.98,544.392 1180.28,541.265 1201.6,538.156 1222.92,535.067 1244.26,532 1265.61,528.955 1286.97,525.933 1308.34,522.937 1329.73,519.967 1351.14,517.025 1372.56,514.112 1393.99,511.23 1415.43,508.379 1436.9,505.562 1458.37,502.78 1479.87,500.035 1501.38,497.327 1522.9,494.659 1544.44,492.033 1566,489.449 1587.58,486.91 1609.17,484.417 1630.79,481.973 1652.42,479.578 1674.07,477.235 1695.73,474.945 1717.42,472.711 1739.13,470.535 1760.85,468.417 1782.6,466.361 1804.37,464.368 1826.15,462.44 1847.96,460.58 1869.79,458.789 1891.64,457.07 1913.52,455.425 1935.41,453.856 1957.33,452.365 1979.27,450.954 2001.24,449.626 2023.23,448.384 2045.24,447.229 2067.28,446.164 2089.34,445.191 2111.43,444.314 2133.54,443.533 2155.68,442.853 2177.85,442.275 2200.04,441.803 2222.26,441.438 2244.5,441.184 2266.78,441.043 2289.08,441.018 2288.24,543.639 2274.68,751.458 2273.86,857.046 2254.07,857.074 2234.25,857.217 2214.4,857.474 2194.52,857.841 2174.62,858.316 2154.69,858.896 2134.74,859.579 2114.75,860.361 2094.75,861.242 2074.72,862.217 2054.66,863.284 2034.58,864.441 2014.48,865.686 1994.35,867.017 1974.2,868.43 1954.02,869.923 1933.82,871.495 1913.6,873.143 1893.36,874.864 1873.1,876.658 1852.81,878.52 1832.51,880.45 1812.18,882.446 1791.83,884.504 1771.47,886.624 1751.08,888.803 1730.67,891.04 1710.25,893.332 1689.8,895.677 1669.34,898.075 1648.86,900.522 1628.36,903.017 1607.84,905.558 1587.31,908.145 1566.76,910.774 1546.19,913.444 1525.61,916.154 1505.01,918.902 1484.39,921.687 1463.76,924.506 1443.12,927.359 1422.46,930.244 1401.78,933.159 1381.09,936.104 1360.39,939.076 1339.67,942.075 1318.94,945.099 1298.2,948.146 1277.44,951.216 1256.68,954.307 1235.9,957.419 1215.1,960.549 1194.3,963.697 1173.48,966.861 1152.66,970.041 1131.82,973.235 1110.97,976.443 1090.12,979.663 1069.25,982.895 1048.37,986.137 1027.49,989.389 1006.59,992.649 985.685,995.917 964.771,999.192 943.85,1002.47 922.92,1005.76 901.983,1009.05 881.038,1012.34 860.086,1015.64 839.127,1018.94 818.161,1022.24 797.189,1025.55 776.21,1028.85 755.226,1032.15 734.235,1035.46 713.24,1038.76 692.239,1042.06 671.233,1045.36 650.222,1048.65 629.207,1051.94 608.187,1055.23 587.164,1058.52 566.137,1061.8 545.106,1065.08 524.072,1068.35 503.035,1071.61 481.995,1074.87 460.952,1078.13 439.907,1081.38 418.86,1084.62 397.811,1087.86 376.76,1091.09 355.708,1094.32 334.655,1097.53 313.601,1100.75 292.546,1103.95 271.49,1107.15 250.434,1110.34 229.378,1113.52 213.63,1009.37 182.157,801.349 166.42,697.253 "/>
<polyline clip-path="url(#clip972)" style="stroke:#ff0000; stroke-linecap:round; stroke-linejoin:round; stroke-width:4; stroke-opacity:1; fill:none" points="182.157,801.349 203.219,798.166 224.281,794.976 245.344,791.779 266.408,788.576 287.472,785.365 308.536,782.148 329.602,778.924 350.668,775.693 371.736,772.455 392.804,769.211 413.874,765.961 434.945,762.705 456.018,759.443 477.092,756.175 498.168,752.902 519.245,749.624 540.325,746.341 561.407,743.053 582.491,739.762 603.577,736.467 624.666,733.168 645.757,729.867 666.851,726.563 687.947,723.257 709.047,719.95 730.15,716.642 751.255,713.334 772.365,710.026 793.477,706.718 814.593,703.412 835.713,700.109 856.837,696.808 877.964,693.51 899.096,690.217 920.232,686.929 941.372,683.646 962.516,680.371 983.666,677.102 1004.82,673.842 1025.98,670.592 1047.14,667.351 1068.31,664.122 1089.49,660.904 1110.67,657.7 1131.85,654.51 1153.04,651.335 1174.24,648.176 1195.44,645.035 1216.65,641.912 1237.87,638.809 1259.09,635.727 1280.31,632.667 1301.55,629.631 1322.79,626.619 1344.04,623.633 1365.3,620.675 1386.56,617.745 1407.83,614.846 1429.11,611.979 1450.39,609.144 1471.69,606.344 1492.99,603.58 1514.3,600.854 1535.62,598.168 1556.94,595.522 1578.28,592.918 1599.62,590.36 1620.98,587.847 1642.34,585.381 1663.71,582.966 1685.09,580.601 1706.48,578.29 1727.88,576.034 1749.29,573.835 1770.71,571.695 1792.14,569.616 1813.58,567.599 1835.03,565.648 1856.5,563.763 1877.97,561.948 1899.45,560.204 1920.95,558.534 1942.45,556.939 1963.97,555.422 1985.5,553.985 2007.04,552.63 2028.6,551.36 2050.16,550.178 2071.74,549.085 2093.33,548.084 2114.94,547.178 2136.55,546.369 2158.18,545.659 2179.82,545.051 2201.48,544.549 2223.15,544.153 2244.83,543.868 2266.53,543.696 2288.24,543.639 2274.68,751.458 2254.3,751.516 2233.9,751.691 2213.49,751.978 2193.07,752.375 2172.63,752.88 2152.18,753.49 2131.71,754.201 2111.24,755.013 2090.75,755.921 2070.24,756.924 2049.73,758.019 2029.2,759.203 2008.66,760.475 1988.11,761.831 1967.54,763.27 1946.97,764.789 1926.38,766.386 1905.78,768.059 1885.17,769.805 1864.55,771.622 1843.92,773.509 1823.28,775.462 1802.63,777.481 1781.96,779.562 1761.29,781.704 1740.61,783.905 1719.91,786.163 1699.21,788.477 1678.5,790.843 1657.78,793.261 1637.05,795.728 1616.31,798.243 1595.56,800.804 1574.8,803.409 1554.03,806.057 1533.26,808.746 1512.48,811.474 1491.68,814.239 1470.89,817.041 1450.08,819.878 1429.26,822.748 1408.44,825.649 1387.61,828.58 1366.78,831.541 1345.93,834.528 1325.08,837.542 1304.22,840.581 1283.36,843.643 1262.49,846.727 1241.61,849.832 1220.73,852.956 1199.84,856.1 1178.94,859.261 1158.04,862.438 1137.14,865.63 1116.22,868.836 1095.31,872.055 1074.38,875.287 1053.45,878.53 1032.52,881.782 1011.58,885.044 990.64,888.315 969.693,891.592 948.742,894.877 927.786,898.167 906.826,901.462 885.862,904.762 864.894,908.065 843.922,911.37 822.946,914.678 801.967,917.988 780.985,921.298 760,924.608 739.011,927.918 718.019,931.227 697.024,934.535 676.027,937.841 655.027,941.144 634.025,944.445 613.02,947.742 592.013,951.036 571.003,954.325 549.992,957.61 528.979,960.89 507.964,964.165 486.947,967.435 465.929,970.699 444.909,973.957 423.888,977.21 402.866,980.456 381.842,983.695 360.818,986.928 339.793,990.154 318.767,993.374 297.74,996.586 276.713,999.792 255.686,1002.99 234.658,1006.18 213.63,1009.37 "/>
<path clip-path="url(#clip970)" d="M1521.11 251.365 L2277.76 251.365 L2277.76 95.8446 L1521.11 95.8446  Z" fill="#ffffff" fill-rule="evenodd" fill-opacity="1"/>
<polyline clip-path="url(#clip970)" style="stroke:#000000; stroke-linecap:round; stroke-linejoin:round; stroke-width:4; stroke-opacity:1; fill:none" points="1521.11,251.365 2277.76,251.365 2277.76,95.8446 1521.11,95.8446 1521.11,251.365 "/>
<polyline clip-path="url(#clip970)" style="stroke:#000000; stroke-linecap:round; stroke-linejoin:round; stroke-width:4; stroke-opacity:1; fill:none" points="1546.11,147.685 1696.11,147.685 "/>
<path clip-path="url(#clip970)" d="M1721.11 130.405 L1725.81 130.405 L1725.81 151.4 Q1725.81 156.955 1727.83 159.409 Q1729.84 161.84 1734.36 161.84 Q1738.85 161.84 1740.86 159.409 Q1742.87 156.955 1742.87 151.4 L1742.87 130.405 L1747.57 130.405 L1747.57 151.979 Q1747.57 158.738 1744.22 162.187 Q1740.88 165.636 1734.36 165.636 Q1727.8 165.636 1724.45 162.187 Q1721.11 158.738 1721.11 151.979 L1721.11 130.405 Z" fill="#000000" fill-rule="nonzero" fill-opacity="1" /><path clip-path="url(#clip970)" d="M1777.71 149.317 L1777.71 164.965 L1773.45 164.965 L1773.45 149.455 Q1773.45 145.775 1772.02 143.946 Q1770.58 142.118 1767.71 142.118 Q1764.26 142.118 1762.27 144.317 Q1760.28 146.516 1760.28 150.312 L1760.28 164.965 L1756 164.965 L1756 139.039 L1760.28 139.039 L1760.28 143.067 Q1761.81 140.729 1763.87 139.571 Q1765.95 138.414 1768.66 138.414 Q1773.13 138.414 1775.42 141.192 Q1777.71 143.946 1777.71 149.317 Z" fill="#000000" fill-rule="nonzero" fill-opacity="1" /><path clip-path="url(#clip970)" d="M1803.27 142.974 L1803.27 128.946 L1807.53 128.946 L1807.53 164.965 L1803.27 164.965 L1803.27 161.076 Q1801.92 163.391 1799.86 164.525 Q1797.83 165.636 1794.96 165.636 Q1790.26 165.636 1787.29 161.886 Q1784.35 158.136 1784.35 152.025 Q1784.35 145.914 1787.29 142.164 Q1790.26 138.414 1794.96 138.414 Q1797.83 138.414 1799.86 139.548 Q1801.92 140.659 1803.27 142.974 M1788.75 152.025 Q1788.75 156.724 1790.67 159.409 Q1792.62 162.071 1796 162.071 Q1799.38 162.071 1801.32 159.409 Q1803.27 156.724 1803.27 152.025 Q1803.27 147.326 1801.32 144.664 Q1799.38 141.979 1796 141.979 Q1792.62 141.979 1790.67 144.664 Q1788.75 147.326 1788.75 152.025 Z" fill="#000000" fill-rule="nonzero" fill-opacity="1" /><path clip-path="url(#clip970)" d="M1838.48 150.937 L1838.48 153.02 L1818.89 153.02 Q1819.17 157.418 1821.53 159.733 Q1823.91 162.025 1828.15 162.025 Q1830.6 162.025 1832.9 161.423 Q1835.21 160.821 1837.48 159.617 L1837.48 163.645 Q1835.19 164.617 1832.78 165.127 Q1830.37 165.636 1827.9 165.636 Q1821.69 165.636 1818.06 162.025 Q1814.45 158.414 1814.45 152.256 Q1814.45 145.891 1817.87 142.164 Q1821.32 138.414 1827.16 138.414 Q1832.39 138.414 1835.42 141.793 Q1838.48 145.15 1838.48 150.937 M1834.22 149.687 Q1834.17 146.192 1832.25 144.108 Q1830.35 142.025 1827.2 142.025 Q1823.64 142.025 1821.48 144.039 Q1819.35 146.053 1819.03 149.71 L1834.22 149.687 Z" fill="#000000" fill-rule="nonzero" fill-opacity="1" /><path clip-path="url(#clip970)" d="M1858.59 128.946 L1858.59 132.488 L1854.52 132.488 Q1852.22 132.488 1851.32 133.414 Q1850.44 134.34 1850.44 136.747 L1850.44 139.039 L1857.46 139.039 L1857.46 142.349 L1850.44 142.349 L1850.44 164.965 L1846.16 164.965 L1846.16 142.349 L1842.09 142.349 L1842.09 139.039 L1846.16 139.039 L1846.16 137.233 Q1846.16 132.905 1848.17 130.937 Q1850.19 128.946 1854.56 128.946 L1858.59 128.946 Z" fill="#000000" fill-rule="nonzero" fill-opacity="1" /><path clip-path="url(#clip970)" d="M1872.2 142.025 Q1868.78 142.025 1866.79 144.71 Q1864.79 147.372 1864.79 152.025 Q1864.79 156.678 1866.76 159.363 Q1868.75 162.025 1872.2 162.025 Q1875.6 162.025 1877.6 159.34 Q1879.59 156.654 1879.59 152.025 Q1879.59 147.418 1877.6 144.733 Q1875.6 142.025 1872.2 142.025 M1872.2 138.414 Q1877.76 138.414 1880.93 142.025 Q1884.1 145.636 1884.1 152.025 Q1884.1 158.391 1880.93 162.025 Q1877.76 165.636 1872.2 165.636 Q1866.62 165.636 1863.45 162.025 Q1860.3 158.391 1860.3 152.025 Q1860.3 145.636 1863.45 142.025 Q1866.62 138.414 1872.2 138.414 Z" fill="#000000" fill-rule="nonzero" fill-opacity="1" /><path clip-path="url(#clip970)" d="M1906.18 143.02 Q1905.47 142.604 1904.61 142.418 Q1903.78 142.21 1902.76 142.21 Q1899.15 142.21 1897.2 144.571 Q1895.28 146.909 1895.28 151.307 L1895.28 164.965 L1891 164.965 L1891 139.039 L1895.28 139.039 L1895.28 143.067 Q1896.62 140.705 1898.78 139.571 Q1900.93 138.414 1904.01 138.414 Q1904.45 138.414 1904.98 138.483 Q1905.51 138.53 1906.16 138.645 L1906.18 143.02 Z" fill="#000000" fill-rule="nonzero" fill-opacity="1" /><path clip-path="url(#clip970)" d="M1930 144.016 Q1931.6 141.145 1933.82 139.78 Q1936.04 138.414 1939.05 138.414 Q1943.1 138.414 1945.3 141.261 Q1947.5 144.085 1947.5 149.317 L1947.5 164.965 L1943.22 164.965 L1943.22 149.455 Q1943.22 145.729 1941.9 143.923 Q1940.58 142.118 1937.87 142.118 Q1934.56 142.118 1932.64 144.317 Q1930.72 146.516 1930.72 150.312 L1930.72 164.965 L1926.44 164.965 L1926.44 149.455 Q1926.44 145.705 1925.12 143.923 Q1923.8 142.118 1921.04 142.118 Q1917.78 142.118 1915.86 144.34 Q1913.94 146.539 1913.94 150.312 L1913.94 164.965 L1909.66 164.965 L1909.66 139.039 L1913.94 139.039 L1913.94 143.067 Q1915.4 140.682 1917.43 139.548 Q1919.47 138.414 1922.27 138.414 Q1925.09 138.414 1927.06 139.849 Q1929.05 141.284 1930 144.016 Z" fill="#000000" fill-rule="nonzero" fill-opacity="1" /><path clip-path="url(#clip970)" d="M1978.17 150.937 L1978.17 153.02 L1958.59 153.02 Q1958.87 157.418 1961.23 159.733 Q1963.61 162.025 1967.85 162.025 Q1970.3 162.025 1972.59 161.423 Q1974.91 160.821 1977.18 159.617 L1977.18 163.645 Q1974.89 164.617 1972.48 165.127 Q1970.07 165.636 1967.59 165.636 Q1961.39 165.636 1957.76 162.025 Q1954.15 158.414 1954.15 152.256 Q1954.15 145.891 1957.57 142.164 Q1961.02 138.414 1966.85 138.414 Q1972.09 138.414 1975.12 141.793 Q1978.17 145.15 1978.17 150.937 M1973.91 149.687 Q1973.87 146.192 1971.95 144.108 Q1970.05 142.025 1966.9 142.025 Q1963.34 142.025 1961.18 144.039 Q1959.05 146.053 1958.73 149.71 L1973.91 149.687 Z" fill="#000000" fill-rule="nonzero" fill-opacity="1" /><path clip-path="url(#clip970)" d="M2002.22 142.974 L2002.22 128.946 L2006.48 128.946 L2006.48 164.965 L2002.22 164.965 L2002.22 161.076 Q2000.88 163.391 1998.82 164.525 Q1996.78 165.636 1993.91 165.636 Q1989.21 165.636 1986.25 161.886 Q1983.31 158.136 1983.31 152.025 Q1983.31 145.914 1986.25 142.164 Q1989.21 138.414 1993.91 138.414 Q1996.78 138.414 1998.82 139.548 Q2000.88 140.659 2002.22 142.974 M1987.71 152.025 Q1987.71 156.724 1989.63 159.409 Q1991.58 162.071 1994.96 162.071 Q1998.34 162.071 2000.28 159.409 Q2002.22 156.724 2002.22 152.025 Q2002.22 147.326 2000.28 144.664 Q1998.34 141.979 1994.96 141.979 Q1991.58 141.979 1989.63 144.664 Q1987.71 147.326 1987.71 152.025 Z" fill="#000000" fill-rule="nonzero" fill-opacity="1" /><path clip-path="url(#clip970)" d="M2035.19 148.46 L2035.19 161.122 L2042.69 161.122 Q2046.46 161.122 2048.27 159.571 Q2050.09 157.997 2050.09 154.779 Q2050.09 151.539 2048.27 150.011 Q2046.46 148.46 2042.69 148.46 L2035.19 148.46 M2035.19 134.247 L2035.19 144.664 L2042.11 144.664 Q2045.53 144.664 2047.2 143.391 Q2048.89 142.094 2048.89 139.455 Q2048.89 136.84 2047.2 135.543 Q2045.53 134.247 2042.11 134.247 L2035.19 134.247 M2030.51 130.405 L2042.46 130.405 Q2047.8 130.405 2050.7 132.627 Q2053.59 134.849 2053.59 138.946 Q2053.59 142.118 2052.11 143.993 Q2050.63 145.867 2047.76 146.33 Q2051.21 147.071 2053.1 149.432 Q2055.02 151.77 2055.02 155.289 Q2055.02 159.918 2051.88 162.441 Q2048.73 164.965 2042.92 164.965 L2030.51 164.965 L2030.51 130.405 Z" fill="#000000" fill-rule="nonzero" fill-opacity="1" /><path clip-path="url(#clip970)" d="M2072.9 142.025 Q2069.47 142.025 2067.48 144.71 Q2065.49 147.372 2065.49 152.025 Q2065.49 156.678 2067.46 159.363 Q2069.45 162.025 2072.9 162.025 Q2076.3 162.025 2078.29 159.34 Q2080.28 156.654 2080.28 152.025 Q2080.28 147.418 2078.29 144.733 Q2076.3 142.025 2072.9 142.025 M2072.9 138.414 Q2078.45 138.414 2081.62 142.025 Q2084.79 145.636 2084.79 152.025 Q2084.79 158.391 2081.62 162.025 Q2078.45 165.636 2072.9 165.636 Q2067.32 165.636 2064.15 162.025 Q2061 158.391 2061 152.025 Q2061 145.636 2064.15 142.025 Q2067.32 138.414 2072.9 138.414 Z" fill="#000000" fill-rule="nonzero" fill-opacity="1" /><path clip-path="url(#clip970)" d="M2091.41 154.733 L2091.41 139.039 L2095.67 139.039 L2095.67 154.571 Q2095.67 158.252 2097.11 160.104 Q2098.54 161.932 2101.41 161.932 Q2104.86 161.932 2106.85 159.733 Q2108.87 157.534 2108.87 153.738 L2108.87 139.039 L2113.13 139.039 L2113.13 164.965 L2108.87 164.965 L2108.87 160.983 Q2107.32 163.344 2105.26 164.502 Q2103.22 165.636 2100.51 165.636 Q2096.04 165.636 2093.73 162.858 Q2091.41 160.08 2091.41 154.733 M2102.13 138.414 L2102.13 138.414 Z" fill="#000000" fill-rule="nonzero" fill-opacity="1" /><path clip-path="url(#clip970)" d="M2143.45 149.317 L2143.45 164.965 L2139.19 164.965 L2139.19 149.455 Q2139.19 145.775 2137.76 143.946 Q2136.32 142.118 2133.45 142.118 Q2130 142.118 2128.01 144.317 Q2126.02 146.516 2126.02 150.312 L2126.02 164.965 L2121.74 164.965 L2121.74 139.039 L2126.02 139.039 L2126.02 143.067 Q2127.55 140.729 2129.61 139.571 Q2131.69 138.414 2134.4 138.414 Q2138.87 138.414 2141.16 141.192 Q2143.45 143.946 2143.45 149.317 Z" fill="#000000" fill-rule="nonzero" fill-opacity="1" /><path clip-path="url(#clip970)" d="M2169.01 142.974 L2169.01 128.946 L2173.26 128.946 L2173.26 164.965 L2169.01 164.965 L2169.01 161.076 Q2167.66 163.391 2165.6 164.525 Q2163.57 165.636 2160.7 165.636 Q2156 165.636 2153.03 161.886 Q2150.09 158.136 2150.09 152.025 Q2150.09 145.914 2153.03 142.164 Q2156 138.414 2160.7 138.414 Q2163.57 138.414 2165.6 139.548 Q2167.66 140.659 2169.01 142.974 M2154.49 152.025 Q2154.49 156.724 2156.41 159.409 Q2158.36 162.071 2161.74 162.071 Q2165.12 162.071 2167.06 159.409 Q2169.01 156.724 2169.01 152.025 Q2169.01 147.326 2167.06 144.664 Q2165.12 141.979 2161.74 141.979 Q2158.36 141.979 2156.41 144.664 Q2154.49 147.326 2154.49 152.025 Z" fill="#000000" fill-rule="nonzero" fill-opacity="1" /><path clip-path="url(#clip970)" d="M2193.82 151.932 Q2188.66 151.932 2186.67 153.113 Q2184.68 154.293 2184.68 157.141 Q2184.68 159.409 2186.16 160.752 Q2187.66 162.071 2190.23 162.071 Q2193.77 162.071 2195.9 159.571 Q2198.06 157.048 2198.06 152.881 L2198.06 151.932 L2193.82 151.932 M2202.32 150.173 L2202.32 164.965 L2198.06 164.965 L2198.06 161.029 Q2196.6 163.391 2194.42 164.525 Q2192.25 165.636 2189.1 165.636 Q2185.12 165.636 2182.76 163.414 Q2180.42 161.168 2180.42 157.418 Q2180.42 153.043 2183.33 150.821 Q2186.27 148.599 2192.08 148.599 L2198.06 148.599 L2198.06 148.182 Q2198.06 145.243 2196.11 143.645 Q2194.19 142.025 2190.7 142.025 Q2188.47 142.025 2186.37 142.557 Q2184.26 143.09 2182.32 144.155 L2182.32 140.219 Q2184.65 139.317 2186.85 138.877 Q2189.05 138.414 2191.14 138.414 Q2196.76 138.414 2199.54 141.33 Q2202.32 144.247 2202.32 150.173 Z" fill="#000000" fill-rule="nonzero" fill-opacity="1" /><path clip-path="url(#clip970)" d="M2226.11 143.02 Q2225.39 142.604 2224.54 142.418 Q2223.7 142.21 2222.69 142.21 Q2219.07 142.21 2217.13 144.571 Q2215.21 146.909 2215.21 151.307 L2215.21 164.965 L2210.93 164.965 L2210.93 139.039 L2215.21 139.039 L2215.21 143.067 Q2216.55 140.705 2218.7 139.571 Q2220.86 138.414 2223.94 138.414 Q2224.38 138.414 2224.91 138.483 Q2225.44 138.53 2226.09 138.645 L2226.11 143.02 Z" fill="#000000" fill-rule="nonzero" fill-opacity="1" /><path clip-path="url(#clip970)" d="M2241.37 167.372 Q2239.56 172.002 2237.85 173.414 Q2236.13 174.826 2233.26 174.826 L2229.86 174.826 L2229.86 171.261 L2232.36 171.261 Q2234.12 171.261 2235.09 170.428 Q2236.07 169.594 2237.25 166.492 L2238.01 164.548 L2227.52 139.039 L2232.04 139.039 L2240.14 159.317 L2248.24 139.039 L2252.76 139.039 L2241.37 167.372 Z" fill="#000000" fill-rule="nonzero" fill-opacity="1" /><polyline clip-path="url(#clip970)" style="stroke:#ff0000; stroke-linecap:round; stroke-linejoin:round; stroke-width:4; stroke-opacity:1; fill:none" points="1546.11,199.525 1696.11,199.525 "/>
<path clip-path="url(#clip970)" d="M1725.79 186.087 L1725.79 212.962 L1731.44 212.962 Q1738.59 212.962 1741.9 209.721 Q1745.23 206.481 1745.23 199.49 Q1745.23 192.545 1741.9 189.328 Q1738.59 186.087 1731.44 186.087 L1725.79 186.087 M1721.11 182.245 L1730.72 182.245 Q1740.77 182.245 1745.47 186.434 Q1750.17 190.601 1750.17 199.49 Q1750.17 208.425 1745.44 212.615 Q1740.72 216.805 1730.72 216.805 L1721.11 216.805 L1721.11 182.245 Z" fill="#000000" fill-rule="nonzero" fill-opacity="1" /><path clip-path="url(#clip970)" d="M1779.61 202.777 L1779.61 204.86 L1760.03 204.86 Q1760.3 209.258 1762.67 211.573 Q1765.05 213.865 1769.29 213.865 Q1771.74 213.865 1774.03 213.263 Q1776.35 212.661 1778.61 211.457 L1778.61 215.485 Q1776.32 216.457 1773.92 216.967 Q1771.51 217.476 1769.03 217.476 Q1762.83 217.476 1759.19 213.865 Q1755.58 210.254 1755.58 204.096 Q1755.58 197.731 1759.01 194.004 Q1762.46 190.254 1768.29 190.254 Q1773.52 190.254 1776.55 193.633 Q1779.61 196.99 1779.61 202.777 M1775.35 201.527 Q1775.3 198.032 1773.38 195.948 Q1771.48 193.865 1768.34 193.865 Q1764.77 193.865 1762.62 195.879 Q1760.49 197.893 1760.17 201.55 L1775.35 201.527 Z" fill="#000000" fill-rule="nonzero" fill-opacity="1" /><path clip-path="url(#clip970)" d="M1799.73 180.786 L1799.73 184.328 L1795.65 184.328 Q1793.36 184.328 1792.46 185.254 Q1791.58 186.18 1791.58 188.587 L1791.58 190.879 L1798.59 190.879 L1798.59 194.189 L1791.58 194.189 L1791.58 216.805 L1787.29 216.805 L1787.29 194.189 L1783.22 194.189 L1783.22 190.879 L1787.29 190.879 L1787.29 189.073 Q1787.29 184.745 1789.31 182.777 Q1791.32 180.786 1795.7 180.786 L1799.73 180.786 Z" fill="#000000" fill-rule="nonzero" fill-opacity="1" /><path clip-path="url(#clip970)" d="M1813.34 193.865 Q1809.91 193.865 1807.92 196.55 Q1805.93 199.212 1805.93 203.865 Q1805.93 208.518 1807.9 211.203 Q1809.89 213.865 1813.34 213.865 Q1816.74 213.865 1818.73 211.18 Q1820.72 208.494 1820.72 203.865 Q1820.72 199.258 1818.73 196.573 Q1816.74 193.865 1813.34 193.865 M1813.34 190.254 Q1818.89 190.254 1822.06 193.865 Q1825.23 197.476 1825.23 203.865 Q1825.23 210.231 1822.06 213.865 Q1818.89 217.476 1813.34 217.476 Q1807.76 217.476 1804.59 213.865 Q1801.44 210.231 1801.44 203.865 Q1801.44 197.476 1804.59 193.865 Q1807.76 190.254 1813.34 190.254 Z" fill="#000000" fill-rule="nonzero" fill-opacity="1" /><path clip-path="url(#clip970)" d="M1847.32 194.86 Q1846.6 194.444 1845.74 194.258 Q1844.91 194.05 1843.89 194.05 Q1840.28 194.05 1838.34 196.411 Q1836.41 198.749 1836.41 203.147 L1836.41 216.805 L1832.13 216.805 L1832.13 190.879 L1836.41 190.879 L1836.41 194.907 Q1837.76 192.545 1839.91 191.411 Q1842.06 190.254 1845.14 190.254 Q1845.58 190.254 1846.11 190.323 Q1846.65 190.37 1847.29 190.485 L1847.32 194.86 Z" fill="#000000" fill-rule="nonzero" fill-opacity="1" /><path clip-path="url(#clip970)" d="M1871.14 195.856 Q1872.73 192.985 1874.96 191.62 Q1877.18 190.254 1880.19 190.254 Q1884.24 190.254 1886.44 193.101 Q1888.64 195.925 1888.64 201.157 L1888.64 216.805 L1884.35 216.805 L1884.35 201.295 Q1884.35 197.569 1883.03 195.763 Q1881.72 193.958 1879.01 193.958 Q1875.7 193.958 1873.78 196.157 Q1871.85 198.356 1871.85 202.152 L1871.85 216.805 L1867.57 216.805 L1867.57 201.295 Q1867.57 197.545 1866.25 195.763 Q1864.93 193.958 1862.18 193.958 Q1858.91 193.958 1856.99 196.18 Q1855.07 198.379 1855.07 202.152 L1855.07 216.805 L1850.79 216.805 L1850.79 190.879 L1855.07 190.879 L1855.07 194.907 Q1856.53 192.522 1858.57 191.388 Q1860.6 190.254 1863.41 190.254 Q1866.23 190.254 1868.2 191.689 Q1870.19 193.124 1871.14 195.856 Z" fill="#000000" fill-rule="nonzero" fill-opacity="1" /><path clip-path="url(#clip970)" d="M1919.31 202.777 L1919.31 204.86 L1899.72 204.86 Q1900 209.258 1902.36 211.573 Q1904.75 213.865 1908.98 213.865 Q1911.44 213.865 1913.73 213.263 Q1916.04 212.661 1918.31 211.457 L1918.31 215.485 Q1916.02 216.457 1913.61 216.967 Q1911.21 217.476 1908.73 217.476 Q1902.53 217.476 1898.89 213.865 Q1895.28 210.254 1895.28 204.096 Q1895.28 197.731 1898.71 194.004 Q1902.16 190.254 1907.99 190.254 Q1913.22 190.254 1916.25 193.633 Q1919.31 196.99 1919.31 202.777 M1915.05 201.527 Q1915 198.032 1913.08 195.948 Q1911.18 193.865 1908.03 193.865 Q1904.47 193.865 1902.32 195.879 Q1900.19 197.893 1899.86 201.55 L1915.05 201.527 Z" fill="#000000" fill-rule="nonzero" fill-opacity="1" /><path clip-path="url(#clip970)" d="M1943.36 194.814 L1943.36 180.786 L1947.62 180.786 L1947.62 216.805 L1943.36 216.805 L1943.36 212.916 Q1942.02 215.231 1939.96 216.365 Q1937.92 217.476 1935.05 217.476 Q1930.35 217.476 1927.39 213.726 Q1924.45 209.976 1924.45 203.865 Q1924.45 197.754 1927.39 194.004 Q1930.35 190.254 1935.05 190.254 Q1937.92 190.254 1939.96 191.388 Q1942.02 192.499 1943.36 194.814 M1928.84 203.865 Q1928.84 208.564 1930.77 211.249 Q1932.71 213.911 1936.09 213.911 Q1939.47 213.911 1941.41 211.249 Q1943.36 208.564 1943.36 203.865 Q1943.36 199.166 1941.41 196.504 Q1939.47 193.819 1936.09 193.819 Q1932.71 193.819 1930.77 196.504 Q1928.84 199.166 1928.84 203.865 Z" fill="#000000" fill-rule="nonzero" fill-opacity="1" /><path clip-path="url(#clip970)" d="M1976.32 200.3 L1976.32 212.962 L1983.82 212.962 Q1987.59 212.962 1989.4 211.411 Q1991.23 209.837 1991.23 206.619 Q1991.23 203.379 1989.4 201.851 Q1987.59 200.3 1983.82 200.3 L1976.32 200.3 M1976.32 186.087 L1976.32 196.504 L1983.24 196.504 Q1986.67 196.504 1988.34 195.231 Q1990.03 193.934 1990.03 191.295 Q1990.03 188.68 1988.34 187.383 Q1986.67 186.087 1983.24 186.087 L1976.32 186.087 M1971.65 182.245 L1983.59 182.245 Q1988.94 182.245 1991.83 184.467 Q1994.72 186.689 1994.72 190.786 Q1994.72 193.958 1993.24 195.833 Q1991.76 197.707 1988.89 198.17 Q1992.34 198.911 1994.24 201.272 Q1996.16 203.61 1996.16 207.129 Q1996.16 211.758 1993.01 214.281 Q1989.86 216.805 1984.05 216.805 L1971.65 216.805 L1971.65 182.245 Z" fill="#000000" fill-rule="nonzero" fill-opacity="1" /><path clip-path="url(#clip970)" d="M2014.03 193.865 Q2010.6 193.865 2008.61 196.55 Q2006.62 199.212 2006.62 203.865 Q2006.62 208.518 2008.59 211.203 Q2010.58 213.865 2014.03 213.865 Q2017.43 213.865 2019.42 211.18 Q2021.41 208.494 2021.41 203.865 Q2021.41 199.258 2019.42 196.573 Q2017.43 193.865 2014.03 193.865 M2014.03 190.254 Q2019.59 190.254 2022.76 193.865 Q2025.93 197.476 2025.93 203.865 Q2025.93 210.231 2022.76 213.865 Q2019.59 217.476 2014.03 217.476 Q2008.45 217.476 2005.28 213.865 Q2002.13 210.231 2002.13 203.865 Q2002.13 197.476 2005.28 193.865 Q2008.45 190.254 2014.03 190.254 Z" fill="#000000" fill-rule="nonzero" fill-opacity="1" /><path clip-path="url(#clip970)" d="M2032.55 206.573 L2032.55 190.879 L2036.81 190.879 L2036.81 206.411 Q2036.81 210.092 2038.24 211.944 Q2039.68 213.772 2042.55 213.772 Q2046 213.772 2047.99 211.573 Q2050 209.374 2050 205.578 L2050 190.879 L2054.26 190.879 L2054.26 216.805 L2050 216.805 L2050 212.823 Q2048.45 215.184 2046.39 216.342 Q2044.35 217.476 2041.65 217.476 Q2037.18 217.476 2034.86 214.698 Q2032.55 211.92 2032.55 206.573 M2043.27 190.254 L2043.27 190.254 Z" fill="#000000" fill-rule="nonzero" fill-opacity="1" /><path clip-path="url(#clip970)" d="M2084.58 201.157 L2084.58 216.805 L2080.33 216.805 L2080.33 201.295 Q2080.33 197.615 2078.89 195.786 Q2077.46 193.958 2074.58 193.958 Q2071.14 193.958 2069.15 196.157 Q2067.15 198.356 2067.15 202.152 L2067.15 216.805 L2062.87 216.805 L2062.87 190.879 L2067.15 190.879 L2067.15 194.907 Q2068.68 192.569 2070.74 191.411 Q2072.83 190.254 2075.53 190.254 Q2080 190.254 2082.29 193.032 Q2084.58 195.786 2084.58 201.157 Z" fill="#000000" fill-rule="nonzero" fill-opacity="1" /><path clip-path="url(#clip970)" d="M2110.14 194.814 L2110.14 180.786 L2114.4 180.786 L2114.4 216.805 L2110.14 216.805 L2110.14 212.916 Q2108.8 215.231 2106.74 216.365 Q2104.7 217.476 2101.83 217.476 Q2097.13 217.476 2094.17 213.726 Q2091.23 209.976 2091.23 203.865 Q2091.23 197.754 2094.17 194.004 Q2097.13 190.254 2101.83 190.254 Q2104.7 190.254 2106.74 191.388 Q2108.8 192.499 2110.14 194.814 M2095.63 203.865 Q2095.63 208.564 2097.55 211.249 Q2099.49 213.911 2102.87 213.911 Q2106.25 213.911 2108.2 211.249 Q2110.14 208.564 2110.14 203.865 Q2110.14 199.166 2108.2 196.504 Q2106.25 193.819 2102.87 193.819 Q2099.49 193.819 2097.55 196.504 Q2095.63 199.166 2095.63 203.865 Z" fill="#000000" fill-rule="nonzero" fill-opacity="1" /><path clip-path="url(#clip970)" d="M2134.95 203.772 Q2129.79 203.772 2127.8 204.953 Q2125.81 206.133 2125.81 208.981 Q2125.81 211.249 2127.29 212.592 Q2128.8 213.911 2131.37 213.911 Q2134.91 213.911 2137.04 211.411 Q2139.19 208.888 2139.19 204.721 L2139.19 203.772 L2134.95 203.772 M2143.45 202.013 L2143.45 216.805 L2139.19 216.805 L2139.19 212.869 Q2137.73 215.231 2135.56 216.365 Q2133.38 217.476 2130.23 217.476 Q2126.25 217.476 2123.89 215.254 Q2121.55 213.008 2121.55 209.258 Q2121.55 204.883 2124.47 202.661 Q2127.41 200.439 2133.22 200.439 L2139.19 200.439 L2139.19 200.022 Q2139.19 197.083 2137.25 195.485 Q2135.33 193.865 2131.83 193.865 Q2129.61 193.865 2127.5 194.397 Q2125.39 194.93 2123.45 195.995 L2123.45 192.059 Q2125.79 191.157 2127.99 190.717 Q2130.19 190.254 2132.27 190.254 Q2137.89 190.254 2140.67 193.17 Q2143.45 196.087 2143.45 202.013 Z" fill="#000000" fill-rule="nonzero" fill-opacity="1" /><path clip-path="url(#clip970)" d="M2167.25 194.86 Q2166.53 194.444 2165.67 194.258 Q2164.84 194.05 2163.82 194.05 Q2160.21 194.05 2158.26 196.411 Q2156.34 198.749 2156.34 203.147 L2156.34 216.805 L2152.06 216.805 L2152.06 190.879 L2156.34 190.879 L2156.34 194.907 Q2157.69 192.545 2159.84 191.411 Q2161.99 190.254 2165.07 190.254 Q2165.51 190.254 2166.04 190.323 Q2166.58 190.37 2167.22 190.485 L2167.25 194.86 Z" fill="#000000" fill-rule="nonzero" fill-opacity="1" /><path clip-path="url(#clip970)" d="M2182.5 219.212 Q2180.7 223.842 2178.98 225.254 Q2177.27 226.666 2174.4 226.666 L2171 226.666 L2171 223.101 L2173.5 223.101 Q2175.26 223.101 2176.23 222.268 Q2177.2 221.434 2178.38 218.332 L2179.14 216.388 L2168.66 190.879 L2173.17 190.879 L2181.27 211.157 L2189.38 190.879 L2193.89 190.879 L2182.5 219.212 Z" fill="#000000" fill-rule="nonzero" fill-opacity="1" /></svg>
