<?xml version="1.0" encoding="utf-8"?>
<svg xmlns="http://www.w3.org/2000/svg" xmlns:xlink="http://www.w3.org/1999/xlink" width="600" height="400" viewBox="0 0 2400 1600">
<defs>
  <clipPath id="clip570">
    <rect x="0" y="0" width="2400" height="1600"/>
  </clipPath>
</defs>
<path clip-path="url(#clip570)" d="M0 1600 L2400 1600 L2400 0 L0 0  Z" fill="#ffffff" fill-rule="evenodd" fill-opacity="1"/>
<defs>
  <clipPath id="clip571">
    <rect x="480" y="0" width="1681" height="1600"/>
  </clipPath>
</defs>
<path clip-path="url(#clip570)" d="M212.976 1423.78 L2097.01 1423.78 L2097.01 144.475 L212.976 144.475  Z" fill="#ffffff" fill-rule="evenodd" fill-opacity="1"/>
<defs>
  <clipPath id="clip572">
    <rect x="212" y="144" width="1885" height="1280"/>
  </clipPath>
</defs>
<polyline clip-path="url(#clip572)" style="stroke:#000000; stroke-linecap:round; stroke-linejoin:round; stroke-width:2; stroke-opacity:0.1; fill:none" points="266.298,144.475 266.298,1423.78 "/>
<polyline clip-path="url(#clip572)" style="stroke:#000000; stroke-linecap:round; stroke-linejoin:round; stroke-width:2; stroke-opacity:0.1; fill:none" points="621.776,144.475 621.776,1423.78 "/>
<polyline clip-path="url(#clip572)" style="stroke:#000000; stroke-linecap:round; stroke-linejoin:round; stroke-width:2; stroke-opacity:0.1; fill:none" points="977.253,144.475 977.253,1423.78 "/>
<polyline clip-path="url(#clip572)" style="stroke:#000000; stroke-linecap:round; stroke-linejoin:round; stroke-width:2; stroke-opacity:0.1; fill:none" points="1332.73,144.475 1332.73,1423.78 "/>
<polyline clip-path="url(#clip572)" style="stroke:#000000; stroke-linecap:round; stroke-linejoin:round; stroke-width:2; stroke-opacity:0.1; fill:none" points="1688.21,144.475 1688.21,1423.78 "/>
<polyline clip-path="url(#clip572)" style="stroke:#000000; stroke-linecap:round; stroke-linejoin:round; stroke-width:2; stroke-opacity:0.1; fill:none" points="2043.69,144.475 2043.69,1423.78 "/>
<polyline clip-path="url(#clip570)" style="stroke:#000000; stroke-linecap:round; stroke-linejoin:round; stroke-width:4; stroke-opacity:1; fill:none" points="212.976,1423.78 2097.01,1423.78 "/>
<polyline clip-path="url(#clip570)" style="stroke:#000000; stroke-linecap:round; stroke-linejoin:round; stroke-width:4; stroke-opacity:1; fill:none" points="266.298,1423.78 266.298,1407.01 "/>
<polyline clip-path="url(#clip570)" style="stroke:#000000; stroke-linecap:round; stroke-linejoin:round; stroke-width:4; stroke-opacity:1; fill:none" points="621.776,1423.78 621.776,1407.01 "/>
<polyline clip-path="url(#clip570)" style="stroke:#000000; stroke-linecap:round; stroke-linejoin:round; stroke-width:4; stroke-opacity:1; fill:none" points="977.253,1423.78 977.253,1407.01 "/>
<polyline clip-path="url(#clip570)" style="stroke:#000000; stroke-linecap:round; stroke-linejoin:round; stroke-width:4; stroke-opacity:1; fill:none" points="1332.73,1423.78 1332.73,1407.01 "/>
<polyline clip-path="url(#clip570)" style="stroke:#000000; stroke-linecap:round; stroke-linejoin:round; stroke-width:4; stroke-opacity:1; fill:none" points="1688.21,1423.78 1688.21,1407.01 "/>
<polyline clip-path="url(#clip570)" style="stroke:#000000; stroke-linecap:round; stroke-linejoin:round; stroke-width:4; stroke-opacity:1; fill:none" points="2043.69,1423.78 2043.69,1407.01 "/>
<path clip-path="url(#clip570)" d="M266.298 1454.7 Q262.687 1454.7 260.858 1458.26 Q259.053 1461.8 259.053 1468.93 Q259.053 1476.04 260.858 1479.6 Q262.687 1483.14 266.298 1483.14 Q269.932 1483.14 271.738 1479.6 Q273.567 1476.04 273.567 1468.93 Q273.567 1461.8 271.738 1458.26 Q269.932 1454.7 266.298 1454.7 M266.298 1450.99 Q272.108 1450.99 275.164 1455.6 Q278.242 1460.18 278.242 1468.93 Q278.242 1477.66 275.164 1482.26 Q272.108 1486.85 266.298 1486.85 Q260.488 1486.85 257.409 1482.26 Q254.354 1477.66 254.354 1468.93 Q254.354 1460.18 257.409 1455.6 Q260.488 1450.99 266.298 1450.99 Z" fill="#000000" fill-rule="nonzero" fill-opacity="1" /><path clip-path="url(#clip570)" d="M612.158 1482.24 L619.797 1482.24 L619.797 1455.88 L611.486 1457.54 L611.486 1453.28 L619.75 1451.62 L624.426 1451.62 L624.426 1482.24 L632.065 1482.24 L632.065 1486.18 L612.158 1486.18 L612.158 1482.24 Z" fill="#000000" fill-rule="nonzero" fill-opacity="1" /><path clip-path="url(#clip570)" d="M971.906 1482.24 L988.225 1482.24 L988.225 1486.18 L966.281 1486.18 L966.281 1482.24 Q968.943 1479.49 973.526 1474.86 Q978.133 1470.2 979.313 1468.86 Q981.559 1466.34 982.438 1464.6 Q983.341 1462.84 983.341 1461.15 Q983.341 1458.4 981.397 1456.66 Q979.476 1454.93 976.374 1454.93 Q974.175 1454.93 971.721 1455.69 Q969.29 1456.45 966.513 1458.01 L966.513 1453.28 Q969.337 1452.15 971.79 1451.57 Q974.244 1450.99 976.281 1450.99 Q981.651 1450.99 984.846 1453.68 Q988.04 1456.36 988.04 1460.85 Q988.04 1462.98 987.23 1464.9 Q986.443 1466.8 984.337 1469.39 Q983.758 1470.07 980.656 1473.28 Q977.554 1476.48 971.906 1482.24 Z" fill="#000000" fill-rule="nonzero" fill-opacity="1" /><path clip-path="url(#clip570)" d="M1336.98 1467.54 Q1340.34 1468.26 1342.21 1470.53 Q1344.11 1472.8 1344.11 1476.13 Q1344.11 1481.25 1340.59 1484.05 Q1337.07 1486.85 1330.59 1486.85 Q1328.41 1486.85 1326.1 1486.41 Q1323.81 1485.99 1321.35 1485.14 L1321.35 1480.62 Q1323.3 1481.76 1325.61 1482.33 Q1327.93 1482.91 1330.45 1482.91 Q1334.85 1482.91 1337.14 1481.18 Q1339.46 1479.44 1339.46 1476.13 Q1339.46 1473.08 1337.3 1471.36 Q1335.17 1469.63 1331.35 1469.63 L1327.33 1469.63 L1327.33 1465.78 L1331.54 1465.78 Q1334.99 1465.78 1336.82 1464.42 Q1338.65 1463.03 1338.65 1460.44 Q1338.65 1457.77 1336.75 1456.36 Q1334.87 1454.93 1331.35 1454.93 Q1329.43 1454.93 1327.23 1455.34 Q1325.03 1455.76 1322.4 1456.64 L1322.4 1452.47 Q1325.06 1451.73 1327.37 1451.36 Q1329.71 1450.99 1331.77 1450.99 Q1337.09 1450.99 1340.2 1453.42 Q1343.3 1455.83 1343.3 1459.95 Q1343.3 1462.82 1341.65 1464.81 Q1340.01 1466.78 1336.98 1467.54 Z" fill="#000000" fill-rule="nonzero" fill-opacity="1" /><path clip-path="url(#clip570)" d="M1691.22 1455.69 L1679.41 1474.14 L1691.22 1474.14 L1691.22 1455.69 M1689.99 1451.62 L1695.87 1451.62 L1695.87 1474.14 L1700.8 1474.14 L1700.8 1478.03 L1695.87 1478.03 L1695.87 1486.18 L1691.22 1486.18 L1691.22 1478.03 L1675.62 1478.03 L1675.62 1473.52 L1689.99 1451.62 Z" fill="#000000" fill-rule="nonzero" fill-opacity="1" /><path clip-path="url(#clip570)" d="M2033.96 1451.62 L2052.32 1451.62 L2052.32 1455.55 L2038.25 1455.55 L2038.25 1464.02 Q2039.26 1463.68 2040.28 1463.52 Q2041.3 1463.33 2042.32 1463.33 Q2048.11 1463.33 2051.49 1466.5 Q2054.87 1469.67 2054.87 1475.09 Q2054.87 1480.67 2051.39 1483.77 Q2047.92 1486.85 2041.6 1486.85 Q2039.43 1486.85 2037.16 1486.48 Q2034.91 1486.11 2032.51 1485.37 L2032.51 1480.67 Q2034.59 1481.8 2036.81 1482.36 Q2039.03 1482.91 2041.51 1482.91 Q2045.51 1482.91 2047.85 1480.81 Q2050.19 1478.7 2050.19 1475.09 Q2050.19 1471.48 2047.85 1469.37 Q2045.51 1467.27 2041.51 1467.27 Q2039.64 1467.27 2037.76 1467.68 Q2035.91 1468.1 2033.96 1468.98 L2033.96 1451.62 Z" fill="#000000" fill-rule="nonzero" fill-opacity="1" /><path clip-path="url(#clip570)" d="M1171.61 1532.99 L1158.72 1550.34 L1172.28 1568.64 L1165.37 1568.64 L1154.99 1554.64 L1144.62 1568.64 L1137.71 1568.64 L1151.55 1549.99 L1138.89 1532.99 L1145.79 1532.99 L1155.25 1545.69 L1164.7 1532.99 L1171.61 1532.99 Z" fill="#000000" fill-rule="nonzero" fill-opacity="1" /><polyline clip-path="url(#clip572)" style="stroke:#000000; stroke-linecap:round; stroke-linejoin:round; stroke-width:2; stroke-opacity:0.1; fill:none" points="212.976,339.779 2097.01,339.779 "/>
<polyline clip-path="url(#clip572)" style="stroke:#000000; stroke-linecap:round; stroke-linejoin:round; stroke-width:2; stroke-opacity:0.1; fill:none" points="212.976,695.257 2097.01,695.257 "/>
<polyline clip-path="url(#clip572)" style="stroke:#000000; stroke-linecap:round; stroke-linejoin:round; stroke-width:2; stroke-opacity:0.1; fill:none" points="212.976,1050.73 2097.01,1050.73 "/>
<polyline clip-path="url(#clip572)" style="stroke:#000000; stroke-linecap:round; stroke-linejoin:round; stroke-width:2; stroke-opacity:0.1; fill:none" points="212.976,1406.21 2097.01,1406.21 "/>
<polyline clip-path="url(#clip570)" style="stroke:#000000; stroke-linecap:round; stroke-linejoin:round; stroke-width:4; stroke-opacity:1; fill:none" points="212.976,144.475 212.976,1423.78 "/>
<polyline clip-path="url(#clip570)" style="stroke:#000000; stroke-linecap:round; stroke-linejoin:round; stroke-width:4; stroke-opacity:1; fill:none" points="212.976,339.779 229.739,339.779 "/>
<polyline clip-path="url(#clip570)" style="stroke:#000000; stroke-linecap:round; stroke-linejoin:round; stroke-width:4; stroke-opacity:1; fill:none" points="212.976,695.257 229.739,695.257 "/>
<polyline clip-path="url(#clip570)" style="stroke:#000000; stroke-linecap:round; stroke-linejoin:round; stroke-width:4; stroke-opacity:1; fill:none" points="212.976,1050.73 229.739,1050.73 "/>
<polyline clip-path="url(#clip570)" style="stroke:#000000; stroke-linecap:round; stroke-linejoin:round; stroke-width:4; stroke-opacity:1; fill:none" points="212.976,1406.21 229.739,1406.21 "/>
<path clip-path="url(#clip570)" d="M116.491 340.23 L146.166 340.23 L146.166 344.165 L116.491 344.165 L116.491 340.23 Z" fill="#000000" fill-rule="nonzero" fill-opacity="1" /><path clip-path="url(#clip570)" d="M157.069 353.124 L164.708 353.124 L164.708 326.758 L156.398 328.425 L156.398 324.166 L164.662 322.499 L169.338 322.499 L169.338 353.124 L176.976 353.124 L176.976 357.059 L157.069 357.059 L157.069 353.124 Z" fill="#000000" fill-rule="nonzero" fill-opacity="1" /><path clip-path="url(#clip570)" d="M165.032 681.055 Q161.421 681.055 159.592 684.62 Q157.787 688.162 157.787 695.291 Q157.787 702.398 159.592 705.963 Q161.421 709.504 165.032 709.504 Q168.666 709.504 170.472 705.963 Q172.3 702.398 172.3 695.291 Q172.3 688.162 170.472 684.62 Q168.666 681.055 165.032 681.055 M165.032 677.352 Q170.842 677.352 173.898 681.958 Q176.976 686.541 176.976 695.291 Q176.976 704.018 173.898 708.625 Q170.842 713.208 165.032 713.208 Q159.222 713.208 156.143 708.625 Q153.088 704.018 153.088 695.291 Q153.088 686.541 156.143 681.958 Q159.222 677.352 165.032 677.352 Z" fill="#000000" fill-rule="nonzero" fill-opacity="1" /><path clip-path="url(#clip570)" d="M157.069 1064.08 L164.708 1064.08 L164.708 1037.71 L156.398 1039.38 L156.398 1035.12 L164.662 1033.45 L169.338 1033.45 L169.338 1064.08 L176.976 1064.08 L176.976 1068.01 L157.069 1068.01 L157.069 1064.08 Z" fill="#000000" fill-rule="nonzero" fill-opacity="1" /><path clip-path="url(#clip570)" d="M160.657 1419.56 L176.976 1419.56 L176.976 1423.49 L155.032 1423.49 L155.032 1419.56 Q157.694 1416.8 162.277 1412.17 Q166.884 1407.52 168.064 1406.18 Q170.31 1403.65 171.189 1401.92 Q172.092 1400.16 172.092 1398.47 Q172.092 1395.71 170.148 1393.98 Q168.226 1392.24 165.125 1392.24 Q162.926 1392.24 160.472 1393.01 Q158.041 1393.77 155.264 1395.32 L155.264 1390.6 Q158.088 1389.46 160.541 1388.89 Q162.995 1388.31 165.032 1388.31 Q170.402 1388.31 173.597 1390.99 Q176.791 1393.68 176.791 1398.17 Q176.791 1400.3 175.981 1402.22 Q175.194 1404.12 173.088 1406.71 Q172.509 1407.38 169.407 1410.6 Q166.305 1413.79 160.657 1419.56 Z" fill="#000000" fill-rule="nonzero" fill-opacity="1" /><path clip-path="url(#clip570)" d="M69.5448 782.439 Q75.9105 784.922 77.852 787.277 Q79.7935 789.632 79.7935 793.579 L79.7935 798.258 L74.892 798.258 L74.892 794.82 Q74.892 792.401 73.7461 791.065 Q72.6003 789.728 68.3353 788.105 L65.6617 787.054 L30.5866 801.473 L30.5866 795.266 L58.4684 784.126 L30.5866 772.986 L30.5866 766.779 L69.5448 782.439 Z" fill="#000000" fill-rule="nonzero" fill-opacity="1" /><path clip-path="url(#clip570)" d="M1121.17 33.1202 Q1115.01 33.1202 1111.69 37.5762 Q1108.2 42.2347 1108.2 49.9314 Q1108.2 58.0738 1111.65 62.7728 Q1115.13 67.4314 1121.17 67.4314 Q1127.12 67.4314 1130.61 62.7323 Q1134.09 58.0333 1134.09 49.9314 Q1134.09 42.5183 1130.61 37.5762 Q1127.41 33.1202 1121.17 33.1202 M1121.17 27.2059 L1145.92 27.2059 L1145.92 34.6595 L1137.57 34.6595 Q1141.99 40.9789 1141.99 49.9314 Q1141.99 61.0714 1136.44 67.3908 Q1130.89 73.7508 1121.17 73.7508 Q1111.4 73.7508 1105.9 67.3908 Q1100.35 61.0714 1100.35 49.9314 Q1100.35 38.7104 1105.9 32.4315 Q1110.47 27.2059 1121.17 27.2059 Z" fill="#000000" fill-rule="nonzero" fill-opacity="1" /><path clip-path="url(#clip570)" d="M1154.67 68.12 L1162.93 68.12 L1162.93 43.369 L1153.9 45.0299 L1153.9 40.3308 L1163.22 38.7509 L1168.77 38.7509 L1168.77 68.12 L1177.07 68.12 L1177.07 72.576 L1154.67 72.576 L1154.67 68.12 Z" fill="#000000" fill-rule="nonzero" fill-opacity="1" /><path clip-path="url(#clip570)" d="M1192.46 67.958 L1209.64 67.958 L1209.64 72.576 L1185.41 72.576 L1185.41 68.12 Q1186.79 66.8642 1189.34 64.5957 Q1203.28 52.2405 1203.28 48.4326 Q1203.28 45.759 1201.17 44.1387 Q1199.07 42.4778 1195.62 42.4778 Q1193.52 42.4778 1191.05 43.2069 Q1188.57 43.8956 1185.66 45.3134 L1185.66 40.3308 Q1188.78 39.1965 1191.45 38.6294 Q1194.16 38.0623 1196.47 38.0623 Q1202.35 38.0623 1205.87 40.7359 Q1209.4 43.4095 1209.4 47.7845 Q1209.4 53.4152 1195.99 64.9198 Q1193.72 66.8642 1192.46 67.958 Z" fill="#000000" fill-rule="nonzero" fill-opacity="1" /><path clip-path="url(#clip572)" d="M266.298 606.387 L266.298 606.387 L284.251 606.387 L302.205 606.387 L320.158 606.387 L338.112 606.387 L356.065 606.387 L374.019 606.387 L391.972 606.387 L409.925 606.387 L427.879 606.387 L445.832 606.387 L463.786 606.387 L481.739 606.387 L499.692 606.387 L517.646 606.387 L535.599 606.387 L553.553 606.387 L571.506 606.387 L589.46 606.387 L607.413 606.387 L625.366 606.387 L643.32 606.387 L661.273 606.387 L679.227 606.387 L697.18 606.387 L715.133 606.387 L733.087 606.387 L751.04 606.387 L768.994 606.387 L786.947 606.387 L804.901 606.387 L822.854 606.387 L840.807 606.387 L858.761 606.387 L876.714 606.387 L894.668 606.387 L912.621 606.387 L930.574 606.387 L948.528 606.387 L966.481 606.387 L984.435 606.387 L1002.39 606.387 L1020.34 606.387 L1038.29 606.387 L1056.25 606.387 L1074.2 606.387 L1092.16 606.387 L1110.11 606.387 L1128.06 606.387 L1146.02 606.387 L1163.97 606.387 L1181.92 606.387 L1199.88 606.387 L1217.83 606.387 L1235.78 606.387 L1253.74 606.387 L1271.69 606.387 L1289.64 606.387 L1307.6 606.387 L1325.55 606.387 L1343.5 606.387 L1361.46 606.387 L1379.41 606.387 L1397.36 606.387 L1415.32 606.387 L1433.27 606.387 L1451.22 606.387 L1469.18 606.387 L1487.13 606.387 L1505.08 606.387 L1523.04 606.387 L1540.99 606.387 L1558.94 606.387 L1576.9 606.387 L1594.85 606.387 L1612.8 606.387 L1630.76 606.387 L1648.71 606.387 L1666.66 606.387 L1684.62 606.387 L1702.57 606.387 L1720.52 606.387 L1738.48 606.387 L1756.43 606.387 L1774.38 606.387 L1792.34 606.387 L1810.29 606.387 L1828.25 606.387 L1846.2 606.387 L1864.15 606.387 L1882.11 606.387 L1900.06 606.387 L1918.01 606.387 L1935.97 606.387 L1953.92 606.387 L1971.87 606.387 L1989.83 606.387 L2007.78 606.387 L2025.73 606.387 L2043.69 606.387 L2043.69 606.387 L2043.69 606.387 L2043.69 606.387 L2043.69 625.097 L2043.69 643.806 L2043.69 662.515 L2043.69 681.225 L2043.69 699.934 L2043.69 718.643 L2043.69 737.353 L2043.69 756.062 L2043.69 774.771 L2043.69 793.481 L2043.69 812.19 L2043.69 830.899 L2043.69 849.609 L2043.69 868.318 L2043.69 887.027 L2043.69 905.737 L2043.69 924.446 L2043.69 943.155 L2043.69 961.865 L2043.69 961.865 L2043.69 961.865 L2043.69 961.865 L2025.73 961.865 L2007.78 961.865 L1989.83 961.865 L1971.87 961.865 L1953.92 961.865 L1935.97 961.865 L1918.01 961.865 L1900.06 961.865 L1882.11 961.865 L1864.15 961.865 L1846.2 961.865 L1828.25 961.865 L1810.29 961.865 L1792.34 961.865 L1774.38 961.865 L1756.43 961.865 L1738.48 961.865 L1720.52 961.865 L1702.57 961.865 L1684.62 961.865 L1666.66 961.865 L1648.71 961.865 L1630.76 961.865 L1612.8 961.865 L1594.85 961.865 L1576.9 961.865 L1558.94 961.865 L1540.99 961.865 L1523.04 961.865 L1505.08 961.865 L1487.13 961.865 L1469.18 961.865 L1451.22 961.865 L1433.27 961.865 L1415.32 961.865 L1397.36 961.865 L1379.41 961.865 L1361.46 961.865 L1343.5 961.865 L1325.55 961.865 L1307.6 961.865 L1289.64 961.865 L1271.69 961.865 L1253.74 961.865 L1235.78 961.865 L1217.83 961.865 L1199.88 961.865 L1181.92 961.865 L1163.97 961.865 L1146.02 961.865 L1128.06 961.865 L1110.11 961.865 L1092.16 961.865 L1074.2 961.865 L1056.25 961.865 L1038.29 961.865 L1020.34 961.865 L1002.39 961.865 L984.435 961.865 L966.481 961.865 L948.528 961.865 L930.574 961.865 L912.621 961.865 L894.668 961.865 L876.714 961.865 L858.761 961.865 L840.807 961.865 L822.854 961.865 L804.901 961.865 L786.947 961.865 L768.994 961.865 L751.04 961.865 L733.087 961.865 L715.133 961.865 L697.18 961.865 L679.227 961.865 L661.273 961.865 L643.32 961.865 L625.366 961.865 L607.413 961.865 L589.46 961.865 L571.506 961.865 L553.553 961.865 L535.599 961.865 L517.646 961.865 L499.692 961.865 L481.739 961.865 L463.786 961.865 L445.832 961.865 L427.879 961.865 L409.925 961.865 L391.972 961.865 L374.019 961.865 L356.065 961.865 L338.112 961.865 L320.158 961.865 L302.205 961.865 L284.251 961.865 L266.298 961.865 L266.298 961.865 L266.298 961.865 L266.298 961.865 L266.298 943.155 L266.298 924.446 L266.298 905.737 L266.298 887.027 L266.298 868.318 L266.298 849.609 L266.298 830.899 L266.298 812.19 L266.298 793.481 L266.298 774.771 L266.298 756.062 L266.298 737.353 L266.298 718.643 L266.298 699.934 L266.298 681.225 L266.298 662.515 L266.298 643.806 L266.298 625.097 L266.298 606.387 L266.298 606.387 L266.298 606.387  Z" fill="#30123b" fill-rule="evenodd" fill-opacity="1"/>
<path clip-path="url(#clip572)" d="M1487.13 624.867 L1505.08 624.501 L1523.04 624.146 L1540.99 623.802 L1558.94 623.467 L1576.9 623.143 L1594.85 622.828 L1612.8 622.522 L1630.76 622.224 L1648.71 621.935 L1666.66 621.654 L1684.62 621.38 L1702.57 621.114 L1720.52 620.855 L1738.48 620.603 L1756.43 620.358 L1774.38 620.119 L1792.34 619.886 L1810.29 619.66 L1828.25 619.439 L1846.2 619.223 L1864.15 619.013 L1882.11 618.808 L1900.06 618.609 L1918.01 618.414 L1935.97 618.223 L1953.92 618.038 L1971.87 617.856 L1989.83 617.679 L2007.78 617.507 L2025.73 617.338 L2043.69 617.173 L2043.69 606.387 L2043.69 625.097 L2043.69 643.806 L2043.69 662.515 L2043.69 681.225 L2043.69 699.934 L2043.69 718.643 L2043.69 737.353 L2043.69 756.062 L2043.69 774.771 L2043.69 793.481 L2043.69 812.19 L2043.69 830.899 L2043.69 849.609 L2043.69 868.318 L2043.69 887.027 L2043.69 905.737 L2043.69 924.446 L2043.69 943.155 L2043.69 943.155 L2043.69 951.068 L2025.73 950.902 L2007.78 950.733 L1989.83 950.56 L1971.87 950.382 L1953.92 950.201 L1935.97 950.015 L1918.01 949.824 L1900.06 949.629 L1882.11 949.428 L1864.15 949.223 L1846.2 949.012 L1828.25 948.796 L1810.29 948.575 L1792.34 948.348 L1774.38 948.114 L1756.43 947.875 L1738.48 947.629 L1720.52 947.376 L1702.57 947.116 L1684.62 946.849 L1666.66 946.575 L1648.71 946.293 L1630.76 946.003 L1612.8 945.704 L1594.85 945.397 L1576.9 945.081 L1558.94 944.755 L1540.99 944.42 L1523.04 944.074 L1505.08 943.718 L1487.13 943.351 L1477.8 943.155 L1469.18 942.95 L1451.22 942.512 L1433.27 942.061 L1415.32 941.595 L1397.36 941.114 L1379.41 940.616 L1361.46 940.102 L1343.5 939.571 L1325.55 939.021 L1307.6 938.453 L1289.64 937.864 L1271.69 937.254 L1253.74 936.621 L1235.78 935.966 L1217.83 935.286 L1199.88 934.581 L1181.92 933.848 L1163.97 933.087 L1146.02 932.296 L1128.06 931.474 L1110.11 930.617 L1092.16 929.726 L1074.2 928.797 L1056.25 927.828 L1038.29 926.818 L1020.34 925.763 L1002.39 924.66 L998.973 924.446 L984.435 923.387 L966.481 922.027 L948.528 920.604 L930.574 919.114 L912.621 917.552 L894.668 915.913 L876.714 914.192 L858.761 912.383 L840.807 910.481 L822.854 908.477 L804.901 906.364 L799.722 905.737 L786.947 903.909 L768.994 901.225 L751.04 898.391 L733.087 895.393 L715.133 892.219 L697.18 888.854 L687.832 887.027 L679.227 884.539 L661.273 879.138 L643.32 873.401 L628.265 868.318 L625.366 863.317 L617.472 849.609 L609.554 830.899 L607.413 823.338 L604.238 812.19 L601.415 793.481 L601.036 774.771 L603.095 756.062 L607.413 738.373 L607.66 737.353 L614.775 718.643 L624.765 699.934 L625.366 699.728 L643.32 693.716 L661.273 688.061 L679.227 682.733 L684.477 681.225 L697.18 678.764 L715.133 675.45 L733.087 672.323 L751.04 669.367 L768.994 666.57 L786.947 663.922 L796.85 662.515 L804.901 661.546 L822.854 659.457 L840.807 657.475 L858.761 655.592 L876.714 653.802 L894.668 652.098 L912.621 650.475 L930.574 648.927 L948.528 647.45 L966.481 646.039 L984.435 644.691 L996.64 643.806 L1002.39 643.447 L1020.34 642.353 L1038.29 641.305 L1056.25 640.302 L1074.2 639.34 L1092.16 638.417 L1110.11 637.531 L1128.06 636.68 L1146.02 635.863 L1163.97 635.076 L1181.92 634.32 L1199.88 633.591 L1217.83 632.89 L1235.78 632.214 L1253.74 631.562 L1271.69 630.933 L1289.64 630.326 L1307.6 629.74 L1325.55 629.174 L1343.5 628.627 L1361.46 628.098 L1379.41 627.586 L1397.36 627.091 L1415.32 626.612 L1433.27 626.148 L1451.22 625.698 L1469.18 625.263 L1476.15 625.097 L1487.13 624.867  Z" fill="#4584f9" fill-rule="evenodd" fill-opacity="1"/>
<path clip-path="url(#clip572)" d="M1540.99 643.133 L1558.94 642.387 L1576.9 641.662 L1594.85 640.958 L1612.8 640.274 L1630.76 639.61 L1648.71 638.963 L1666.66 638.335 L1684.62 637.724 L1702.57 637.129 L1720.52 636.55 L1738.48 635.986 L1756.43 635.438 L1774.38 634.903 L1792.34 634.382 L1810.29 633.875 L1828.25 633.38 L1846.2 632.898 L1864.15 632.428 L1882.11 631.969 L1900.06 631.522 L1918.01 631.086 L1935.97 630.659 L1953.92 630.243 L1971.87 629.837 L1989.83 629.441 L2007.78 629.053 L2025.73 628.675 L2043.69 628.305 L2043.69 625.097 L2043.69 643.806 L2043.69 662.515 L2043.69 681.225 L2043.69 699.934 L2043.69 718.643 L2043.69 737.353 L2043.69 756.062 L2043.69 774.771 L2043.69 793.481 L2043.69 812.19 L2043.69 830.899 L2043.69 849.609 L2043.69 868.318 L2043.69 887.027 L2043.69 905.737 L2043.69 924.446 L2043.69 924.446 L2043.69 939.921 L2025.73 939.55 L2007.78 939.171 L1989.83 938.782 L1971.87 938.385 L1953.92 937.977 L1935.97 937.56 L1918.01 937.133 L1900.06 936.696 L1882.11 936.247 L1864.15 935.787 L1846.2 935.316 L1828.25 934.832 L1810.29 934.336 L1792.34 933.827 L1774.38 933.305 L1756.43 932.769 L1738.48 932.219 L1720.52 931.653 L1702.57 931.073 L1684.62 930.476 L1666.66 929.863 L1648.71 929.232 L1630.76 928.584 L1612.8 927.917 L1594.85 927.23 L1576.9 926.524 L1558.94 925.796 L1540.99 925.047 L1526.94 924.446 L1523.04 924.252 L1505.08 923.349 L1487.13 922.419 L1469.18 921.459 L1451.22 920.469 L1433.27 919.448 L1415.32 918.394 L1397.36 917.306 L1379.41 916.182 L1361.46 915.021 L1343.5 913.821 L1325.55 912.58 L1307.6 911.296 L1289.64 909.967 L1271.69 908.591 L1253.74 907.166 L1236.35 905.737 L1235.78 905.682 L1217.83 903.916 L1199.88 902.085 L1181.92 900.186 L1163.97 898.214 L1146.02 896.168 L1128.06 894.042 L1110.11 891.831 L1092.16 889.533 L1074.2 887.141 L1073.36 887.027 L1056.25 883.587 L1038.29 879.834 L1020.34 875.925 L1002.39 871.852 L987.387 868.318 L984.435 864.745 L972.059 849.609 L966.481 840.33 L960.837 830.899 L953.42 812.19 L949.63 793.481 L949.348 774.771 L952.569 756.062 L959.404 737.353 L966.481 724.89 L970.044 718.643 L984.435 700.354 L984.769 699.934 L1002.39 695.799 L1020.34 691.755 L1038.29 687.875 L1056.25 684.149 L1070.84 681.225 L1074.2 680.772 L1092.16 678.4 L1110.11 676.119 L1128.06 673.926 L1146.02 671.815 L1163.97 669.783 L1181.92 667.826 L1199.88 665.939 L1217.83 664.12 L1234.22 662.515 L1235.78 662.385 L1253.74 660.917 L1271.69 659.5 L1289.64 658.132 L1307.6 656.81 L1325.55 655.533 L1343.5 654.299 L1361.46 653.104 L1379.41 651.949 L1397.36 650.831 L1415.32 649.748 L1433.27 648.699 L1451.22 647.682 L1469.18 646.697 L1487.13 645.741 L1505.08 644.815 L1523.04 643.915 L1525.25 643.806 L1540.99 643.133  Z" fill="#1ae4b6" fill-rule="evenodd" fill-opacity="1"/>
<path clip-path="url(#clip572)" d="M1953.92 643.303 L1971.87 642.694 L1989.83 642.1 L2007.78 641.519 L2025.73 640.952 L2043.69 640.398 L2043.69 625.097 L2043.69 643.806 L2043.69 662.515 L2043.69 681.225 L2043.69 699.934 L2043.69 718.643 L2043.69 737.353 L2043.69 756.062 L2043.69 774.771 L2043.69 793.481 L2043.69 812.19 L2043.69 830.899 L2043.69 849.609 L2043.69 868.318 L2043.69 887.027 L2043.69 905.737 L2043.69 924.446 L2043.69 924.446 L2043.69 927.813 L2025.73 927.258 L2007.78 926.689 L1989.83 926.107 L1971.87 925.511 L1953.92 924.901 L1940.79 924.446 L1935.97 924.253 L1918.01 923.524 L1900.06 922.778 L1882.11 922.013 L1864.15 921.23 L1846.2 920.426 L1828.25 919.602 L1810.29 918.757 L1792.34 917.89 L1774.38 917.001 L1756.43 916.088 L1738.48 915.151 L1720.52 914.188 L1702.57 913.2 L1684.62 912.184 L1666.66 911.141 L1648.71 910.068 L1630.76 908.966 L1612.8 907.831 L1594.85 906.665 L1580.92 905.737 L1576.9 905.421 L1558.94 903.99 L1540.99 902.517 L1523.04 901 L1505.08 899.438 L1487.13 897.829 L1469.18 896.17 L1451.22 894.46 L1433.27 892.696 L1415.32 890.876 L1397.36 888.998 L1379.41 887.059 L1379.12 887.027 L1361.46 884.158 L1343.5 881.147 L1325.55 878.037 L1307.6 874.822 L1289.64 871.498 L1273.01 868.318 L1271.69 867.025 L1254.2 849.609 L1253.74 848.988 L1240.43 830.899 L1235.78 821.303 L1231.37 812.19 L1226.78 793.481 L1226.54 774.771 L1230.66 756.062 L1235.78 744.888 L1239.24 737.353 L1252.51 718.643 L1253.74 717.372 L1270.81 699.934 L1271.69 699.765 L1289.64 696.345 L1307.6 693.039 L1325.55 689.84 L1343.5 686.745 L1361.46 683.748 L1377.03 681.225 L1379.41 680.965 L1397.36 679.037 L1415.32 677.168 L1433.27 675.358 L1451.22 673.603 L1469.18 671.901 L1487.13 670.25 L1505.08 668.649 L1523.04 667.094 L1540.99 665.584 L1558.94 664.117 L1576.9 662.693 L1579.16 662.515 L1594.85 661.473 L1612.8 660.31 L1630.76 659.18 L1648.71 658.082 L1666.66 657.013 L1684.62 655.973 L1702.57 654.961 L1720.52 653.976 L1738.48 653.017 L1756.43 652.083 L1774.38 651.173 L1792.34 650.287 L1810.29 649.422 L1828.25 648.58 L1846.2 647.759 L1864.15 646.957 L1882.11 646.176 L1900.06 645.413 L1918.01 644.669 L1935.97 643.943 L1939.39 643.806 L1953.92 643.303  Z" fill="#a1fc3d" fill-rule="evenodd" fill-opacity="1"/>
<path clip-path="url(#clip572)" d="M1882.11 662.01 L1900.06 660.995 L1918.01 660.005 L1935.97 659.038 L1953.92 658.093 L1971.87 657.171 L1989.83 656.271 L2007.78 655.391 L2025.73 654.532 L2043.69 653.692 L2043.69 643.806 L2043.69 662.515 L2043.69 681.225 L2043.69 699.934 L2043.69 718.643 L2043.69 737.353 L2043.69 756.062 L2043.69 774.771 L2043.69 793.481 L2043.69 812.19 L2043.69 830.899 L2043.69 849.609 L2043.69 868.318 L2043.69 887.027 L2043.69 905.737 L2043.69 905.737 L2043.69 914.496 L2025.73 913.653 L2007.78 912.792 L1989.83 911.909 L1971.87 911.007 L1953.92 910.082 L1935.97 909.135 L1918.01 908.165 L1900.06 907.172 L1882.11 906.154 L1874.86 905.737 L1864.15 905.01 L1846.2 903.769 L1828.25 902.497 L1810.29 901.193 L1792.34 899.855 L1774.38 898.483 L1756.43 897.074 L1738.48 895.629 L1720.52 894.145 L1702.57 892.621 L1684.62 891.056 L1666.66 889.449 L1648.71 887.796 L1640.5 887.027 L1630.76 885.671 L1612.8 883.122 L1594.85 880.501 L1576.9 877.806 L1558.94 875.034 L1540.99 872.181 L1523.04 869.245 L1517.46 868.318 L1505.08 857.741 L1495.7 849.609 L1487.13 839.553 L1479.81 830.899 L1469.39 812.19 L1469.18 811.421 L1464.12 793.481 L1463.91 774.771 L1468.77 756.062 L1469.18 755.298 L1478.77 737.353 L1487.13 727.195 L1494.22 718.643 L1505.08 709.046 L1515.54 699.934 L1523.04 698.69 L1540.99 695.765 L1558.94 692.923 L1576.9 690.161 L1594.85 687.476 L1612.8 684.865 L1630.76 682.326 L1638.68 681.225 L1648.71 680.287 L1666.66 678.641 L1684.62 677.04 L1702.57 675.481 L1720.52 673.963 L1738.48 672.485 L1756.43 671.045 L1774.38 669.642 L1792.34 668.274 L1810.29 666.941 L1828.25 665.641 L1846.2 664.373 L1864.15 663.136 L1873.32 662.515 L1882.11 662.01  Z" fill="#f9ba38" fill-rule="evenodd" fill-opacity="1"/>
<path clip-path="url(#clip572)" d="M1882.11 680.296 L1900.06 678.827 L1918.01 677.393 L1935.97 675.993 L1953.92 674.626 L1971.87 673.291 L1989.83 671.987 L2007.78 670.713 L2025.73 669.468 L2043.69 668.251 L2043.69 662.515 L2043.69 681.225 L2043.69 699.934 L2043.69 718.643 L2043.69 737.353 L2043.69 756.062 L2043.69 774.771 L2043.69 793.481 L2043.69 812.19 L2043.69 830.899 L2043.69 849.609 L2043.69 868.318 L2043.69 887.027 L2043.69 887.027 L2043.69 899.903 L2025.73 898.682 L2007.78 897.433 L1989.83 896.155 L1971.87 894.847 L1953.92 893.508 L1935.97 892.137 L1918.01 890.733 L1900.06 889.295 L1882.11 887.821 L1872.6 887.027 L1864.15 885.98 L1846.2 883.716 L1828.25 881.397 L1810.29 879.019 L1792.34 876.581 L1774.38 874.08 L1756.43 871.514 L1738.48 868.882 L1734.68 868.318 L1720.52 857.513 L1710.32 849.609 L1702.57 841.487 L1692.55 830.899 L1684.62 818.17 L1680.9 812.19 L1675.04 793.481 L1674.86 774.771 L1680.34 756.062 L1684.62 748.949 L1691.61 737.353 L1702.57 725.521 L1709 718.643 L1720.52 709.569 L1732.95 699.934 L1738.48 699.114 L1756.43 696.49 L1774.38 693.933 L1792.34 691.439 L1810.29 689.008 L1828.25 686.637 L1846.2 684.324 L1864.15 682.068 L1870.96 681.225 L1882.11 680.296  Z" fill="#e5460a" fill-rule="evenodd" fill-opacity="1"/>
<path clip-path="url(#clip572)" d="M1935.97 699.201 L1953.92 696.805 L1971.87 694.464 L1989.83 692.177 L2007.78 689.943 L2025.73 687.758 L2043.69 685.623 L2043.69 681.225 L2043.69 699.934 L2043.69 718.643 L2043.69 737.353 L2043.69 756.062 L2043.69 774.771 L2043.69 793.481 L2043.69 812.19 L2043.69 830.899 L2043.69 849.609 L2043.69 868.318 L2043.69 868.318 L2043.69 882.449 L2025.73 880.309 L2007.78 878.119 L1989.83 875.879 L1971.87 873.586 L1953.92 871.24 L1935.97 868.837 L1932.13 868.318 L1918.01 858.499 L1905.43 849.609 L1900.06 844.482 L1885.96 830.899 L1882.11 825.263 L1873.19 812.19 L1866.81 793.481 L1866.64 774.771 L1872.68 756.062 L1882.11 741.853 L1885.1 737.353 L1900.06 722.681 L1904.21 718.643 L1918.01 708.764 L1930.54 699.934 L1935.97 699.201  Z" fill="#7a0402" fill-rule="evenodd" fill-opacity="1"/>
<polyline clip-path="url(#clip572)" style="stroke:#30123b; stroke-linecap:round; stroke-linejoin:round; stroke-width:4; stroke-opacity:1; fill:none" points="266.298,606.387 266.298,606.387 284.251,606.387 302.205,606.387 320.158,606.387 338.112,606.387 356.065,606.387 374.019,606.387 391.972,606.387 409.925,606.387 427.879,606.387 445.832,606.387 463.786,606.387 481.739,606.387 499.692,606.387 517.646,606.387 535.599,606.387 553.553,606.387 571.506,606.387 589.46,606.387 607.413,606.387 625.366,606.387 643.32,606.387 661.273,606.387 679.227,606.387 697.18,606.387 715.133,606.387 733.087,606.387 751.04,606.387 768.994,606.387 786.947,606.387 804.901,606.387 822.854,606.387 840.807,606.387 858.761,606.387 876.714,606.387 894.668,606.387 912.621,606.387 930.574,606.387 948.528,606.387 966.481,606.387 984.435,606.387 1002.39,606.387 1020.34,606.387 1038.29,606.387 1056.25,606.387 1074.2,606.387 1092.16,606.387 1110.11,606.387 1128.06,606.387 1146.02,606.387 1163.97,606.387 1181.92,606.387 1199.88,606.387 1217.83,606.387 1235.78,606.387 1253.74,606.387 1271.69,606.387 1289.64,606.387 1307.6,606.387 1325.55,606.387 1343.5,606.387 1361.46,606.387 1379.41,606.387 1397.36,606.387 1415.32,606.387 1433.27,606.387 1451.22,606.387 1469.18,606.387 1487.13,606.387 1505.08,606.387 1523.04,606.387 1540.99,606.387 1558.94,606.387 1576.9,606.387 1594.85,606.387 1612.8,606.387 1630.76,606.387 1648.71,606.387 1666.66,606.387 1684.62,606.387 1702.57,606.387 1720.52,606.387 1738.48,606.387 1756.43,606.387 1774.38,606.387 1792.34,606.387 1810.29,606.387 1828.25,606.387 1846.2,606.387 1864.15,606.387 1882.11,606.387 1900.06,606.387 1918.01,606.387 1935.97,606.387 1953.92,606.387 1971.87,606.387 1989.83,606.387 2007.78,606.387 2025.73,606.387 2043.69,606.387 2043.69,625.097 2043.69,643.806 2043.69,662.515 2043.69,681.225 2043.69,699.934 2043.69,718.643 2043.69,737.353 2043.69,756.062 2043.69,774.771 2043.69,793.481 2043.69,812.19 2043.69,830.899 2043.69,849.609 2043.69,868.318 2043.69,887.027 2043.69,905.737 2043.69,924.446 2043.69,943.155 2043.69,961.865 2025.73,961.865 2007.78,961.865 1989.83,961.865 1971.87,961.865 1953.92,961.865 1935.97,961.865 1918.01,961.865 1900.06,961.865 1882.11,961.865 1864.15,961.865 1846.2,961.865 1828.25,961.865 1810.29,961.865 1792.34,961.865 1774.38,961.865 1756.43,961.865 1738.48,961.865 1720.52,961.865 1702.57,961.865 1684.62,961.865 1666.66,961.865 1648.71,961.865 1630.76,961.865 1612.8,961.865 1594.85,961.865 1576.9,961.865 1558.94,961.865 1540.99,961.865 1523.04,961.865 1505.08,961.865 1487.13,961.865 1469.18,961.865 1451.22,961.865 1433.27,961.865 1415.32,961.865 1397.36,961.865 1379.41,961.865 1361.46,961.865 1343.5,961.865 1325.55,961.865 1307.6,961.865 1289.64,961.865 1271.69,961.865 1253.74,961.865 1235.78,961.865 1217.83,961.865 1199.88,961.865 1181.92,961.865 1163.97,961.865 1146.02,961.865 1128.06,961.865 1110.11,961.865 1092.16,961.865 1074.2,961.865 1056.25,961.865 1038.29,961.865 1020.34,961.865 1002.39,961.865 984.435,961.865 966.481,961.865 948.528,961.865 930.574,961.865 912.621,961.865 894.668,961.865 876.714,961.865 858.761,961.865 840.807,961.865 822.854,961.865 804.901,961.865 786.947,961.865 768.994,961.865 751.04,961.865 733.087,961.865 715.133,961.865 697.18,961.865 679.227,961.865 661.273,961.865 643.32,961.865 625.366,961.865 607.413,961.865 589.46,961.865 571.506,961.865 553.553,961.865 535.599,961.865 517.646,961.865 499.692,961.865 481.739,961.865 463.786,961.865 445.832,961.865 427.879,961.865 409.925,961.865 391.972,961.865 374.019,961.865 356.065,961.865 338.112,961.865 320.158,961.865 302.205,961.865 284.251,961.865 266.298,961.865 266.298,943.155 266.298,924.446 266.298,905.737 266.298,887.027 266.298,868.318 266.298,849.609 266.298,830.899 266.298,812.19 266.298,793.481 266.298,774.771 266.298,756.062 266.298,737.353 266.298,718.643 266.298,699.934 266.298,681.225 266.298,662.515 266.298,643.806 266.298,625.097 266.298,606.387 "/>
<polyline clip-path="url(#clip572)" style="stroke:#30123b; stroke-linecap:round; stroke-linejoin:round; stroke-width:4; stroke-opacity:1; fill:none" points="1487.13,624.867 1505.08,624.501 1523.04,624.146 1540.99,623.802 1558.94,623.467 1576.9,623.143 1594.85,622.828 1612.8,622.522 1630.76,622.224 1648.71,621.935 1666.66,621.654 1684.62,621.38 1702.57,621.114 1720.52,620.855 1738.48,620.603 1756.43,620.358 1774.38,620.119 1792.34,619.886 1810.29,619.66 1828.25,619.439 1846.2,619.223 1864.15,619.013 1882.11,618.808 1900.06,618.609 1918.01,618.414 1935.97,618.223 1953.92,618.038 1971.87,617.856 1989.83,617.679 2007.78,617.507 2025.73,617.338 2043.69,617.173 2043.69,606.387 2043.69,625.097 2043.69,643.806 2043.69,662.515 2043.69,681.225 2043.69,699.934 2043.69,718.643 2043.69,737.353 2043.69,756.062 2043.69,774.771 2043.69,793.481 2043.69,812.19 2043.69,830.899 2043.69,849.609 2043.69,868.318 2043.69,887.027 2043.69,905.737 2043.69,924.446 2043.69,943.155 2043.69,951.068 2025.73,950.902 2007.78,950.733 1989.83,950.56 1971.87,950.382 1953.92,950.201 1935.97,950.015 1918.01,949.824 1900.06,949.629 1882.11,949.428 1864.15,949.223 1846.2,949.012 1828.25,948.796 1810.29,948.575 1792.34,948.348 1774.38,948.114 1756.43,947.875 1738.48,947.629 1720.52,947.376 1702.57,947.116 1684.62,946.849 1666.66,946.575 1648.71,946.293 1630.76,946.003 1612.8,945.704 1594.85,945.397 1576.9,945.081 1558.94,944.755 1540.99,944.42 1523.04,944.074 1505.08,943.718 1487.13,943.351 1477.8,943.155 1469.18,942.95 1451.22,942.512 1433.27,942.061 1415.32,941.595 1397.36,941.114 1379.41,940.616 1361.46,940.102 1343.5,939.571 1325.55,939.021 1307.6,938.453 1289.64,937.864 1271.69,937.254 1253.74,936.621 1235.78,935.966 1217.83,935.286 1199.88,934.581 1181.92,933.848 1163.97,933.087 1146.02,932.296 1128.06,931.474 1110.11,930.617 1092.16,929.726 1074.2,928.797 1056.25,927.828 1038.29,926.818 1020.34,925.763 1002.39,924.66 998.973,924.446 984.435,923.387 966.481,922.027 948.528,920.604 930.574,919.114 912.621,917.552 894.668,915.913 876.714,914.192 858.761,912.383 840.807,910.481 822.854,908.477 804.901,906.364 799.722,905.737 786.947,903.909 768.994,901.225 751.04,898.391 733.087,895.393 715.133,892.219 697.18,888.854 687.832,887.027 679.227,884.539 661.273,879.138 643.32,873.401 628.265,868.318 625.366,863.317 617.472,849.609 609.554,830.899 607.413,823.338 604.238,812.19 601.415,793.481 601.036,774.771 603.095,756.062 607.413,738.373 607.66,737.353 614.775,718.643 624.765,699.934 625.366,699.728 643.32,693.716 661.273,688.061 679.227,682.733 684.477,681.225 697.18,678.764 715.133,675.45 733.087,672.323 751.04,669.367 768.994,666.57 786.947,663.922 796.85,662.515 804.901,661.546 822.854,659.457 840.807,657.475 858.761,655.592 876.714,653.802 894.668,652.098 912.621,650.475 930.574,648.927 948.528,647.45 966.481,646.039 984.435,644.691 996.64,643.806 1002.39,643.447 1020.34,642.353 1038.29,641.305 1056.25,640.302 1074.2,639.34 1092.16,638.417 1110.11,637.531 1128.06,636.68 1146.02,635.863 1163.97,635.076 1181.92,634.32 1199.88,633.591 1217.83,632.89 1235.78,632.214 1253.74,631.562 1271.69,630.933 1289.64,630.326 1307.6,629.74 1325.55,629.174 1343.5,628.627 1361.46,628.098 1379.41,627.586 1397.36,627.091 1415.32,626.612 1433.27,626.148 1451.22,625.698 1469.18,625.263 1476.15,625.097 1487.13,624.867 "/>
<polyline clip-path="url(#clip572)" style="stroke:#30123b; stroke-linecap:round; stroke-linejoin:round; stroke-width:4; stroke-opacity:1; fill:none" points="1540.99,643.133 1558.94,642.387 1576.9,641.662 1594.85,640.958 1612.8,640.274 1630.76,639.61 1648.71,638.963 1666.66,638.335 1684.62,637.724 1702.57,637.129 1720.52,636.55 1738.48,635.986 1756.43,635.438 1774.38,634.903 1792.34,634.382 1810.29,633.875 1828.25,633.38 1846.2,632.898 1864.15,632.428 1882.11,631.969 1900.06,631.522 1918.01,631.086 1935.97,630.659 1953.92,630.243 1971.87,629.837 1989.83,629.441 2007.78,629.053 2025.73,628.675 2043.69,628.305 2043.69,625.097 2043.69,643.806 2043.69,662.515 2043.69,681.225 2043.69,699.934 2043.69,718.643 2043.69,737.353 2043.69,756.062 2043.69,774.771 2043.69,793.481 2043.69,812.19 2043.69,830.899 2043.69,849.609 2043.69,868.318 2043.69,887.027 2043.69,905.737 2043.69,924.446 2043.69,939.921 2025.73,939.55 2007.78,939.171 1989.83,938.782 1971.87,938.385 1953.92,937.977 1935.97,937.56 1918.01,937.133 1900.06,936.696 1882.11,936.247 1864.15,935.787 1846.2,935.316 1828.25,934.832 1810.29,934.336 1792.34,933.827 1774.38,933.305 1756.43,932.769 1738.48,932.219 1720.52,931.653 1702.57,931.073 1684.62,930.476 1666.66,929.863 1648.71,929.232 1630.76,928.584 1612.8,927.917 1594.85,927.23 1576.9,926.524 1558.94,925.796 1540.99,925.047 1526.94,924.446 1523.04,924.252 1505.08,923.349 1487.13,922.419 1469.18,921.459 1451.22,920.469 1433.27,919.448 1415.32,918.394 1397.36,917.306 1379.41,916.182 1361.46,915.021 1343.5,913.821 1325.55,912.58 1307.6,911.296 1289.64,909.967 1271.69,908.591 1253.74,907.166 1236.35,905.737 1235.78,905.682 1217.83,903.916 1199.88,902.085 1181.92,900.186 1163.97,898.214 1146.02,896.168 1128.06,894.042 1110.11,891.831 1092.16,889.533 1074.2,887.141 1073.36,887.027 1056.25,883.587 1038.29,879.834 1020.34,875.925 1002.39,871.852 987.387,868.318 984.435,864.745 972.059,849.609 966.481,840.33 960.837,830.899 953.42,812.19 949.63,793.481 949.348,774.771 952.569,756.062 959.404,737.353 966.481,724.89 970.044,718.643 984.435,700.354 984.769,699.934 1002.39,695.799 1020.34,691.755 1038.29,687.875 1056.25,684.149 1070.84,681.225 1074.2,680.772 1092.16,678.4 1110.11,676.119 1128.06,673.926 1146.02,671.815 1163.97,669.783 1181.92,667.826 1199.88,665.939 1217.83,664.12 1234.22,662.515 1235.78,662.385 1253.74,660.917 1271.69,659.5 1289.64,658.132 1307.6,656.81 1325.55,655.533 1343.5,654.299 1361.46,653.104 1379.41,651.949 1397.36,650.831 1415.32,649.748 1433.27,648.699 1451.22,647.682 1469.18,646.697 1487.13,645.741 1505.08,644.815 1523.04,643.915 1525.25,643.806 1540.99,643.133 "/>
<polyline clip-path="url(#clip572)" style="stroke:#30123b; stroke-linecap:round; stroke-linejoin:round; stroke-width:4; stroke-opacity:1; fill:none" points="1953.92,643.303 1971.87,642.694 1989.83,642.1 2007.78,641.519 2025.73,640.952 2043.69,640.398 2043.69,625.097 2043.69,643.806 2043.69,662.515 2043.69,681.225 2043.69,699.934 2043.69,718.643 2043.69,737.353 2043.69,756.062 2043.69,774.771 2043.69,793.481 2043.69,812.19 2043.69,830.899 2043.69,849.609 2043.69,868.318 2043.69,887.027 2043.69,905.737 2043.69,924.446 2043.69,927.813 2025.73,927.258 2007.78,926.689 1989.83,926.107 1971.87,925.511 1953.92,924.901 1940.79,924.446 1935.97,924.253 1918.01,923.524 1900.06,922.778 1882.11,922.013 1864.15,921.23 1846.2,920.426 1828.25,919.602 1810.29,918.757 1792.34,917.89 1774.38,917.001 1756.43,916.088 1738.48,915.151 1720.52,914.188 1702.57,913.2 1684.62,912.184 1666.66,911.141 1648.71,910.068 1630.76,908.966 1612.8,907.831 1594.85,906.665 1580.92,905.737 1576.9,905.421 1558.94,903.99 1540.99,902.517 1523.04,901 1505.08,899.438 1487.13,897.829 1469.18,896.17 1451.22,894.46 1433.27,892.696 1415.32,890.876 1397.36,888.998 1379.41,887.059 1379.12,887.027 1361.46,884.158 1343.5,881.147 1325.55,878.037 1307.6,874.822 1289.64,871.498 1273.01,868.318 1271.69,867.025 1254.2,849.609 1253.74,848.988 1240.43,830.899 1235.78,821.303 1231.37,812.19 1226.78,793.481 1226.54,774.771 1230.66,756.062 1235.78,744.888 1239.24,737.353 1252.51,718.643 1253.74,717.372 1270.81,699.934 1271.69,699.765 1289.64,696.345 1307.6,693.039 1325.55,689.84 1343.5,686.745 1361.46,683.748 1377.03,681.225 1379.41,680.965 1397.36,679.037 1415.32,677.168 1433.27,675.358 1451.22,673.603 1469.18,671.901 1487.13,670.25 1505.08,668.649 1523.04,667.094 1540.99,665.584 1558.94,664.117 1576.9,662.693 1579.16,662.515 1594.85,661.473 1612.8,660.31 1630.76,659.18 1648.71,658.082 1666.66,657.013 1684.62,655.973 1702.57,654.961 1720.52,653.976 1738.48,653.017 1756.43,652.083 1774.38,651.173 1792.34,650.287 1810.29,649.422 1828.25,648.58 1846.2,647.759 1864.15,646.957 1882.11,646.176 1900.06,645.413 1918.01,644.669 1935.97,643.943 1939.39,643.806 1953.92,643.303 "/>
<polyline clip-path="url(#clip572)" style="stroke:#30123b; stroke-linecap:round; stroke-linejoin:round; stroke-width:4; stroke-opacity:1; fill:none" points="1882.11,662.01 1900.06,660.995 1918.01,660.005 1935.97,659.038 1953.92,658.093 1971.87,657.171 1989.83,656.271 2007.78,655.391 2025.73,654.532 2043.69,653.692 2043.69,643.806 2043.69,662.515 2043.69,681.225 2043.69,699.934 2043.69,718.643 2043.69,737.353 2043.69,756.062 2043.69,774.771 2043.69,793.481 2043.69,812.19 2043.69,830.899 2043.69,849.609 2043.69,868.318 2043.69,887.027 2043.69,905.737 2043.69,914.496 2025.73,913.653 2007.78,912.792 1989.83,911.909 1971.87,911.007 1953.92,910.082 1935.97,909.135 1918.01,908.165 1900.06,907.172 1882.11,906.154 1874.86,905.737 1864.15,905.01 1846.2,903.769 1828.25,902.497 1810.29,901.193 1792.34,899.855 1774.38,898.483 1756.43,897.074 1738.48,895.629 1720.52,894.145 1702.57,892.621 1684.62,891.056 1666.66,889.449 1648.71,887.796 1640.5,887.027 1630.76,885.671 1612.8,883.122 1594.85,880.501 1576.9,877.806 1558.94,875.034 1540.99,872.181 1523.04,869.245 1517.46,868.318 1505.08,857.741 1495.7,849.609 1487.13,839.553 1479.81,830.899 1469.39,812.19 1469.18,811.421 1464.12,793.481 1463.91,774.771 1468.77,756.062 1469.18,755.298 1478.77,737.353 1487.13,727.195 1494.22,718.643 1505.08,709.046 1515.54,699.934 1523.04,698.69 1540.99,695.765 1558.94,692.923 1576.9,690.161 1594.85,687.476 1612.8,684.865 1630.76,682.326 1638.68,681.225 1648.71,680.287 1666.66,678.641 1684.62,677.04 1702.57,675.481 1720.52,673.963 1738.48,672.485 1756.43,671.045 1774.38,669.642 1792.34,668.274 1810.29,666.941 1828.25,665.641 1846.2,664.373 1864.15,663.136 1873.32,662.515 1882.11,662.01 "/>
<polyline clip-path="url(#clip572)" style="stroke:#30123b; stroke-linecap:round; stroke-linejoin:round; stroke-width:4; stroke-opacity:1; fill:none" points="1882.11,680.296 1900.06,678.827 1918.01,677.393 1935.97,675.993 1953.92,674.626 1971.87,673.291 1989.83,671.987 2007.78,670.713 2025.73,669.468 2043.69,668.251 2043.69,662.515 2043.69,681.225 2043.69,699.934 2043.69,718.643 2043.69,737.353 2043.69,756.062 2043.69,774.771 2043.69,793.481 2043.69,812.19 2043.69,830.899 2043.69,849.609 2043.69,868.318 2043.69,887.027 2043.69,899.903 2025.73,898.682 2007.78,897.433 1989.83,896.155 1971.87,894.847 1953.92,893.508 1935.97,892.137 1918.01,890.733 1900.06,889.295 1882.11,887.821 1872.6,887.027 1864.15,885.98 1846.2,883.716 1828.25,881.397 1810.29,879.019 1792.34,876.581 1774.38,874.08 1756.43,871.514 1738.48,868.882 1734.68,868.318 1720.52,857.513 1710.32,849.609 1702.57,841.487 1692.55,830.899 1684.62,818.17 1680.9,812.19 1675.04,793.481 1674.86,774.771 1680.34,756.062 1684.62,748.949 1691.61,737.353 1702.57,725.521 1709,718.643 1720.52,709.569 1732.95,699.934 1738.48,699.114 1756.43,696.49 1774.38,693.933 1792.34,691.439 1810.29,689.008 1828.25,686.637 1846.2,684.324 1864.15,682.068 1870.96,681.225 1882.11,680.296 "/>
<polyline clip-path="url(#clip572)" style="stroke:#30123b; stroke-linecap:round; stroke-linejoin:round; stroke-width:4; stroke-opacity:1; fill:none" points="1935.97,699.201 1953.92,696.805 1971.87,694.464 1989.83,692.177 2007.78,689.943 2025.73,687.758 2043.69,685.623 2043.69,681.225 2043.69,699.934 2043.69,718.643 2043.69,737.353 2043.69,756.062 2043.69,774.771 2043.69,793.481 2043.69,812.19 2043.69,830.899 2043.69,849.609 2043.69,868.318 2043.69,882.449 2025.73,880.309 2007.78,878.119 1989.83,875.879 1971.87,873.586 1953.92,871.24 1935.97,868.837 1932.13,868.318 1918.01,858.499 1905.43,849.609 1900.06,844.482 1885.96,830.899 1882.11,825.263 1873.19,812.19 1866.81,793.481 1866.64,774.771 1872.68,756.062 1882.11,741.853 1885.1,737.353 1900.06,722.681 1904.21,718.643 1918.01,708.764 1930.54,699.934 1935.97,699.201 "/>
<polyline clip-path="url(#clip572)" style="stroke:#ff00ff; stroke-linecap:round; stroke-linejoin:round; stroke-width:4; stroke-opacity:1; fill:none" points="266.298,872.995 2043.69,872.995 "/>
<polyline clip-path="url(#clip572)" style="stroke:#ff00ff; stroke-linecap:round; stroke-linejoin:round; stroke-width:4; stroke-opacity:1; fill:none" points="266.298,695.257 2043.69,695.257 "/>
<defs>
  <clipPath id="clip573">
    <rect x="2145" y="144" width="73" height="1280"/>
  </clipPath>
</defs>
<path clip-path="url(#clip573)" d="M2145.01 1423.78 L2217.01 1423.78 L2217.01 1241.02 L2145.01 1241.02  Z" fill="#30123b" fill-rule="evenodd" fill-opacity="1"/>
<path clip-path="url(#clip573)" d="M2145.01 1241.02 L2217.01 1241.02 L2217.01 1058.26 L2145.01 1058.26  Z" fill="#4584f9" fill-rule="evenodd" fill-opacity="1"/>
<path clip-path="url(#clip573)" d="M2145.01 1058.26 L2217.01 1058.26 L2217.01 875.505 L2145.01 875.505  Z" fill="#1ae4b6" fill-rule="evenodd" fill-opacity="1"/>
<path clip-path="url(#clip573)" d="M2145.01 875.505 L2217.01 875.505 L2217.01 692.747 L2145.01 692.747  Z" fill="#a4fc3b" fill-rule="evenodd" fill-opacity="1"/>
<path clip-path="url(#clip573)" d="M2145.01 692.747 L2217.01 692.747 L2217.01 509.99 L2145.01 509.99  Z" fill="#f9ba38" fill-rule="evenodd" fill-opacity="1"/>
<path clip-path="url(#clip573)" d="M2145.01 509.99 L2217.01 509.99 L2217.01 327.232 L2145.01 327.232  Z" fill="#e5460a" fill-rule="evenodd" fill-opacity="1"/>
<path clip-path="url(#clip573)" d="M2145.01 327.232 L2217.01 327.232 L2217.01 144.475 L2145.01 144.475  Z" fill="#7a0402" fill-rule="evenodd" fill-opacity="1"/>
<path clip-path="url(#clip570)" d="M2264.95 1405.95 Q2261.34 1405.95 2259.51 1409.51 Q2257.71 1413.05 2257.71 1420.18 Q2257.71 1427.29 2259.51 1430.85 Q2261.34 1434.4 2264.95 1434.4 Q2268.59 1434.4 2270.39 1430.85 Q2272.22 1427.29 2272.22 1420.18 Q2272.22 1413.05 2270.39 1409.51 Q2268.59 1405.95 2264.95 1405.95 M2264.95 1402.24 Q2270.76 1402.24 2273.82 1406.85 Q2276.9 1411.43 2276.9 1420.18 Q2276.9 1428.91 2273.82 1433.52 Q2270.76 1438.1 2264.95 1438.1 Q2259.14 1438.1 2256.06 1433.52 Q2253.01 1428.91 2253.01 1420.18 Q2253.01 1411.43 2256.06 1406.85 Q2259.14 1402.24 2264.95 1402.24 Z" fill="#000000" fill-rule="nonzero" fill-opacity="1" /><path clip-path="url(#clip570)" d="M2254.47 1198.89 L2272.82 1198.89 L2272.82 1202.82 L2258.75 1202.82 L2258.75 1211.3 Q2259.77 1210.95 2260.79 1210.79 Q2261.8 1210.6 2262.82 1210.6 Q2268.61 1210.6 2271.99 1213.77 Q2275.37 1216.94 2275.37 1222.36 Q2275.37 1227.94 2271.9 1231.04 Q2268.42 1234.12 2262.11 1234.12 Q2259.93 1234.12 2257.66 1233.75 Q2255.42 1233.38 2253.01 1232.64 L2253.01 1227.94 Q2255.09 1229.07 2257.31 1229.63 Q2259.54 1230.18 2262.01 1230.18 Q2266.02 1230.18 2268.36 1228.08 Q2270.69 1225.97 2270.69 1222.36 Q2270.69 1218.75 2268.36 1216.64 Q2266.02 1214.54 2262.01 1214.54 Q2260.14 1214.54 2258.26 1214.95 Q2256.41 1215.37 2254.47 1216.25 L2254.47 1198.89 Z" fill="#000000" fill-rule="nonzero" fill-opacity="1" /><path clip-path="url(#clip570)" d="M2253.68 1025.53 L2261.32 1025.53 L2261.32 999.168 L2253.01 1000.83 L2253.01 996.575 L2261.27 994.909 L2265.95 994.909 L2265.95 1025.53 L2273.59 1025.53 L2273.59 1029.47 L2253.68 1029.47 L2253.68 1025.53 Z" fill="#000000" fill-rule="nonzero" fill-opacity="1" /><path clip-path="url(#clip570)" d="M2293.03 997.987 Q2289.42 997.987 2287.59 1001.55 Q2285.79 1005.09 2285.79 1012.22 Q2285.79 1019.33 2287.59 1022.89 Q2289.42 1026.44 2293.03 1026.44 Q2296.67 1026.44 2298.47 1022.89 Q2300.3 1019.33 2300.3 1012.22 Q2300.3 1005.09 2298.47 1001.55 Q2296.67 997.987 2293.03 997.987 M2293.03 994.284 Q2298.84 994.284 2301.9 998.89 Q2304.98 1003.47 2304.98 1012.22 Q2304.98 1020.95 2301.9 1025.56 Q2298.84 1030.14 2293.03 1030.14 Q2287.22 1030.14 2284.14 1025.56 Q2281.09 1020.95 2281.09 1012.22 Q2281.09 1003.47 2284.14 998.89 Q2287.22 994.284 2293.03 994.284 Z" fill="#000000" fill-rule="nonzero" fill-opacity="1" /><path clip-path="url(#clip570)" d="M2253.68 821.554 L2261.32 821.554 L2261.32 795.188 L2253.01 796.855 L2253.01 792.595 L2261.27 790.929 L2265.95 790.929 L2265.95 821.554 L2273.59 821.554 L2273.59 825.489 L2253.68 825.489 L2253.68 821.554 Z" fill="#000000" fill-rule="nonzero" fill-opacity="1" /><path clip-path="url(#clip570)" d="M2283.08 790.929 L2301.43 790.929 L2301.43 794.864 L2287.36 794.864 L2287.36 803.336 Q2288.38 802.989 2289.4 802.827 Q2290.42 802.642 2291.43 802.642 Q2297.22 802.642 2300.6 805.813 Q2303.98 808.984 2303.98 814.401 Q2303.98 819.98 2300.51 823.081 Q2297.04 826.16 2290.72 826.16 Q2288.54 826.16 2286.27 825.79 Q2284.03 825.419 2281.62 824.679 L2281.62 819.98 Q2283.7 821.114 2285.92 821.669 Q2288.15 822.225 2290.62 822.225 Q2294.63 822.225 2296.97 820.118 Q2299.3 818.012 2299.3 814.401 Q2299.3 810.79 2296.97 808.683 Q2294.63 806.577 2290.62 806.577 Q2288.75 806.577 2286.87 806.994 Q2285.02 807.41 2283.08 808.29 L2283.08 790.929 Z" fill="#000000" fill-rule="nonzero" fill-opacity="1" /><path clip-path="url(#clip570)" d="M2258.63 617.574 L2274.95 617.574 L2274.95 621.509 L2253.01 621.509 L2253.01 617.574 Q2255.67 614.819 2260.25 610.19 Q2264.86 605.537 2266.04 604.194 Q2268.29 601.671 2269.17 599.935 Q2270.07 598.176 2270.07 596.486 Q2270.07 593.731 2268.12 591.995 Q2266.2 590.259 2263.1 590.259 Q2260.9 590.259 2258.45 591.023 Q2256.02 591.787 2253.24 593.338 L2253.24 588.616 Q2256.06 587.481 2258.52 586.903 Q2260.97 586.324 2263.01 586.324 Q2268.38 586.324 2271.57 589.009 Q2274.77 591.694 2274.77 596.185 Q2274.77 598.315 2273.96 600.236 Q2273.17 602.134 2271.06 604.727 Q2270.48 605.398 2267.38 608.616 Q2264.28 611.81 2258.63 617.574 Z" fill="#000000" fill-rule="nonzero" fill-opacity="1" /><path clip-path="url(#clip570)" d="M2294.77 590.028 Q2291.16 590.028 2289.33 593.593 Q2287.52 597.134 2287.52 604.264 Q2287.52 611.37 2289.33 614.935 Q2291.16 618.477 2294.77 618.477 Q2298.4 618.477 2300.21 614.935 Q2302.04 611.37 2302.04 604.264 Q2302.04 597.134 2300.21 593.593 Q2298.4 590.028 2294.77 590.028 M2294.77 586.324 Q2300.58 586.324 2303.63 590.93 Q2306.71 595.514 2306.71 604.264 Q2306.71 612.991 2303.63 617.597 Q2300.58 622.18 2294.77 622.18 Q2288.96 622.18 2285.88 617.597 Q2282.82 612.991 2282.82 604.264 Q2282.82 595.514 2285.88 590.93 Q2288.96 586.324 2294.77 586.324 Z" fill="#000000" fill-rule="nonzero" fill-opacity="1" /><path clip-path="url(#clip570)" d="M2258.63 413.594 L2274.95 413.594 L2274.95 417.529 L2253.01 417.529 L2253.01 413.594 Q2255.67 410.839 2260.25 406.21 Q2264.86 401.557 2266.04 400.215 Q2268.29 397.691 2269.17 395.955 Q2270.07 394.196 2270.07 392.506 Q2270.07 389.752 2268.12 388.015 Q2266.2 386.279 2263.1 386.279 Q2260.9 386.279 2258.45 387.043 Q2256.02 387.807 2253.24 389.358 L2253.24 384.636 Q2256.06 383.502 2258.52 382.923 Q2260.97 382.344 2263.01 382.344 Q2268.38 382.344 2271.57 385.029 Q2274.77 387.715 2274.77 392.205 Q2274.77 394.335 2273.96 396.256 Q2273.17 398.154 2271.06 400.747 Q2270.48 401.418 2267.38 404.636 Q2264.28 407.83 2258.63 413.594 Z" fill="#000000" fill-rule="nonzero" fill-opacity="1" /><path clip-path="url(#clip570)" d="M2284.81 382.969 L2303.17 382.969 L2303.17 386.904 L2289.1 386.904 L2289.1 395.377 Q2290.11 395.029 2291.13 394.867 Q2292.15 394.682 2293.17 394.682 Q2298.96 394.682 2302.34 397.853 Q2305.72 401.025 2305.72 406.441 Q2305.72 412.02 2302.24 415.122 Q2298.77 418.201 2292.45 418.201 Q2290.28 418.201 2288.01 417.83 Q2285.76 417.46 2283.35 416.719 L2283.35 412.02 Q2285.44 413.154 2287.66 413.71 Q2289.88 414.265 2292.36 414.265 Q2296.36 414.265 2298.7 412.159 Q2301.04 410.052 2301.04 406.441 Q2301.04 402.83 2298.7 400.724 Q2296.36 398.617 2292.36 398.617 Q2290.48 398.617 2288.61 399.034 Q2286.76 399.451 2284.81 400.33 L2284.81 382.969 Z" fill="#000000" fill-rule="nonzero" fill-opacity="1" /><path clip-path="url(#clip570)" d="M2268.63 194.915 Q2271.99 195.633 2273.86 197.901 Q2275.76 200.17 2275.76 203.503 Q2275.76 208.619 2272.24 211.42 Q2268.73 214.221 2262.24 214.221 Q2260.07 214.221 2257.75 213.781 Q2255.46 213.364 2253.01 212.508 L2253.01 207.994 Q2254.95 209.128 2257.27 209.707 Q2259.58 210.286 2262.11 210.286 Q2266.5 210.286 2268.79 208.549 Q2271.11 206.813 2271.11 203.503 Q2271.11 200.448 2268.96 198.735 Q2266.83 196.999 2263.01 196.999 L2258.98 196.999 L2258.98 193.156 L2263.19 193.156 Q2266.64 193.156 2268.47 191.79 Q2270.3 190.401 2270.3 187.809 Q2270.3 185.147 2268.4 183.735 Q2266.53 182.3 2263.01 182.3 Q2261.09 182.3 2258.89 182.716 Q2256.69 183.133 2254.05 184.013 L2254.05 179.846 Q2256.71 179.105 2259.03 178.735 Q2261.36 178.364 2263.42 178.364 Q2268.75 178.364 2271.85 180.795 Q2274.95 183.202 2274.95 187.323 Q2274.95 190.193 2273.31 192.184 Q2271.67 194.151 2268.63 194.915 Z" fill="#000000" fill-rule="nonzero" fill-opacity="1" /><path clip-path="url(#clip570)" d="M2294.63 182.068 Q2291.02 182.068 2289.19 185.633 Q2287.38 189.175 2287.38 196.304 Q2287.38 203.411 2289.19 206.975 Q2291.02 210.517 2294.63 210.517 Q2298.26 210.517 2300.07 206.975 Q2301.9 203.411 2301.9 196.304 Q2301.9 189.175 2300.07 185.633 Q2298.26 182.068 2294.63 182.068 M2294.63 178.364 Q2300.44 178.364 2303.49 182.971 Q2306.57 187.554 2306.57 196.304 Q2306.57 205.031 2303.49 209.637 Q2300.44 214.221 2294.63 214.221 Q2288.82 214.221 2285.74 209.637 Q2282.68 205.031 2282.68 196.304 Q2282.68 187.554 2285.74 182.971 Q2288.82 178.364 2294.63 178.364 Z" fill="#000000" fill-rule="nonzero" fill-opacity="1" /><polyline clip-path="url(#clip570)" style="stroke:#000000; stroke-linecap:round; stroke-linejoin:round; stroke-width:4; stroke-opacity:1; fill:none" points="2217.01,1423.78 2217.01,1423.78 2241.01,1423.78 2217.01,1423.78 2217.01,1219.8 2241.01,1219.8 2217.01,1219.8 2217.01,1015.82 2241.01,1015.82 2217.01,1015.82 2217.01,811.838 2241.01,811.838 2217.01,811.838 2217.01,607.858 2241.01,607.858 2217.01,607.858 2217.01,403.878 2241.01,403.878 2217.01,403.878 2217.01,199.898 2241.01,199.898 2217.01,199.898 2217.01,144.475 "/>
</svg>
