<?xml version="1.0" encoding="utf-8"?>
<svg xmlns="http://www.w3.org/2000/svg" xmlns:xlink="http://www.w3.org/1999/xlink" width="600" height="400" viewBox="0 0 2400 1600">
<defs>
  <clipPath id="clip540">
    <rect x="0" y="0" width="2400" height="1600"/>
  </clipPath>
</defs>
<path clip-path="url(#clip540)" d="M0 1600 L2400 1600 L2400 0 L0 0  Z" fill="#ffffff" fill-rule="evenodd" fill-opacity="1"/>
<defs>
  <clipPath id="clip541">
    <rect x="480" y="0" width="1681" height="1600"/>
  </clipPath>
</defs>
<path clip-path="url(#clip540)" d="M212.976 1423.78 L2097.01 1423.78 L2097.01 144.475 L212.976 144.475  Z" fill="#ffffff" fill-rule="evenodd" fill-opacity="1"/>
<defs>
  <clipPath id="clip542">
    <rect x="212" y="144" width="1885" height="1280"/>
  </clipPath>
</defs>
<polyline clip-path="url(#clip542)" style="stroke:#000000; stroke-linecap:round; stroke-linejoin:round; stroke-width:2; stroke-opacity:0.1; fill:none" points="266.298,144.475 266.298,1423.78 "/>
<polyline clip-path="url(#clip542)" style="stroke:#000000; stroke-linecap:round; stroke-linejoin:round; stroke-width:2; stroke-opacity:0.1; fill:none" points="621.776,144.475 621.776,1423.78 "/>
<polyline clip-path="url(#clip542)" style="stroke:#000000; stroke-linecap:round; stroke-linejoin:round; stroke-width:2; stroke-opacity:0.1; fill:none" points="977.253,144.475 977.253,1423.78 "/>
<polyline clip-path="url(#clip542)" style="stroke:#000000; stroke-linecap:round; stroke-linejoin:round; stroke-width:2; stroke-opacity:0.1; fill:none" points="1332.73,144.475 1332.73,1423.78 "/>
<polyline clip-path="url(#clip542)" style="stroke:#000000; stroke-linecap:round; stroke-linejoin:round; stroke-width:2; stroke-opacity:0.1; fill:none" points="1688.21,144.475 1688.21,1423.78 "/>
<polyline clip-path="url(#clip542)" style="stroke:#000000; stroke-linecap:round; stroke-linejoin:round; stroke-width:2; stroke-opacity:0.1; fill:none" points="2043.69,144.475 2043.69,1423.78 "/>
<polyline clip-path="url(#clip540)" style="stroke:#000000; stroke-linecap:round; stroke-linejoin:round; stroke-width:4; stroke-opacity:1; fill:none" points="212.976,1423.78 2097.01,1423.78 "/>
<polyline clip-path="url(#clip540)" style="stroke:#000000; stroke-linecap:round; stroke-linejoin:round; stroke-width:4; stroke-opacity:1; fill:none" points="266.298,1423.78 266.298,1407.01 "/>
<polyline clip-path="url(#clip540)" style="stroke:#000000; stroke-linecap:round; stroke-linejoin:round; stroke-width:4; stroke-opacity:1; fill:none" points="621.776,1423.78 621.776,1407.01 "/>
<polyline clip-path="url(#clip540)" style="stroke:#000000; stroke-linecap:round; stroke-linejoin:round; stroke-width:4; stroke-opacity:1; fill:none" points="977.253,1423.78 977.253,1407.01 "/>
<polyline clip-path="url(#clip540)" style="stroke:#000000; stroke-linecap:round; stroke-linejoin:round; stroke-width:4; stroke-opacity:1; fill:none" points="1332.73,1423.78 1332.73,1407.01 "/>
<polyline clip-path="url(#clip540)" style="stroke:#000000; stroke-linecap:round; stroke-linejoin:round; stroke-width:4; stroke-opacity:1; fill:none" points="1688.21,1423.78 1688.21,1407.01 "/>
<polyline clip-path="url(#clip540)" style="stroke:#000000; stroke-linecap:round; stroke-linejoin:round; stroke-width:4; stroke-opacity:1; fill:none" points="2043.69,1423.78 2043.69,1407.01 "/>
<path clip-path="url(#clip540)" d="M266.298 1454.7 Q262.687 1454.7 260.858 1458.26 Q259.053 1461.8 259.053 1468.93 Q259.053 1476.04 260.858 1479.6 Q262.687 1483.14 266.298 1483.14 Q269.932 1483.14 271.738 1479.6 Q273.567 1476.04 273.567 1468.93 Q273.567 1461.8 271.738 1458.26 Q269.932 1454.7 266.298 1454.7 M266.298 1450.99 Q272.108 1450.99 275.164 1455.6 Q278.242 1460.18 278.242 1468.93 Q278.242 1477.66 275.164 1482.26 Q272.108 1486.85 266.298 1486.85 Q260.488 1486.85 257.409 1482.26 Q254.354 1477.66 254.354 1468.93 Q254.354 1460.18 257.409 1455.6 Q260.488 1450.99 266.298 1450.99 Z" fill="#000000" fill-rule="nonzero" fill-opacity="1" /><path clip-path="url(#clip540)" d="M612.158 1482.24 L619.797 1482.24 L619.797 1455.88 L611.486 1457.54 L611.486 1453.28 L619.75 1451.62 L624.426 1451.62 L624.426 1482.24 L632.065 1482.24 L632.065 1486.18 L612.158 1486.18 L612.158 1482.24 Z" fill="#000000" fill-rule="nonzero" fill-opacity="1" /><path clip-path="url(#clip540)" d="M971.906 1482.24 L988.225 1482.24 L988.225 1486.18 L966.281 1486.18 L966.281 1482.24 Q968.943 1479.49 973.526 1474.86 Q978.133 1470.2 979.313 1468.86 Q981.559 1466.34 982.438 1464.6 Q983.341 1462.84 983.341 1461.15 Q983.341 1458.4 981.397 1456.66 Q979.476 1454.93 976.374 1454.93 Q974.175 1454.93 971.721 1455.69 Q969.29 1456.45 966.513 1458.01 L966.513 1453.28 Q969.337 1452.15 971.79 1451.57 Q974.244 1450.99 976.281 1450.99 Q981.651 1450.99 984.846 1453.68 Q988.04 1456.36 988.04 1460.85 Q988.04 1462.98 987.23 1464.9 Q986.443 1466.8 984.337 1469.39 Q983.758 1470.07 980.656 1473.28 Q977.554 1476.48 971.906 1482.24 Z" fill="#000000" fill-rule="nonzero" fill-opacity="1" /><path clip-path="url(#clip540)" d="M1336.98 1467.54 Q1340.34 1468.26 1342.21 1470.53 Q1344.11 1472.8 1344.11 1476.13 Q1344.11 1481.25 1340.59 1484.05 Q1337.07 1486.85 1330.59 1486.85 Q1328.41 1486.85 1326.1 1486.41 Q1323.81 1485.99 1321.35 1485.14 L1321.35 1480.62 Q1323.3 1481.76 1325.61 1482.33 Q1327.93 1482.91 1330.45 1482.91 Q1334.85 1482.91 1337.14 1481.18 Q1339.46 1479.44 1339.46 1476.13 Q1339.46 1473.08 1337.3 1471.36 Q1335.17 1469.63 1331.35 1469.63 L1327.33 1469.63 L1327.33 1465.78 L1331.54 1465.78 Q1334.99 1465.78 1336.82 1464.42 Q1338.65 1463.03 1338.65 1460.44 Q1338.65 1457.77 1336.75 1456.36 Q1334.87 1454.93 1331.35 1454.93 Q1329.43 1454.93 1327.23 1455.34 Q1325.03 1455.76 1322.4 1456.64 L1322.4 1452.47 Q1325.06 1451.73 1327.37 1451.36 Q1329.71 1450.99 1331.77 1450.99 Q1337.09 1450.99 1340.2 1453.42 Q1343.3 1455.83 1343.3 1459.95 Q1343.3 1462.82 1341.65 1464.81 Q1340.01 1466.78 1336.98 1467.54 Z" fill="#000000" fill-rule="nonzero" fill-opacity="1" /><path clip-path="url(#clip540)" d="M1691.22 1455.69 L1679.41 1474.14 L1691.22 1474.14 L1691.22 1455.69 M1689.99 1451.62 L1695.87 1451.62 L1695.87 1474.14 L1700.8 1474.14 L1700.8 1478.03 L1695.87 1478.03 L1695.87 1486.18 L1691.22 1486.18 L1691.22 1478.03 L1675.62 1478.03 L1675.62 1473.52 L1689.99 1451.62 Z" fill="#000000" fill-rule="nonzero" fill-opacity="1" /><path clip-path="url(#clip540)" d="M2033.96 1451.62 L2052.32 1451.62 L2052.32 1455.55 L2038.25 1455.55 L2038.25 1464.02 Q2039.26 1463.68 2040.28 1463.52 Q2041.3 1463.33 2042.32 1463.33 Q2048.11 1463.33 2051.49 1466.5 Q2054.87 1469.67 2054.87 1475.09 Q2054.87 1480.67 2051.39 1483.77 Q2047.92 1486.85 2041.6 1486.85 Q2039.43 1486.85 2037.16 1486.48 Q2034.91 1486.11 2032.51 1485.37 L2032.51 1480.67 Q2034.59 1481.8 2036.81 1482.36 Q2039.03 1482.91 2041.51 1482.91 Q2045.51 1482.91 2047.85 1480.81 Q2050.19 1478.7 2050.19 1475.09 Q2050.19 1471.48 2047.85 1469.37 Q2045.51 1467.27 2041.51 1467.27 Q2039.64 1467.27 2037.76 1467.68 Q2035.91 1468.1 2033.96 1468.98 L2033.96 1451.62 Z" fill="#000000" fill-rule="nonzero" fill-opacity="1" /><path clip-path="url(#clip540)" d="M1171.61 1532.99 L1158.72 1550.34 L1172.28 1568.64 L1165.37 1568.64 L1154.99 1554.64 L1144.62 1568.64 L1137.71 1568.64 L1151.55 1549.99 L1138.89 1532.99 L1145.79 1532.99 L1155.25 1545.69 L1164.7 1532.99 L1171.61 1532.99 Z" fill="#000000" fill-rule="nonzero" fill-opacity="1" /><polyline clip-path="url(#clip542)" style="stroke:#000000; stroke-linecap:round; stroke-linejoin:round; stroke-width:2; stroke-opacity:0.1; fill:none" points="212.976,339.779 2097.01,339.779 "/>
<polyline clip-path="url(#clip542)" style="stroke:#000000; stroke-linecap:round; stroke-linejoin:round; stroke-width:2; stroke-opacity:0.1; fill:none" points="212.976,695.257 2097.01,695.257 "/>
<polyline clip-path="url(#clip542)" style="stroke:#000000; stroke-linecap:round; stroke-linejoin:round; stroke-width:2; stroke-opacity:0.1; fill:none" points="212.976,1050.73 2097.01,1050.73 "/>
<polyline clip-path="url(#clip542)" style="stroke:#000000; stroke-linecap:round; stroke-linejoin:round; stroke-width:2; stroke-opacity:0.1; fill:none" points="212.976,1406.21 2097.01,1406.21 "/>
<polyline clip-path="url(#clip540)" style="stroke:#000000; stroke-linecap:round; stroke-linejoin:round; stroke-width:4; stroke-opacity:1; fill:none" points="212.976,144.475 212.976,1423.78 "/>
<polyline clip-path="url(#clip540)" style="stroke:#000000; stroke-linecap:round; stroke-linejoin:round; stroke-width:4; stroke-opacity:1; fill:none" points="212.976,339.779 229.739,339.779 "/>
<polyline clip-path="url(#clip540)" style="stroke:#000000; stroke-linecap:round; stroke-linejoin:round; stroke-width:4; stroke-opacity:1; fill:none" points="212.976,695.257 229.739,695.257 "/>
<polyline clip-path="url(#clip540)" style="stroke:#000000; stroke-linecap:round; stroke-linejoin:round; stroke-width:4; stroke-opacity:1; fill:none" points="212.976,1050.73 229.739,1050.73 "/>
<polyline clip-path="url(#clip540)" style="stroke:#000000; stroke-linecap:round; stroke-linejoin:round; stroke-width:4; stroke-opacity:1; fill:none" points="212.976,1406.21 229.739,1406.21 "/>
<path clip-path="url(#clip540)" d="M116.491 340.23 L146.166 340.23 L146.166 344.165 L116.491 344.165 L116.491 340.23 Z" fill="#000000" fill-rule="nonzero" fill-opacity="1" /><path clip-path="url(#clip540)" d="M157.069 353.124 L164.708 353.124 L164.708 326.758 L156.398 328.425 L156.398 324.166 L164.662 322.499 L169.338 322.499 L169.338 353.124 L176.976 353.124 L176.976 357.059 L157.069 357.059 L157.069 353.124 Z" fill="#000000" fill-rule="nonzero" fill-opacity="1" /><path clip-path="url(#clip540)" d="M165.032 681.055 Q161.421 681.055 159.592 684.62 Q157.787 688.162 157.787 695.291 Q157.787 702.398 159.592 705.963 Q161.421 709.504 165.032 709.504 Q168.666 709.504 170.472 705.963 Q172.3 702.398 172.3 695.291 Q172.3 688.162 170.472 684.62 Q168.666 681.055 165.032 681.055 M165.032 677.352 Q170.842 677.352 173.898 681.958 Q176.976 686.541 176.976 695.291 Q176.976 704.018 173.898 708.625 Q170.842 713.208 165.032 713.208 Q159.222 713.208 156.143 708.625 Q153.088 704.018 153.088 695.291 Q153.088 686.541 156.143 681.958 Q159.222 677.352 165.032 677.352 Z" fill="#000000" fill-rule="nonzero" fill-opacity="1" /><path clip-path="url(#clip540)" d="M157.069 1064.08 L164.708 1064.08 L164.708 1037.71 L156.398 1039.38 L156.398 1035.12 L164.662 1033.45 L169.338 1033.45 L169.338 1064.08 L176.976 1064.08 L176.976 1068.01 L157.069 1068.01 L157.069 1064.08 Z" fill="#000000" fill-rule="nonzero" fill-opacity="1" /><path clip-path="url(#clip540)" d="M160.657 1419.56 L176.976 1419.56 L176.976 1423.49 L155.032 1423.49 L155.032 1419.56 Q157.694 1416.8 162.277 1412.17 Q166.884 1407.52 168.064 1406.18 Q170.31 1403.65 171.189 1401.92 Q172.092 1400.16 172.092 1398.47 Q172.092 1395.71 170.148 1393.98 Q168.226 1392.24 165.125 1392.24 Q162.926 1392.24 160.472 1393.01 Q158.041 1393.77 155.264 1395.32 L155.264 1390.6 Q158.088 1389.46 160.541 1388.89 Q162.995 1388.31 165.032 1388.31 Q170.402 1388.31 173.597 1390.99 Q176.791 1393.68 176.791 1398.17 Q176.791 1400.3 175.981 1402.22 Q175.194 1404.12 173.088 1406.71 Q172.509 1407.38 169.407 1410.6 Q166.305 1413.79 160.657 1419.56 Z" fill="#000000" fill-rule="nonzero" fill-opacity="1" /><path clip-path="url(#clip540)" d="M69.5448 782.439 Q75.9105 784.922 77.852 787.277 Q79.7935 789.632 79.7935 793.579 L79.7935 798.258 L74.892 798.258 L74.892 794.82 Q74.892 792.401 73.7461 791.065 Q72.6003 789.728 68.3353 788.105 L65.6617 787.054 L30.5866 801.473 L30.5866 795.266 L58.4684 784.126 L30.5866 772.986 L30.5866 766.779 L69.5448 782.439 Z" fill="#000000" fill-rule="nonzero" fill-opacity="1" /><path clip-path="url(#clip540)" d="M1121.17 33.1202 Q1115.01 33.1202 1111.69 37.5762 Q1108.2 42.2347 1108.2 49.9314 Q1108.2 58.0738 1111.65 62.7728 Q1115.13 67.4314 1121.17 67.4314 Q1127.12 67.4314 1130.61 62.7323 Q1134.09 58.0333 1134.09 49.9314 Q1134.09 42.5183 1130.61 37.5762 Q1127.41 33.1202 1121.17 33.1202 M1121.17 27.2059 L1145.92 27.2059 L1145.92 34.6595 L1137.57 34.6595 Q1141.99 40.9789 1141.99 49.9314 Q1141.99 61.0714 1136.44 67.3908 Q1130.89 73.7508 1121.17 73.7508 Q1111.4 73.7508 1105.9 67.3908 Q1100.35 61.0714 1100.35 49.9314 Q1100.35 38.7104 1105.9 32.4315 Q1110.47 27.2059 1121.17 27.2059 Z" fill="#000000" fill-rule="nonzero" fill-opacity="1" /><path clip-path="url(#clip540)" d="M1159.21 67.958 L1176.38 67.958 L1176.38 72.576 L1152.16 72.576 L1152.16 68.12 Q1153.53 66.8642 1156.09 64.5957 Q1170.02 52.2405 1170.02 48.4326 Q1170.02 45.759 1167.91 44.1387 Q1165.81 42.4778 1162.36 42.4778 Q1160.26 42.4778 1157.79 43.2069 Q1155.32 43.8956 1152.4 45.3134 L1152.4 40.3308 Q1155.52 39.1965 1158.19 38.6294 Q1160.91 38.0623 1163.22 38.0623 Q1169.09 38.0623 1172.61 40.7359 Q1176.14 43.4095 1176.14 47.7845 Q1176.14 53.4152 1162.73 64.9198 Q1160.46 66.8642 1159.21 67.958 Z" fill="#000000" fill-rule="nonzero" fill-opacity="1" /><path clip-path="url(#clip540)" d="M1192.46 67.958 L1209.64 67.958 L1209.64 72.576 L1185.41 72.576 L1185.41 68.12 Q1186.79 66.8642 1189.34 64.5957 Q1203.28 52.2405 1203.28 48.4326 Q1203.28 45.759 1201.17 44.1387 Q1199.07 42.4778 1195.62 42.4778 Q1193.52 42.4778 1191.05 43.2069 Q1188.57 43.8956 1185.66 45.3134 L1185.66 40.3308 Q1188.78 39.1965 1191.45 38.6294 Q1194.16 38.0623 1196.47 38.0623 Q1202.35 38.0623 1205.87 40.7359 Q1209.4 43.4095 1209.4 47.7845 Q1209.4 53.4152 1195.99 64.9198 Q1193.72 66.8642 1192.46 67.958 Z" fill="#000000" fill-rule="nonzero" fill-opacity="1" /><path clip-path="url(#clip542)" d="M266.298 606.387 L266.298 606.387 L284.251 606.387 L302.205 606.387 L320.158 606.387 L338.112 606.387 L356.065 606.387 L374.019 606.387 L391.972 606.387 L409.925 606.387 L427.879 606.387 L445.832 606.387 L463.786 606.387 L481.739 606.387 L499.692 606.387 L517.646 606.387 L535.599 606.387 L553.553 606.387 L571.506 606.387 L589.46 606.387 L607.413 606.387 L625.366 606.387 L643.32 606.387 L661.273 606.387 L679.227 606.387 L697.18 606.387 L715.133 606.387 L733.087 606.387 L751.04 606.387 L768.994 606.387 L786.947 606.387 L804.901 606.387 L822.854 606.387 L840.807 606.387 L858.761 606.387 L876.714 606.387 L894.668 606.387 L912.621 606.387 L930.574 606.387 L948.528 606.387 L966.481 606.387 L984.435 606.387 L1002.39 606.387 L1020.34 606.387 L1038.29 606.387 L1056.25 606.387 L1074.2 606.387 L1092.16 606.387 L1110.11 606.387 L1128.06 606.387 L1146.02 606.387 L1163.97 606.387 L1181.92 606.387 L1199.88 606.387 L1217.83 606.387 L1235.78 606.387 L1253.74 606.387 L1271.69 606.387 L1289.64 606.387 L1307.6 606.387 L1325.55 606.387 L1343.5 606.387 L1361.46 606.387 L1379.41 606.387 L1397.36 606.387 L1415.32 606.387 L1433.27 606.387 L1451.22 606.387 L1469.18 606.387 L1487.13 606.387 L1505.08 606.387 L1523.04 606.387 L1540.99 606.387 L1558.94 606.387 L1576.9 606.387 L1594.85 606.387 L1612.8 606.387 L1630.76 606.387 L1648.71 606.387 L1666.66 606.387 L1684.62 606.387 L1702.57 606.387 L1720.52 606.387 L1738.48 606.387 L1756.43 606.387 L1774.38 606.387 L1792.34 606.387 L1810.29 606.387 L1828.25 606.387 L1846.2 606.387 L1864.15 606.387 L1882.11 606.387 L1900.06 606.387 L1918.01 606.387 L1935.97 606.387 L1953.92 606.387 L1971.87 606.387 L1989.83 606.387 L2007.78 606.387 L2025.73 606.387 L2043.69 606.387 L2043.69 606.387 L2043.69 606.387 L2043.69 606.387 L2043.69 625.097 L2043.69 643.806 L2043.69 662.515 L2043.69 681.225 L2043.69 699.934 L2043.69 718.643 L2043.69 737.353 L2043.69 756.062 L2043.69 774.771 L2043.69 793.481 L2043.69 812.19 L2043.69 830.899 L2043.69 849.609 L2043.69 868.318 L2043.69 887.027 L2043.69 905.737 L2043.69 924.446 L2043.69 943.155 L2043.69 961.865 L2043.69 961.865 L2043.69 961.865 L2043.69 961.865 L2025.73 961.865 L2007.78 961.865 L1989.83 961.865 L1971.87 961.865 L1953.92 961.865 L1935.97 961.865 L1918.01 961.865 L1900.06 961.865 L1882.11 961.865 L1864.15 961.865 L1846.2 961.865 L1828.25 961.865 L1810.29 961.865 L1792.34 961.865 L1774.38 961.865 L1756.43 961.865 L1738.48 961.865 L1720.52 961.865 L1702.57 961.865 L1684.62 961.865 L1666.66 961.865 L1648.71 961.865 L1630.76 961.865 L1612.8 961.865 L1594.85 961.865 L1576.9 961.865 L1558.94 961.865 L1540.99 961.865 L1523.04 961.865 L1505.08 961.865 L1487.13 961.865 L1469.18 961.865 L1451.22 961.865 L1433.27 961.865 L1415.32 961.865 L1397.36 961.865 L1379.41 961.865 L1361.46 961.865 L1343.5 961.865 L1325.55 961.865 L1307.6 961.865 L1289.64 961.865 L1271.69 961.865 L1253.74 961.865 L1235.78 961.865 L1217.83 961.865 L1199.88 961.865 L1181.92 961.865 L1163.97 961.865 L1146.02 961.865 L1128.06 961.865 L1110.11 961.865 L1092.16 961.865 L1074.2 961.865 L1056.25 961.865 L1038.29 961.865 L1020.34 961.865 L1002.39 961.865 L984.435 961.865 L966.481 961.865 L948.528 961.865 L930.574 961.865 L912.621 961.865 L894.668 961.865 L876.714 961.865 L858.761 961.865 L840.807 961.865 L822.854 961.865 L804.901 961.865 L786.947 961.865 L768.994 961.865 L751.04 961.865 L733.087 961.865 L715.133 961.865 L697.18 961.865 L679.227 961.865 L661.273 961.865 L643.32 961.865 L625.366 961.865 L607.413 961.865 L589.46 961.865 L571.506 961.865 L553.553 961.865 L535.599 961.865 L517.646 961.865 L499.692 961.865 L481.739 961.865 L463.786 961.865 L445.832 961.865 L427.879 961.865 L409.925 961.865 L391.972 961.865 L374.019 961.865 L356.065 961.865 L338.112 961.865 L320.158 961.865 L302.205 961.865 L284.251 961.865 L266.298 961.865 L266.298 961.865 L266.298 961.865 L266.298 961.865 L266.298 943.155 L266.298 924.446 L266.298 905.737 L266.298 887.027 L266.298 868.318 L266.298 849.609 L266.298 830.899 L266.298 812.19 L266.298 793.481 L266.298 774.771 L266.298 756.062 L266.298 737.353 L266.298 718.643 L266.298 699.934 L266.298 681.225 L266.298 662.515 L266.298 643.806 L266.298 625.097 L266.298 606.387 L266.298 606.387 L266.298 606.387  Z" fill="#30123b" fill-rule="evenodd" fill-opacity="1"/>
<path clip-path="url(#clip542)" d="M266.298 606.387 L266.298 606.387 L284.251 606.387 L302.205 606.387 L320.158 606.387 L338.112 606.387 L356.065 606.387 L374.019 606.387 L391.972 606.387 L409.925 606.387 L427.879 606.387 L445.832 606.387 L463.786 606.387 L481.739 606.387 L499.692 606.387 L517.646 606.387 L535.599 606.387 L553.553 606.387 L571.506 606.387 L589.46 606.387 L607.413 606.387 L625.366 606.387 L643.32 606.387 L661.273 606.387 L679.227 606.387 L697.18 606.387 L715.133 606.387 L733.087 606.387 L751.04 606.387 L768.994 606.387 L786.947 606.387 L804.901 606.387 L822.854 606.387 L840.807 606.387 L858.761 606.387 L876.714 606.387 L894.668 606.387 L912.621 606.387 L930.574 606.387 L948.528 606.387 L966.481 606.387 L984.435 606.387 L1002.39 606.387 L1020.34 606.387 L1038.29 606.387 L1056.25 606.387 L1074.2 606.387 L1092.16 606.387 L1110.11 606.387 L1128.06 606.387 L1146.02 606.387 L1163.97 606.387 L1181.92 606.387 L1199.88 606.387 L1217.83 606.387 L1235.78 606.387 L1253.74 606.387 L1271.69 606.387 L1289.64 606.387 L1307.6 606.387 L1325.55 606.387 L1343.5 606.387 L1361.46 606.387 L1379.41 606.387 L1397.36 606.387 L1415.32 606.387 L1433.27 606.387 L1451.22 606.387 L1469.18 606.387 L1487.13 606.387 L1505.08 606.387 L1523.04 606.387 L1540.99 606.387 L1558.94 606.387 L1576.9 606.387 L1594.85 606.387 L1612.8 606.387 L1630.76 606.387 L1648.71 606.387 L1666.66 606.387 L1684.62 606.387 L1684.62 606.387 L1688.21 606.387 L1702.57 620.433 L1707.38 625.097 L1720.52 629.522 L1738.48 635.481 L1756.43 641.343 L1764.06 643.806 L1774.38 645.906 L1792.34 649.513 L1810.29 653.063 L1828.25 656.556 L1846.2 659.995 L1859.54 662.515 L1864.15 663.173 L1882.11 665.706 L1900.06 668.2 L1918.01 670.657 L1935.97 673.076 L1953.92 675.459 L1971.87 677.807 L1989.83 680.12 L1998.5 681.225 L2007.78 682.204 L2025.73 684.078 L2043.69 685.925 L2043.69 681.225 L2043.69 699.934 L2043.69 718.643 L2043.69 737.353 L2043.69 756.062 L2043.69 774.771 L2043.69 793.481 L2043.69 812.19 L2043.69 830.899 L2043.69 849.609 L2043.69 868.318 L2043.69 887.027 L2043.69 905.737 L2043.69 924.446 L2043.69 943.155 L2043.69 961.865 L2043.69 961.865 L2043.69 961.865 L2043.69 961.865 L2025.73 961.865 L2007.78 961.865 L1989.83 961.865 L1971.87 961.865 L1953.92 961.865 L1935.97 961.865 L1918.01 961.865 L1900.06 961.865 L1882.11 961.865 L1864.15 961.865 L1846.2 961.865 L1828.25 961.865 L1810.29 961.865 L1792.34 961.865 L1774.38 961.865 L1756.43 961.865 L1738.48 961.865 L1720.52 961.865 L1702.57 961.865 L1684.62 961.865 L1666.66 961.865 L1648.71 961.865 L1630.76 961.865 L1612.8 961.865 L1594.85 961.865 L1576.9 961.865 L1558.94 961.865 L1540.99 961.865 L1523.04 961.865 L1505.08 961.865 L1487.13 961.865 L1469.18 961.865 L1451.22 961.865 L1433.27 961.865 L1415.32 961.865 L1397.36 961.865 L1379.41 961.865 L1361.46 961.865 L1343.5 961.865 L1325.55 961.865 L1307.6 961.865 L1289.64 961.865 L1271.69 961.865 L1253.74 961.865 L1235.78 961.865 L1217.83 961.865 L1199.88 961.865 L1181.92 961.865 L1163.97 961.865 L1146.02 961.865 L1128.06 961.865 L1110.11 961.865 L1092.16 961.865 L1074.2 961.865 L1056.25 961.865 L1038.29 961.865 L1020.34 961.865 L1002.39 961.865 L984.435 961.865 L966.481 961.865 L948.528 961.865 L930.574 961.865 L912.621 961.865 L894.668 961.865 L876.714 961.865 L858.761 961.865 L840.807 961.865 L822.854 961.865 L804.901 961.865 L786.947 961.865 L768.994 961.865 L751.04 961.865 L733.087 961.865 L715.133 961.865 L697.18 961.865 L679.227 961.865 L661.273 961.865 L643.32 961.865 L625.366 961.865 L607.413 961.865 L589.46 961.865 L571.506 961.865 L553.553 961.865 L535.599 961.865 L517.646 961.865 L499.692 961.865 L481.739 961.865 L463.786 961.865 L445.832 961.865 L427.879 961.865 L409.925 961.865 L391.972 961.865 L374.019 961.865 L356.065 961.865 L338.112 961.865 L320.158 961.865 L302.205 961.865 L284.251 961.865 L266.298 961.865 L266.298 961.865 L266.298 961.865 L266.298 961.865 L266.298 943.155 L266.298 924.446 L266.298 905.737 L266.298 887.027 L266.298 868.318 L266.298 849.609 L266.298 830.899 L266.298 812.19 L266.298 793.481 L266.298 774.771 L266.298 756.062 L266.298 737.353 L266.298 718.643 L266.298 699.934 L266.298 681.225 L266.298 662.515 L266.298 643.806 L266.298 625.097 L266.298 606.387 L266.298 606.387 L266.298 606.387  Z" fill="#4584f9" fill-rule="evenodd" fill-opacity="1"/>
<path clip-path="url(#clip542)" d="M266.298 606.387 L266.298 606.387 L284.251 606.387 L302.205 606.387 L320.158 606.387 L338.112 606.387 L356.065 606.387 L374.019 606.387 L391.972 606.387 L409.925 606.387 L427.879 606.387 L445.832 606.387 L463.786 606.387 L481.739 606.387 L499.692 606.387 L517.646 606.387 L535.599 606.387 L553.553 606.387 L571.506 606.387 L589.46 606.387 L607.413 606.387 L625.366 606.387 L643.32 606.387 L661.273 606.387 L679.227 606.387 L697.18 606.387 L715.133 606.387 L733.087 606.387 L751.04 606.387 L768.994 606.387 L786.947 606.387 L804.901 606.387 L822.854 606.387 L840.807 606.387 L858.761 606.387 L876.714 606.387 L894.668 606.387 L912.621 606.387 L930.574 606.387 L948.528 606.387 L966.481 606.387 L984.435 606.387 L1002.39 606.387 L1020.34 606.387 L1038.29 606.387 L1056.25 606.387 L1074.2 606.387 L1092.16 606.387 L1110.11 606.387 L1128.06 606.387 L1146.02 606.387 L1163.97 606.387 L1181.92 606.387 L1199.88 606.387 L1217.83 606.387 L1235.78 606.387 L1253.74 606.387 L1271.69 606.387 L1289.64 606.387 L1307.6 606.387 L1325.55 606.387 L1325.55 606.387 L1332.73 606.387 L1343.5 619.037 L1348.71 625.097 L1361.46 630.242 L1379.41 637.368 L1395.94 643.806 L1397.36 644.154 L1415.32 648.509 L1433.27 652.781 L1451.22 656.972 L1469.18 661.084 L1475.5 662.515 L1487.13 664.495 L1505.08 667.506 L1523.04 670.461 L1540.99 673.364 L1558.94 676.214 L1576.9 679.014 L1591.3 681.225 L1594.85 681.675 L1612.8 683.929 L1630.76 686.144 L1648.71 688.322 L1666.66 690.462 L1684.62 692.566 L1702.57 694.635 L1720.52 696.67 L1738.48 698.671 L1749.96 699.934 L1756.43 700.598 L1774.38 702.421 L1792.34 704.215 L1810.29 705.98 L1828.25 707.718 L1846.2 709.428 L1864.15 711.111 L1882.11 712.769 L1900.06 714.401 L1918.01 716.008 L1935.97 717.591 L1948.05 718.643 L1953.92 719.14 L1971.87 720.646 L1989.83 722.13 L2007.78 723.591 L2025.73 725.032 L2043.69 726.451 L2043.69 718.643 L2043.69 737.353 L2043.69 756.062 L2043.69 774.771 L2043.69 793.481 L2043.69 812.19 L2043.69 830.899 L2043.69 849.609 L2043.69 868.318 L2043.69 887.027 L2043.69 905.737 L2043.69 924.446 L2043.69 943.155 L2043.69 961.865 L2043.69 961.865 L2043.69 961.865 L2043.69 961.865 L2025.73 961.865 L2007.78 961.865 L1989.83 961.865 L1971.87 961.865 L1953.92 961.865 L1935.97 961.865 L1918.01 961.865 L1900.06 961.865 L1882.11 961.865 L1864.15 961.865 L1846.2 961.865 L1828.25 961.865 L1810.29 961.865 L1792.34 961.865 L1774.38 961.865 L1756.43 961.865 L1738.48 961.865 L1720.52 961.865 L1702.57 961.865 L1684.62 961.865 L1666.66 961.865 L1648.71 961.865 L1630.76 961.865 L1612.8 961.865 L1594.85 961.865 L1576.9 961.865 L1558.94 961.865 L1540.99 961.865 L1523.04 961.865 L1505.08 961.865 L1487.13 961.865 L1469.18 961.865 L1451.22 961.865 L1433.27 961.865 L1415.32 961.865 L1397.36 961.865 L1379.41 961.865 L1361.46 961.865 L1343.5 961.865 L1325.55 961.865 L1307.6 961.865 L1289.64 961.865 L1271.69 961.865 L1253.74 961.865 L1235.78 961.865 L1217.83 961.865 L1199.88 961.865 L1181.92 961.865 L1163.97 961.865 L1146.02 961.865 L1128.06 961.865 L1110.11 961.865 L1092.16 961.865 L1074.2 961.865 L1056.25 961.865 L1038.29 961.865 L1020.34 961.865 L1002.39 961.865 L984.435 961.865 L966.481 961.865 L948.528 961.865 L930.574 961.865 L912.621 961.865 L894.668 961.865 L876.714 961.865 L858.761 961.865 L840.807 961.865 L822.854 961.865 L804.901 961.865 L786.947 961.865 L768.994 961.865 L751.04 961.865 L733.087 961.865 L715.133 961.865 L697.18 961.865 L679.227 961.865 L661.273 961.865 L643.32 961.865 L625.366 961.865 L607.413 961.865 L589.46 961.865 L571.506 961.865 L553.553 961.865 L535.599 961.865 L517.646 961.865 L499.692 961.865 L481.739 961.865 L463.786 961.865 L445.832 961.865 L427.879 961.865 L409.925 961.865 L391.972 961.865 L374.019 961.865 L356.065 961.865 L338.112 961.865 L320.158 961.865 L302.205 961.865 L284.251 961.865 L266.298 961.865 L266.298 961.865 L266.298 961.865 L266.298 961.865 L266.298 943.155 L266.298 924.446 L266.298 905.737 L266.298 887.027 L266.298 868.318 L266.298 849.609 L266.298 830.899 L266.298 812.19 L266.298 793.481 L266.298 774.771 L266.298 756.062 L266.298 737.353 L266.298 718.643 L266.298 699.934 L266.298 681.225 L266.298 662.515 L266.298 643.806 L266.298 625.097 L266.298 606.387 L266.298 606.387 L266.298 606.387  Z" fill="#1ae4b6" fill-rule="evenodd" fill-opacity="1"/>
<path clip-path="url(#clip542)" d="M266.298 606.387 L266.298 606.387 L284.251 606.387 L302.205 606.387 L320.158 606.387 L338.112 606.387 L356.065 606.387 L374.019 606.387 L391.972 606.387 L409.925 606.387 L427.879 606.387 L445.832 606.387 L463.786 606.387 L481.739 606.387 L499.692 606.387 L517.646 606.387 L535.599 606.387 L553.553 606.387 L571.506 606.387 L589.46 606.387 L607.413 606.387 L625.366 606.387 L643.32 606.387 L661.273 606.387 L679.227 606.387 L697.18 606.387 L715.133 606.387 L733.087 606.387 L751.04 606.387 L768.994 606.387 L786.947 606.387 L804.901 606.387 L822.854 606.387 L840.807 606.387 L858.761 606.387 L876.714 606.387 L894.668 606.387 L912.621 606.387 L930.574 606.387 L948.528 606.387 L966.481 606.387 L966.481 606.387 L977.253 606.387 L984.435 616.939 L990.036 625.097 L1002.39 631.32 L1020.34 640.179 L1027.82 643.806 L1038.29 646.995 L1056.25 652.358 L1074.2 657.594 L1091.47 662.515 L1092.16 662.661 L1110.11 666.458 L1128.06 670.168 L1146.02 673.795 L1163.97 677.34 L1181.92 680.807 L1184.11 681.225 L1199.88 683.705 L1217.83 686.473 L1235.78 689.182 L1253.74 691.834 L1271.69 694.43 L1289.64 696.972 L1307.6 699.462 L1311.04 699.934 L1325.55 701.787 L1343.5 704.037 L1361.46 706.243 L1379.41 708.405 L1397.36 710.525 L1415.32 712.604 L1433.27 714.643 L1451.22 716.644 L1469.18 718.607 L1469.51 718.643 L1487.13 720.497 L1505.08 722.35 L1523.04 724.17 L1540.99 725.957 L1558.94 727.712 L1576.9 729.435 L1594.85 731.129 L1612.8 732.793 L1630.76 734.428 L1648.71 736.035 L1663.67 737.353 L1666.66 737.611 L1684.62 739.142 L1702.57 740.648 L1720.52 742.128 L1738.48 743.585 L1756.43 745.017 L1774.38 746.426 L1792.34 747.813 L1810.29 749.178 L1828.25 750.521 L1846.2 751.843 L1864.15 753.145 L1882.11 754.426 L1900.06 755.688 L1905.44 756.062 L1918.01 756.923 L1935.97 758.137 L1953.92 759.332 L1971.87 760.51 L1989.83 761.671 L2007.78 762.814 L2025.73 763.941 L2043.69 765.051 L2043.69 756.062 L2043.69 774.771 L2043.69 793.481 L2043.69 812.19 L2043.69 830.899 L2043.69 849.609 L2043.69 868.318 L2043.69 887.027 L2043.69 905.737 L2043.69 924.446 L2043.69 943.155 L2043.69 961.865 L2043.69 961.865 L2043.69 961.865 L2043.69 961.865 L2025.73 961.865 L2007.78 961.865 L1989.83 961.865 L1971.87 961.865 L1953.92 961.865 L1935.97 961.865 L1918.01 961.865 L1900.06 961.865 L1882.11 961.865 L1864.15 961.865 L1846.2 961.865 L1828.25 961.865 L1810.29 961.865 L1792.34 961.865 L1774.38 961.865 L1756.43 961.865 L1738.48 961.865 L1720.52 961.865 L1702.57 961.865 L1684.62 961.865 L1666.66 961.865 L1648.71 961.865 L1630.76 961.865 L1612.8 961.865 L1594.85 961.865 L1576.9 961.865 L1558.94 961.865 L1540.99 961.865 L1523.04 961.865 L1505.08 961.865 L1487.13 961.865 L1469.18 961.865 L1451.22 961.865 L1433.27 961.865 L1415.32 961.865 L1397.36 961.865 L1379.41 961.865 L1361.46 961.865 L1343.5 961.865 L1325.55 961.865 L1307.6 961.865 L1289.64 961.865 L1271.69 961.865 L1253.74 961.865 L1235.78 961.865 L1217.83 961.865 L1199.88 961.865 L1181.92 961.865 L1163.97 961.865 L1146.02 961.865 L1128.06 961.865 L1110.11 961.865 L1092.16 961.865 L1074.2 961.865 L1056.25 961.865 L1038.29 961.865 L1020.34 961.865 L1002.39 961.865 L984.435 961.865 L966.481 961.865 L948.528 961.865 L930.574 961.865 L912.621 961.865 L894.668 961.865 L876.714 961.865 L858.761 961.865 L840.807 961.865 L822.854 961.865 L804.901 961.865 L786.947 961.865 L768.994 961.865 L751.04 961.865 L733.087 961.865 L715.133 961.865 L697.18 961.865 L679.227 961.865 L661.273 961.865 L643.32 961.865 L625.366 961.865 L607.413 961.865 L589.46 961.865 L571.506 961.865 L553.553 961.865 L535.599 961.865 L517.646 961.865 L499.692 961.865 L481.739 961.865 L463.786 961.865 L445.832 961.865 L427.879 961.865 L409.925 961.865 L391.972 961.865 L374.019 961.865 L356.065 961.865 L338.112 961.865 L320.158 961.865 L302.205 961.865 L284.251 961.865 L266.298 961.865 L266.298 961.865 L266.298 961.865 L266.298 961.865 L266.298 943.155 L266.298 924.446 L266.298 905.737 L266.298 887.027 L266.298 868.318 L266.298 849.609 L266.298 830.899 L266.298 812.19 L266.298 793.481 L266.298 774.771 L266.298 756.062 L266.298 737.353 L266.298 718.643 L266.298 699.934 L266.298 681.225 L266.298 662.515 L266.298 643.806 L266.298 625.097 L266.298 606.387 L266.298 606.387 L266.298 606.387  Z" fill="#a1fc3d" fill-rule="evenodd" fill-opacity="1"/>
<path clip-path="url(#clip542)" d="M266.298 606.387 L266.298 606.387 L284.251 606.387 L302.205 606.387 L320.158 606.387 L338.112 606.387 L356.065 606.387 L374.019 606.387 L391.972 606.387 L409.925 606.387 L427.879 606.387 L445.832 606.387 L463.786 606.387 L481.739 606.387 L499.692 606.387 L517.646 606.387 L535.599 606.387 L553.553 606.387 L571.506 606.387 L589.46 606.387 L607.413 606.387 L607.413 606.387 L621.776 606.387 L625.366 613.434 L631.363 625.097 L643.32 633.109 L659.702 643.806 L661.273 644.447 L679.227 651.65 L697.18 658.626 L707.44 662.515 L715.133 664.697 L733.087 669.678 L751.04 674.51 L768.994 679.199 L776.919 681.225 L786.947 683.332 L804.901 687.02 L822.854 690.603 L840.807 694.087 L858.761 697.474 L872.114 699.934 L876.714 700.721 L894.668 703.74 L912.621 706.678 L930.574 709.541 L948.528 712.329 L966.481 715.047 L984.435 717.696 L990.967 718.643 L1002.39 720.247 L1020.34 722.717 L1038.29 725.127 L1056.25 727.48 L1074.2 729.777 L1092.16 732.02 L1110.11 734.211 L1128.06 736.353 L1136.59 737.353 L1146.02 738.431 L1163.97 740.448 L1181.92 742.421 L1199.88 744.351 L1217.83 746.24 L1235.78 748.088 L1253.74 749.897 L1271.69 751.668 L1289.64 753.402 L1307.6 755.101 L1317.91 756.062 L1325.55 756.76 L1343.5 758.377 L1361.46 759.963 L1379.41 761.517 L1397.36 763.041 L1415.32 764.535 L1433.27 766.001 L1451.22 767.439 L1469.18 768.85 L1487.13 770.235 L1505.08 771.594 L1523.04 772.929 L1540.99 774.239 L1548.38 774.771 L1558.94 775.524 L1576.9 776.784 L1594.85 778.023 L1612.8 779.239 L1630.76 780.435 L1648.71 781.61 L1666.66 782.765 L1684.62 783.901 L1702.57 785.018 L1720.52 786.116 L1738.48 787.196 L1756.43 788.259 L1774.38 789.304 L1792.34 790.333 L1810.29 791.345 L1828.25 792.341 L1846.2 793.321 L1849.14 793.481 L1864.15 794.289 L1882.11 795.242 L1900.06 796.181 L1918.01 797.105 L1935.97 798.015 L1953.92 798.912 L1971.87 799.795 L1989.83 800.665 L2007.78 801.523 L2025.73 802.368 L2043.69 803.201 L2043.69 793.481 L2043.69 812.19 L2043.69 830.899 L2043.69 849.609 L2043.69 868.318 L2043.69 887.027 L2043.69 905.737 L2043.69 924.446 L2043.69 943.155 L2043.69 961.865 L2043.69 961.865 L2043.69 961.865 L2043.69 961.865 L2025.73 961.865 L2007.78 961.865 L1989.83 961.865 L1971.87 961.865 L1953.92 961.865 L1935.97 961.865 L1918.01 961.865 L1900.06 961.865 L1882.11 961.865 L1864.15 961.865 L1846.2 961.865 L1828.25 961.865 L1810.29 961.865 L1792.34 961.865 L1774.38 961.865 L1756.43 961.865 L1738.48 961.865 L1720.52 961.865 L1702.57 961.865 L1684.62 961.865 L1666.66 961.865 L1648.71 961.865 L1630.76 961.865 L1612.8 961.865 L1594.85 961.865 L1576.9 961.865 L1558.94 961.865 L1540.99 961.865 L1523.04 961.865 L1505.08 961.865 L1487.13 961.865 L1469.18 961.865 L1451.22 961.865 L1433.27 961.865 L1415.32 961.865 L1397.36 961.865 L1379.41 961.865 L1361.46 961.865 L1343.5 961.865 L1325.55 961.865 L1307.6 961.865 L1289.64 961.865 L1271.69 961.865 L1253.74 961.865 L1235.78 961.865 L1217.83 961.865 L1199.88 961.865 L1181.92 961.865 L1163.97 961.865 L1146.02 961.865 L1128.06 961.865 L1110.11 961.865 L1092.16 961.865 L1074.2 961.865 L1056.25 961.865 L1038.29 961.865 L1020.34 961.865 L1002.39 961.865 L984.435 961.865 L966.481 961.865 L948.528 961.865 L930.574 961.865 L912.621 961.865 L894.668 961.865 L876.714 961.865 L858.761 961.865 L840.807 961.865 L822.854 961.865 L804.901 961.865 L786.947 961.865 L768.994 961.865 L751.04 961.865 L733.087 961.865 L715.133 961.865 L697.18 961.865 L679.227 961.865 L661.273 961.865 L643.32 961.865 L625.366 961.865 L607.413 961.865 L589.46 961.865 L571.506 961.865 L553.553 961.865 L535.599 961.865 L517.646 961.865 L499.692 961.865 L481.739 961.865 L463.786 961.865 L445.832 961.865 L427.879 961.865 L409.925 961.865 L391.972 961.865 L374.019 961.865 L356.065 961.865 L338.112 961.865 L320.158 961.865 L302.205 961.865 L284.251 961.865 L266.298 961.865 L266.298 961.865 L266.298 961.865 L266.298 961.865 L266.298 943.155 L266.298 924.446 L266.298 905.737 L266.298 887.027 L266.298 868.318 L266.298 849.609 L266.298 830.899 L266.298 812.19 L266.298 793.481 L266.298 774.771 L266.298 756.062 L266.298 737.353 L266.298 718.643 L266.298 699.934 L266.298 681.225 L266.298 662.515 L266.298 643.806 L266.298 625.097 L266.298 606.387 L266.298 606.387 L266.298 606.387  Z" fill="#f9ba38" fill-rule="evenodd" fill-opacity="1"/>
<path clip-path="url(#clip542)" d="M266.298 606.387 L266.298 606.387 L272.689 625.097 L284.251 636.661 L291.582 643.806 L302.205 650.228 L320.158 660.676 L323.407 662.515 L338.112 668.694 L356.065 675.931 L369.727 681.225 L374.019 682.581 L391.972 688.106 L409.925 693.398 L427.879 698.472 L433.19 699.934 L445.832 703.142 L463.786 707.545 L481.739 711.777 L499.692 715.848 L512.425 718.643 L517.646 719.745 L535.599 723.446 L553.553 727.014 L571.506 730.455 L589.46 733.777 L607.413 736.986 L609.506 737.353 L625.366 740.048 L643.32 743.005 L661.273 745.865 L679.227 748.635 L697.18 751.317 L715.133 753.916 L730.389 756.062 L733.087 756.433 L751.04 758.856 L768.994 761.208 L786.947 763.492 L804.901 765.71 L822.854 767.865 L840.807 769.96 L858.761 771.997 L876.714 773.979 L884.033 774.771 L894.668 775.904 L912.621 777.777 L930.574 779.6 L948.528 781.377 L966.481 783.108 L984.435 784.796 L1002.39 786.442 L1020.34 788.048 L1038.29 789.614 L1056.25 791.144 L1074.2 792.637 L1084.54 793.481 L1092.16 794.097 L1110.11 795.525 L1128.06 796.921 L1146.02 798.285 L1163.97 799.619 L1181.92 800.924 L1199.88 802.2 L1217.83 803.448 L1235.78 804.67 L1253.74 805.866 L1271.69 807.037 L1289.64 808.184 L1307.6 809.307 L1325.55 810.407 L1343.5 811.485 L1355.43 812.19 L1361.46 812.545 L1379.41 813.59 L1397.36 814.614 L1415.32 815.619 L1433.27 816.604 L1451.22 817.571 L1469.18 818.52 L1487.13 819.451 L1505.08 820.365 L1523.04 821.262 L1540.99 822.143 L1558.94 823.008 L1576.9 823.858 L1594.85 824.692 L1612.8 825.513 L1630.76 826.319 L1648.71 827.111 L1666.66 827.89 L1684.62 828.655 L1702.57 829.408 L1720.52 830.149 L1738.48 830.877 L1739.04 830.899 L1756.43 831.603 L1774.38 832.318 L1792.34 833.021 L1810.29 833.713 L1828.25 834.394 L1846.2 835.064 L1864.15 835.724 L1882.11 836.374 L1900.06 837.014 L1918.01 837.644 L1935.97 838.265 L1953.92 838.876 L1971.87 839.478 L1989.83 840.072 L2007.78 840.656 L2025.73 841.233 L2043.69 841.801 L2043.69 830.899 L2043.69 849.609 L2043.69 868.318 L2043.69 887.027 L2043.69 905.737 L2043.69 924.446 L2043.69 943.155 L2043.69 961.865 L2043.69 961.865 L2043.69 961.865 L2043.69 961.865 L2025.73 961.865 L2007.78 961.865 L1989.83 961.865 L1971.87 961.865 L1953.92 961.865 L1935.97 961.865 L1918.01 961.865 L1900.06 961.865 L1882.11 961.865 L1864.15 961.865 L1846.2 961.865 L1828.25 961.865 L1810.29 961.865 L1792.34 961.865 L1774.38 961.865 L1756.43 961.865 L1738.48 961.865 L1720.52 961.865 L1702.57 961.865 L1684.62 961.865 L1666.66 961.865 L1648.71 961.865 L1630.76 961.865 L1612.8 961.865 L1594.85 961.865 L1576.9 961.865 L1558.94 961.865 L1540.99 961.865 L1523.04 961.865 L1505.08 961.865 L1487.13 961.865 L1469.18 961.865 L1451.22 961.865 L1433.27 961.865 L1415.32 961.865 L1397.36 961.865 L1379.41 961.865 L1361.46 961.865 L1343.5 961.865 L1325.55 961.865 L1307.6 961.865 L1289.64 961.865 L1271.69 961.865 L1253.74 961.865 L1235.78 961.865 L1217.83 961.865 L1199.88 961.865 L1181.92 961.865 L1163.97 961.865 L1146.02 961.865 L1128.06 961.865 L1110.11 961.865 L1092.16 961.865 L1074.2 961.865 L1056.25 961.865 L1038.29 961.865 L1020.34 961.865 L1002.39 961.865 L984.435 961.865 L966.481 961.865 L948.528 961.865 L930.574 961.865 L912.621 961.865 L894.668 961.865 L876.714 961.865 L858.761 961.865 L840.807 961.865 L822.854 961.865 L804.901 961.865 L786.947 961.865 L768.994 961.865 L751.04 961.865 L733.087 961.865 L715.133 961.865 L697.18 961.865 L679.227 961.865 L661.273 961.865 L643.32 961.865 L625.366 961.865 L607.413 961.865 L589.46 961.865 L571.506 961.865 L553.553 961.865 L535.599 961.865 L517.646 961.865 L499.692 961.865 L481.739 961.865 L463.786 961.865 L445.832 961.865 L427.879 961.865 L409.925 961.865 L391.972 961.865 L374.019 961.865 L356.065 961.865 L338.112 961.865 L320.158 961.865 L302.205 961.865 L284.251 961.865 L266.298 961.865 L266.298 961.865 L266.298 961.865 L266.298 961.865 L266.298 943.155 L266.298 924.446 L266.298 905.737 L266.298 887.027 L266.298 868.318 L266.298 849.609 L266.298 830.899 L266.298 812.19 L266.298 793.481 L266.298 774.771 L266.298 756.062 L266.298 737.353 L266.298 718.643 L266.298 699.934 L266.298 681.225 L266.298 662.515 L266.298 643.806 L266.298 625.097 L266.298 606.387  Z" fill="#e5460a" fill-rule="evenodd" fill-opacity="1"/>
<path clip-path="url(#clip542)" d="M266.298 774.771 L266.298 784.126 L284.251 787.41 L302.205 790.536 L319.942 793.481 L320.158 793.516 L338.112 796.367 L356.065 799.089 L374.019 801.693 L391.972 804.184 L409.925 806.571 L427.879 808.86 L445.832 811.057 L455.387 812.19 L463.786 813.175 L481.739 815.22 L499.692 817.187 L517.646 819.08 L535.599 820.905 L553.553 822.664 L571.506 824.36 L589.46 825.998 L607.413 827.58 L625.366 829.109 L643.32 830.587 L647.192 830.899 L661.273 832.033 L679.227 833.437 L697.18 834.797 L715.133 836.115 L733.087 837.393 L751.04 838.633 L768.994 839.835 L786.947 841.003 L804.901 842.137 L822.854 843.239 L840.807 844.311 L858.761 845.352 L876.714 846.366 L894.668 847.352 L912.621 848.312 L930.574 849.247 L937.641 849.609 L948.528 850.169 L966.481 851.075 L984.435 851.958 L1002.39 852.82 L1020.34 853.66 L1038.29 854.479 L1056.25 855.279 L1074.2 856.061 L1092.16 856.823 L1110.11 857.569 L1128.06 858.297 L1146.02 859.009 L1163.97 859.705 L1181.92 860.386 L1199.88 861.051 L1217.83 861.703 L1235.78 862.34 L1253.74 862.964 L1271.69 863.575 L1289.64 864.173 L1307.6 864.759 L1325.55 865.333 L1343.5 865.896 L1361.46 866.447 L1379.41 866.988 L1397.36 867.518 L1415.32 868.038 L1425.14 868.318 L1433.27 868.562 L1451.22 869.093 L1469.18 869.615 L1487.13 870.126 L1505.08 870.629 L1523.04 871.122 L1540.99 871.606 L1558.94 872.082 L1576.9 872.549 L1594.85 873.008 L1612.8 873.458 L1630.76 873.902 L1648.71 874.337 L1666.66 874.765 L1684.62 875.186 L1702.57 875.6 L1720.52 876.007 L1738.48 876.407 L1756.43 876.801 L1774.38 877.188 L1792.34 877.569 L1810.29 877.944 L1828.25 878.313 L1846.2 878.677 L1864.15 879.034 L1882.11 879.387 L1900.06 879.733 L1918.01 880.075 L1935.97 880.411 L1953.92 880.743 L1971.87 881.069 L1989.83 881.391 L2007.78 881.707 L2025.73 882.02 L2043.69 882.327 L2043.69 868.318 L2043.69 887.027 L2043.69 905.737 L2043.69 924.446 L2043.69 943.155 L2043.69 961.865 L2043.69 961.865 L2043.69 961.865 L2043.69 961.865 L2025.73 961.865 L2007.78 961.865 L1989.83 961.865 L1971.87 961.865 L1953.92 961.865 L1935.97 961.865 L1918.01 961.865 L1900.06 961.865 L1882.11 961.865 L1864.15 961.865 L1846.2 961.865 L1828.25 961.865 L1810.29 961.865 L1792.34 961.865 L1774.38 961.865 L1756.43 961.865 L1738.48 961.865 L1720.52 961.865 L1702.57 961.865 L1684.62 961.865 L1666.66 961.865 L1648.71 961.865 L1630.76 961.865 L1612.8 961.865 L1594.85 961.865 L1576.9 961.865 L1558.94 961.865 L1540.99 961.865 L1523.04 961.865 L1505.08 961.865 L1487.13 961.865 L1469.18 961.865 L1451.22 961.865 L1433.27 961.865 L1415.32 961.865 L1397.36 961.865 L1379.41 961.865 L1361.46 961.865 L1343.5 961.865 L1325.55 961.865 L1307.6 961.865 L1289.64 961.865 L1271.69 961.865 L1253.74 961.865 L1235.78 961.865 L1217.83 961.865 L1199.88 961.865 L1181.92 961.865 L1163.97 961.865 L1146.02 961.865 L1128.06 961.865 L1110.11 961.865 L1092.16 961.865 L1074.2 961.865 L1056.25 961.865 L1038.29 961.865 L1020.34 961.865 L1002.39 961.865 L984.435 961.865 L966.481 961.865 L948.528 961.865 L930.574 961.865 L912.621 961.865 L894.668 961.865 L876.714 961.865 L858.761 961.865 L840.807 961.865 L822.854 961.865 L804.901 961.865 L786.947 961.865 L768.994 961.865 L751.04 961.865 L733.087 961.865 L715.133 961.865 L697.18 961.865 L679.227 961.865 L661.273 961.865 L643.32 961.865 L625.366 961.865 L607.413 961.865 L589.46 961.865 L571.506 961.865 L553.553 961.865 L535.599 961.865 L517.646 961.865 L499.692 961.865 L481.739 961.865 L463.786 961.865 L445.832 961.865 L427.879 961.865 L409.925 961.865 L391.972 961.865 L374.019 961.865 L356.065 961.865 L338.112 961.865 L320.158 961.865 L302.205 961.865 L284.251 961.865 L266.298 961.865 L266.298 961.865 L266.298 961.865 L266.298 961.865 L266.298 943.155 L266.298 924.446 L266.298 905.737 L266.298 887.027 L266.298 868.318 L266.298 849.609 L266.298 830.899 L266.298 812.19 L266.298 793.481 L266.298 774.771  Z" fill="#7a0402" fill-rule="evenodd" fill-opacity="1"/>
<polyline clip-path="url(#clip542)" style="stroke:#30123b; stroke-linecap:round; stroke-linejoin:round; stroke-width:4; stroke-opacity:1; fill:none" points="266.298,606.387 266.298,606.387 284.251,606.387 302.205,606.387 320.158,606.387 338.112,606.387 356.065,606.387 374.019,606.387 391.972,606.387 409.925,606.387 427.879,606.387 445.832,606.387 463.786,606.387 481.739,606.387 499.692,606.387 517.646,606.387 535.599,606.387 553.553,606.387 571.506,606.387 589.46,606.387 607.413,606.387 625.366,606.387 643.32,606.387 661.273,606.387 679.227,606.387 697.18,606.387 715.133,606.387 733.087,606.387 751.04,606.387 768.994,606.387 786.947,606.387 804.901,606.387 822.854,606.387 840.807,606.387 858.761,606.387 876.714,606.387 894.668,606.387 912.621,606.387 930.574,606.387 948.528,606.387 966.481,606.387 984.435,606.387 1002.39,606.387 1020.34,606.387 1038.29,606.387 1056.25,606.387 1074.2,606.387 1092.16,606.387 1110.11,606.387 1128.06,606.387 1146.02,606.387 1163.97,606.387 1181.92,606.387 1199.88,606.387 1217.83,606.387 1235.78,606.387 1253.74,606.387 1271.69,606.387 1289.64,606.387 1307.6,606.387 1325.55,606.387 1343.5,606.387 1361.46,606.387 1379.41,606.387 1397.36,606.387 1415.32,606.387 1433.27,606.387 1451.22,606.387 1469.18,606.387 1487.13,606.387 1505.08,606.387 1523.04,606.387 1540.99,606.387 1558.94,606.387 1576.9,606.387 1594.85,606.387 1612.8,606.387 1630.76,606.387 1648.71,606.387 1666.66,606.387 1684.62,606.387 1702.57,606.387 1720.52,606.387 1738.48,606.387 1756.43,606.387 1774.38,606.387 1792.34,606.387 1810.29,606.387 1828.25,606.387 1846.2,606.387 1864.15,606.387 1882.11,606.387 1900.06,606.387 1918.01,606.387 1935.97,606.387 1953.92,606.387 1971.87,606.387 1989.83,606.387 2007.78,606.387 2025.73,606.387 2043.69,606.387 2043.69,625.097 2043.69,643.806 2043.69,662.515 2043.69,681.225 2043.69,699.934 2043.69,718.643 2043.69,737.353 2043.69,756.062 2043.69,774.771 2043.69,793.481 2043.69,812.19 2043.69,830.899 2043.69,849.609 2043.69,868.318 2043.69,887.027 2043.69,905.737 2043.69,924.446 2043.69,943.155 2043.69,961.865 2025.73,961.865 2007.78,961.865 1989.83,961.865 1971.87,961.865 1953.92,961.865 1935.97,961.865 1918.01,961.865 1900.06,961.865 1882.11,961.865 1864.15,961.865 1846.2,961.865 1828.25,961.865 1810.29,961.865 1792.34,961.865 1774.38,961.865 1756.43,961.865 1738.48,961.865 1720.52,961.865 1702.57,961.865 1684.62,961.865 1666.66,961.865 1648.71,961.865 1630.76,961.865 1612.8,961.865 1594.85,961.865 1576.9,961.865 1558.94,961.865 1540.99,961.865 1523.04,961.865 1505.08,961.865 1487.13,961.865 1469.18,961.865 1451.22,961.865 1433.27,961.865 1415.32,961.865 1397.36,961.865 1379.41,961.865 1361.46,961.865 1343.5,961.865 1325.55,961.865 1307.6,961.865 1289.64,961.865 1271.69,961.865 1253.74,961.865 1235.78,961.865 1217.83,961.865 1199.88,961.865 1181.92,961.865 1163.97,961.865 1146.02,961.865 1128.06,961.865 1110.11,961.865 1092.16,961.865 1074.2,961.865 1056.25,961.865 1038.29,961.865 1020.34,961.865 1002.39,961.865 984.435,961.865 966.481,961.865 948.528,961.865 930.574,961.865 912.621,961.865 894.668,961.865 876.714,961.865 858.761,961.865 840.807,961.865 822.854,961.865 804.901,961.865 786.947,961.865 768.994,961.865 751.04,961.865 733.087,961.865 715.133,961.865 697.18,961.865 679.227,961.865 661.273,961.865 643.32,961.865 625.366,961.865 607.413,961.865 589.46,961.865 571.506,961.865 553.553,961.865 535.599,961.865 517.646,961.865 499.692,961.865 481.739,961.865 463.786,961.865 445.832,961.865 427.879,961.865 409.925,961.865 391.972,961.865 374.019,961.865 356.065,961.865 338.112,961.865 320.158,961.865 302.205,961.865 284.251,961.865 266.298,961.865 266.298,943.155 266.298,924.446 266.298,905.737 266.298,887.027 266.298,868.318 266.298,849.609 266.298,830.899 266.298,812.19 266.298,793.481 266.298,774.771 266.298,756.062 266.298,737.353 266.298,718.643 266.298,699.934 266.298,681.225 266.298,662.515 266.298,643.806 266.298,625.097 266.298,606.387 "/>
<polyline clip-path="url(#clip542)" style="stroke:#30123b; stroke-linecap:round; stroke-linejoin:round; stroke-width:4; stroke-opacity:1; fill:none" points="266.298,606.387 266.298,606.387 284.251,606.387 302.205,606.387 320.158,606.387 338.112,606.387 356.065,606.387 374.019,606.387 391.972,606.387 409.925,606.387 427.879,606.387 445.832,606.387 463.786,606.387 481.739,606.387 499.692,606.387 517.646,606.387 535.599,606.387 553.553,606.387 571.506,606.387 589.46,606.387 607.413,606.387 625.366,606.387 643.32,606.387 661.273,606.387 679.227,606.387 697.18,606.387 715.133,606.387 733.087,606.387 751.04,606.387 768.994,606.387 786.947,606.387 804.901,606.387 822.854,606.387 840.807,606.387 858.761,606.387 876.714,606.387 894.668,606.387 912.621,606.387 930.574,606.387 948.528,606.387 966.481,606.387 984.435,606.387 1002.39,606.387 1020.34,606.387 1038.29,606.387 1056.25,606.387 1074.2,606.387 1092.16,606.387 1110.11,606.387 1128.06,606.387 1146.02,606.387 1163.97,606.387 1181.92,606.387 1199.88,606.387 1217.83,606.387 1235.78,606.387 1253.74,606.387 1271.69,606.387 1289.64,606.387 1307.6,606.387 1325.55,606.387 1343.5,606.387 1361.46,606.387 1379.41,606.387 1397.36,606.387 1415.32,606.387 1433.27,606.387 1451.22,606.387 1469.18,606.387 1487.13,606.387 1505.08,606.387 1523.04,606.387 1540.99,606.387 1558.94,606.387 1576.9,606.387 1594.85,606.387 1612.8,606.387 1630.76,606.387 1648.71,606.387 1666.66,606.387 1684.62,606.387 1688.21,606.387 1702.57,620.433 1707.38,625.097 1720.52,629.522 1738.48,635.481 1756.43,641.343 1764.06,643.806 1774.38,645.906 1792.34,649.513 1810.29,653.063 1828.25,656.556 1846.2,659.995 1859.54,662.515 1864.15,663.173 1882.11,665.706 1900.06,668.2 1918.01,670.657 1935.97,673.076 1953.92,675.459 1971.87,677.807 1989.83,680.12 1998.5,681.225 2007.78,682.204 2025.73,684.078 2043.69,685.925 2043.69,681.225 2043.69,699.934 2043.69,718.643 2043.69,737.353 2043.69,756.062 2043.69,774.771 2043.69,793.481 2043.69,812.19 2043.69,830.899 2043.69,849.609 2043.69,868.318 2043.69,887.027 2043.69,905.737 2043.69,924.446 2043.69,943.155 2043.69,961.865 2025.73,961.865 2007.78,961.865 1989.83,961.865 1971.87,961.865 1953.92,961.865 1935.97,961.865 1918.01,961.865 1900.06,961.865 1882.11,961.865 1864.15,961.865 1846.2,961.865 1828.25,961.865 1810.29,961.865 1792.34,961.865 1774.38,961.865 1756.43,961.865 1738.48,961.865 1720.52,961.865 1702.57,961.865 1684.62,961.865 1666.66,961.865 1648.71,961.865 1630.76,961.865 1612.8,961.865 1594.85,961.865 1576.9,961.865 1558.94,961.865 1540.99,961.865 1523.04,961.865 1505.08,961.865 1487.13,961.865 1469.18,961.865 1451.22,961.865 1433.27,961.865 1415.32,961.865 1397.36,961.865 1379.41,961.865 1361.46,961.865 1343.5,961.865 1325.55,961.865 1307.6,961.865 1289.64,961.865 1271.69,961.865 1253.74,961.865 1235.78,961.865 1217.83,961.865 1199.88,961.865 1181.92,961.865 1163.97,961.865 1146.02,961.865 1128.06,961.865 1110.11,961.865 1092.16,961.865 1074.2,961.865 1056.25,961.865 1038.29,961.865 1020.34,961.865 1002.39,961.865 984.435,961.865 966.481,961.865 948.528,961.865 930.574,961.865 912.621,961.865 894.668,961.865 876.714,961.865 858.761,961.865 840.807,961.865 822.854,961.865 804.901,961.865 786.947,961.865 768.994,961.865 751.04,961.865 733.087,961.865 715.133,961.865 697.18,961.865 679.227,961.865 661.273,961.865 643.32,961.865 625.366,961.865 607.413,961.865 589.46,961.865 571.506,961.865 553.553,961.865 535.599,961.865 517.646,961.865 499.692,961.865 481.739,961.865 463.786,961.865 445.832,961.865 427.879,961.865 409.925,961.865 391.972,961.865 374.019,961.865 356.065,961.865 338.112,961.865 320.158,961.865 302.205,961.865 284.251,961.865 266.298,961.865 266.298,943.155 266.298,924.446 266.298,905.737 266.298,887.027 266.298,868.318 266.298,849.609 266.298,830.899 266.298,812.19 266.298,793.481 266.298,774.771 266.298,756.062 266.298,737.353 266.298,718.643 266.298,699.934 266.298,681.225 266.298,662.515 266.298,643.806 266.298,625.097 266.298,606.387 "/>
<polyline clip-path="url(#clip542)" style="stroke:#30123b; stroke-linecap:round; stroke-linejoin:round; stroke-width:4; stroke-opacity:1; fill:none" points="266.298,606.387 266.298,606.387 284.251,606.387 302.205,606.387 320.158,606.387 338.112,606.387 356.065,606.387 374.019,606.387 391.972,606.387 409.925,606.387 427.879,606.387 445.832,606.387 463.786,606.387 481.739,606.387 499.692,606.387 517.646,606.387 535.599,606.387 553.553,606.387 571.506,606.387 589.46,606.387 607.413,606.387 625.366,606.387 643.32,606.387 661.273,606.387 679.227,606.387 697.18,606.387 715.133,606.387 733.087,606.387 751.04,606.387 768.994,606.387 786.947,606.387 804.901,606.387 822.854,606.387 840.807,606.387 858.761,606.387 876.714,606.387 894.668,606.387 912.621,606.387 930.574,606.387 948.528,606.387 966.481,606.387 984.435,606.387 1002.39,606.387 1020.34,606.387 1038.29,606.387 1056.25,606.387 1074.2,606.387 1092.16,606.387 1110.11,606.387 1128.06,606.387 1146.02,606.387 1163.97,606.387 1181.92,606.387 1199.88,606.387 1217.83,606.387 1235.78,606.387 1253.74,606.387 1271.69,606.387 1289.64,606.387 1307.6,606.387 1325.55,606.387 1332.73,606.387 1343.5,619.037 1348.71,625.097 1361.46,630.242 1379.41,637.368 1395.94,643.806 1397.36,644.154 1415.32,648.509 1433.27,652.781 1451.22,656.972 1469.18,661.084 1475.5,662.515 1487.13,664.495 1505.08,667.506 1523.04,670.461 1540.99,673.364 1558.94,676.214 1576.9,679.014 1591.3,681.225 1594.85,681.675 1612.8,683.929 1630.76,686.144 1648.71,688.322 1666.66,690.462 1684.62,692.566 1702.57,694.635 1720.52,696.67 1738.48,698.671 1749.96,699.934 1756.43,700.598 1774.38,702.421 1792.34,704.215 1810.29,705.98 1828.25,707.718 1846.2,709.428 1864.15,711.111 1882.11,712.769 1900.06,714.401 1918.01,716.008 1935.97,717.591 1948.05,718.643 1953.92,719.14 1971.87,720.646 1989.83,722.13 2007.78,723.591 2025.73,725.032 2043.69,726.451 2043.69,718.643 2043.69,737.353 2043.69,756.062 2043.69,774.771 2043.69,793.481 2043.69,812.19 2043.69,830.899 2043.69,849.609 2043.69,868.318 2043.69,887.027 2043.69,905.737 2043.69,924.446 2043.69,943.155 2043.69,961.865 2025.73,961.865 2007.78,961.865 1989.83,961.865 1971.87,961.865 1953.92,961.865 1935.97,961.865 1918.01,961.865 1900.06,961.865 1882.11,961.865 1864.15,961.865 1846.2,961.865 1828.25,961.865 1810.29,961.865 1792.34,961.865 1774.38,961.865 1756.43,961.865 1738.48,961.865 1720.52,961.865 1702.57,961.865 1684.62,961.865 1666.66,961.865 1648.71,961.865 1630.76,961.865 1612.8,961.865 1594.85,961.865 1576.9,961.865 1558.94,961.865 1540.99,961.865 1523.04,961.865 1505.08,961.865 1487.13,961.865 1469.18,961.865 1451.22,961.865 1433.27,961.865 1415.32,961.865 1397.36,961.865 1379.41,961.865 1361.46,961.865 1343.5,961.865 1325.55,961.865 1307.6,961.865 1289.64,961.865 1271.69,961.865 1253.74,961.865 1235.78,961.865 1217.83,961.865 1199.88,961.865 1181.92,961.865 1163.97,961.865 1146.02,961.865 1128.06,961.865 1110.11,961.865 1092.16,961.865 1074.2,961.865 1056.25,961.865 1038.29,961.865 1020.34,961.865 1002.39,961.865 984.435,961.865 966.481,961.865 948.528,961.865 930.574,961.865 912.621,961.865 894.668,961.865 876.714,961.865 858.761,961.865 840.807,961.865 822.854,961.865 804.901,961.865 786.947,961.865 768.994,961.865 751.04,961.865 733.087,961.865 715.133,961.865 697.18,961.865 679.227,961.865 661.273,961.865 643.32,961.865 625.366,961.865 607.413,961.865 589.46,961.865 571.506,961.865 553.553,961.865 535.599,961.865 517.646,961.865 499.692,961.865 481.739,961.865 463.786,961.865 445.832,961.865 427.879,961.865 409.925,961.865 391.972,961.865 374.019,961.865 356.065,961.865 338.112,961.865 320.158,961.865 302.205,961.865 284.251,961.865 266.298,961.865 266.298,943.155 266.298,924.446 266.298,905.737 266.298,887.027 266.298,868.318 266.298,849.609 266.298,830.899 266.298,812.19 266.298,793.481 266.298,774.771 266.298,756.062 266.298,737.353 266.298,718.643 266.298,699.934 266.298,681.225 266.298,662.515 266.298,643.806 266.298,625.097 266.298,606.387 "/>
<polyline clip-path="url(#clip542)" style="stroke:#30123b; stroke-linecap:round; stroke-linejoin:round; stroke-width:4; stroke-opacity:1; fill:none" points="266.298,606.387 266.298,606.387 284.251,606.387 302.205,606.387 320.158,606.387 338.112,606.387 356.065,606.387 374.019,606.387 391.972,606.387 409.925,606.387 427.879,606.387 445.832,606.387 463.786,606.387 481.739,606.387 499.692,606.387 517.646,606.387 535.599,606.387 553.553,606.387 571.506,606.387 589.46,606.387 607.413,606.387 625.366,606.387 643.32,606.387 661.273,606.387 679.227,606.387 697.18,606.387 715.133,606.387 733.087,606.387 751.04,606.387 768.994,606.387 786.947,606.387 804.901,606.387 822.854,606.387 840.807,606.387 858.761,606.387 876.714,606.387 894.668,606.387 912.621,606.387 930.574,606.387 948.528,606.387 966.481,606.387 977.253,606.387 984.435,616.939 990.036,625.097 1002.39,631.32 1020.34,640.179 1027.82,643.806 1038.29,646.995 1056.25,652.358 1074.2,657.594 1091.47,662.515 1092.16,662.661 1110.11,666.458 1128.06,670.168 1146.02,673.795 1163.97,677.34 1181.92,680.807 1184.11,681.225 1199.88,683.705 1217.83,686.473 1235.78,689.182 1253.74,691.834 1271.69,694.43 1289.64,696.972 1307.6,699.462 1311.04,699.934 1325.55,701.787 1343.5,704.037 1361.46,706.243 1379.41,708.405 1397.36,710.525 1415.32,712.604 1433.27,714.643 1451.22,716.644 1469.18,718.607 1469.51,718.643 1487.13,720.497 1505.08,722.35 1523.04,724.17 1540.99,725.957 1558.94,727.712 1576.9,729.435 1594.85,731.129 1612.8,732.793 1630.76,734.428 1648.71,736.035 1663.67,737.353 1666.66,737.611 1684.62,739.142 1702.57,740.648 1720.52,742.128 1738.48,743.585 1756.43,745.017 1774.38,746.426 1792.34,747.813 1810.29,749.178 1828.25,750.521 1846.2,751.843 1864.15,753.145 1882.11,754.426 1900.06,755.688 1905.44,756.062 1918.01,756.923 1935.97,758.137 1953.92,759.332 1971.87,760.51 1989.83,761.671 2007.78,762.814 2025.73,763.941 2043.69,765.051 2043.69,756.062 2043.69,774.771 2043.69,793.481 2043.69,812.19 2043.69,830.899 2043.69,849.609 2043.69,868.318 2043.69,887.027 2043.69,905.737 2043.69,924.446 2043.69,943.155 2043.69,961.865 2025.73,961.865 2007.78,961.865 1989.83,961.865 1971.87,961.865 1953.92,961.865 1935.97,961.865 1918.01,961.865 1900.06,961.865 1882.11,961.865 1864.15,961.865 1846.2,961.865 1828.25,961.865 1810.29,961.865 1792.34,961.865 1774.38,961.865 1756.43,961.865 1738.48,961.865 1720.52,961.865 1702.57,961.865 1684.62,961.865 1666.66,961.865 1648.71,961.865 1630.76,961.865 1612.8,961.865 1594.85,961.865 1576.9,961.865 1558.94,961.865 1540.99,961.865 1523.04,961.865 1505.08,961.865 1487.13,961.865 1469.18,961.865 1451.22,961.865 1433.27,961.865 1415.32,961.865 1397.36,961.865 1379.41,961.865 1361.46,961.865 1343.5,961.865 1325.55,961.865 1307.6,961.865 1289.64,961.865 1271.69,961.865 1253.74,961.865 1235.78,961.865 1217.83,961.865 1199.88,961.865 1181.92,961.865 1163.97,961.865 1146.02,961.865 1128.06,961.865 1110.11,961.865 1092.16,961.865 1074.2,961.865 1056.25,961.865 1038.29,961.865 1020.34,961.865 1002.39,961.865 984.435,961.865 966.481,961.865 948.528,961.865 930.574,961.865 912.621,961.865 894.668,961.865 876.714,961.865 858.761,961.865 840.807,961.865 822.854,961.865 804.901,961.865 786.947,961.865 768.994,961.865 751.04,961.865 733.087,961.865 715.133,961.865 697.18,961.865 679.227,961.865 661.273,961.865 643.32,961.865 625.366,961.865 607.413,961.865 589.46,961.865 571.506,961.865 553.553,961.865 535.599,961.865 517.646,961.865 499.692,961.865 481.739,961.865 463.786,961.865 445.832,961.865 427.879,961.865 409.925,961.865 391.972,961.865 374.019,961.865 356.065,961.865 338.112,961.865 320.158,961.865 302.205,961.865 284.251,961.865 266.298,961.865 266.298,943.155 266.298,924.446 266.298,905.737 266.298,887.027 266.298,868.318 266.298,849.609 266.298,830.899 266.298,812.19 266.298,793.481 266.298,774.771 266.298,756.062 266.298,737.353 266.298,718.643 266.298,699.934 266.298,681.225 266.298,662.515 266.298,643.806 266.298,625.097 266.298,606.387 "/>
<polyline clip-path="url(#clip542)" style="stroke:#30123b; stroke-linecap:round; stroke-linejoin:round; stroke-width:4; stroke-opacity:1; fill:none" points="266.298,606.387 266.298,606.387 284.251,606.387 302.205,606.387 320.158,606.387 338.112,606.387 356.065,606.387 374.019,606.387 391.972,606.387 409.925,606.387 427.879,606.387 445.832,606.387 463.786,606.387 481.739,606.387 499.692,606.387 517.646,606.387 535.599,606.387 553.553,606.387 571.506,606.387 589.46,606.387 607.413,606.387 621.776,606.387 625.366,613.434 631.363,625.097 643.32,633.109 659.702,643.806 661.273,644.447 679.227,651.65 697.18,658.626 707.44,662.515 715.133,664.697 733.087,669.678 751.04,674.51 768.994,679.199 776.919,681.225 786.947,683.332 804.901,687.02 822.854,690.603 840.807,694.087 858.761,697.474 872.114,699.934 876.714,700.721 894.668,703.74 912.621,706.678 930.574,709.541 948.528,712.329 966.481,715.047 984.435,717.696 990.967,718.643 1002.39,720.247 1020.34,722.717 1038.29,725.127 1056.25,727.48 1074.2,729.777 1092.16,732.02 1110.11,734.211 1128.06,736.353 1136.59,737.353 1146.02,738.431 1163.97,740.448 1181.92,742.421 1199.88,744.351 1217.83,746.24 1235.78,748.088 1253.74,749.897 1271.69,751.668 1289.64,753.402 1307.6,755.101 1317.91,756.062 1325.55,756.76 1343.5,758.377 1361.46,759.963 1379.41,761.517 1397.36,763.041 1415.32,764.535 1433.27,766.001 1451.22,767.439 1469.18,768.85 1487.13,770.235 1505.08,771.594 1523.04,772.929 1540.99,774.239 1548.38,774.771 1558.94,775.524 1576.9,776.784 1594.85,778.023 1612.8,779.239 1630.76,780.435 1648.71,781.61 1666.66,782.765 1684.62,783.901 1702.57,785.018 1720.52,786.116 1738.48,787.196 1756.43,788.259 1774.38,789.304 1792.34,790.333 1810.29,791.345 1828.25,792.341 1846.2,793.321 1849.14,793.481 1864.15,794.289 1882.11,795.242 1900.06,796.181 1918.01,797.105 1935.97,798.015 1953.92,798.912 1971.87,799.795 1989.83,800.665 2007.78,801.523 2025.73,802.368 2043.69,803.201 2043.69,793.481 2043.69,812.19 2043.69,830.899 2043.69,849.609 2043.69,868.318 2043.69,887.027 2043.69,905.737 2043.69,924.446 2043.69,943.155 2043.69,961.865 2025.73,961.865 2007.78,961.865 1989.83,961.865 1971.87,961.865 1953.92,961.865 1935.97,961.865 1918.01,961.865 1900.06,961.865 1882.11,961.865 1864.15,961.865 1846.2,961.865 1828.25,961.865 1810.29,961.865 1792.34,961.865 1774.38,961.865 1756.43,961.865 1738.48,961.865 1720.52,961.865 1702.57,961.865 1684.62,961.865 1666.66,961.865 1648.71,961.865 1630.76,961.865 1612.8,961.865 1594.85,961.865 1576.9,961.865 1558.94,961.865 1540.99,961.865 1523.04,961.865 1505.08,961.865 1487.13,961.865 1469.18,961.865 1451.22,961.865 1433.27,961.865 1415.32,961.865 1397.36,961.865 1379.41,961.865 1361.46,961.865 1343.5,961.865 1325.55,961.865 1307.6,961.865 1289.64,961.865 1271.69,961.865 1253.74,961.865 1235.78,961.865 1217.83,961.865 1199.88,961.865 1181.92,961.865 1163.97,961.865 1146.02,961.865 1128.06,961.865 1110.11,961.865 1092.16,961.865 1074.2,961.865 1056.25,961.865 1038.29,961.865 1020.34,961.865 1002.39,961.865 984.435,961.865 966.481,961.865 948.528,961.865 930.574,961.865 912.621,961.865 894.668,961.865 876.714,961.865 858.761,961.865 840.807,961.865 822.854,961.865 804.901,961.865 786.947,961.865 768.994,961.865 751.04,961.865 733.087,961.865 715.133,961.865 697.18,961.865 679.227,961.865 661.273,961.865 643.32,961.865 625.366,961.865 607.413,961.865 589.46,961.865 571.506,961.865 553.553,961.865 535.599,961.865 517.646,961.865 499.692,961.865 481.739,961.865 463.786,961.865 445.832,961.865 427.879,961.865 409.925,961.865 391.972,961.865 374.019,961.865 356.065,961.865 338.112,961.865 320.158,961.865 302.205,961.865 284.251,961.865 266.298,961.865 266.298,943.155 266.298,924.446 266.298,905.737 266.298,887.027 266.298,868.318 266.298,849.609 266.298,830.899 266.298,812.19 266.298,793.481 266.298,774.771 266.298,756.062 266.298,737.353 266.298,718.643 266.298,699.934 266.298,681.225 266.298,662.515 266.298,643.806 266.298,625.097 266.298,606.387 "/>
<polyline clip-path="url(#clip542)" style="stroke:#30123b; stroke-linecap:round; stroke-linejoin:round; stroke-width:4; stroke-opacity:1; fill:none" points="266.298,606.387 266.298,606.387 272.689,625.097 284.251,636.661 291.582,643.806 302.205,650.228 320.158,660.676 323.407,662.515 338.112,668.694 356.065,675.931 369.727,681.225 374.019,682.581 391.972,688.106 409.925,693.398 427.879,698.472 433.19,699.934 445.832,703.142 463.786,707.545 481.739,711.777 499.692,715.848 512.425,718.643 517.646,719.745 535.599,723.446 553.553,727.014 571.506,730.455 589.46,733.777 607.413,736.986 609.506,737.353 625.366,740.048 643.32,743.005 661.273,745.865 679.227,748.635 697.18,751.317 715.133,753.916 730.389,756.062 733.087,756.433 751.04,758.856 768.994,761.208 786.947,763.492 804.901,765.71 822.854,767.865 840.807,769.96 858.761,771.997 876.714,773.979 884.033,774.771 894.668,775.904 912.621,777.777 930.574,779.6 948.528,781.377 966.481,783.108 984.435,784.796 1002.39,786.442 1020.34,788.048 1038.29,789.614 1056.25,791.144 1074.2,792.637 1084.54,793.481 1092.16,794.097 1110.11,795.525 1128.06,796.921 1146.02,798.285 1163.97,799.619 1181.92,800.924 1199.88,802.2 1217.83,803.448 1235.78,804.67 1253.74,805.866 1271.69,807.037 1289.64,808.184 1307.6,809.307 1325.55,810.407 1343.5,811.485 1355.43,812.19 1361.46,812.545 1379.41,813.59 1397.36,814.614 1415.32,815.619 1433.27,816.604 1451.22,817.571 1469.18,818.52 1487.13,819.451 1505.08,820.365 1523.04,821.262 1540.99,822.143 1558.94,823.008 1576.9,823.858 1594.85,824.692 1612.8,825.513 1630.76,826.319 1648.71,827.111 1666.66,827.89 1684.62,828.655 1702.57,829.408 1720.52,830.149 1738.48,830.877 1739.04,830.899 1756.43,831.603 1774.38,832.318 1792.34,833.021 1810.29,833.713 1828.25,834.394 1846.2,835.064 1864.15,835.724 1882.11,836.374 1900.06,837.014 1918.01,837.644 1935.97,838.265 1953.92,838.876 1971.87,839.478 1989.83,840.072 2007.78,840.656 2025.73,841.233 2043.69,841.801 2043.69,830.899 2043.69,849.609 2043.69,868.318 2043.69,887.027 2043.69,905.737 2043.69,924.446 2043.69,943.155 2043.69,961.865 2025.73,961.865 2007.78,961.865 1989.83,961.865 1971.87,961.865 1953.92,961.865 1935.97,961.865 1918.01,961.865 1900.06,961.865 1882.11,961.865 1864.15,961.865 1846.2,961.865 1828.25,961.865 1810.29,961.865 1792.34,961.865 1774.38,961.865 1756.43,961.865 1738.48,961.865 1720.52,961.865 1702.57,961.865 1684.62,961.865 1666.66,961.865 1648.71,961.865 1630.76,961.865 1612.8,961.865 1594.85,961.865 1576.9,961.865 1558.94,961.865 1540.99,961.865 1523.04,961.865 1505.08,961.865 1487.13,961.865 1469.18,961.865 1451.22,961.865 1433.27,961.865 1415.32,961.865 1397.36,961.865 1379.41,961.865 1361.46,961.865 1343.5,961.865 1325.55,961.865 1307.6,961.865 1289.64,961.865 1271.69,961.865 1253.74,961.865 1235.78,961.865 1217.83,961.865 1199.88,961.865 1181.92,961.865 1163.97,961.865 1146.02,961.865 1128.06,961.865 1110.11,961.865 1092.16,961.865 1074.2,961.865 1056.25,961.865 1038.29,961.865 1020.34,961.865 1002.39,961.865 984.435,961.865 966.481,961.865 948.528,961.865 930.574,961.865 912.621,961.865 894.668,961.865 876.714,961.865 858.761,961.865 840.807,961.865 822.854,961.865 804.901,961.865 786.947,961.865 768.994,961.865 751.04,961.865 733.087,961.865 715.133,961.865 697.18,961.865 679.227,961.865 661.273,961.865 643.32,961.865 625.366,961.865 607.413,961.865 589.46,961.865 571.506,961.865 553.553,961.865 535.599,961.865 517.646,961.865 499.692,961.865 481.739,961.865 463.786,961.865 445.832,961.865 427.879,961.865 409.925,961.865 391.972,961.865 374.019,961.865 356.065,961.865 338.112,961.865 320.158,961.865 302.205,961.865 284.251,961.865 266.298,961.865 266.298,943.155 266.298,924.446 266.298,905.737 266.298,887.027 266.298,868.318 266.298,849.609 266.298,830.899 266.298,812.19 266.298,793.481 266.298,774.771 266.298,756.062 266.298,737.353 266.298,718.643 266.298,699.934 266.298,681.225 266.298,662.515 266.298,643.806 266.298,625.097 266.298,606.387 "/>
<polyline clip-path="url(#clip542)" style="stroke:#30123b; stroke-linecap:round; stroke-linejoin:round; stroke-width:4; stroke-opacity:1; fill:none" points="266.298,774.771 266.298,784.126 284.251,787.41 302.205,790.536 319.942,793.481 320.158,793.516 338.112,796.367 356.065,799.089 374.019,801.693 391.972,804.184 409.925,806.571 427.879,808.86 445.832,811.057 455.387,812.19 463.786,813.175 481.739,815.22 499.692,817.187 517.646,819.08 535.599,820.905 553.553,822.664 571.506,824.36 589.46,825.998 607.413,827.58 625.366,829.109 643.32,830.587 647.192,830.899 661.273,832.033 679.227,833.437 697.18,834.797 715.133,836.115 733.087,837.393 751.04,838.633 768.994,839.835 786.947,841.003 804.901,842.137 822.854,843.239 840.807,844.311 858.761,845.352 876.714,846.366 894.668,847.352 912.621,848.312 930.574,849.247 937.641,849.609 948.528,850.169 966.481,851.075 984.435,851.958 1002.39,852.82 1020.34,853.66 1038.29,854.479 1056.25,855.279 1074.2,856.061 1092.16,856.823 1110.11,857.569 1128.06,858.297 1146.02,859.009 1163.97,859.705 1181.92,860.386 1199.88,861.051 1217.83,861.703 1235.78,862.34 1253.74,862.964 1271.69,863.575 1289.64,864.173 1307.6,864.759 1325.55,865.333 1343.5,865.896 1361.46,866.447 1379.41,866.988 1397.36,867.518 1415.32,868.038 1425.14,868.318 1433.27,868.562 1451.22,869.093 1469.18,869.615 1487.13,870.126 1505.08,870.629 1523.04,871.122 1540.99,871.606 1558.94,872.082 1576.9,872.549 1594.85,873.008 1612.8,873.458 1630.76,873.902 1648.71,874.337 1666.66,874.765 1684.62,875.186 1702.57,875.6 1720.52,876.007 1738.48,876.407 1756.43,876.801 1774.38,877.188 1792.34,877.569 1810.29,877.944 1828.25,878.313 1846.2,878.677 1864.15,879.034 1882.11,879.387 1900.06,879.733 1918.01,880.075 1935.97,880.411 1953.92,880.743 1971.87,881.069 1989.83,881.391 2007.78,881.707 2025.73,882.02 2043.69,882.327 2043.69,868.318 2043.69,887.027 2043.69,905.737 2043.69,924.446 2043.69,943.155 2043.69,961.865 2025.73,961.865 2007.78,961.865 1989.83,961.865 1971.87,961.865 1953.92,961.865 1935.97,961.865 1918.01,961.865 1900.06,961.865 1882.11,961.865 1864.15,961.865 1846.2,961.865 1828.25,961.865 1810.29,961.865 1792.34,961.865 1774.38,961.865 1756.43,961.865 1738.48,961.865 1720.52,961.865 1702.57,961.865 1684.62,961.865 1666.66,961.865 1648.71,961.865 1630.76,961.865 1612.8,961.865 1594.85,961.865 1576.9,961.865 1558.94,961.865 1540.99,961.865 1523.04,961.865 1505.08,961.865 1487.13,961.865 1469.18,961.865 1451.22,961.865 1433.27,961.865 1415.32,961.865 1397.36,961.865 1379.41,961.865 1361.46,961.865 1343.5,961.865 1325.55,961.865 1307.6,961.865 1289.64,961.865 1271.69,961.865 1253.74,961.865 1235.78,961.865 1217.83,961.865 1199.88,961.865 1181.92,961.865 1163.97,961.865 1146.02,961.865 1128.06,961.865 1110.11,961.865 1092.16,961.865 1074.2,961.865 1056.25,961.865 1038.29,961.865 1020.34,961.865 1002.39,961.865 984.435,961.865 966.481,961.865 948.528,961.865 930.574,961.865 912.621,961.865 894.668,961.865 876.714,961.865 858.761,961.865 840.807,961.865 822.854,961.865 804.901,961.865 786.947,961.865 768.994,961.865 751.04,961.865 733.087,961.865 715.133,961.865 697.18,961.865 679.227,961.865 661.273,961.865 643.32,961.865 625.366,961.865 607.413,961.865 589.46,961.865 571.506,961.865 553.553,961.865 535.599,961.865 517.646,961.865 499.692,961.865 481.739,961.865 463.786,961.865 445.832,961.865 427.879,961.865 409.925,961.865 391.972,961.865 374.019,961.865 356.065,961.865 338.112,961.865 320.158,961.865 302.205,961.865 284.251,961.865 266.298,961.865 266.298,943.155 266.298,924.446 266.298,905.737 266.298,887.027 266.298,868.318 266.298,849.609 266.298,830.899 266.298,812.19 266.298,793.481 266.298,774.771 "/>
<polyline clip-path="url(#clip542)" style="stroke:#ff00ff; stroke-linecap:round; stroke-linejoin:round; stroke-width:4; stroke-opacity:1; fill:none" points="266.298,872.995 2043.69,872.995 "/>
<polyline clip-path="url(#clip542)" style="stroke:#ff00ff; stroke-linecap:round; stroke-linejoin:round; stroke-width:4; stroke-opacity:1; fill:none" points="266.298,695.257 2043.69,695.257 "/>
<defs>
  <clipPath id="clip543">
    <rect x="2145" y="144" width="73" height="1280"/>
  </clipPath>
</defs>
<path clip-path="url(#clip543)" d="M2145.01 1423.78 L2217.01 1423.78 L2217.01 1241.02 L2145.01 1241.02  Z" fill="#30123b" fill-rule="evenodd" fill-opacity="1"/>
<path clip-path="url(#clip543)" d="M2145.01 1241.02 L2217.01 1241.02 L2217.01 1058.26 L2145.01 1058.26  Z" fill="#4584f9" fill-rule="evenodd" fill-opacity="1"/>
<path clip-path="url(#clip543)" d="M2145.01 1058.26 L2217.01 1058.26 L2217.01 875.505 L2145.01 875.505  Z" fill="#1ae4b6" fill-rule="evenodd" fill-opacity="1"/>
<path clip-path="url(#clip543)" d="M2145.01 875.505 L2217.01 875.505 L2217.01 692.747 L2145.01 692.747  Z" fill="#a4fc3b" fill-rule="evenodd" fill-opacity="1"/>
<path clip-path="url(#clip543)" d="M2145.01 692.747 L2217.01 692.747 L2217.01 509.99 L2145.01 509.99  Z" fill="#f9ba38" fill-rule="evenodd" fill-opacity="1"/>
<path clip-path="url(#clip543)" d="M2145.01 509.99 L2217.01 509.99 L2217.01 327.232 L2145.01 327.232  Z" fill="#e5460a" fill-rule="evenodd" fill-opacity="1"/>
<path clip-path="url(#clip543)" d="M2145.01 327.232 L2217.01 327.232 L2217.01 144.475 L2145.01 144.475  Z" fill="#7a0402" fill-rule="evenodd" fill-opacity="1"/>
<path clip-path="url(#clip540)" d="M2253.01 1420.6 L2282.68 1420.6 L2282.68 1424.53 L2253.01 1424.53 L2253.01 1420.6 Z" fill="#000000" fill-rule="nonzero" fill-opacity="1" /><path clip-path="url(#clip540)" d="M2291.6 1402.87 L2313.82 1402.87 L2313.82 1404.86 L2301.27 1437.43 L2296.39 1437.43 L2308.19 1406.8 L2291.6 1406.8 L2291.6 1402.87 Z" fill="#000000" fill-rule="nonzero" fill-opacity="1" /><path clip-path="url(#clip540)" d="M2253.01 1237.84 L2282.68 1237.84 L2282.68 1241.78 L2253.01 1241.78 L2253.01 1237.84 Z" fill="#000000" fill-rule="nonzero" fill-opacity="1" /><path clip-path="url(#clip540)" d="M2303.35 1235.53 Q2300.21 1235.53 2298.35 1237.68 Q2296.53 1239.83 2296.53 1243.58 Q2296.53 1247.31 2298.35 1249.49 Q2300.21 1251.64 2303.35 1251.64 Q2306.5 1251.64 2308.33 1249.49 Q2310.18 1247.31 2310.18 1243.58 Q2310.18 1239.83 2308.33 1237.68 Q2306.5 1235.53 2303.35 1235.53 M2312.64 1220.87 L2312.64 1225.13 Q2310.88 1224.3 2309.07 1223.86 Q2307.29 1223.42 2305.53 1223.42 Q2300.9 1223.42 2298.45 1226.55 Q2296.02 1229.67 2295.67 1235.99 Q2297.04 1233.98 2299.1 1232.91 Q2301.16 1231.82 2303.63 1231.82 Q2308.84 1231.82 2311.85 1234.99 Q2314.88 1238.14 2314.88 1243.58 Q2314.88 1248.91 2311.73 1252.12 Q2308.59 1255.34 2303.35 1255.34 Q2297.36 1255.34 2294.19 1250.76 Q2291.02 1246.15 2291.02 1237.43 Q2291.02 1229.23 2294.91 1224.37 Q2298.79 1219.49 2305.35 1219.49 Q2307.1 1219.49 2308.89 1219.83 Q2310.69 1220.18 2312.64 1220.87 Z" fill="#000000" fill-rule="nonzero" fill-opacity="1" /><path clip-path="url(#clip540)" d="M2253.01 1055.08 L2282.68 1055.08 L2282.68 1059.02 L2253.01 1059.02 L2253.01 1055.08 Z" fill="#000000" fill-rule="nonzero" fill-opacity="1" /><path clip-path="url(#clip540)" d="M2292.82 1037.35 L2311.18 1037.35 L2311.18 1041.29 L2297.1 1041.29 L2297.1 1049.76 Q2298.12 1049.41 2299.14 1049.25 Q2300.16 1049.07 2301.18 1049.07 Q2306.97 1049.07 2310.35 1052.24 Q2313.73 1055.41 2313.73 1060.83 Q2313.73 1066.4 2310.25 1069.51 Q2306.78 1072.58 2300.46 1072.58 Q2298.29 1072.58 2296.02 1072.21 Q2293.77 1071.84 2291.36 1071.1 L2291.36 1066.4 Q2293.45 1067.54 2295.67 1068.09 Q2297.89 1068.65 2300.37 1068.65 Q2304.37 1068.65 2306.71 1066.54 Q2309.05 1064.44 2309.05 1060.83 Q2309.05 1057.21 2306.71 1055.11 Q2304.37 1053 2300.37 1053 Q2298.49 1053 2296.62 1053.42 Q2294.77 1053.83 2292.82 1054.71 L2292.82 1037.35 Z" fill="#000000" fill-rule="nonzero" fill-opacity="1" /><path clip-path="url(#clip540)" d="M2253.01 872.327 L2282.68 872.327 L2282.68 876.262 L2253.01 876.262 L2253.01 872.327 Z" fill="#000000" fill-rule="nonzero" fill-opacity="1" /><path clip-path="url(#clip540)" d="M2305.62 858.67 L2293.82 877.119 L2305.62 877.119 L2305.62 858.67 M2304.4 854.596 L2310.28 854.596 L2310.28 877.119 L2315.21 877.119 L2315.21 881.008 L2310.28 881.008 L2310.28 889.156 L2305.62 889.156 L2305.62 881.008 L2290.02 881.008 L2290.02 876.494 L2304.4 854.596 Z" fill="#000000" fill-rule="nonzero" fill-opacity="1" /><path clip-path="url(#clip540)" d="M2253.01 689.57 L2282.68 689.57 L2282.68 693.505 L2253.01 693.505 L2253.01 689.57 Z" fill="#000000" fill-rule="nonzero" fill-opacity="1" /><path clip-path="url(#clip540)" d="M2306.94 687.764 Q2310.3 688.482 2312.17 690.75 Q2314.07 693.019 2314.07 696.352 Q2314.07 701.468 2310.55 704.269 Q2307.04 707.07 2300.55 707.07 Q2298.38 707.07 2296.06 706.63 Q2293.77 706.213 2291.32 705.357 L2291.32 700.843 Q2293.26 701.977 2295.58 702.556 Q2297.89 703.135 2300.42 703.135 Q2304.81 703.135 2307.1 701.398 Q2309.42 699.662 2309.42 696.352 Q2309.42 693.297 2307.27 691.584 Q2305.14 689.848 2301.32 689.848 L2297.29 689.848 L2297.29 686.005 L2301.5 686.005 Q2304.95 686.005 2306.78 684.639 Q2308.61 683.25 2308.61 680.658 Q2308.61 677.996 2306.71 676.584 Q2304.84 675.149 2301.32 675.149 Q2299.4 675.149 2297.2 675.565 Q2295 675.982 2292.36 676.862 L2292.36 672.695 Q2295.02 671.954 2297.34 671.584 Q2299.67 671.213 2301.73 671.213 Q2307.06 671.213 2310.16 673.644 Q2313.26 676.051 2313.26 680.172 Q2313.26 683.042 2311.62 685.033 Q2309.98 687 2306.94 687.764 Z" fill="#000000" fill-rule="nonzero" fill-opacity="1" /><path clip-path="url(#clip540)" d="M2253.01 506.812 L2282.68 506.812 L2282.68 510.748 L2253.01 510.748 L2253.01 506.812 Z" fill="#000000" fill-rule="nonzero" fill-opacity="1" /><path clip-path="url(#clip540)" d="M2296.8 519.706 L2313.12 519.706 L2313.12 523.641 L2291.18 523.641 L2291.18 519.706 Q2293.84 516.951 2298.42 512.322 Q2303.03 507.669 2304.21 506.326 Q2306.46 503.803 2307.34 502.067 Q2308.24 500.308 2308.24 498.618 Q2308.24 495.863 2306.29 494.127 Q2304.37 492.391 2301.27 492.391 Q2299.07 492.391 2296.62 493.155 Q2294.19 493.919 2291.41 495.47 L2291.41 490.748 Q2294.23 489.613 2296.69 489.035 Q2299.14 488.456 2301.18 488.456 Q2306.55 488.456 2309.74 491.141 Q2312.94 493.826 2312.94 498.317 Q2312.94 500.447 2312.13 502.368 Q2311.34 504.266 2309.23 506.859 Q2308.66 507.53 2305.55 510.748 Q2302.45 513.942 2296.8 519.706 Z" fill="#000000" fill-rule="nonzero" fill-opacity="1" /><path clip-path="url(#clip540)" d="M2253.01 324.055 L2282.68 324.055 L2282.68 327.99 L2253.01 327.99 L2253.01 324.055 Z" fill="#000000" fill-rule="nonzero" fill-opacity="1" /><path clip-path="url(#clip540)" d="M2293.59 336.948 L2301.23 336.948 L2301.23 310.583 L2292.92 312.249 L2292.92 307.99 L2301.18 306.324 L2305.85 306.324 L2305.85 336.948 L2313.49 336.948 L2313.49 340.884 L2293.59 340.884 L2293.59 336.948 Z" fill="#000000" fill-rule="nonzero" fill-opacity="1" /><path clip-path="url(#clip540)" d="M2264.95 126.645 Q2261.34 126.645 2259.51 130.21 Q2257.71 133.751 2257.71 140.881 Q2257.71 147.987 2259.51 151.552 Q2261.34 155.094 2264.95 155.094 Q2268.59 155.094 2270.39 151.552 Q2272.22 147.987 2272.22 140.881 Q2272.22 133.751 2270.39 130.21 Q2268.59 126.645 2264.95 126.645 M2264.95 122.941 Q2270.76 122.941 2273.82 127.548 Q2276.9 132.131 2276.9 140.881 Q2276.9 149.608 2273.82 154.214 Q2270.76 158.797 2264.95 158.797 Q2259.14 158.797 2256.06 154.214 Q2253.01 149.608 2253.01 140.881 Q2253.01 132.131 2256.06 127.548 Q2259.14 122.941 2264.95 122.941 Z" fill="#000000" fill-rule="nonzero" fill-opacity="1" /><polyline clip-path="url(#clip540)" style="stroke:#000000; stroke-linecap:round; stroke-linejoin:round; stroke-width:4; stroke-opacity:1; fill:none" points="2217.01,1423.78 2217.01,1423.78 2241.01,1423.78 2217.01,1423.78 2217.01,1241.02 2241.01,1241.02 2217.01,1241.02 2217.01,1058.26 2241.01,1058.26 2217.01,1058.26 2217.01,875.505 2241.01,875.505 2217.01,875.505 2217.01,692.747 2241.01,692.747 2217.01,692.747 2217.01,509.99 2241.01,509.99 2217.01,509.99 2217.01,327.232 2241.01,327.232 2217.01,327.232 2217.01,144.475 2241.01,144.475 2217.01,144.475 2217.01,144.475 "/>
</svg>
