<?xml version="1.0" encoding="utf-8"?>
<svg xmlns="http://www.w3.org/2000/svg" xmlns:xlink="http://www.w3.org/1999/xlink" width="600" height="400" viewBox="0 0 2400 1600">
<defs>
  <clipPath id="clip510">
    <rect x="0" y="0" width="2400" height="1600"/>
  </clipPath>
</defs>
<path clip-path="url(#clip510)" d="M0 1600 L2400 1600 L2400 0 L0 0  Z" fill="#ffffff" fill-rule="evenodd" fill-opacity="1"/>
<defs>
  <clipPath id="clip511">
    <rect x="480" y="0" width="1681" height="1600"/>
  </clipPath>
</defs>
<path clip-path="url(#clip510)" d="M212.976 1423.78 L2097.01 1423.78 L2097.01 144.475 L212.976 144.475  Z" fill="#ffffff" fill-rule="evenodd" fill-opacity="1"/>
<defs>
  <clipPath id="clip512">
    <rect x="212" y="144" width="1885" height="1280"/>
  </clipPath>
</defs>
<polyline clip-path="url(#clip512)" style="stroke:#000000; stroke-linecap:round; stroke-linejoin:round; stroke-width:2; stroke-opacity:0.1; fill:none" points="266.298,144.475 266.298,1423.78 "/>
<polyline clip-path="url(#clip512)" style="stroke:#000000; stroke-linecap:round; stroke-linejoin:round; stroke-width:2; stroke-opacity:0.1; fill:none" points="621.776,144.475 621.776,1423.78 "/>
<polyline clip-path="url(#clip512)" style="stroke:#000000; stroke-linecap:round; stroke-linejoin:round; stroke-width:2; stroke-opacity:0.1; fill:none" points="977.253,144.475 977.253,1423.78 "/>
<polyline clip-path="url(#clip512)" style="stroke:#000000; stroke-linecap:round; stroke-linejoin:round; stroke-width:2; stroke-opacity:0.1; fill:none" points="1332.73,144.475 1332.73,1423.78 "/>
<polyline clip-path="url(#clip512)" style="stroke:#000000; stroke-linecap:round; stroke-linejoin:round; stroke-width:2; stroke-opacity:0.1; fill:none" points="1688.21,144.475 1688.21,1423.78 "/>
<polyline clip-path="url(#clip512)" style="stroke:#000000; stroke-linecap:round; stroke-linejoin:round; stroke-width:2; stroke-opacity:0.1; fill:none" points="2043.69,144.475 2043.69,1423.78 "/>
<polyline clip-path="url(#clip510)" style="stroke:#000000; stroke-linecap:round; stroke-linejoin:round; stroke-width:4; stroke-opacity:1; fill:none" points="212.976,1423.78 2097.01,1423.78 "/>
<polyline clip-path="url(#clip510)" style="stroke:#000000; stroke-linecap:round; stroke-linejoin:round; stroke-width:4; stroke-opacity:1; fill:none" points="266.298,1423.78 266.298,1407.01 "/>
<polyline clip-path="url(#clip510)" style="stroke:#000000; stroke-linecap:round; stroke-linejoin:round; stroke-width:4; stroke-opacity:1; fill:none" points="621.776,1423.78 621.776,1407.01 "/>
<polyline clip-path="url(#clip510)" style="stroke:#000000; stroke-linecap:round; stroke-linejoin:round; stroke-width:4; stroke-opacity:1; fill:none" points="977.253,1423.78 977.253,1407.01 "/>
<polyline clip-path="url(#clip510)" style="stroke:#000000; stroke-linecap:round; stroke-linejoin:round; stroke-width:4; stroke-opacity:1; fill:none" points="1332.73,1423.78 1332.73,1407.01 "/>
<polyline clip-path="url(#clip510)" style="stroke:#000000; stroke-linecap:round; stroke-linejoin:round; stroke-width:4; stroke-opacity:1; fill:none" points="1688.21,1423.78 1688.21,1407.01 "/>
<polyline clip-path="url(#clip510)" style="stroke:#000000; stroke-linecap:round; stroke-linejoin:round; stroke-width:4; stroke-opacity:1; fill:none" points="2043.69,1423.78 2043.69,1407.01 "/>
<path clip-path="url(#clip510)" d="M266.298 1454.7 Q262.687 1454.7 260.858 1458.26 Q259.053 1461.8 259.053 1468.93 Q259.053 1476.04 260.858 1479.6 Q262.687 1483.14 266.298 1483.14 Q269.932 1483.14 271.738 1479.6 Q273.567 1476.04 273.567 1468.93 Q273.567 1461.8 271.738 1458.26 Q269.932 1454.7 266.298 1454.7 M266.298 1450.99 Q272.108 1450.99 275.164 1455.6 Q278.242 1460.18 278.242 1468.93 Q278.242 1477.66 275.164 1482.26 Q272.108 1486.85 266.298 1486.85 Q260.488 1486.85 257.409 1482.26 Q254.354 1477.66 254.354 1468.93 Q254.354 1460.18 257.409 1455.6 Q260.488 1450.99 266.298 1450.99 Z" fill="#000000" fill-rule="nonzero" fill-opacity="1" /><path clip-path="url(#clip510)" d="M612.158 1482.24 L619.797 1482.24 L619.797 1455.88 L611.486 1457.54 L611.486 1453.28 L619.75 1451.62 L624.426 1451.62 L624.426 1482.24 L632.065 1482.24 L632.065 1486.18 L612.158 1486.18 L612.158 1482.24 Z" fill="#000000" fill-rule="nonzero" fill-opacity="1" /><path clip-path="url(#clip510)" d="M971.906 1482.24 L988.225 1482.24 L988.225 1486.18 L966.281 1486.18 L966.281 1482.24 Q968.943 1479.49 973.526 1474.86 Q978.133 1470.2 979.313 1468.86 Q981.559 1466.34 982.438 1464.6 Q983.341 1462.84 983.341 1461.15 Q983.341 1458.4 981.397 1456.66 Q979.476 1454.93 976.374 1454.93 Q974.175 1454.93 971.721 1455.69 Q969.29 1456.45 966.513 1458.01 L966.513 1453.28 Q969.337 1452.15 971.79 1451.57 Q974.244 1450.99 976.281 1450.99 Q981.651 1450.99 984.846 1453.68 Q988.04 1456.36 988.04 1460.85 Q988.04 1462.98 987.23 1464.9 Q986.443 1466.8 984.337 1469.39 Q983.758 1470.07 980.656 1473.28 Q977.554 1476.48 971.906 1482.24 Z" fill="#000000" fill-rule="nonzero" fill-opacity="1" /><path clip-path="url(#clip510)" d="M1336.98 1467.54 Q1340.34 1468.26 1342.21 1470.53 Q1344.11 1472.8 1344.11 1476.13 Q1344.11 1481.25 1340.59 1484.05 Q1337.07 1486.85 1330.59 1486.85 Q1328.41 1486.85 1326.1 1486.41 Q1323.81 1485.99 1321.35 1485.14 L1321.35 1480.62 Q1323.3 1481.76 1325.61 1482.33 Q1327.93 1482.91 1330.45 1482.91 Q1334.85 1482.91 1337.14 1481.18 Q1339.46 1479.44 1339.46 1476.13 Q1339.46 1473.08 1337.3 1471.36 Q1335.17 1469.63 1331.35 1469.63 L1327.33 1469.63 L1327.33 1465.78 L1331.54 1465.78 Q1334.99 1465.78 1336.82 1464.42 Q1338.65 1463.03 1338.65 1460.44 Q1338.65 1457.77 1336.75 1456.36 Q1334.87 1454.93 1331.35 1454.93 Q1329.43 1454.93 1327.23 1455.34 Q1325.03 1455.76 1322.4 1456.64 L1322.4 1452.47 Q1325.06 1451.73 1327.37 1451.36 Q1329.71 1450.99 1331.77 1450.99 Q1337.09 1450.99 1340.2 1453.42 Q1343.3 1455.83 1343.3 1459.95 Q1343.3 1462.82 1341.65 1464.81 Q1340.01 1466.78 1336.98 1467.54 Z" fill="#000000" fill-rule="nonzero" fill-opacity="1" /><path clip-path="url(#clip510)" d="M1691.22 1455.69 L1679.41 1474.14 L1691.22 1474.14 L1691.22 1455.69 M1689.99 1451.62 L1695.87 1451.62 L1695.87 1474.14 L1700.8 1474.14 L1700.8 1478.03 L1695.87 1478.03 L1695.87 1486.18 L1691.22 1486.18 L1691.22 1478.03 L1675.62 1478.03 L1675.62 1473.52 L1689.99 1451.62 Z" fill="#000000" fill-rule="nonzero" fill-opacity="1" /><path clip-path="url(#clip510)" d="M2033.96 1451.62 L2052.32 1451.62 L2052.32 1455.55 L2038.25 1455.55 L2038.25 1464.02 Q2039.26 1463.68 2040.28 1463.52 Q2041.3 1463.33 2042.32 1463.33 Q2048.11 1463.33 2051.49 1466.5 Q2054.87 1469.67 2054.87 1475.09 Q2054.87 1480.67 2051.39 1483.77 Q2047.92 1486.85 2041.6 1486.85 Q2039.43 1486.85 2037.16 1486.48 Q2034.91 1486.11 2032.51 1485.37 L2032.51 1480.67 Q2034.59 1481.8 2036.81 1482.36 Q2039.03 1482.91 2041.51 1482.91 Q2045.51 1482.91 2047.85 1480.81 Q2050.19 1478.7 2050.19 1475.09 Q2050.19 1471.48 2047.85 1469.37 Q2045.51 1467.27 2041.51 1467.27 Q2039.64 1467.27 2037.76 1467.68 Q2035.91 1468.1 2033.96 1468.98 L2033.96 1451.62 Z" fill="#000000" fill-rule="nonzero" fill-opacity="1" /><path clip-path="url(#clip510)" d="M1171.61 1532.99 L1158.72 1550.34 L1172.28 1568.64 L1165.37 1568.64 L1154.99 1554.64 L1144.62 1568.64 L1137.71 1568.64 L1151.55 1549.99 L1138.89 1532.99 L1145.79 1532.99 L1155.25 1545.69 L1164.7 1532.99 L1171.61 1532.99 Z" fill="#000000" fill-rule="nonzero" fill-opacity="1" /><polyline clip-path="url(#clip512)" style="stroke:#000000; stroke-linecap:round; stroke-linejoin:round; stroke-width:2; stroke-opacity:0.1; fill:none" points="212.976,339.779 2097.01,339.779 "/>
<polyline clip-path="url(#clip512)" style="stroke:#000000; stroke-linecap:round; stroke-linejoin:round; stroke-width:2; stroke-opacity:0.1; fill:none" points="212.976,695.257 2097.01,695.257 "/>
<polyline clip-path="url(#clip512)" style="stroke:#000000; stroke-linecap:round; stroke-linejoin:round; stroke-width:2; stroke-opacity:0.1; fill:none" points="212.976,1050.73 2097.01,1050.73 "/>
<polyline clip-path="url(#clip512)" style="stroke:#000000; stroke-linecap:round; stroke-linejoin:round; stroke-width:2; stroke-opacity:0.1; fill:none" points="212.976,1406.21 2097.01,1406.21 "/>
<polyline clip-path="url(#clip510)" style="stroke:#000000; stroke-linecap:round; stroke-linejoin:round; stroke-width:4; stroke-opacity:1; fill:none" points="212.976,144.475 212.976,1423.78 "/>
<polyline clip-path="url(#clip510)" style="stroke:#000000; stroke-linecap:round; stroke-linejoin:round; stroke-width:4; stroke-opacity:1; fill:none" points="212.976,339.779 229.739,339.779 "/>
<polyline clip-path="url(#clip510)" style="stroke:#000000; stroke-linecap:round; stroke-linejoin:round; stroke-width:4; stroke-opacity:1; fill:none" points="212.976,695.257 229.739,695.257 "/>
<polyline clip-path="url(#clip510)" style="stroke:#000000; stroke-linecap:round; stroke-linejoin:round; stroke-width:4; stroke-opacity:1; fill:none" points="212.976,1050.73 229.739,1050.73 "/>
<polyline clip-path="url(#clip510)" style="stroke:#000000; stroke-linecap:round; stroke-linejoin:round; stroke-width:4; stroke-opacity:1; fill:none" points="212.976,1406.21 229.739,1406.21 "/>
<path clip-path="url(#clip510)" d="M116.491 340.23 L146.166 340.23 L146.166 344.165 L116.491 344.165 L116.491 340.23 Z" fill="#000000" fill-rule="nonzero" fill-opacity="1" /><path clip-path="url(#clip510)" d="M157.069 353.124 L164.708 353.124 L164.708 326.758 L156.398 328.425 L156.398 324.166 L164.662 322.499 L169.338 322.499 L169.338 353.124 L176.976 353.124 L176.976 357.059 L157.069 357.059 L157.069 353.124 Z" fill="#000000" fill-rule="nonzero" fill-opacity="1" /><path clip-path="url(#clip510)" d="M165.032 681.055 Q161.421 681.055 159.592 684.62 Q157.787 688.162 157.787 695.291 Q157.787 702.398 159.592 705.963 Q161.421 709.504 165.032 709.504 Q168.666 709.504 170.472 705.963 Q172.3 702.398 172.3 695.291 Q172.3 688.162 170.472 684.62 Q168.666 681.055 165.032 681.055 M165.032 677.352 Q170.842 677.352 173.898 681.958 Q176.976 686.541 176.976 695.291 Q176.976 704.018 173.898 708.625 Q170.842 713.208 165.032 713.208 Q159.222 713.208 156.143 708.625 Q153.088 704.018 153.088 695.291 Q153.088 686.541 156.143 681.958 Q159.222 677.352 165.032 677.352 Z" fill="#000000" fill-rule="nonzero" fill-opacity="1" /><path clip-path="url(#clip510)" d="M157.069 1064.08 L164.708 1064.08 L164.708 1037.71 L156.398 1039.38 L156.398 1035.12 L164.662 1033.45 L169.338 1033.45 L169.338 1064.08 L176.976 1064.08 L176.976 1068.01 L157.069 1068.01 L157.069 1064.08 Z" fill="#000000" fill-rule="nonzero" fill-opacity="1" /><path clip-path="url(#clip510)" d="M160.657 1419.56 L176.976 1419.56 L176.976 1423.49 L155.032 1423.49 L155.032 1419.56 Q157.694 1416.8 162.277 1412.17 Q166.884 1407.52 168.064 1406.18 Q170.31 1403.65 171.189 1401.92 Q172.092 1400.16 172.092 1398.47 Q172.092 1395.71 170.148 1393.98 Q168.226 1392.24 165.125 1392.24 Q162.926 1392.24 160.472 1393.01 Q158.041 1393.77 155.264 1395.32 L155.264 1390.6 Q158.088 1389.46 160.541 1388.89 Q162.995 1388.31 165.032 1388.31 Q170.402 1388.31 173.597 1390.99 Q176.791 1393.68 176.791 1398.17 Q176.791 1400.3 175.981 1402.22 Q175.194 1404.12 173.088 1406.71 Q172.509 1407.38 169.407 1410.6 Q166.305 1413.79 160.657 1419.56 Z" fill="#000000" fill-rule="nonzero" fill-opacity="1" /><path clip-path="url(#clip510)" d="M69.5448 782.439 Q75.9105 784.922 77.852 787.277 Q79.7935 789.632 79.7935 793.579 L79.7935 798.258 L74.892 798.258 L74.892 794.82 Q74.892 792.401 73.7461 791.065 Q72.6003 789.728 68.3353 788.105 L65.6617 787.054 L30.5866 801.473 L30.5866 795.266 L58.4684 784.126 L30.5866 772.986 L30.5866 766.779 L69.5448 782.439 Z" fill="#000000" fill-rule="nonzero" fill-opacity="1" /><path clip-path="url(#clip510)" d="M1120.82 33.1202 Q1114.67 33.1202 1111.34 37.5762 Q1107.86 42.2347 1107.86 49.9314 Q1107.86 58.0738 1111.3 62.7728 Q1114.79 67.4314 1120.82 67.4314 Q1126.78 67.4314 1130.26 62.7323 Q1133.75 58.0333 1133.75 49.9314 Q1133.75 42.5183 1130.26 37.5762 Q1127.06 33.1202 1120.82 33.1202 M1120.82 27.2059 L1145.57 27.2059 L1145.57 34.6595 L1137.23 34.6595 Q1141.64 40.9789 1141.64 49.9314 Q1141.64 61.0714 1136.09 67.3908 Q1130.54 73.7508 1120.82 73.7508 Q1111.06 73.7508 1105.55 67.3908 Q1100 61.0714 1100 49.9314 Q1100 38.7104 1105.55 32.4315 Q1110.13 27.2059 1120.82 27.2059 Z" fill="#000000" fill-rule="nonzero" fill-opacity="1" /><path clip-path="url(#clip510)" d="M1154.32 68.12 L1162.59 68.12 L1162.59 43.369 L1153.55 45.0299 L1153.55 40.3308 L1162.87 38.7509 L1168.42 38.7509 L1168.42 68.12 L1176.73 68.12 L1176.73 72.576 L1154.32 72.576 L1154.32 68.12 Z" fill="#000000" fill-rule="nonzero" fill-opacity="1" /><path clip-path="url(#clip510)" d="M1187.58 68.12 L1195.85 68.12 L1195.85 43.369 L1186.81 45.0299 L1186.81 40.3308 L1196.13 38.7509 L1201.68 38.7509 L1201.68 68.12 L1209.98 68.12 L1209.98 72.576 L1187.58 72.576 L1187.58 68.12 Z" fill="#000000" fill-rule="nonzero" fill-opacity="1" /><path clip-path="url(#clip512)" d="M266.298 606.387 L266.298 606.387 L284.251 606.387 L302.205 606.387 L320.158 606.387 L338.112 606.387 L356.065 606.387 L374.019 606.387 L391.972 606.387 L409.925 606.387 L427.879 606.387 L445.832 606.387 L463.786 606.387 L481.739 606.387 L499.692 606.387 L517.646 606.387 L535.599 606.387 L553.553 606.387 L571.506 606.387 L589.46 606.387 L607.413 606.387 L625.366 606.387 L643.32 606.387 L661.273 606.387 L679.227 606.387 L697.18 606.387 L715.133 606.387 L733.087 606.387 L751.04 606.387 L768.994 606.387 L786.947 606.387 L804.901 606.387 L822.854 606.387 L840.807 606.387 L858.761 606.387 L876.714 606.387 L894.668 606.387 L912.621 606.387 L930.574 606.387 L948.528 606.387 L966.481 606.387 L984.435 606.387 L1002.39 606.387 L1020.34 606.387 L1038.29 606.387 L1056.25 606.387 L1074.2 606.387 L1092.16 606.387 L1110.11 606.387 L1128.06 606.387 L1146.02 606.387 L1163.97 606.387 L1181.92 606.387 L1199.88 606.387 L1217.83 606.387 L1235.78 606.387 L1253.74 606.387 L1271.69 606.387 L1289.64 606.387 L1307.6 606.387 L1325.55 606.387 L1343.5 606.387 L1361.46 606.387 L1379.41 606.387 L1397.36 606.387 L1415.32 606.387 L1433.27 606.387 L1451.22 606.387 L1469.18 606.387 L1487.13 606.387 L1505.08 606.387 L1523.04 606.387 L1540.99 606.387 L1558.94 606.387 L1576.9 606.387 L1594.85 606.387 L1612.8 606.387 L1630.76 606.387 L1648.71 606.387 L1666.66 606.387 L1684.62 606.387 L1702.57 606.387 L1720.52 606.387 L1738.48 606.387 L1756.43 606.387 L1774.38 606.387 L1792.34 606.387 L1810.29 606.387 L1828.25 606.387 L1846.2 606.387 L1864.15 606.387 L1882.11 606.387 L1900.06 606.387 L1918.01 606.387 L1935.97 606.387 L1953.92 606.387 L1971.87 606.387 L1989.83 606.387 L2007.78 606.387 L2025.73 606.387 L2043.69 606.387 L2043.69 606.387 L2043.69 606.387 L2043.69 606.387 L2043.69 625.097 L2043.69 643.806 L2043.69 662.515 L2043.69 681.225 L2043.69 699.934 L2043.69 718.643 L2043.69 737.353 L2043.69 756.062 L2043.69 774.771 L2043.69 793.481 L2043.69 812.19 L2043.69 830.899 L2043.69 849.609 L2043.69 868.318 L2043.69 887.027 L2043.69 905.737 L2043.69 924.446 L2043.69 943.155 L2043.69 961.865 L2043.69 961.865 L2043.69 961.865 L2043.69 961.865 L2025.73 961.865 L2007.78 961.865 L1989.83 961.865 L1971.87 961.865 L1953.92 961.865 L1935.97 961.865 L1918.01 961.865 L1900.06 961.865 L1882.11 961.865 L1864.15 961.865 L1846.2 961.865 L1828.25 961.865 L1810.29 961.865 L1792.34 961.865 L1774.38 961.865 L1756.43 961.865 L1738.48 961.865 L1720.52 961.865 L1702.57 961.865 L1684.62 961.865 L1666.66 961.865 L1648.71 961.865 L1630.76 961.865 L1612.8 961.865 L1594.85 961.865 L1576.9 961.865 L1558.94 961.865 L1540.99 961.865 L1523.04 961.865 L1505.08 961.865 L1487.13 961.865 L1469.18 961.865 L1451.22 961.865 L1433.27 961.865 L1415.32 961.865 L1397.36 961.865 L1379.41 961.865 L1361.46 961.865 L1343.5 961.865 L1325.55 961.865 L1307.6 961.865 L1289.64 961.865 L1271.69 961.865 L1253.74 961.865 L1235.78 961.865 L1217.83 961.865 L1199.88 961.865 L1181.92 961.865 L1163.97 961.865 L1146.02 961.865 L1128.06 961.865 L1110.11 961.865 L1092.16 961.865 L1074.2 961.865 L1056.25 961.865 L1038.29 961.865 L1020.34 961.865 L1002.39 961.865 L984.435 961.865 L966.481 961.865 L948.528 961.865 L930.574 961.865 L912.621 961.865 L894.668 961.865 L876.714 961.865 L858.761 961.865 L840.807 961.865 L822.854 961.865 L804.901 961.865 L786.947 961.865 L768.994 961.865 L751.04 961.865 L733.087 961.865 L715.133 961.865 L697.18 961.865 L679.227 961.865 L661.273 961.865 L643.32 961.865 L625.366 961.865 L607.413 961.865 L589.46 961.865 L571.506 961.865 L553.553 961.865 L535.599 961.865 L517.646 961.865 L499.692 961.865 L481.739 961.865 L463.786 961.865 L445.832 961.865 L427.879 961.865 L409.925 961.865 L391.972 961.865 L374.019 961.865 L356.065 961.865 L338.112 961.865 L320.158 961.865 L302.205 961.865 L284.251 961.865 L266.298 961.865 L266.298 961.865 L266.298 961.865 L266.298 961.865 L266.298 943.155 L266.298 924.446 L266.298 905.737 L266.298 887.027 L266.298 868.318 L266.298 849.609 L266.298 830.899 L266.298 812.19 L266.298 793.481 L266.298 774.771 L266.298 756.062 L266.298 737.353 L266.298 718.643 L266.298 699.934 L266.298 681.225 L266.298 662.515 L266.298 643.806 L266.298 625.097 L266.298 606.387 L266.298 606.387 L266.298 606.387  Z" fill="#30123b" fill-rule="evenodd" fill-opacity="1"/>
<path clip-path="url(#clip512)" d="M266.298 606.387 L266.298 606.387 L284.251 606.387 L302.205 606.387 L320.158 606.387 L338.112 606.387 L356.065 606.387 L374.019 606.387 L391.972 606.387 L409.925 606.387 L427.879 606.387 L445.832 606.387 L463.786 606.387 L481.739 606.387 L499.692 606.387 L517.646 606.387 L535.599 606.387 L553.553 606.387 L571.506 606.387 L589.46 606.387 L607.413 606.387 L625.366 606.387 L643.32 606.387 L661.273 606.387 L679.227 606.387 L697.18 606.387 L715.133 606.387 L733.087 606.387 L751.04 606.387 L768.994 606.387 L786.947 606.387 L804.901 606.387 L822.854 606.387 L840.807 606.387 L858.761 606.387 L876.714 606.387 L894.668 606.387 L912.621 606.387 L930.574 606.387 L948.528 606.387 L966.481 606.387 L984.435 606.387 L1002.39 606.387 L1020.34 606.387 L1038.29 606.387 L1056.25 606.387 L1074.2 606.387 L1092.16 606.387 L1110.11 606.387 L1128.06 606.387 L1146.02 606.387 L1163.97 606.387 L1181.92 606.387 L1199.88 606.387 L1217.83 606.387 L1235.78 606.387 L1253.74 606.387 L1271.69 606.387 L1289.64 606.387 L1307.6 606.387 L1325.55 606.387 L1343.5 606.387 L1361.46 606.387 L1379.41 606.387 L1397.36 606.387 L1415.32 606.387 L1433.27 606.387 L1451.22 606.387 L1469.18 606.387 L1487.13 606.387 L1505.08 606.387 L1523.04 606.387 L1540.99 606.387 L1558.94 606.387 L1576.9 606.387 L1594.85 606.387 L1612.8 606.387 L1630.76 606.387 L1648.71 606.387 L1666.66 606.387 L1684.62 606.387 L1702.57 606.387 L1720.52 606.387 L1738.48 606.387 L1756.43 606.387 L1774.38 606.387 L1792.34 606.387 L1810.29 606.387 L1828.25 606.387 L1846.2 606.387 L1864.15 606.387 L1882.11 606.387 L1900.06 606.387 L1918.01 606.387 L1935.97 606.387 L1953.92 606.387 L1971.87 606.387 L1989.83 606.387 L2007.78 606.387 L2025.73 606.387 L2043.69 606.387 L2043.69 606.387 L2043.69 606.387 L2043.69 606.387 L2043.69 625.097 L2043.69 643.806 L2043.69 662.515 L2043.69 681.225 L2043.69 699.934 L2043.69 718.643 L2043.69 737.353 L2043.69 756.062 L2043.69 774.771 L2043.69 793.481 L2043.69 812.19 L2043.69 830.899 L2043.69 849.609 L2043.69 868.318 L2043.69 887.027 L2043.69 905.737 L2043.69 905.737 L2043.69 907.134 L2025.73 910.047 L2007.78 913.05 L1989.83 916.147 L1971.87 919.339 L1953.92 922.632 L1944.23 924.446 L1935.97 926.04 L1918.01 929.568 L1900.06 933.21 L1882.11 936.97 L1864.15 940.853 L1853.74 943.155 L1846.2 944.877 L1828.25 949.053 L1810.29 953.37 L1792.34 957.834 L1776.61 961.865 L1774.38 961.865 L1774.38 961.865 L1756.43 961.865 L1738.48 961.865 L1720.52 961.865 L1702.57 961.865 L1684.62 961.865 L1666.66 961.865 L1648.71 961.865 L1630.76 961.865 L1612.8 961.865 L1594.85 961.865 L1576.9 961.865 L1558.94 961.865 L1540.99 961.865 L1523.04 961.865 L1505.08 961.865 L1487.13 961.865 L1469.18 961.865 L1451.22 961.865 L1433.27 961.865 L1415.32 961.865 L1397.36 961.865 L1379.41 961.865 L1361.46 961.865 L1343.5 961.865 L1325.55 961.865 L1307.6 961.865 L1289.64 961.865 L1271.69 961.865 L1253.74 961.865 L1235.78 961.865 L1217.83 961.865 L1199.88 961.865 L1181.92 961.865 L1163.97 961.865 L1146.02 961.865 L1128.06 961.865 L1110.11 961.865 L1092.16 961.865 L1074.2 961.865 L1056.25 961.865 L1038.29 961.865 L1020.34 961.865 L1002.39 961.865 L984.435 961.865 L966.481 961.865 L948.528 961.865 L930.574 961.865 L912.621 961.865 L894.668 961.865 L876.714 961.865 L858.761 961.865 L840.807 961.865 L822.854 961.865 L804.901 961.865 L786.947 961.865 L768.994 961.865 L751.04 961.865 L733.087 961.865 L715.133 961.865 L697.18 961.865 L679.227 961.865 L661.273 961.865 L643.32 961.865 L625.366 961.865 L607.413 961.865 L589.46 961.865 L571.506 961.865 L553.553 961.865 L535.599 961.865 L517.646 961.865 L499.692 961.865 L481.739 961.865 L463.786 961.865 L445.832 961.865 L427.879 961.865 L409.925 961.865 L391.972 961.865 L374.019 961.865 L356.065 961.865 L338.112 961.865 L320.158 961.865 L302.205 961.865 L284.251 961.865 L266.298 961.865 L266.298 961.865 L266.298 961.865 L266.298 961.865 L266.298 943.155 L266.298 924.446 L266.298 905.737 L266.298 887.027 L266.298 868.318 L266.298 849.609 L266.298 830.899 L266.298 812.19 L266.298 793.481 L266.298 774.771 L266.298 756.062 L266.298 737.353 L266.298 718.643 L266.298 699.934 L266.298 681.225 L266.298 662.515 L266.298 643.806 L266.298 625.097 L266.298 606.387 L266.298 606.387 L266.298 606.387  Z" fill="#4584f9" fill-rule="evenodd" fill-opacity="1"/>
<path clip-path="url(#clip512)" d="M266.298 606.387 L266.298 606.387 L284.251 606.387 L302.205 606.387 L320.158 606.387 L338.112 606.387 L356.065 606.387 L374.019 606.387 L391.972 606.387 L409.925 606.387 L427.879 606.387 L445.832 606.387 L463.786 606.387 L481.739 606.387 L499.692 606.387 L517.646 606.387 L535.599 606.387 L553.553 606.387 L571.506 606.387 L589.46 606.387 L607.413 606.387 L625.366 606.387 L643.32 606.387 L661.273 606.387 L679.227 606.387 L697.18 606.387 L715.133 606.387 L733.087 606.387 L751.04 606.387 L768.994 606.387 L786.947 606.387 L804.901 606.387 L822.854 606.387 L840.807 606.387 L858.761 606.387 L876.714 606.387 L894.668 606.387 L912.621 606.387 L930.574 606.387 L948.528 606.387 L966.481 606.387 L984.435 606.387 L1002.39 606.387 L1020.34 606.387 L1038.29 606.387 L1056.25 606.387 L1074.2 606.387 L1092.16 606.387 L1110.11 606.387 L1128.06 606.387 L1146.02 606.387 L1163.97 606.387 L1181.92 606.387 L1199.88 606.387 L1217.83 606.387 L1235.78 606.387 L1253.74 606.387 L1271.69 606.387 L1289.64 606.387 L1307.6 606.387 L1325.55 606.387 L1343.5 606.387 L1361.46 606.387 L1379.41 606.387 L1397.36 606.387 L1415.32 606.387 L1433.27 606.387 L1451.22 606.387 L1469.18 606.387 L1487.13 606.387 L1505.08 606.387 L1523.04 606.387 L1540.99 606.387 L1558.94 606.387 L1576.9 606.387 L1594.85 606.387 L1612.8 606.387 L1630.76 606.387 L1648.71 606.387 L1666.66 606.387 L1684.62 606.387 L1702.57 606.387 L1720.52 606.387 L1738.48 606.387 L1756.43 606.387 L1774.38 606.387 L1792.34 606.387 L1810.29 606.387 L1828.25 606.387 L1846.2 606.387 L1864.15 606.387 L1882.11 606.387 L1900.06 606.387 L1918.01 606.387 L1935.97 606.387 L1953.92 606.387 L1971.87 606.387 L1989.83 606.387 L2007.78 606.387 L2025.73 606.387 L2043.69 606.387 L2043.69 606.387 L2043.69 606.387 L2043.69 606.387 L2043.69 625.097 L2043.69 643.806 L2043.69 662.515 L2043.69 681.225 L2043.69 699.934 L2043.69 718.643 L2043.69 737.353 L2043.69 756.062 L2043.69 774.771 L2043.69 793.481 L2043.69 812.19 L2043.69 830.899 L2043.69 849.609 L2043.69 868.318 L2043.69 868.318 L2043.69 880.374 L2025.73 880.709 L2007.78 881.053 L1989.83 881.407 L1971.87 881.77 L1953.92 882.143 L1935.97 882.527 L1918.01 882.922 L1900.06 883.328 L1882.11 883.746 L1864.15 884.176 L1846.2 884.618 L1828.25 885.073 L1810.29 885.541 L1792.34 886.022 L1774.38 886.518 L1756.48 887.027 L1756.43 887.035 L1738.48 889.809 L1720.52 892.679 L1702.57 895.648 L1684.62 898.72 L1666.66 901.899 L1648.71 905.19 L1645.76 905.737 L1630.76 908.618 L1612.8 912.173 L1594.85 915.856 L1576.9 919.672 L1558.94 923.628 L1555.28 924.446 L1540.99 927.759 L1523.04 932.051 L1505.08 936.504 L1487.13 941.125 L1479.4 943.155 L1469.18 945.952 L1451.22 950.989 L1433.27 956.22 L1415.32 961.655 L1414.63 961.865 L1397.36 961.865 L1397.36 961.865 L1379.41 961.865 L1361.46 961.865 L1343.5 961.865 L1325.55 961.865 L1307.6 961.865 L1289.64 961.865 L1271.69 961.865 L1253.74 961.865 L1235.78 961.865 L1217.83 961.865 L1199.88 961.865 L1181.92 961.865 L1163.97 961.865 L1146.02 961.865 L1128.06 961.865 L1110.11 961.865 L1092.16 961.865 L1074.2 961.865 L1056.25 961.865 L1038.29 961.865 L1020.34 961.865 L1002.39 961.865 L984.435 961.865 L966.481 961.865 L948.528 961.865 L930.574 961.865 L912.621 961.865 L894.668 961.865 L876.714 961.865 L858.761 961.865 L840.807 961.865 L822.854 961.865 L804.901 961.865 L786.947 961.865 L768.994 961.865 L751.04 961.865 L733.087 961.865 L715.133 961.865 L697.18 961.865 L679.227 961.865 L661.273 961.865 L643.32 961.865 L625.366 961.865 L607.413 961.865 L589.46 961.865 L571.506 961.865 L553.553 961.865 L535.599 961.865 L517.646 961.865 L499.692 961.865 L481.739 961.865 L463.786 961.865 L445.832 961.865 L427.879 961.865 L409.925 961.865 L391.972 961.865 L374.019 961.865 L356.065 961.865 L338.112 961.865 L320.158 961.865 L302.205 961.865 L284.251 961.865 L266.298 961.865 L266.298 961.865 L266.298 961.865 L266.298 961.865 L266.298 943.155 L266.298 924.446 L266.298 905.737 L266.298 887.027 L266.298 868.318 L266.298 849.609 L266.298 830.899 L266.298 812.19 L266.298 793.481 L266.298 774.771 L266.298 756.062 L266.298 737.353 L266.298 718.643 L266.298 699.934 L266.298 681.225 L266.298 662.515 L266.298 643.806 L266.298 625.097 L266.298 606.387 L266.298 606.387 L266.298 606.387  Z" fill="#1ae4b6" fill-rule="evenodd" fill-opacity="1"/>
<path clip-path="url(#clip512)" d="M266.298 606.387 L266.298 606.387 L284.251 606.387 L302.205 606.387 L320.158 606.387 L338.112 606.387 L356.065 606.387 L374.019 606.387 L391.972 606.387 L409.925 606.387 L427.879 606.387 L445.832 606.387 L463.786 606.387 L481.739 606.387 L499.692 606.387 L517.646 606.387 L535.599 606.387 L553.553 606.387 L571.506 606.387 L589.46 606.387 L607.413 606.387 L625.366 606.387 L643.32 606.387 L661.273 606.387 L679.227 606.387 L697.18 606.387 L715.133 606.387 L733.087 606.387 L751.04 606.387 L768.994 606.387 L786.947 606.387 L804.901 606.387 L822.854 606.387 L840.807 606.387 L858.761 606.387 L876.714 606.387 L894.668 606.387 L912.621 606.387 L930.574 606.387 L948.528 606.387 L966.481 606.387 L984.435 606.387 L1002.39 606.387 L1020.34 606.387 L1038.29 606.387 L1056.25 606.387 L1074.2 606.387 L1092.16 606.387 L1110.11 606.387 L1128.06 606.387 L1146.02 606.387 L1163.97 606.387 L1181.92 606.387 L1199.88 606.387 L1217.83 606.387 L1235.78 606.387 L1253.74 606.387 L1271.69 606.387 L1289.64 606.387 L1307.6 606.387 L1325.55 606.387 L1343.5 606.387 L1361.46 606.387 L1379.41 606.387 L1397.36 606.387 L1415.32 606.387 L1433.27 606.387 L1451.22 606.387 L1469.18 606.387 L1487.13 606.387 L1505.08 606.387 L1523.04 606.387 L1540.99 606.387 L1558.94 606.387 L1576.9 606.387 L1594.85 606.387 L1612.8 606.387 L1630.76 606.387 L1648.71 606.387 L1666.66 606.387 L1684.62 606.387 L1702.57 606.387 L1720.52 606.387 L1738.48 606.387 L1756.43 606.387 L1774.38 606.387 L1792.34 606.387 L1810.29 606.387 L1828.25 606.387 L1846.2 606.387 L1864.15 606.387 L1882.11 606.387 L1900.06 606.387 L1918.01 606.387 L1935.97 606.387 L1953.92 606.387 L1971.87 606.387 L1989.83 606.387 L2007.78 606.387 L2025.73 606.387 L2043.69 606.387 L2043.69 606.387 L2043.69 606.387 L2043.69 606.387 L2043.69 625.097 L2043.69 643.806 L2043.69 662.515 L2043.69 681.225 L2043.69 699.934 L2043.69 718.643 L2043.69 737.353 L2043.69 756.062 L2043.69 774.771 L2043.69 793.481 L2043.69 812.19 L2043.69 830.899 L2043.69 849.609 L2043.69 868.318 L2043.69 868.318 L2043.69 869.791 L2025.73 869.901 L2007.78 870.014 L1989.83 870.13 L1971.87 870.249 L1953.92 870.372 L1935.97 870.498 L1918.01 870.627 L1900.06 870.761 L1882.11 870.898 L1864.15 871.039 L1846.2 871.184 L1828.25 871.333 L1810.29 871.487 L1792.34 871.645 L1774.38 871.808 L1756.43 871.976 L1738.48 872.149 L1720.52 872.326 L1702.57 872.51 L1684.62 872.698 L1666.66 872.893 L1648.71 873.093 L1630.76 873.299 L1612.8 873.512 L1594.85 873.731 L1576.9 873.957 L1558.94 874.19 L1540.99 874.43 L1523.04 874.678 L1505.08 874.933 L1487.13 875.196 L1469.18 875.468 L1451.22 875.748 L1433.27 876.037 L1415.32 876.335 L1397.36 876.642 L1379.41 876.96 L1361.46 877.287 L1343.5 877.624 L1325.55 877.973 L1307.6 878.332 L1289.64 878.703 L1271.69 879.085 L1253.74 879.48 L1235.78 879.887 L1217.83 880.307 L1199.88 880.74 L1181.92 881.187 L1163.97 881.648 L1146.02 882.123 L1128.06 882.612 L1110.11 883.117 L1092.16 883.637 L1074.2 884.173 L1056.25 884.725 L1038.29 885.293 L1020.34 885.878 L1002.39 886.48 L986.48 887.027 L984.435 887.471 L966.481 891.402 L948.528 895.482 L930.574 899.717 L912.621 904.108 L906.058 905.737 L894.668 908.706 L876.714 913.499 L858.761 918.46 L840.807 923.592 L837.834 924.446 L822.854 928.987 L804.901 934.578 L786.947 940.344 L778.305 943.155 L768.994 946.365 L751.04 952.636 L733.087 959.081 L725.385 961.865 L715.133 961.865 L715.133 961.865 L697.18 961.865 L679.227 961.865 L661.273 961.865 L643.32 961.865 L625.366 961.865 L607.413 961.865 L589.46 961.865 L571.506 961.865 L553.553 961.865 L535.599 961.865 L517.646 961.865 L499.692 961.865 L481.739 961.865 L463.786 961.865 L445.832 961.865 L427.879 961.865 L409.925 961.865 L391.972 961.865 L374.019 961.865 L356.065 961.865 L338.112 961.865 L320.158 961.865 L302.205 961.865 L284.251 961.865 L266.298 961.865 L266.298 961.865 L266.298 961.865 L266.298 961.865 L266.298 943.155 L266.298 924.446 L266.298 905.737 L266.298 887.027 L266.298 868.318 L266.298 849.609 L266.298 830.899 L266.298 812.19 L266.298 793.481 L266.298 774.771 L266.298 756.062 L266.298 737.353 L266.298 718.643 L266.298 699.934 L266.298 681.225 L266.298 662.515 L266.298 643.806 L266.298 625.097 L266.298 606.387 L266.298 606.387 L266.298 606.387  Z" fill="#a1fc3d" fill-rule="evenodd" fill-opacity="1"/>
<path clip-path="url(#clip512)" d="M733.087 606.387 L751.04 606.387 L768.994 606.387 L786.947 606.387 L804.901 606.387 L822.854 606.387 L840.807 606.387 L858.761 606.387 L876.714 606.387 L894.668 606.387 L912.621 606.387 L930.574 606.387 L948.528 606.387 L966.481 606.387 L984.435 606.387 L1002.39 606.387 L1020.34 606.387 L1038.29 606.387 L1056.25 606.387 L1074.2 606.387 L1092.16 606.387 L1110.11 606.387 L1128.06 606.387 L1146.02 606.387 L1163.97 606.387 L1181.92 606.387 L1199.88 606.387 L1217.83 606.387 L1235.78 606.387 L1253.74 606.387 L1271.69 606.387 L1289.64 606.387 L1307.6 606.387 L1325.55 606.387 L1343.5 606.387 L1361.46 606.387 L1379.41 606.387 L1397.36 606.387 L1415.32 606.387 L1433.27 606.387 L1451.22 606.387 L1469.18 606.387 L1487.13 606.387 L1505.08 606.387 L1523.04 606.387 L1540.99 606.387 L1558.94 606.387 L1576.9 606.387 L1594.85 606.387 L1612.8 606.387 L1630.76 606.387 L1648.71 606.387 L1666.66 606.387 L1684.62 606.387 L1702.57 606.387 L1720.52 606.387 L1738.48 606.387 L1756.43 606.387 L1774.38 606.387 L1792.34 606.387 L1810.29 606.387 L1828.25 606.387 L1846.2 606.387 L1864.15 606.387 L1882.11 606.387 L1900.06 606.387 L1918.01 606.387 L1935.97 606.387 L1953.92 606.387 L1971.87 606.387 L1989.83 606.387 L2007.78 606.387 L2025.73 606.387 L2043.69 606.387 L2043.69 606.387 L2043.69 606.387 L2043.69 606.387 L2043.69 625.097 L2043.69 643.806 L2043.69 662.515 L2043.69 681.225 L2043.69 681.225 L2043.69 698.256 L2025.73 698.144 L2007.78 698.028 L1989.83 697.91 L1971.87 697.788 L1953.92 697.663 L1935.97 697.535 L1918.01 697.403 L1900.06 697.267 L1882.11 697.128 L1864.15 696.984 L1846.2 696.837 L1828.25 696.685 L1810.29 696.529 L1792.34 696.368 L1774.38 696.203 L1756.43 696.033 L1738.48 695.858 L1720.52 695.678 L1702.57 695.493 L1684.62 695.302 L1666.66 695.105 L1648.71 694.903 L1630.76 694.694 L1612.8 694.48 L1594.85 694.258 L1576.9 694.031 L1558.94 693.796 L1540.99 693.554 L1523.04 693.305 L1505.08 693.048 L1487.13 692.783 L1469.18 692.51 L1451.22 692.229 L1433.27 691.939 L1415.32 691.64 L1397.36 691.332 L1379.41 691.015 L1361.46 690.687 L1343.5 690.349 L1325.55 690.001 L1307.6 689.642 L1289.64 689.272 L1271.69 688.891 L1253.74 688.498 L1235.78 688.092 L1217.83 687.674 L1199.88 687.244 L1181.92 686.8 L1163.97 686.342 L1146.02 685.871 L1128.06 685.386 L1110.11 684.886 L1092.16 684.371 L1074.2 683.841 L1056.25 683.295 L1038.29 682.734 L1020.34 682.156 L1002.39 681.563 L992.318 681.225 L984.435 679.504 L966.481 675.509 L948.528 671.36 L930.574 667.055 L912.621 662.589 L912.325 662.515 L894.668 657.886 L876.714 653.011 L858.761 647.963 L844.371 643.806 L840.807 642.72 L822.854 637.21 L804.901 631.52 L786.947 625.649 L785.259 625.097 L768.994 619.459 L751.04 613.072 L733.087 606.508 L732.755 606.387 L715.133 606.387 L733.087 606.387  Z" fill="#f9ba38" fill-rule="evenodd" fill-opacity="1"/>
<path clip-path="url(#clip512)" d="M1433.27 606.387 L1451.22 606.387 L1469.18 606.387 L1487.13 606.387 L1505.08 606.387 L1523.04 606.387 L1540.99 606.387 L1558.94 606.387 L1576.9 606.387 L1594.85 606.387 L1612.8 606.387 L1630.76 606.387 L1648.71 606.387 L1666.66 606.387 L1684.62 606.387 L1702.57 606.387 L1720.52 606.387 L1738.48 606.387 L1756.43 606.387 L1774.38 606.387 L1792.34 606.387 L1810.29 606.387 L1828.25 606.387 L1846.2 606.387 L1864.15 606.387 L1882.11 606.387 L1900.06 606.387 L1918.01 606.387 L1935.97 606.387 L1953.92 606.387 L1971.87 606.387 L1989.83 606.387 L2007.78 606.387 L2025.73 606.387 L2043.69 606.387 L2043.69 606.387 L2043.69 606.387 L2043.69 606.387 L2043.69 625.097 L2043.69 643.806 L2043.69 662.515 L2043.69 681.225 L2043.69 681.225 L2043.69 687.799 L2025.73 687.466 L2007.78 687.124 L1989.83 686.773 L1971.87 686.412 L1953.92 686.042 L1935.97 685.661 L1918.01 685.269 L1900.06 684.867 L1882.11 684.453 L1864.15 684.027 L1846.2 683.59 L1828.25 683.139 L1810.29 682.676 L1792.34 682.2 L1774.38 681.709 L1757.12 681.225 L1756.43 681.12 L1738.48 678.336 L1720.52 675.457 L1702.57 672.479 L1684.62 669.397 L1666.66 666.208 L1648.71 662.906 L1646.61 662.515 L1630.76 659.465 L1612.8 655.898 L1594.85 652.202 L1576.9 648.372 L1558.94 644.403 L1556.28 643.806 L1540.99 640.255 L1523.04 635.947 L1505.08 631.478 L1487.13 626.84 L1480.51 625.097 L1469.18 621.991 L1451.22 616.936 L1433.27 611.684 L1415.82 606.387 L1415.32 606.387 L1433.27 606.387  Z" fill="#e5460a" fill-rule="evenodd" fill-opacity="1"/>
<path clip-path="url(#clip512)" d="M1792.34 606.387 L1810.29 606.387 L1828.25 606.387 L1846.2 606.387 L1864.15 606.387 L1882.11 606.387 L1900.06 606.387 L1918.01 606.387 L1935.97 606.387 L1953.92 606.387 L1971.87 606.387 L1989.83 606.387 L2007.78 606.387 L2025.73 606.387 L2043.69 606.387 L2043.69 606.387 L2043.69 606.387 L2043.69 606.387 L2043.69 625.097 L2043.69 643.806 L2043.69 643.806 L2043.69 661.118 L2025.73 658.2 L2007.78 655.193 L1989.83 652.092 L1971.87 648.894 L1953.92 645.596 L1944.37 643.806 L1935.97 642.183 L1918.01 638.65 L1900.06 635.002 L1882.11 631.236 L1864.15 627.346 L1853.99 625.097 L1846.2 623.315 L1828.25 619.131 L1810.29 614.806 L1792.34 610.336 L1776.95 606.387 L1774.38 606.387 L1792.34 606.387  Z" fill="#7a0402" fill-rule="evenodd" fill-opacity="1"/>
<polyline clip-path="url(#clip512)" style="stroke:#30123b; stroke-linecap:round; stroke-linejoin:round; stroke-width:4; stroke-opacity:1; fill:none" points="266.298,606.387 266.298,606.387 284.251,606.387 302.205,606.387 320.158,606.387 338.112,606.387 356.065,606.387 374.019,606.387 391.972,606.387 409.925,606.387 427.879,606.387 445.832,606.387 463.786,606.387 481.739,606.387 499.692,606.387 517.646,606.387 535.599,606.387 553.553,606.387 571.506,606.387 589.46,606.387 607.413,606.387 625.366,606.387 643.32,606.387 661.273,606.387 679.227,606.387 697.18,606.387 715.133,606.387 733.087,606.387 751.04,606.387 768.994,606.387 786.947,606.387 804.901,606.387 822.854,606.387 840.807,606.387 858.761,606.387 876.714,606.387 894.668,606.387 912.621,606.387 930.574,606.387 948.528,606.387 966.481,606.387 984.435,606.387 1002.39,606.387 1020.34,606.387 1038.29,606.387 1056.25,606.387 1074.2,606.387 1092.16,606.387 1110.11,606.387 1128.06,606.387 1146.02,606.387 1163.97,606.387 1181.92,606.387 1199.88,606.387 1217.83,606.387 1235.78,606.387 1253.74,606.387 1271.69,606.387 1289.64,606.387 1307.6,606.387 1325.55,606.387 1343.5,606.387 1361.46,606.387 1379.41,606.387 1397.36,606.387 1415.32,606.387 1433.27,606.387 1451.22,606.387 1469.18,606.387 1487.13,606.387 1505.08,606.387 1523.04,606.387 1540.99,606.387 1558.94,606.387 1576.9,606.387 1594.85,606.387 1612.8,606.387 1630.76,606.387 1648.71,606.387 1666.66,606.387 1684.62,606.387 1702.57,606.387 1720.52,606.387 1738.48,606.387 1756.43,606.387 1774.38,606.387 1792.34,606.387 1810.29,606.387 1828.25,606.387 1846.2,606.387 1864.15,606.387 1882.11,606.387 1900.06,606.387 1918.01,606.387 1935.97,606.387 1953.92,606.387 1971.87,606.387 1989.83,606.387 2007.78,606.387 2025.73,606.387 2043.69,606.387 2043.69,625.097 2043.69,643.806 2043.69,662.515 2043.69,681.225 2043.69,699.934 2043.69,718.643 2043.69,737.353 2043.69,756.062 2043.69,774.771 2043.69,793.481 2043.69,812.19 2043.69,830.899 2043.69,849.609 2043.69,868.318 2043.69,887.027 2043.69,905.737 2043.69,924.446 2043.69,943.155 2043.69,961.865 2025.73,961.865 2007.78,961.865 1989.83,961.865 1971.87,961.865 1953.92,961.865 1935.97,961.865 1918.01,961.865 1900.06,961.865 1882.11,961.865 1864.15,961.865 1846.2,961.865 1828.25,961.865 1810.29,961.865 1792.34,961.865 1774.38,961.865 1756.43,961.865 1738.48,961.865 1720.52,961.865 1702.57,961.865 1684.62,961.865 1666.66,961.865 1648.71,961.865 1630.76,961.865 1612.8,961.865 1594.85,961.865 1576.9,961.865 1558.94,961.865 1540.99,961.865 1523.04,961.865 1505.08,961.865 1487.13,961.865 1469.18,961.865 1451.22,961.865 1433.27,961.865 1415.32,961.865 1397.36,961.865 1379.41,961.865 1361.46,961.865 1343.5,961.865 1325.55,961.865 1307.6,961.865 1289.64,961.865 1271.69,961.865 1253.74,961.865 1235.78,961.865 1217.83,961.865 1199.88,961.865 1181.92,961.865 1163.97,961.865 1146.02,961.865 1128.06,961.865 1110.11,961.865 1092.16,961.865 1074.2,961.865 1056.25,961.865 1038.29,961.865 1020.34,961.865 1002.39,961.865 984.435,961.865 966.481,961.865 948.528,961.865 930.574,961.865 912.621,961.865 894.668,961.865 876.714,961.865 858.761,961.865 840.807,961.865 822.854,961.865 804.901,961.865 786.947,961.865 768.994,961.865 751.04,961.865 733.087,961.865 715.133,961.865 697.18,961.865 679.227,961.865 661.273,961.865 643.32,961.865 625.366,961.865 607.413,961.865 589.46,961.865 571.506,961.865 553.553,961.865 535.599,961.865 517.646,961.865 499.692,961.865 481.739,961.865 463.786,961.865 445.832,961.865 427.879,961.865 409.925,961.865 391.972,961.865 374.019,961.865 356.065,961.865 338.112,961.865 320.158,961.865 302.205,961.865 284.251,961.865 266.298,961.865 266.298,943.155 266.298,924.446 266.298,905.737 266.298,887.027 266.298,868.318 266.298,849.609 266.298,830.899 266.298,812.19 266.298,793.481 266.298,774.771 266.298,756.062 266.298,737.353 266.298,718.643 266.298,699.934 266.298,681.225 266.298,662.515 266.298,643.806 266.298,625.097 266.298,606.387 "/>
<polyline clip-path="url(#clip512)" style="stroke:#30123b; stroke-linecap:round; stroke-linejoin:round; stroke-width:4; stroke-opacity:1; fill:none" points="266.298,606.387 266.298,606.387 284.251,606.387 302.205,606.387 320.158,606.387 338.112,606.387 356.065,606.387 374.019,606.387 391.972,606.387 409.925,606.387 427.879,606.387 445.832,606.387 463.786,606.387 481.739,606.387 499.692,606.387 517.646,606.387 535.599,606.387 553.553,606.387 571.506,606.387 589.46,606.387 607.413,606.387 625.366,606.387 643.32,606.387 661.273,606.387 679.227,606.387 697.18,606.387 715.133,606.387 733.087,606.387 751.04,606.387 768.994,606.387 786.947,606.387 804.901,606.387 822.854,606.387 840.807,606.387 858.761,606.387 876.714,606.387 894.668,606.387 912.621,606.387 930.574,606.387 948.528,606.387 966.481,606.387 984.435,606.387 1002.39,606.387 1020.34,606.387 1038.29,606.387 1056.25,606.387 1074.2,606.387 1092.16,606.387 1110.11,606.387 1128.06,606.387 1146.02,606.387 1163.97,606.387 1181.92,606.387 1199.88,606.387 1217.83,606.387 1235.78,606.387 1253.74,606.387 1271.69,606.387 1289.64,606.387 1307.6,606.387 1325.55,606.387 1343.5,606.387 1361.46,606.387 1379.41,606.387 1397.36,606.387 1415.32,606.387 1433.27,606.387 1451.22,606.387 1469.18,606.387 1487.13,606.387 1505.08,606.387 1523.04,606.387 1540.99,606.387 1558.94,606.387 1576.9,606.387 1594.85,606.387 1612.8,606.387 1630.76,606.387 1648.71,606.387 1666.66,606.387 1684.62,606.387 1702.57,606.387 1720.52,606.387 1738.48,606.387 1756.43,606.387 1774.38,606.387 1792.34,606.387 1810.29,606.387 1828.25,606.387 1846.2,606.387 1864.15,606.387 1882.11,606.387 1900.06,606.387 1918.01,606.387 1935.97,606.387 1953.92,606.387 1971.87,606.387 1989.83,606.387 2007.78,606.387 2025.73,606.387 2043.69,606.387 2043.69,625.097 2043.69,643.806 2043.69,662.515 2043.69,681.225 2043.69,699.934 2043.69,718.643 2043.69,737.353 2043.69,756.062 2043.69,774.771 2043.69,793.481 2043.69,812.19 2043.69,830.899 2043.69,849.609 2043.69,868.318 2043.69,887.027 2043.69,905.737 2043.69,907.134 2025.73,910.047 2007.78,913.05 1989.83,916.147 1971.87,919.339 1953.92,922.632 1944.23,924.446 1935.97,926.04 1918.01,929.568 1900.06,933.21 1882.11,936.97 1864.15,940.853 1853.74,943.155 1846.2,944.877 1828.25,949.053 1810.29,953.37 1792.34,957.834 1776.61,961.865 1774.38,961.865 1756.43,961.865 1738.48,961.865 1720.52,961.865 1702.57,961.865 1684.62,961.865 1666.66,961.865 1648.71,961.865 1630.76,961.865 1612.8,961.865 1594.85,961.865 1576.9,961.865 1558.94,961.865 1540.99,961.865 1523.04,961.865 1505.08,961.865 1487.13,961.865 1469.18,961.865 1451.22,961.865 1433.27,961.865 1415.32,961.865 1397.36,961.865 1379.41,961.865 1361.46,961.865 1343.5,961.865 1325.55,961.865 1307.6,961.865 1289.64,961.865 1271.69,961.865 1253.74,961.865 1235.78,961.865 1217.83,961.865 1199.88,961.865 1181.92,961.865 1163.97,961.865 1146.02,961.865 1128.06,961.865 1110.11,961.865 1092.16,961.865 1074.2,961.865 1056.25,961.865 1038.29,961.865 1020.34,961.865 1002.39,961.865 984.435,961.865 966.481,961.865 948.528,961.865 930.574,961.865 912.621,961.865 894.668,961.865 876.714,961.865 858.761,961.865 840.807,961.865 822.854,961.865 804.901,961.865 786.947,961.865 768.994,961.865 751.04,961.865 733.087,961.865 715.133,961.865 697.18,961.865 679.227,961.865 661.273,961.865 643.32,961.865 625.366,961.865 607.413,961.865 589.46,961.865 571.506,961.865 553.553,961.865 535.599,961.865 517.646,961.865 499.692,961.865 481.739,961.865 463.786,961.865 445.832,961.865 427.879,961.865 409.925,961.865 391.972,961.865 374.019,961.865 356.065,961.865 338.112,961.865 320.158,961.865 302.205,961.865 284.251,961.865 266.298,961.865 266.298,943.155 266.298,924.446 266.298,905.737 266.298,887.027 266.298,868.318 266.298,849.609 266.298,830.899 266.298,812.19 266.298,793.481 266.298,774.771 266.298,756.062 266.298,737.353 266.298,718.643 266.298,699.934 266.298,681.225 266.298,662.515 266.298,643.806 266.298,625.097 266.298,606.387 "/>
<polyline clip-path="url(#clip512)" style="stroke:#30123b; stroke-linecap:round; stroke-linejoin:round; stroke-width:4; stroke-opacity:1; fill:none" points="266.298,606.387 266.298,606.387 284.251,606.387 302.205,606.387 320.158,606.387 338.112,606.387 356.065,606.387 374.019,606.387 391.972,606.387 409.925,606.387 427.879,606.387 445.832,606.387 463.786,606.387 481.739,606.387 499.692,606.387 517.646,606.387 535.599,606.387 553.553,606.387 571.506,606.387 589.46,606.387 607.413,606.387 625.366,606.387 643.32,606.387 661.273,606.387 679.227,606.387 697.18,606.387 715.133,606.387 733.087,606.387 751.04,606.387 768.994,606.387 786.947,606.387 804.901,606.387 822.854,606.387 840.807,606.387 858.761,606.387 876.714,606.387 894.668,606.387 912.621,606.387 930.574,606.387 948.528,606.387 966.481,606.387 984.435,606.387 1002.39,606.387 1020.34,606.387 1038.29,606.387 1056.25,606.387 1074.2,606.387 1092.16,606.387 1110.11,606.387 1128.06,606.387 1146.02,606.387 1163.97,606.387 1181.92,606.387 1199.88,606.387 1217.83,606.387 1235.78,606.387 1253.74,606.387 1271.69,606.387 1289.64,606.387 1307.6,606.387 1325.55,606.387 1343.5,606.387 1361.46,606.387 1379.41,606.387 1397.36,606.387 1415.32,606.387 1433.27,606.387 1451.22,606.387 1469.18,606.387 1487.13,606.387 1505.08,606.387 1523.04,606.387 1540.99,606.387 1558.94,606.387 1576.9,606.387 1594.85,606.387 1612.8,606.387 1630.76,606.387 1648.71,606.387 1666.66,606.387 1684.62,606.387 1702.57,606.387 1720.52,606.387 1738.48,606.387 1756.43,606.387 1774.38,606.387 1792.34,606.387 1810.29,606.387 1828.25,606.387 1846.2,606.387 1864.15,606.387 1882.11,606.387 1900.06,606.387 1918.01,606.387 1935.97,606.387 1953.92,606.387 1971.87,606.387 1989.83,606.387 2007.78,606.387 2025.73,606.387 2043.69,606.387 2043.69,625.097 2043.69,643.806 2043.69,662.515 2043.69,681.225 2043.69,699.934 2043.69,718.643 2043.69,737.353 2043.69,756.062 2043.69,774.771 2043.69,793.481 2043.69,812.19 2043.69,830.899 2043.69,849.609 2043.69,868.318 2043.69,880.374 2025.73,880.709 2007.78,881.053 1989.83,881.407 1971.87,881.77 1953.92,882.143 1935.97,882.527 1918.01,882.922 1900.06,883.328 1882.11,883.746 1864.15,884.176 1846.2,884.618 1828.25,885.073 1810.29,885.541 1792.34,886.022 1774.38,886.518 1756.48,887.027 1756.43,887.035 1738.48,889.809 1720.52,892.679 1702.57,895.648 1684.62,898.72 1666.66,901.899 1648.71,905.19 1645.76,905.737 1630.76,908.618 1612.8,912.173 1594.85,915.856 1576.9,919.672 1558.94,923.628 1555.28,924.446 1540.99,927.759 1523.04,932.051 1505.08,936.504 1487.13,941.125 1479.4,943.155 1469.18,945.952 1451.22,950.989 1433.27,956.22 1415.32,961.655 1414.63,961.865 1397.36,961.865 1379.41,961.865 1361.46,961.865 1343.5,961.865 1325.55,961.865 1307.6,961.865 1289.64,961.865 1271.69,961.865 1253.74,961.865 1235.78,961.865 1217.83,961.865 1199.88,961.865 1181.92,961.865 1163.97,961.865 1146.02,961.865 1128.06,961.865 1110.11,961.865 1092.16,961.865 1074.2,961.865 1056.25,961.865 1038.29,961.865 1020.34,961.865 1002.39,961.865 984.435,961.865 966.481,961.865 948.528,961.865 930.574,961.865 912.621,961.865 894.668,961.865 876.714,961.865 858.761,961.865 840.807,961.865 822.854,961.865 804.901,961.865 786.947,961.865 768.994,961.865 751.04,961.865 733.087,961.865 715.133,961.865 697.18,961.865 679.227,961.865 661.273,961.865 643.32,961.865 625.366,961.865 607.413,961.865 589.46,961.865 571.506,961.865 553.553,961.865 535.599,961.865 517.646,961.865 499.692,961.865 481.739,961.865 463.786,961.865 445.832,961.865 427.879,961.865 409.925,961.865 391.972,961.865 374.019,961.865 356.065,961.865 338.112,961.865 320.158,961.865 302.205,961.865 284.251,961.865 266.298,961.865 266.298,943.155 266.298,924.446 266.298,905.737 266.298,887.027 266.298,868.318 266.298,849.609 266.298,830.899 266.298,812.19 266.298,793.481 266.298,774.771 266.298,756.062 266.298,737.353 266.298,718.643 266.298,699.934 266.298,681.225 266.298,662.515 266.298,643.806 266.298,625.097 266.298,606.387 "/>
<polyline clip-path="url(#clip512)" style="stroke:#30123b; stroke-linecap:round; stroke-linejoin:round; stroke-width:4; stroke-opacity:1; fill:none" points="266.298,606.387 266.298,606.387 284.251,606.387 302.205,606.387 320.158,606.387 338.112,606.387 356.065,606.387 374.019,606.387 391.972,606.387 409.925,606.387 427.879,606.387 445.832,606.387 463.786,606.387 481.739,606.387 499.692,606.387 517.646,606.387 535.599,606.387 553.553,606.387 571.506,606.387 589.46,606.387 607.413,606.387 625.366,606.387 643.32,606.387 661.273,606.387 679.227,606.387 697.18,606.387 715.133,606.387 733.087,606.387 751.04,606.387 768.994,606.387 786.947,606.387 804.901,606.387 822.854,606.387 840.807,606.387 858.761,606.387 876.714,606.387 894.668,606.387 912.621,606.387 930.574,606.387 948.528,606.387 966.481,606.387 984.435,606.387 1002.39,606.387 1020.34,606.387 1038.29,606.387 1056.25,606.387 1074.2,606.387 1092.16,606.387 1110.11,606.387 1128.06,606.387 1146.02,606.387 1163.97,606.387 1181.92,606.387 1199.88,606.387 1217.83,606.387 1235.78,606.387 1253.74,606.387 1271.69,606.387 1289.64,606.387 1307.6,606.387 1325.55,606.387 1343.5,606.387 1361.46,606.387 1379.41,606.387 1397.36,606.387 1415.32,606.387 1433.27,606.387 1451.22,606.387 1469.18,606.387 1487.13,606.387 1505.08,606.387 1523.04,606.387 1540.99,606.387 1558.94,606.387 1576.9,606.387 1594.85,606.387 1612.8,606.387 1630.76,606.387 1648.71,606.387 1666.66,606.387 1684.62,606.387 1702.57,606.387 1720.52,606.387 1738.48,606.387 1756.43,606.387 1774.38,606.387 1792.34,606.387 1810.29,606.387 1828.25,606.387 1846.2,606.387 1864.15,606.387 1882.11,606.387 1900.06,606.387 1918.01,606.387 1935.97,606.387 1953.92,606.387 1971.87,606.387 1989.83,606.387 2007.78,606.387 2025.73,606.387 2043.69,606.387 2043.69,625.097 2043.69,643.806 2043.69,662.515 2043.69,681.225 2043.69,699.934 2043.69,718.643 2043.69,737.353 2043.69,756.062 2043.69,774.771 2043.69,793.481 2043.69,812.19 2043.69,830.899 2043.69,849.609 2043.69,868.318 2043.69,869.791 2025.73,869.901 2007.78,870.014 1989.83,870.13 1971.87,870.249 1953.92,870.372 1935.97,870.498 1918.01,870.627 1900.06,870.761 1882.11,870.898 1864.15,871.039 1846.2,871.184 1828.25,871.333 1810.29,871.487 1792.34,871.645 1774.38,871.808 1756.43,871.976 1738.48,872.149 1720.52,872.326 1702.57,872.51 1684.62,872.698 1666.66,872.893 1648.71,873.093 1630.76,873.299 1612.8,873.512 1594.85,873.731 1576.9,873.957 1558.94,874.19 1540.99,874.43 1523.04,874.678 1505.08,874.933 1487.13,875.196 1469.18,875.468 1451.22,875.748 1433.27,876.037 1415.32,876.335 1397.36,876.642 1379.41,876.96 1361.46,877.287 1343.5,877.624 1325.55,877.973 1307.6,878.332 1289.64,878.703 1271.69,879.085 1253.74,879.48 1235.78,879.887 1217.83,880.307 1199.88,880.74 1181.92,881.187 1163.97,881.648 1146.02,882.123 1128.06,882.612 1110.11,883.117 1092.16,883.637 1074.2,884.173 1056.25,884.725 1038.29,885.293 1020.34,885.878 1002.39,886.48 986.48,887.027 984.435,887.471 966.481,891.402 948.528,895.482 930.574,899.717 912.621,904.108 906.058,905.737 894.668,908.706 876.714,913.499 858.761,918.46 840.807,923.592 837.834,924.446 822.854,928.987 804.901,934.578 786.947,940.344 778.305,943.155 768.994,946.365 751.04,952.636 733.087,959.081 725.385,961.865 715.133,961.865 697.18,961.865 679.227,961.865 661.273,961.865 643.32,961.865 625.366,961.865 607.413,961.865 589.46,961.865 571.506,961.865 553.553,961.865 535.599,961.865 517.646,961.865 499.692,961.865 481.739,961.865 463.786,961.865 445.832,961.865 427.879,961.865 409.925,961.865 391.972,961.865 374.019,961.865 356.065,961.865 338.112,961.865 320.158,961.865 302.205,961.865 284.251,961.865 266.298,961.865 266.298,943.155 266.298,924.446 266.298,905.737 266.298,887.027 266.298,868.318 266.298,849.609 266.298,830.899 266.298,812.19 266.298,793.481 266.298,774.771 266.298,756.062 266.298,737.353 266.298,718.643 266.298,699.934 266.298,681.225 266.298,662.515 266.298,643.806 266.298,625.097 266.298,606.387 "/>
<polyline clip-path="url(#clip512)" style="stroke:#30123b; stroke-linecap:round; stroke-linejoin:round; stroke-width:4; stroke-opacity:1; fill:none" points="733.087,606.387 751.04,606.387 768.994,606.387 786.947,606.387 804.901,606.387 822.854,606.387 840.807,606.387 858.761,606.387 876.714,606.387 894.668,606.387 912.621,606.387 930.574,606.387 948.528,606.387 966.481,606.387 984.435,606.387 1002.39,606.387 1020.34,606.387 1038.29,606.387 1056.25,606.387 1074.2,606.387 1092.16,606.387 1110.11,606.387 1128.06,606.387 1146.02,606.387 1163.97,606.387 1181.92,606.387 1199.88,606.387 1217.83,606.387 1235.78,606.387 1253.74,606.387 1271.69,606.387 1289.64,606.387 1307.6,606.387 1325.55,606.387 1343.5,606.387 1361.46,606.387 1379.41,606.387 1397.36,606.387 1415.32,606.387 1433.27,606.387 1451.22,606.387 1469.18,606.387 1487.13,606.387 1505.08,606.387 1523.04,606.387 1540.99,606.387 1558.94,606.387 1576.9,606.387 1594.85,606.387 1612.8,606.387 1630.76,606.387 1648.71,606.387 1666.66,606.387 1684.62,606.387 1702.57,606.387 1720.52,606.387 1738.48,606.387 1756.43,606.387 1774.38,606.387 1792.34,606.387 1810.29,606.387 1828.25,606.387 1846.2,606.387 1864.15,606.387 1882.11,606.387 1900.06,606.387 1918.01,606.387 1935.97,606.387 1953.92,606.387 1971.87,606.387 1989.83,606.387 2007.78,606.387 2025.73,606.387 2043.69,606.387 2043.69,625.097 2043.69,643.806 2043.69,662.515 2043.69,681.225 2043.69,698.256 2025.73,698.144 2007.78,698.028 1989.83,697.91 1971.87,697.788 1953.92,697.663 1935.97,697.535 1918.01,697.403 1900.06,697.267 1882.11,697.128 1864.15,696.984 1846.2,696.837 1828.25,696.685 1810.29,696.529 1792.34,696.368 1774.38,696.203 1756.43,696.033 1738.48,695.858 1720.52,695.678 1702.57,695.493 1684.62,695.302 1666.66,695.105 1648.71,694.903 1630.76,694.694 1612.8,694.48 1594.85,694.258 1576.9,694.031 1558.94,693.796 1540.99,693.554 1523.04,693.305 1505.08,693.048 1487.13,692.783 1469.18,692.51 1451.22,692.229 1433.27,691.939 1415.32,691.64 1397.36,691.332 1379.41,691.015 1361.46,690.687 1343.5,690.349 1325.55,690.001 1307.6,689.642 1289.64,689.272 1271.69,688.891 1253.74,688.498 1235.78,688.092 1217.83,687.674 1199.88,687.244 1181.92,686.8 1163.97,686.342 1146.02,685.871 1128.06,685.386 1110.11,684.886 1092.16,684.371 1074.2,683.841 1056.25,683.295 1038.29,682.734 1020.34,682.156 1002.39,681.563 992.318,681.225 984.435,679.504 966.481,675.509 948.528,671.36 930.574,667.055 912.621,662.589 912.325,662.515 894.668,657.886 876.714,653.011 858.761,647.963 844.371,643.806 840.807,642.72 822.854,637.21 804.901,631.52 786.947,625.649 785.259,625.097 768.994,619.459 751.04,613.072 733.087,606.508 732.755,606.387 715.133,606.387 733.087,606.387 "/>
<polyline clip-path="url(#clip512)" style="stroke:#30123b; stroke-linecap:round; stroke-linejoin:round; stroke-width:4; stroke-opacity:1; fill:none" points="1433.27,606.387 1451.22,606.387 1469.18,606.387 1487.13,606.387 1505.08,606.387 1523.04,606.387 1540.99,606.387 1558.94,606.387 1576.9,606.387 1594.85,606.387 1612.8,606.387 1630.76,606.387 1648.71,606.387 1666.66,606.387 1684.62,606.387 1702.57,606.387 1720.52,606.387 1738.48,606.387 1756.43,606.387 1774.38,606.387 1792.34,606.387 1810.29,606.387 1828.25,606.387 1846.2,606.387 1864.15,606.387 1882.11,606.387 1900.06,606.387 1918.01,606.387 1935.97,606.387 1953.92,606.387 1971.87,606.387 1989.83,606.387 2007.78,606.387 2025.73,606.387 2043.69,606.387 2043.69,625.097 2043.69,643.806 2043.69,662.515 2043.69,681.225 2043.69,687.799 2025.73,687.466 2007.78,687.124 1989.83,686.773 1971.87,686.412 1953.92,686.042 1935.97,685.661 1918.01,685.269 1900.06,684.867 1882.11,684.453 1864.15,684.027 1846.2,683.59 1828.25,683.139 1810.29,682.676 1792.34,682.2 1774.38,681.709 1757.12,681.225 1756.43,681.12 1738.48,678.336 1720.52,675.457 1702.57,672.479 1684.62,669.397 1666.66,666.208 1648.71,662.906 1646.61,662.515 1630.76,659.465 1612.8,655.898 1594.85,652.202 1576.9,648.372 1558.94,644.403 1556.28,643.806 1540.99,640.255 1523.04,635.947 1505.08,631.478 1487.13,626.84 1480.51,625.097 1469.18,621.991 1451.22,616.936 1433.27,611.684 1415.82,606.387 1415.32,606.387 1433.27,606.387 "/>
<polyline clip-path="url(#clip512)" style="stroke:#30123b; stroke-linecap:round; stroke-linejoin:round; stroke-width:4; stroke-opacity:1; fill:none" points="1792.34,606.387 1810.29,606.387 1828.25,606.387 1846.2,606.387 1864.15,606.387 1882.11,606.387 1900.06,606.387 1918.01,606.387 1935.97,606.387 1953.92,606.387 1971.87,606.387 1989.83,606.387 2007.78,606.387 2025.73,606.387 2043.69,606.387 2043.69,625.097 2043.69,643.806 2043.69,661.118 2025.73,658.2 2007.78,655.193 1989.83,652.092 1971.87,648.894 1953.92,645.596 1944.37,643.806 1935.97,642.183 1918.01,638.65 1900.06,635.002 1882.11,631.236 1864.15,627.346 1853.99,625.097 1846.2,623.315 1828.25,619.131 1810.29,614.806 1792.34,610.336 1776.95,606.387 1774.38,606.387 1792.34,606.387 "/>
<polyline clip-path="url(#clip512)" style="stroke:#ff00ff; stroke-linecap:round; stroke-linejoin:round; stroke-width:4; stroke-opacity:1; fill:none" points="266.298,872.995 2043.69,872.995 "/>
<polyline clip-path="url(#clip512)" style="stroke:#ff00ff; stroke-linecap:round; stroke-linejoin:round; stroke-width:4; stroke-opacity:1; fill:none" points="266.298,695.257 2043.69,695.257 "/>
<defs>
  <clipPath id="clip513">
    <rect x="2145" y="144" width="73" height="1280"/>
  </clipPath>
</defs>
<path clip-path="url(#clip513)" d="M2145.01 1423.78 L2217.01 1423.78 L2217.01 1241.02 L2145.01 1241.02  Z" fill="#30123b" fill-rule="evenodd" fill-opacity="1"/>
<path clip-path="url(#clip513)" d="M2145.01 1241.02 L2217.01 1241.02 L2217.01 1058.26 L2145.01 1058.26  Z" fill="#4584f9" fill-rule="evenodd" fill-opacity="1"/>
<path clip-path="url(#clip513)" d="M2145.01 1058.26 L2217.01 1058.26 L2217.01 875.505 L2145.01 875.505  Z" fill="#1ae4b6" fill-rule="evenodd" fill-opacity="1"/>
<path clip-path="url(#clip513)" d="M2145.01 875.505 L2217.01 875.505 L2217.01 692.747 L2145.01 692.747  Z" fill="#a4fc3b" fill-rule="evenodd" fill-opacity="1"/>
<path clip-path="url(#clip513)" d="M2145.01 692.747 L2217.01 692.747 L2217.01 509.99 L2145.01 509.99  Z" fill="#f9ba38" fill-rule="evenodd" fill-opacity="1"/>
<path clip-path="url(#clip513)" d="M2145.01 509.99 L2217.01 509.99 L2217.01 327.232 L2145.01 327.232  Z" fill="#e5460a" fill-rule="evenodd" fill-opacity="1"/>
<path clip-path="url(#clip513)" d="M2145.01 327.232 L2217.01 327.232 L2217.01 144.475 L2145.01 144.475  Z" fill="#7a0402" fill-rule="evenodd" fill-opacity="1"/>
<path clip-path="url(#clip510)" d="M2253.01 1308.62 L2282.68 1308.62 L2282.68 1312.55 L2253.01 1312.55 L2253.01 1308.62 Z" fill="#000000" fill-rule="nonzero" fill-opacity="1" /><path clip-path="url(#clip510)" d="M2306.94 1306.81 Q2310.3 1307.53 2312.17 1309.8 Q2314.07 1312.07 2314.07 1315.4 Q2314.07 1320.52 2310.55 1323.32 Q2307.04 1326.12 2300.55 1326.12 Q2298.38 1326.12 2296.06 1325.68 Q2293.77 1325.26 2291.32 1324.41 L2291.32 1319.89 Q2293.26 1321.03 2295.58 1321.61 Q2297.89 1322.18 2300.42 1322.18 Q2304.81 1322.18 2307.1 1320.45 Q2309.42 1318.71 2309.42 1315.4 Q2309.42 1312.35 2307.27 1310.63 Q2305.14 1308.9 2301.32 1308.9 L2297.29 1308.9 L2297.29 1305.06 L2301.5 1305.06 Q2304.95 1305.06 2306.78 1303.69 Q2308.61 1302.3 2308.61 1299.71 Q2308.61 1297.05 2306.71 1295.63 Q2304.84 1294.2 2301.32 1294.2 Q2299.4 1294.2 2297.2 1294.62 Q2295 1295.03 2292.36 1295.91 L2292.36 1291.74 Q2295.02 1291 2297.34 1290.63 Q2299.67 1290.26 2301.73 1290.26 Q2307.06 1290.26 2310.16 1292.69 Q2313.26 1295.1 2313.26 1299.22 Q2313.26 1302.09 2311.62 1304.08 Q2309.98 1306.05 2306.94 1306.81 Z" fill="#000000" fill-rule="nonzero" fill-opacity="1" /><path clip-path="url(#clip510)" d="M2332.94 1293.97 Q2329.33 1293.97 2327.5 1297.53 Q2325.69 1301.07 2325.69 1308.2 Q2325.69 1315.31 2327.5 1318.87 Q2329.33 1322.42 2332.94 1322.42 Q2336.57 1322.42 2338.38 1318.87 Q2340.21 1315.31 2340.21 1308.2 Q2340.21 1301.07 2338.38 1297.53 Q2336.57 1293.97 2332.94 1293.97 M2332.94 1290.26 Q2338.75 1290.26 2341.8 1294.87 Q2344.88 1299.45 2344.88 1308.2 Q2344.88 1316.93 2341.8 1321.54 Q2338.75 1326.12 2332.94 1326.12 Q2327.13 1326.12 2324.05 1321.54 Q2320.99 1316.93 2320.99 1308.2 Q2320.99 1299.45 2324.05 1294.87 Q2327.13 1290.26 2332.94 1290.26 Z" fill="#000000" fill-rule="nonzero" fill-opacity="1" /><path clip-path="url(#clip510)" d="M2363.1 1293.97 Q2359.49 1293.97 2357.66 1297.53 Q2355.85 1301.07 2355.85 1308.2 Q2355.85 1315.31 2357.66 1318.87 Q2359.49 1322.42 2363.1 1322.42 Q2366.73 1322.42 2368.54 1318.87 Q2370.37 1315.31 2370.37 1308.2 Q2370.37 1301.07 2368.54 1297.53 Q2366.73 1293.97 2363.1 1293.97 M2363.1 1290.26 Q2368.91 1290.26 2371.97 1294.87 Q2375.04 1299.45 2375.04 1308.2 Q2375.04 1316.93 2371.97 1321.54 Q2368.91 1326.12 2363.1 1326.12 Q2357.29 1326.12 2354.21 1321.54 Q2351.16 1316.93 2351.16 1308.2 Q2351.16 1299.45 2354.21 1294.87 Q2357.29 1290.26 2363.1 1290.26 Z" fill="#000000" fill-rule="nonzero" fill-opacity="1" /><path clip-path="url(#clip510)" d="M2253.01 1133.05 L2282.68 1133.05 L2282.68 1136.99 L2253.01 1136.99 L2253.01 1133.05 Z" fill="#000000" fill-rule="nonzero" fill-opacity="1" /><path clip-path="url(#clip510)" d="M2296.8 1145.95 L2313.12 1145.95 L2313.12 1149.88 L2291.18 1149.88 L2291.18 1145.95 Q2293.84 1143.19 2298.42 1138.56 Q2303.03 1133.91 2304.21 1132.57 Q2306.46 1130.04 2307.34 1128.31 Q2308.24 1126.55 2308.24 1124.86 Q2308.24 1122.1 2306.29 1120.37 Q2304.37 1118.63 2301.27 1118.63 Q2299.07 1118.63 2296.62 1119.4 Q2294.19 1120.16 2291.41 1121.71 L2291.41 1116.99 Q2294.23 1115.85 2296.69 1115.28 Q2299.14 1114.7 2301.18 1114.7 Q2306.55 1114.7 2309.74 1117.38 Q2312.94 1120.07 2312.94 1124.56 Q2312.94 1126.69 2312.13 1128.61 Q2311.34 1130.51 2309.23 1133.1 Q2308.66 1133.77 2305.55 1136.99 Q2302.45 1140.18 2296.8 1145.95 Z" fill="#000000" fill-rule="nonzero" fill-opacity="1" /><path clip-path="url(#clip510)" d="M2332.94 1118.4 Q2329.33 1118.4 2327.5 1121.97 Q2325.69 1125.51 2325.69 1132.64 Q2325.69 1139.74 2327.5 1143.31 Q2329.33 1146.85 2332.94 1146.85 Q2336.57 1146.85 2338.38 1143.31 Q2340.21 1139.74 2340.21 1132.64 Q2340.21 1125.51 2338.38 1121.97 Q2336.57 1118.4 2332.94 1118.4 M2332.94 1114.7 Q2338.75 1114.7 2341.8 1119.3 Q2344.88 1123.89 2344.88 1132.64 Q2344.88 1141.36 2341.8 1145.97 Q2338.75 1150.55 2332.94 1150.55 Q2327.13 1150.55 2324.05 1145.97 Q2320.99 1141.36 2320.99 1132.64 Q2320.99 1123.89 2324.05 1119.3 Q2327.13 1114.7 2332.94 1114.7 Z" fill="#000000" fill-rule="nonzero" fill-opacity="1" /><path clip-path="url(#clip510)" d="M2363.1 1118.4 Q2359.49 1118.4 2357.66 1121.97 Q2355.85 1125.51 2355.85 1132.64 Q2355.85 1139.74 2357.66 1143.31 Q2359.49 1146.85 2363.1 1146.85 Q2366.73 1146.85 2368.54 1143.31 Q2370.37 1139.74 2370.37 1132.64 Q2370.37 1125.51 2368.54 1121.97 Q2366.73 1118.4 2363.1 1118.4 M2363.1 1114.7 Q2368.91 1114.7 2371.97 1119.3 Q2375.04 1123.89 2375.04 1132.64 Q2375.04 1141.36 2371.97 1145.97 Q2368.91 1150.55 2363.1 1150.55 Q2357.29 1150.55 2354.21 1145.97 Q2351.16 1141.36 2351.16 1132.64 Q2351.16 1123.89 2354.21 1119.3 Q2357.29 1114.7 2363.1 1114.7 Z" fill="#000000" fill-rule="nonzero" fill-opacity="1" /><path clip-path="url(#clip510)" d="M2253.01 957.488 L2282.68 957.488 L2282.68 961.423 L2253.01 961.423 L2253.01 957.488 Z" fill="#000000" fill-rule="nonzero" fill-opacity="1" /><path clip-path="url(#clip510)" d="M2293.59 970.381 L2301.23 970.381 L2301.23 944.015 L2292.92 945.682 L2292.92 941.423 L2301.18 939.756 L2305.85 939.756 L2305.85 970.381 L2313.49 970.381 L2313.49 974.316 L2293.59 974.316 L2293.59 970.381 Z" fill="#000000" fill-rule="nonzero" fill-opacity="1" /><path clip-path="url(#clip510)" d="M2332.94 942.835 Q2329.33 942.835 2327.5 946.4 Q2325.69 949.941 2325.69 957.071 Q2325.69 964.177 2327.5 967.742 Q2329.33 971.284 2332.94 971.284 Q2336.57 971.284 2338.38 967.742 Q2340.21 964.177 2340.21 957.071 Q2340.21 949.941 2338.38 946.4 Q2336.57 942.835 2332.94 942.835 M2332.94 939.131 Q2338.75 939.131 2341.8 943.738 Q2344.88 948.321 2344.88 957.071 Q2344.88 965.798 2341.8 970.404 Q2338.75 974.988 2332.94 974.988 Q2327.13 974.988 2324.05 970.404 Q2320.99 965.798 2320.99 957.071 Q2320.99 948.321 2324.05 943.738 Q2327.13 939.131 2332.94 939.131 Z" fill="#000000" fill-rule="nonzero" fill-opacity="1" /><path clip-path="url(#clip510)" d="M2363.1 942.835 Q2359.49 942.835 2357.66 946.4 Q2355.85 949.941 2355.85 957.071 Q2355.85 964.177 2357.66 967.742 Q2359.49 971.284 2363.1 971.284 Q2366.73 971.284 2368.54 967.742 Q2370.37 964.177 2370.37 957.071 Q2370.37 949.941 2368.54 946.4 Q2366.73 942.835 2363.1 942.835 M2363.1 939.131 Q2368.91 939.131 2371.97 943.738 Q2375.04 948.321 2375.04 957.071 Q2375.04 965.798 2371.97 970.404 Q2368.91 974.988 2363.1 974.988 Q2357.29 974.988 2354.21 970.404 Q2351.16 965.798 2351.16 957.071 Q2351.16 948.321 2354.21 943.738 Q2357.29 939.131 2363.1 939.131 Z" fill="#000000" fill-rule="nonzero" fill-opacity="1" /><path clip-path="url(#clip510)" d="M2264.95 767.269 Q2261.34 767.269 2259.51 770.834 Q2257.71 774.375 2257.71 781.505 Q2257.71 788.611 2259.51 792.176 Q2261.34 795.718 2264.95 795.718 Q2268.59 795.718 2270.39 792.176 Q2272.22 788.611 2272.22 781.505 Q2272.22 774.375 2270.39 770.834 Q2268.59 767.269 2264.95 767.269 M2264.95 763.565 Q2270.76 763.565 2273.82 768.172 Q2276.9 772.755 2276.9 781.505 Q2276.9 790.232 2273.82 794.838 Q2270.76 799.421 2264.95 799.421 Q2259.14 799.421 2256.06 794.838 Q2253.01 790.232 2253.01 781.505 Q2253.01 772.755 2256.06 768.172 Q2259.14 763.565 2264.95 763.565 Z" fill="#000000" fill-rule="nonzero" fill-opacity="1" /><path clip-path="url(#clip510)" d="M2253.68 619.249 L2261.32 619.249 L2261.32 592.883 L2253.01 594.55 L2253.01 590.291 L2261.27 588.624 L2265.95 588.624 L2265.95 619.249 L2273.59 619.249 L2273.59 623.184 L2253.68 623.184 L2253.68 619.249 Z" fill="#000000" fill-rule="nonzero" fill-opacity="1" /><path clip-path="url(#clip510)" d="M2293.03 591.703 Q2289.42 591.703 2287.59 595.267 Q2285.79 598.809 2285.79 605.939 Q2285.79 613.045 2287.59 616.61 Q2289.42 620.152 2293.03 620.152 Q2296.67 620.152 2298.47 616.61 Q2300.3 613.045 2300.3 605.939 Q2300.3 598.809 2298.47 595.267 Q2296.67 591.703 2293.03 591.703 M2293.03 587.999 Q2298.84 587.999 2301.9 592.605 Q2304.98 597.189 2304.98 605.939 Q2304.98 614.666 2301.9 619.272 Q2298.84 623.855 2293.03 623.855 Q2287.22 623.855 2284.14 619.272 Q2281.09 614.666 2281.09 605.939 Q2281.09 597.189 2284.14 592.605 Q2287.22 587.999 2293.03 587.999 Z" fill="#000000" fill-rule="nonzero" fill-opacity="1" /><path clip-path="url(#clip510)" d="M2323.19 591.703 Q2319.58 591.703 2317.75 595.267 Q2315.95 598.809 2315.95 605.939 Q2315.95 613.045 2317.75 616.61 Q2319.58 620.152 2323.19 620.152 Q2326.83 620.152 2328.63 616.61 Q2330.46 613.045 2330.46 605.939 Q2330.46 598.809 2328.63 595.267 Q2326.83 591.703 2323.19 591.703 M2323.19 587.999 Q2329 587.999 2332.06 592.605 Q2335.14 597.189 2335.14 605.939 Q2335.14 614.666 2332.06 619.272 Q2329 623.855 2323.19 623.855 Q2317.38 623.855 2314.3 619.272 Q2311.25 614.666 2311.25 605.939 Q2311.25 597.189 2314.3 592.605 Q2317.38 587.999 2323.19 587.999 Z" fill="#000000" fill-rule="nonzero" fill-opacity="1" /><path clip-path="url(#clip510)" d="M2258.63 443.683 L2274.95 443.683 L2274.95 447.618 L2253.01 447.618 L2253.01 443.683 Q2255.67 440.928 2260.25 436.299 Q2264.86 431.646 2266.04 430.303 Q2268.29 427.78 2269.17 426.044 Q2270.07 424.285 2270.07 422.595 Q2270.07 419.84 2268.12 418.104 Q2266.2 416.368 2263.1 416.368 Q2260.9 416.368 2258.45 417.132 Q2256.02 417.896 2253.24 419.447 L2253.24 414.725 Q2256.06 413.59 2258.52 413.012 Q2260.97 412.433 2263.01 412.433 Q2268.38 412.433 2271.57 415.118 Q2274.77 417.803 2274.77 422.294 Q2274.77 424.424 2273.96 426.345 Q2273.17 428.243 2271.06 430.836 Q2270.48 431.507 2267.38 434.724 Q2264.28 437.919 2258.63 443.683 Z" fill="#000000" fill-rule="nonzero" fill-opacity="1" /><path clip-path="url(#clip510)" d="M2294.77 416.137 Q2291.16 416.137 2289.33 419.701 Q2287.52 423.243 2287.52 430.373 Q2287.52 437.479 2289.33 441.044 Q2291.16 444.586 2294.77 444.586 Q2298.4 444.586 2300.21 441.044 Q2302.04 437.479 2302.04 430.373 Q2302.04 423.243 2300.21 419.701 Q2298.4 416.137 2294.77 416.137 M2294.77 412.433 Q2300.58 412.433 2303.63 417.039 Q2306.71 421.623 2306.71 430.373 Q2306.71 439.099 2303.63 443.706 Q2300.58 448.289 2294.77 448.289 Q2288.96 448.289 2285.88 443.706 Q2282.82 439.099 2282.82 430.373 Q2282.82 421.623 2285.88 417.039 Q2288.96 412.433 2294.77 412.433 Z" fill="#000000" fill-rule="nonzero" fill-opacity="1" /><path clip-path="url(#clip510)" d="M2324.93 416.137 Q2321.32 416.137 2319.49 419.701 Q2317.68 423.243 2317.68 430.373 Q2317.68 437.479 2319.49 441.044 Q2321.32 444.586 2324.93 444.586 Q2328.56 444.586 2330.37 441.044 Q2332.2 437.479 2332.2 430.373 Q2332.2 423.243 2330.37 419.701 Q2328.56 416.137 2324.93 416.137 M2324.93 412.433 Q2330.74 412.433 2333.79 417.039 Q2336.87 421.623 2336.87 430.373 Q2336.87 439.099 2333.79 443.706 Q2330.74 448.289 2324.93 448.289 Q2319.12 448.289 2316.04 443.706 Q2312.98 439.099 2312.98 430.373 Q2312.98 421.623 2316.04 417.039 Q2319.12 412.433 2324.93 412.433 Z" fill="#000000" fill-rule="nonzero" fill-opacity="1" /><path clip-path="url(#clip510)" d="M2268.63 253.418 Q2271.99 254.135 2273.86 256.404 Q2275.76 258.672 2275.76 262.006 Q2275.76 267.121 2272.24 269.922 Q2268.73 272.723 2262.24 272.723 Q2260.07 272.723 2257.75 272.283 Q2255.46 271.867 2253.01 271.01 L2253.01 266.496 Q2254.95 267.631 2257.27 268.209 Q2259.58 268.788 2262.11 268.788 Q2266.5 268.788 2268.79 267.052 Q2271.11 265.316 2271.11 262.006 Q2271.11 258.95 2268.96 257.237 Q2266.83 255.501 2263.01 255.501 L2258.98 255.501 L2258.98 251.658 L2263.19 251.658 Q2266.64 251.658 2268.47 250.293 Q2270.3 248.904 2270.3 246.311 Q2270.3 243.649 2268.4 242.237 Q2266.53 240.802 2263.01 240.802 Q2261.09 240.802 2258.89 241.219 Q2256.69 241.635 2254.05 242.515 L2254.05 238.348 Q2256.71 237.608 2259.03 237.237 Q2261.36 236.867 2263.42 236.867 Q2268.75 236.867 2271.85 239.297 Q2274.95 241.705 2274.95 245.825 Q2274.95 248.695 2273.31 250.686 Q2271.67 252.654 2268.63 253.418 Z" fill="#000000" fill-rule="nonzero" fill-opacity="1" /><path clip-path="url(#clip510)" d="M2294.63 240.57 Q2291.02 240.57 2289.19 244.135 Q2287.38 247.677 2287.38 254.807 Q2287.38 261.913 2289.19 265.478 Q2291.02 269.019 2294.63 269.019 Q2298.26 269.019 2300.07 265.478 Q2301.9 261.913 2301.9 254.807 Q2301.9 247.677 2300.07 244.135 Q2298.26 240.57 2294.63 240.57 M2294.63 236.867 Q2300.44 236.867 2303.49 241.473 Q2306.57 246.057 2306.57 254.807 Q2306.57 263.533 2303.49 268.14 Q2300.44 272.723 2294.63 272.723 Q2288.82 272.723 2285.74 268.14 Q2282.68 263.533 2282.68 254.807 Q2282.68 246.057 2285.74 241.473 Q2288.82 236.867 2294.63 236.867 Z" fill="#000000" fill-rule="nonzero" fill-opacity="1" /><path clip-path="url(#clip510)" d="M2324.79 240.57 Q2321.18 240.57 2319.35 244.135 Q2317.54 247.677 2317.54 254.807 Q2317.54 261.913 2319.35 265.478 Q2321.18 269.019 2324.79 269.019 Q2328.42 269.019 2330.23 265.478 Q2332.06 261.913 2332.06 254.807 Q2332.06 247.677 2330.23 244.135 Q2328.42 240.57 2324.79 240.57 M2324.79 236.867 Q2330.6 236.867 2333.66 241.473 Q2336.73 246.057 2336.73 254.807 Q2336.73 263.533 2333.66 268.14 Q2330.6 272.723 2324.79 272.723 Q2318.98 272.723 2315.9 268.14 Q2312.85 263.533 2312.85 254.807 Q2312.85 246.057 2315.9 241.473 Q2318.98 236.867 2324.79 236.867 Z" fill="#000000" fill-rule="nonzero" fill-opacity="1" /><polyline clip-path="url(#clip510)" style="stroke:#000000; stroke-linecap:round; stroke-linejoin:round; stroke-width:4; stroke-opacity:1; fill:none" points="2217.01,1423.78 2217.01,1311.8 2241.01,1311.8 2217.01,1311.8 2217.01,1136.23 2241.01,1136.23 2217.01,1136.23 2217.01,960.665 2241.01,960.665 2217.01,960.665 2217.01,785.099 2241.01,785.099 2217.01,785.099 2217.01,609.533 2241.01,609.533 2217.01,609.533 2217.01,433.967 2241.01,433.967 2217.01,433.967 2217.01,258.401 2241.01,258.401 2217.01,258.401 2217.01,144.475 "/>
</svg>
