<?xml version="1.0" encoding="utf-8"?>
<svg xmlns="http://www.w3.org/2000/svg" xmlns:xlink="http://www.w3.org/1999/xlink" width="600" height="400" viewBox="0 0 2400 1600">
<defs>
  <clipPath id="clip450">
    <rect x="0" y="0" width="2400" height="1600"/>
  </clipPath>
</defs>
<path clip-path="url(#clip450)" d="M0 1600 L2400 1600 L2400 0 L0 0  Z" fill="#ffffff" fill-rule="evenodd" fill-opacity="1"/>
<defs>
  <clipPath id="clip451">
    <rect x="480" y="0" width="1681" height="1600"/>
  </clipPath>
</defs>
<path clip-path="url(#clip450)" d="M212.976 1423.78 L2097.01 1423.78 L2097.01 144.475 L212.976 144.475  Z" fill="#ffffff" fill-rule="evenodd" fill-opacity="1"/>
<defs>
  <clipPath id="clip452">
    <rect x="212" y="144" width="1885" height="1280"/>
  </clipPath>
</defs>
<polyline clip-path="url(#clip452)" style="stroke:#000000; stroke-linecap:round; stroke-linejoin:round; stroke-width:2; stroke-opacity:0.1; fill:none" points="266.298,144.475 266.298,1423.78 "/>
<polyline clip-path="url(#clip452)" style="stroke:#000000; stroke-linecap:round; stroke-linejoin:round; stroke-width:2; stroke-opacity:0.1; fill:none" points="621.776,144.475 621.776,1423.78 "/>
<polyline clip-path="url(#clip452)" style="stroke:#000000; stroke-linecap:round; stroke-linejoin:round; stroke-width:2; stroke-opacity:0.1; fill:none" points="977.253,144.475 977.253,1423.78 "/>
<polyline clip-path="url(#clip452)" style="stroke:#000000; stroke-linecap:round; stroke-linejoin:round; stroke-width:2; stroke-opacity:0.1; fill:none" points="1332.73,144.475 1332.73,1423.78 "/>
<polyline clip-path="url(#clip452)" style="stroke:#000000; stroke-linecap:round; stroke-linejoin:round; stroke-width:2; stroke-opacity:0.1; fill:none" points="1688.21,144.475 1688.21,1423.78 "/>
<polyline clip-path="url(#clip452)" style="stroke:#000000; stroke-linecap:round; stroke-linejoin:round; stroke-width:2; stroke-opacity:0.1; fill:none" points="2043.69,144.475 2043.69,1423.78 "/>
<polyline clip-path="url(#clip450)" style="stroke:#000000; stroke-linecap:round; stroke-linejoin:round; stroke-width:4; stroke-opacity:1; fill:none" points="212.976,1423.78 2097.01,1423.78 "/>
<polyline clip-path="url(#clip450)" style="stroke:#000000; stroke-linecap:round; stroke-linejoin:round; stroke-width:4; stroke-opacity:1; fill:none" points="266.298,1423.78 266.298,1407.01 "/>
<polyline clip-path="url(#clip450)" style="stroke:#000000; stroke-linecap:round; stroke-linejoin:round; stroke-width:4; stroke-opacity:1; fill:none" points="621.776,1423.78 621.776,1407.01 "/>
<polyline clip-path="url(#clip450)" style="stroke:#000000; stroke-linecap:round; stroke-linejoin:round; stroke-width:4; stroke-opacity:1; fill:none" points="977.253,1423.78 977.253,1407.01 "/>
<polyline clip-path="url(#clip450)" style="stroke:#000000; stroke-linecap:round; stroke-linejoin:round; stroke-width:4; stroke-opacity:1; fill:none" points="1332.73,1423.78 1332.73,1407.01 "/>
<polyline clip-path="url(#clip450)" style="stroke:#000000; stroke-linecap:round; stroke-linejoin:round; stroke-width:4; stroke-opacity:1; fill:none" points="1688.21,1423.78 1688.21,1407.01 "/>
<polyline clip-path="url(#clip450)" style="stroke:#000000; stroke-linecap:round; stroke-linejoin:round; stroke-width:4; stroke-opacity:1; fill:none" points="2043.69,1423.78 2043.69,1407.01 "/>
<path clip-path="url(#clip450)" d="M266.298 1454.7 Q262.687 1454.7 260.858 1458.26 Q259.053 1461.8 259.053 1468.93 Q259.053 1476.04 260.858 1479.6 Q262.687 1483.14 266.298 1483.14 Q269.932 1483.14 271.738 1479.6 Q273.567 1476.04 273.567 1468.93 Q273.567 1461.8 271.738 1458.26 Q269.932 1454.7 266.298 1454.7 M266.298 1450.99 Q272.108 1450.99 275.164 1455.6 Q278.242 1460.18 278.242 1468.93 Q278.242 1477.66 275.164 1482.26 Q272.108 1486.85 266.298 1486.85 Q260.488 1486.85 257.409 1482.26 Q254.354 1477.66 254.354 1468.93 Q254.354 1460.18 257.409 1455.6 Q260.488 1450.99 266.298 1450.99 Z" fill="#000000" fill-rule="nonzero" fill-opacity="1" /><path clip-path="url(#clip450)" d="M612.158 1482.24 L619.797 1482.24 L619.797 1455.88 L611.486 1457.54 L611.486 1453.28 L619.75 1451.62 L624.426 1451.62 L624.426 1482.24 L632.065 1482.24 L632.065 1486.18 L612.158 1486.18 L612.158 1482.24 Z" fill="#000000" fill-rule="nonzero" fill-opacity="1" /><path clip-path="url(#clip450)" d="M971.906 1482.24 L988.225 1482.24 L988.225 1486.18 L966.281 1486.18 L966.281 1482.24 Q968.943 1479.49 973.526 1474.86 Q978.133 1470.2 979.313 1468.86 Q981.559 1466.34 982.438 1464.6 Q983.341 1462.84 983.341 1461.15 Q983.341 1458.4 981.397 1456.66 Q979.476 1454.93 976.374 1454.93 Q974.175 1454.93 971.721 1455.69 Q969.29 1456.45 966.513 1458.01 L966.513 1453.28 Q969.337 1452.15 971.79 1451.57 Q974.244 1450.99 976.281 1450.99 Q981.651 1450.99 984.846 1453.68 Q988.04 1456.36 988.04 1460.85 Q988.04 1462.98 987.23 1464.9 Q986.443 1466.8 984.337 1469.39 Q983.758 1470.07 980.656 1473.28 Q977.554 1476.48 971.906 1482.24 Z" fill="#000000" fill-rule="nonzero" fill-opacity="1" /><path clip-path="url(#clip450)" d="M1336.98 1467.54 Q1340.34 1468.26 1342.21 1470.53 Q1344.11 1472.8 1344.11 1476.13 Q1344.11 1481.25 1340.59 1484.05 Q1337.07 1486.85 1330.59 1486.85 Q1328.41 1486.85 1326.1 1486.41 Q1323.81 1485.99 1321.35 1485.14 L1321.35 1480.62 Q1323.3 1481.76 1325.61 1482.33 Q1327.93 1482.91 1330.45 1482.91 Q1334.85 1482.91 1337.14 1481.18 Q1339.46 1479.44 1339.46 1476.13 Q1339.46 1473.08 1337.3 1471.36 Q1335.17 1469.63 1331.35 1469.63 L1327.33 1469.63 L1327.33 1465.78 L1331.54 1465.78 Q1334.99 1465.78 1336.82 1464.42 Q1338.65 1463.03 1338.65 1460.44 Q1338.65 1457.77 1336.75 1456.36 Q1334.87 1454.93 1331.35 1454.93 Q1329.43 1454.93 1327.23 1455.34 Q1325.03 1455.76 1322.4 1456.64 L1322.4 1452.47 Q1325.06 1451.73 1327.37 1451.36 Q1329.71 1450.99 1331.77 1450.99 Q1337.09 1450.99 1340.2 1453.42 Q1343.3 1455.83 1343.3 1459.95 Q1343.3 1462.82 1341.65 1464.81 Q1340.01 1466.78 1336.98 1467.54 Z" fill="#000000" fill-rule="nonzero" fill-opacity="1" /><path clip-path="url(#clip450)" d="M1691.22 1455.69 L1679.41 1474.14 L1691.22 1474.14 L1691.22 1455.69 M1689.99 1451.62 L1695.87 1451.62 L1695.87 1474.14 L1700.8 1474.14 L1700.8 1478.03 L1695.87 1478.03 L1695.87 1486.18 L1691.22 1486.18 L1691.22 1478.03 L1675.62 1478.03 L1675.62 1473.52 L1689.99 1451.62 Z" fill="#000000" fill-rule="nonzero" fill-opacity="1" /><path clip-path="url(#clip450)" d="M2033.96 1451.62 L2052.32 1451.62 L2052.32 1455.55 L2038.25 1455.55 L2038.25 1464.02 Q2039.26 1463.68 2040.28 1463.52 Q2041.3 1463.33 2042.32 1463.33 Q2048.11 1463.33 2051.49 1466.5 Q2054.87 1469.67 2054.87 1475.09 Q2054.87 1480.67 2051.39 1483.77 Q2047.92 1486.85 2041.6 1486.85 Q2039.43 1486.85 2037.16 1486.48 Q2034.91 1486.11 2032.51 1485.37 L2032.51 1480.67 Q2034.59 1481.8 2036.81 1482.36 Q2039.03 1482.91 2041.51 1482.91 Q2045.51 1482.91 2047.85 1480.81 Q2050.19 1478.7 2050.19 1475.09 Q2050.19 1471.48 2047.85 1469.37 Q2045.51 1467.27 2041.51 1467.27 Q2039.64 1467.27 2037.76 1467.68 Q2035.91 1468.1 2033.96 1468.98 L2033.96 1451.62 Z" fill="#000000" fill-rule="nonzero" fill-opacity="1" /><path clip-path="url(#clip450)" d="M1171.61 1532.99 L1158.72 1550.34 L1172.28 1568.64 L1165.37 1568.64 L1154.99 1554.64 L1144.62 1568.64 L1137.71 1568.64 L1151.55 1549.99 L1138.89 1532.99 L1145.79 1532.99 L1155.25 1545.69 L1164.7 1532.99 L1171.61 1532.99 Z" fill="#000000" fill-rule="nonzero" fill-opacity="1" /><polyline clip-path="url(#clip452)" style="stroke:#000000; stroke-linecap:round; stroke-linejoin:round; stroke-width:2; stroke-opacity:0.1; fill:none" points="212.976,339.779 2097.01,339.779 "/>
<polyline clip-path="url(#clip452)" style="stroke:#000000; stroke-linecap:round; stroke-linejoin:round; stroke-width:2; stroke-opacity:0.1; fill:none" points="212.976,695.257 2097.01,695.257 "/>
<polyline clip-path="url(#clip452)" style="stroke:#000000; stroke-linecap:round; stroke-linejoin:round; stroke-width:2; stroke-opacity:0.1; fill:none" points="212.976,1050.73 2097.01,1050.73 "/>
<polyline clip-path="url(#clip452)" style="stroke:#000000; stroke-linecap:round; stroke-linejoin:round; stroke-width:2; stroke-opacity:0.1; fill:none" points="212.976,1406.21 2097.01,1406.21 "/>
<polyline clip-path="url(#clip450)" style="stroke:#000000; stroke-linecap:round; stroke-linejoin:round; stroke-width:4; stroke-opacity:1; fill:none" points="212.976,144.475 212.976,1423.78 "/>
<polyline clip-path="url(#clip450)" style="stroke:#000000; stroke-linecap:round; stroke-linejoin:round; stroke-width:4; stroke-opacity:1; fill:none" points="212.976,339.779 229.739,339.779 "/>
<polyline clip-path="url(#clip450)" style="stroke:#000000; stroke-linecap:round; stroke-linejoin:round; stroke-width:4; stroke-opacity:1; fill:none" points="212.976,695.257 229.739,695.257 "/>
<polyline clip-path="url(#clip450)" style="stroke:#000000; stroke-linecap:round; stroke-linejoin:round; stroke-width:4; stroke-opacity:1; fill:none" points="212.976,1050.73 229.739,1050.73 "/>
<polyline clip-path="url(#clip450)" style="stroke:#000000; stroke-linecap:round; stroke-linejoin:round; stroke-width:4; stroke-opacity:1; fill:none" points="212.976,1406.21 229.739,1406.21 "/>
<path clip-path="url(#clip450)" d="M116.491 340.23 L146.166 340.23 L146.166 344.165 L116.491 344.165 L116.491 340.23 Z" fill="#000000" fill-rule="nonzero" fill-opacity="1" /><path clip-path="url(#clip450)" d="M157.069 353.124 L164.708 353.124 L164.708 326.758 L156.398 328.425 L156.398 324.166 L164.662 322.499 L169.338 322.499 L169.338 353.124 L176.976 353.124 L176.976 357.059 L157.069 357.059 L157.069 353.124 Z" fill="#000000" fill-rule="nonzero" fill-opacity="1" /><path clip-path="url(#clip450)" d="M165.032 681.055 Q161.421 681.055 159.592 684.62 Q157.787 688.162 157.787 695.291 Q157.787 702.398 159.592 705.963 Q161.421 709.504 165.032 709.504 Q168.666 709.504 170.472 705.963 Q172.3 702.398 172.3 695.291 Q172.3 688.162 170.472 684.62 Q168.666 681.055 165.032 681.055 M165.032 677.352 Q170.842 677.352 173.898 681.958 Q176.976 686.541 176.976 695.291 Q176.976 704.018 173.898 708.625 Q170.842 713.208 165.032 713.208 Q159.222 713.208 156.143 708.625 Q153.088 704.018 153.088 695.291 Q153.088 686.541 156.143 681.958 Q159.222 677.352 165.032 677.352 Z" fill="#000000" fill-rule="nonzero" fill-opacity="1" /><path clip-path="url(#clip450)" d="M157.069 1064.08 L164.708 1064.08 L164.708 1037.71 L156.398 1039.38 L156.398 1035.12 L164.662 1033.45 L169.338 1033.45 L169.338 1064.08 L176.976 1064.08 L176.976 1068.01 L157.069 1068.01 L157.069 1064.08 Z" fill="#000000" fill-rule="nonzero" fill-opacity="1" /><path clip-path="url(#clip450)" d="M160.657 1419.56 L176.976 1419.56 L176.976 1423.49 L155.032 1423.49 L155.032 1419.56 Q157.694 1416.8 162.277 1412.17 Q166.884 1407.52 168.064 1406.18 Q170.31 1403.65 171.189 1401.92 Q172.092 1400.16 172.092 1398.47 Q172.092 1395.71 170.148 1393.98 Q168.226 1392.24 165.125 1392.24 Q162.926 1392.24 160.472 1393.01 Q158.041 1393.77 155.264 1395.32 L155.264 1390.6 Q158.088 1389.46 160.541 1388.89 Q162.995 1388.31 165.032 1388.31 Q170.402 1388.31 173.597 1390.99 Q176.791 1393.68 176.791 1398.17 Q176.791 1400.3 175.981 1402.22 Q175.194 1404.12 173.088 1406.71 Q172.509 1407.38 169.407 1410.6 Q166.305 1413.79 160.657 1419.56 Z" fill="#000000" fill-rule="nonzero" fill-opacity="1" /><path clip-path="url(#clip450)" d="M69.5448 782.439 Q75.9105 784.922 77.852 787.277 Q79.7935 789.632 79.7935 793.579 L79.7935 798.258 L74.892 798.258 L74.892 794.82 Q74.892 792.401 73.7461 791.065 Q72.6003 789.728 68.3353 788.105 L65.6617 787.054 L30.5866 801.473 L30.5866 795.266 L58.4684 784.126 L30.5866 772.986 L30.5866 766.779 L69.5448 782.439 Z" fill="#000000" fill-rule="nonzero" fill-opacity="1" /><path clip-path="url(#clip450)" d="M1117.87 54.671 L1117.87 27.2059 L1125.32 27.2059 L1125.32 54.3874 Q1125.32 60.8284 1127.83 64.0691 Q1130.34 67.2693 1135.37 67.2693 Q1141.4 67.2693 1144.89 63.421 Q1148.41 59.5726 1148.41 52.9291 L1148.41 27.2059 L1155.86 27.2059 L1155.86 72.576 L1148.41 72.576 L1148.41 65.6084 Q1145.7 69.7404 1142.09 71.7658 Q1138.53 73.7508 1133.79 73.7508 Q1125.97 73.7508 1121.92 68.8897 Q1117.87 64.0286 1117.87 54.671 M1136.62 26.1121 L1136.62 26.1121 Z" fill="#000000" fill-rule="nonzero" fill-opacity="1" /><path clip-path="url(#clip450)" d="M1169.72 68.12 L1177.98 68.12 L1177.98 43.369 L1168.95 45.0299 L1168.95 40.3308 L1178.26 38.7509 L1183.81 38.7509 L1183.81 68.12 L1192.12 68.12 L1192.12 72.576 L1169.72 72.576 L1169.72 68.12 Z" fill="#000000" fill-rule="nonzero" fill-opacity="1" /><path clip-path="url(#clip452)" d="M266.298 606.387 L266.298 606.387 L284.251 606.387 L302.205 606.387 L320.158 606.387 L338.112 606.387 L356.065 606.387 L374.019 606.387 L391.972 606.387 L409.925 606.387 L427.879 606.387 L445.832 606.387 L463.786 606.387 L481.739 606.387 L499.692 606.387 L517.646 606.387 L535.599 606.387 L553.553 606.387 L571.506 606.387 L589.46 606.387 L607.413 606.387 L625.366 606.387 L643.32 606.387 L661.273 606.387 L679.227 606.387 L697.18 606.387 L715.133 606.387 L733.087 606.387 L751.04 606.387 L768.994 606.387 L786.947 606.387 L804.901 606.387 L822.854 606.387 L840.807 606.387 L858.761 606.387 L876.714 606.387 L894.668 606.387 L912.621 606.387 L930.574 606.387 L948.528 606.387 L966.481 606.387 L984.435 606.387 L1002.39 606.387 L1020.34 606.387 L1038.29 606.387 L1056.25 606.387 L1074.2 606.387 L1092.16 606.387 L1110.11 606.387 L1128.06 606.387 L1146.02 606.387 L1163.97 606.387 L1181.92 606.387 L1199.88 606.387 L1217.83 606.387 L1235.78 606.387 L1253.74 606.387 L1271.69 606.387 L1289.64 606.387 L1307.6 606.387 L1325.55 606.387 L1343.5 606.387 L1361.46 606.387 L1379.41 606.387 L1397.36 606.387 L1415.32 606.387 L1433.27 606.387 L1451.22 606.387 L1469.18 606.387 L1487.13 606.387 L1505.08 606.387 L1523.04 606.387 L1540.99 606.387 L1558.94 606.387 L1576.9 606.387 L1594.85 606.387 L1612.8 606.387 L1630.76 606.387 L1648.71 606.387 L1666.66 606.387 L1684.62 606.387 L1702.57 606.387 L1720.52 606.387 L1738.48 606.387 L1756.43 606.387 L1774.38 606.387 L1792.34 606.387 L1810.29 606.387 L1828.25 606.387 L1846.2 606.387 L1864.15 606.387 L1882.11 606.387 L1900.06 606.387 L1918.01 606.387 L1935.97 606.387 L1953.92 606.387 L1971.87 606.387 L1989.83 606.387 L2007.78 606.387 L2025.73 606.387 L2043.69 606.387 L2043.69 606.387 L2043.69 606.387 L2043.69 606.387 L2043.69 625.097 L2043.69 643.806 L2043.69 662.515 L2043.69 681.225 L2043.69 699.934 L2043.69 718.643 L2043.69 737.353 L2043.69 756.062 L2043.69 774.771 L2043.69 793.481 L2043.69 812.19 L2043.69 830.899 L2043.69 849.609 L2043.69 868.318 L2043.69 887.027 L2043.69 905.737 L2043.69 924.446 L2043.69 943.155 L2043.69 961.865 L2043.69 961.865 L2043.69 961.865 L2043.69 961.865 L2025.73 961.865 L2007.78 961.865 L1989.83 961.865 L1971.87 961.865 L1953.92 961.865 L1935.97 961.865 L1918.01 961.865 L1900.06 961.865 L1882.11 961.865 L1864.15 961.865 L1846.2 961.865 L1828.25 961.865 L1810.29 961.865 L1792.34 961.865 L1774.38 961.865 L1756.43 961.865 L1738.48 961.865 L1720.52 961.865 L1702.57 961.865 L1684.62 961.865 L1666.66 961.865 L1648.71 961.865 L1630.76 961.865 L1612.8 961.865 L1594.85 961.865 L1576.9 961.865 L1558.94 961.865 L1540.99 961.865 L1523.04 961.865 L1505.08 961.865 L1487.13 961.865 L1469.18 961.865 L1451.22 961.865 L1433.27 961.865 L1415.32 961.865 L1397.36 961.865 L1379.41 961.865 L1361.46 961.865 L1343.5 961.865 L1325.55 961.865 L1307.6 961.865 L1289.64 961.865 L1271.69 961.865 L1253.74 961.865 L1235.78 961.865 L1217.83 961.865 L1199.88 961.865 L1181.92 961.865 L1163.97 961.865 L1146.02 961.865 L1128.06 961.865 L1110.11 961.865 L1092.16 961.865 L1074.2 961.865 L1056.25 961.865 L1038.29 961.865 L1020.34 961.865 L1002.39 961.865 L984.435 961.865 L966.481 961.865 L948.528 961.865 L930.574 961.865 L912.621 961.865 L894.668 961.865 L876.714 961.865 L858.761 961.865 L840.807 961.865 L822.854 961.865 L804.901 961.865 L786.947 961.865 L768.994 961.865 L751.04 961.865 L733.087 961.865 L715.133 961.865 L697.18 961.865 L679.227 961.865 L661.273 961.865 L643.32 961.865 L625.366 961.865 L607.413 961.865 L589.46 961.865 L571.506 961.865 L553.553 961.865 L535.599 961.865 L517.646 961.865 L499.692 961.865 L481.739 961.865 L463.786 961.865 L445.832 961.865 L427.879 961.865 L409.925 961.865 L391.972 961.865 L374.019 961.865 L356.065 961.865 L338.112 961.865 L320.158 961.865 L302.205 961.865 L284.251 961.865 L266.298 961.865 L266.298 961.865 L266.298 961.865 L266.298 961.865 L266.298 943.155 L266.298 924.446 L266.298 905.737 L266.298 887.027 L266.298 868.318 L266.298 849.609 L266.298 830.899 L266.298 812.19 L266.298 793.481 L266.298 774.771 L266.298 756.062 L266.298 737.353 L266.298 718.643 L266.298 699.934 L266.298 681.225 L266.298 662.515 L266.298 643.806 L266.298 625.097 L266.298 606.387 L266.298 606.387 L266.298 606.387  Z" fill="#30123b" fill-rule="evenodd" fill-opacity="1"/>
<path clip-path="url(#clip452)" d="M1235.78 606.387 L1253.74 606.387 L1271.69 606.387 L1289.64 606.387 L1307.6 606.387 L1325.55 606.387 L1343.5 606.387 L1361.46 606.387 L1379.41 606.387 L1397.36 606.387 L1415.32 606.387 L1433.27 606.387 L1451.22 606.387 L1469.18 606.387 L1487.13 606.387 L1505.08 606.387 L1523.04 606.387 L1540.99 606.387 L1558.94 606.387 L1576.9 606.387 L1594.85 606.387 L1612.8 606.387 L1630.76 606.387 L1648.71 606.387 L1666.66 606.387 L1684.62 606.387 L1702.57 606.387 L1720.52 606.387 L1738.48 606.387 L1756.43 606.387 L1774.38 606.387 L1792.34 606.387 L1810.29 606.387 L1828.25 606.387 L1846.2 606.387 L1864.15 606.387 L1882.11 606.387 L1900.06 606.387 L1918.01 606.387 L1935.97 606.387 L1953.92 606.387 L1971.87 606.387 L1989.83 606.387 L2007.78 606.387 L2025.73 606.387 L2043.69 606.387 L2043.69 606.387 L2043.69 606.387 L2043.69 606.387 L2043.69 625.097 L2043.69 643.806 L2043.69 662.515 L2043.69 681.225 L2043.69 699.934 L2043.69 718.643 L2043.69 737.353 L2043.69 756.062 L2043.69 774.771 L2043.69 793.481 L2043.69 812.19 L2043.69 830.899 L2043.69 849.609 L2043.69 868.318 L2043.69 887.027 L2043.69 905.737 L2043.69 924.446 L2043.69 943.155 L2043.69 961.865 L2043.69 961.865 L2043.69 961.865 L2043.69 961.865 L2025.73 961.865 L2007.78 961.865 L1989.83 961.865 L1971.87 961.865 L1953.92 961.865 L1935.97 961.865 L1918.01 961.865 L1900.06 961.865 L1882.11 961.865 L1864.15 961.865 L1846.2 961.865 L1828.25 961.865 L1810.29 961.865 L1792.34 961.865 L1774.38 961.865 L1756.43 961.865 L1738.48 961.865 L1720.52 961.865 L1702.57 961.865 L1684.62 961.865 L1666.66 961.865 L1648.71 961.865 L1630.76 961.865 L1612.8 961.865 L1594.85 961.865 L1576.9 961.865 L1558.94 961.865 L1540.99 961.865 L1523.04 961.865 L1505.08 961.865 L1487.13 961.865 L1469.18 961.865 L1451.22 961.865 L1433.27 961.865 L1415.32 961.865 L1397.36 961.865 L1379.41 961.865 L1361.46 961.865 L1343.5 961.865 L1325.55 961.865 L1307.6 961.865 L1289.64 961.865 L1271.69 961.865 L1253.74 961.865 L1235.78 961.865 L1217.83 961.865 L1199.88 961.865 L1181.92 961.865 L1163.97 961.865 L1146.02 961.865 L1128.06 961.865 L1110.11 961.865 L1092.16 961.865 L1074.2 961.865 L1056.25 961.865 L1038.29 961.865 L1020.34 961.865 L1002.39 961.865 L984.435 961.865 L966.481 961.865 L948.528 961.865 L930.574 961.865 L912.621 961.865 L894.668 961.865 L876.714 961.865 L858.761 961.865 L840.807 961.865 L822.854 961.865 L804.901 961.865 L786.947 961.865 L768.994 961.865 L751.04 961.865 L733.087 961.865 L715.133 961.865 L697.18 961.865 L679.227 961.865 L661.273 961.865 L643.32 961.865 L625.366 961.865 L607.413 961.865 L589.46 961.865 L571.506 961.865 L553.553 961.865 L535.599 961.865 L517.646 961.865 L499.692 961.865 L481.739 961.865 L463.786 961.865 L445.832 961.865 L427.879 961.865 L409.925 961.865 L391.972 961.865 L374.019 961.865 L356.065 961.865 L338.112 961.865 L320.158 961.865 L302.205 961.865 L284.251 961.865 L266.298 961.865 L266.298 961.865 L266.298 961.865 L266.298 961.865 L266.298 943.155 L266.298 924.446 L266.298 905.737 L266.298 887.027 L266.298 868.318 L266.298 849.609 L266.298 830.899 L266.298 812.19 L266.298 793.481 L266.298 774.771 L266.298 756.062 L266.298 737.353 L266.298 718.643 L266.298 699.934 L266.298 681.225 L266.298 662.515 L266.298 643.806 L266.298 656.853 L284.251 656.458 L302.205 656.056 L320.158 655.648 L338.112 655.232 L356.065 654.809 L374.019 654.377 L391.972 653.937 L409.925 653.487 L427.879 653.027 L445.832 652.556 L463.786 652.074 L481.739 651.58 L499.692 651.074 L517.646 650.554 L535.599 650.02 L553.553 649.471 L571.506 648.906 L589.46 648.325 L607.413 647.727 L625.366 647.11 L643.32 646.474 L661.273 645.817 L679.227 645.139 L697.18 644.439 L712.867 643.806 L715.133 643.714 L733.087 642.967 L751.04 642.193 L768.994 641.392 L786.947 640.563 L804.901 639.703 L822.854 638.811 L840.807 637.885 L858.761 636.924 L876.714 635.926 L894.668 634.889 L912.621 633.81 L930.574 632.688 L948.528 631.52 L966.481 630.304 L984.435 629.037 L1002.39 627.716 L1020.34 626.337 L1035.85 625.097 L1038.29 624.9 L1056.25 623.407 L1074.2 621.847 L1092.16 620.217 L1110.11 618.512 L1128.06 616.727 L1146.02 614.859 L1163.97 612.902 L1181.92 610.849 L1199.88 608.695 L1217.83 606.432 L1218.17 606.387 L1217.83 606.387 L1235.78 606.387  Z" fill="#4584f9" fill-rule="evenodd" fill-opacity="1"/>
<path clip-path="url(#clip452)" d="M1594.85 606.387 L1612.8 606.387 L1630.76 606.387 L1648.71 606.387 L1666.66 606.387 L1684.62 606.387 L1702.57 606.387 L1720.52 606.387 L1738.48 606.387 L1756.43 606.387 L1774.38 606.387 L1792.34 606.387 L1810.29 606.387 L1828.25 606.387 L1846.2 606.387 L1864.15 606.387 L1882.11 606.387 L1900.06 606.387 L1918.01 606.387 L1935.97 606.387 L1953.92 606.387 L1971.87 606.387 L1989.83 606.387 L2007.78 606.387 L2025.73 606.387 L2043.69 606.387 L2043.69 606.387 L2043.69 606.387 L2043.69 606.387 L2043.69 625.097 L2043.69 643.806 L2043.69 662.515 L2043.69 681.225 L2043.69 699.934 L2043.69 718.643 L2043.69 737.353 L2043.69 756.062 L2043.69 774.771 L2043.69 793.481 L2043.69 812.19 L2043.69 830.899 L2043.69 849.609 L2043.69 868.318 L2043.69 887.027 L2043.69 905.737 L2043.69 924.446 L2043.69 943.155 L2043.69 961.865 L2043.69 961.865 L2043.69 961.865 L2043.69 961.865 L2025.73 961.865 L2007.78 961.865 L1989.83 961.865 L1971.87 961.865 L1953.92 961.865 L1935.97 961.865 L1918.01 961.865 L1900.06 961.865 L1882.11 961.865 L1864.15 961.865 L1846.2 961.865 L1828.25 961.865 L1810.29 961.865 L1792.34 961.865 L1774.38 961.865 L1756.43 961.865 L1738.48 961.865 L1720.52 961.865 L1702.57 961.865 L1684.62 961.865 L1666.66 961.865 L1648.71 961.865 L1630.76 961.865 L1612.8 961.865 L1594.85 961.865 L1576.9 961.865 L1558.94 961.865 L1540.99 961.865 L1523.04 961.865 L1505.08 961.865 L1487.13 961.865 L1469.18 961.865 L1451.22 961.865 L1433.27 961.865 L1415.32 961.865 L1397.36 961.865 L1379.41 961.865 L1361.46 961.865 L1343.5 961.865 L1325.55 961.865 L1307.6 961.865 L1289.64 961.865 L1271.69 961.865 L1253.74 961.865 L1235.78 961.865 L1217.83 961.865 L1199.88 961.865 L1181.92 961.865 L1163.97 961.865 L1146.02 961.865 L1128.06 961.865 L1110.11 961.865 L1092.16 961.865 L1074.2 961.865 L1056.25 961.865 L1038.29 961.865 L1020.34 961.865 L1002.39 961.865 L984.435 961.865 L966.481 961.865 L948.528 961.865 L930.574 961.865 L912.621 961.865 L894.668 961.865 L876.714 961.865 L858.761 961.865 L840.807 961.865 L822.854 961.865 L804.901 961.865 L786.947 961.865 L768.994 961.865 L751.04 961.865 L733.087 961.865 L715.133 961.865 L697.18 961.865 L679.227 961.865 L661.273 961.865 L643.32 961.865 L625.366 961.865 L607.413 961.865 L589.46 961.865 L571.506 961.865 L553.553 961.865 L535.599 961.865 L517.646 961.865 L499.692 961.865 L481.739 961.865 L463.786 961.865 L445.832 961.865 L427.879 961.865 L409.925 961.865 L391.972 961.865 L374.019 961.865 L356.065 961.865 L338.112 961.865 L320.158 961.865 L302.205 961.865 L284.251 961.865 L266.298 961.865 L266.298 961.865 L266.298 961.865 L266.298 961.865 L266.298 943.155 L266.298 924.446 L266.298 905.737 L266.298 887.027 L266.298 868.318 L266.298 849.609 L266.298 830.899 L266.298 812.19 L266.298 793.481 L266.298 774.771 L266.298 756.062 L266.298 737.353 L266.298 718.643 L266.298 699.934 L266.298 707.52 L284.251 707.247 L302.205 706.969 L320.158 706.685 L338.112 706.394 L356.065 706.097 L374.019 705.793 L391.972 705.482 L409.925 705.163 L427.879 704.835 L445.832 704.499 L463.786 704.154 L481.739 703.798 L499.692 703.433 L517.646 703.056 L535.599 702.668 L553.553 702.268 L571.506 701.855 L589.46 701.429 L607.413 700.988 L625.366 700.533 L643.32 700.061 L648.028 699.934 L661.273 699.586 L679.227 699.099 L697.18 698.596 L715.133 698.076 L733.087 697.538 L751.04 696.981 L768.994 696.405 L786.947 695.807 L804.901 695.188 L822.854 694.545 L840.807 693.878 L858.761 693.186 L876.714 692.466 L894.668 691.718 L912.621 690.94 L930.574 690.13 L948.528 689.287 L966.481 688.409 L984.435 687.492 L1002.39 686.537 L1020.34 685.539 L1038.29 684.497 L1056.25 683.408 L1074.2 682.268 L1089.93 681.225 L1092.16 681.08 L1110.11 679.871 L1128.06 678.607 L1146.02 677.284 L1163.97 675.898 L1181.92 674.445 L1199.88 672.92 L1217.83 671.319 L1235.78 669.636 L1253.74 667.865 L1271.69 666 L1289.64 664.034 L1302.83 662.515 L1307.6 661.963 L1325.55 659.787 L1343.5 657.486 L1361.46 655.051 L1379.41 652.468 L1397.36 649.727 L1415.32 646.811 L1432.7 643.806 L1433.27 643.707 L1451.22 640.432 L1469.18 636.935 L1487.13 633.193 L1505.08 629.181 L1522.11 625.097 L1523.04 624.873 L1540.99 620.303 L1558.94 615.374 L1576.9 610.045 L1588.38 606.387 L1576.9 606.387 L1594.85 606.387  Z" fill="#1ae4b6" fill-rule="evenodd" fill-opacity="1"/>
<path clip-path="url(#clip452)" d="M1846.2 606.387 L1864.15 606.387 L1882.11 606.387 L1900.06 606.387 L1918.01 606.387 L1935.97 606.387 L1953.92 606.387 L1971.87 606.387 L1989.83 606.387 L2007.78 606.387 L2025.73 606.387 L2043.69 606.387 L2043.69 606.387 L2043.69 606.387 L2043.69 606.387 L2043.69 625.097 L2043.69 643.806 L2043.69 662.515 L2043.69 681.225 L2043.69 699.934 L2043.69 718.643 L2043.69 737.353 L2043.69 756.062 L2043.69 774.771 L2043.69 793.481 L2043.69 812.19 L2043.69 830.899 L2043.69 849.609 L2043.69 849.609 L2043.69 864.368 L2035.55 868.318 L2025.73 884.365 L2024.35 887.027 L2022.4 905.737 L2021.77 924.446 L2022.15 943.155 L2023.33 961.865 L2007.78 961.865 L2007.78 961.865 L1989.83 961.865 L1971.87 961.865 L1953.92 961.865 L1935.97 961.865 L1918.01 961.865 L1900.06 961.865 L1882.11 961.865 L1864.15 961.865 L1846.2 961.865 L1828.25 961.865 L1810.29 961.865 L1792.34 961.865 L1774.38 961.865 L1756.43 961.865 L1738.48 961.865 L1720.52 961.865 L1702.57 961.865 L1684.62 961.865 L1666.66 961.865 L1648.71 961.865 L1630.76 961.865 L1612.8 961.865 L1594.85 961.865 L1576.9 961.865 L1558.94 961.865 L1540.99 961.865 L1523.04 961.865 L1505.08 961.865 L1487.13 961.865 L1469.18 961.865 L1451.22 961.865 L1433.27 961.865 L1415.32 961.865 L1397.36 961.865 L1379.41 961.865 L1361.46 961.865 L1343.5 961.865 L1325.55 961.865 L1307.6 961.865 L1289.64 961.865 L1271.69 961.865 L1253.74 961.865 L1235.78 961.865 L1217.83 961.865 L1199.88 961.865 L1181.92 961.865 L1163.97 961.865 L1146.02 961.865 L1128.06 961.865 L1110.11 961.865 L1092.16 961.865 L1074.2 961.865 L1056.25 961.865 L1038.29 961.865 L1020.34 961.865 L1002.39 961.865 L984.435 961.865 L966.481 961.865 L948.528 961.865 L930.574 961.865 L912.621 961.865 L894.668 961.865 L876.714 961.865 L858.761 961.865 L840.807 961.865 L822.854 961.865 L804.901 961.865 L786.947 961.865 L768.994 961.865 L751.04 961.865 L733.087 961.865 L715.133 961.865 L697.18 961.865 L679.227 961.865 L661.273 961.865 L643.32 961.865 L625.366 961.865 L607.413 961.865 L589.46 961.865 L571.506 961.865 L553.553 961.865 L535.599 961.865 L517.646 961.865 L499.692 961.865 L481.739 961.865 L463.786 961.865 L445.832 961.865 L427.879 961.865 L409.925 961.865 L391.972 961.865 L374.019 961.865 L356.065 961.865 L338.112 961.865 L320.158 961.865 L302.205 961.865 L284.251 961.865 L266.298 961.865 L266.298 961.865 L266.298 961.865 L266.298 961.865 L266.298 943.155 L266.298 924.446 L266.298 905.737 L266.298 887.027 L266.298 868.318 L266.298 849.609 L266.298 830.899 L266.298 812.19 L266.298 793.481 L266.298 774.771 L266.298 756.062 L266.298 758.649 L284.251 758.553 L302.205 758.455 L320.158 758.355 L338.112 758.252 L356.065 758.147 L374.019 758.04 L391.972 757.93 L409.925 757.817 L427.879 757.701 L445.832 757.582 L463.786 757.459 L481.739 757.333 L499.692 757.204 L517.646 757.071 L535.599 756.933 L553.553 756.791 L571.506 756.645 L589.46 756.494 L607.413 756.338 L625.366 756.177 L637.722 756.062 L643.32 756.01 L661.273 755.837 L679.227 755.658 L697.18 755.473 L715.133 755.28 L733.087 755.081 L751.04 754.873 L768.994 754.658 L786.947 754.434 L804.901 754.201 L822.854 753.959 L840.807 753.706 L858.761 753.443 L876.714 753.168 L894.668 752.881 L912.621 752.582 L930.574 752.269 L948.528 751.942 L966.481 751.599 L984.435 751.24 L1002.39 750.864 L1020.34 750.469 L1038.29 750.055 L1056.25 749.619 L1074.2 749.16 L1092.16 748.677 L1110.11 748.168 L1128.06 747.631 L1146.02 747.064 L1163.97 746.464 L1181.92 745.828 L1199.88 745.154 L1217.83 744.439 L1235.78 743.678 L1253.74 742.867 L1271.69 742.002 L1289.64 741.078 L1307.6 740.089 L1325.55 739.027 L1343.5 737.886 L1351.39 737.353 L1361.46 736.658 L1379.41 735.334 L1397.36 733.9 L1415.32 732.342 L1433.27 730.645 L1451.22 728.79 L1469.18 726.754 L1487.13 724.51 L1505.08 722.026 L1523.04 719.262 L1526.76 718.643 L1540.99 716.191 L1558.94 712.744 L1576.9 708.84 L1594.85 704.384 L1610.54 699.934 L1612.8 699.454 L1630.76 695.374 L1648.71 690.829 L1666.66 685.734 L1680.9 681.225 L1684.62 680.14 L1702.57 674.476 L1720.52 668.108 L1734.6 662.515 L1738.48 660.93 L1756.43 652.896 L1774.13 643.806 L1774.38 643.673 L1792.34 633.308 L1804.79 625.097 L1810.29 621.352 L1828.25 607.638 L1829.72 606.387 L1828.25 606.387 L1846.2 606.387  Z" fill="#a1fc3d" fill-rule="evenodd" fill-opacity="1"/>
<path clip-path="url(#clip452)" d="M2025.73 606.387 L2043.69 606.387 L2043.69 606.387 L2043.69 606.387 L2043.69 606.387 L2043.69 625.097 L2043.69 643.806 L2043.69 662.515 L2043.69 681.225 L2043.69 699.934 L2043.69 699.934 L2043.69 713.294 L2025.73 704.979 L2016.36 699.934 L2008.23 681.225 L2008.44 662.515 L2009.42 643.806 L2011.03 625.097 L2013.19 606.387 L2007.78 606.387 L2025.73 606.387 M266.298 793.481 L266.298 809.772 L284.251 809.853 L302.205 809.937 L320.158 810.022 L338.112 810.109 L356.065 810.198 L374.019 810.289 L391.972 810.382 L409.925 810.477 L427.879 810.575 L445.832 810.676 L463.786 810.779 L481.739 810.885 L499.692 810.994 L517.646 811.107 L535.599 811.223 L553.553 811.343 L571.506 811.466 L589.46 811.594 L607.413 811.726 L625.366 811.863 L643.32 812.005 L661.273 812.151 L665.839 812.19 L679.227 812.304 L697.18 812.462 L715.133 812.625 L733.087 812.796 L751.04 812.973 L768.994 813.157 L786.947 813.349 L804.901 813.549 L822.854 813.758 L840.807 813.976 L858.761 814.203 L876.714 814.44 L894.668 814.688 L912.621 814.948 L930.574 815.22 L948.528 815.504 L966.481 815.803 L984.435 816.116 L1002.39 816.444 L1020.34 816.79 L1038.29 817.153 L1056.25 817.536 L1074.2 817.938 L1092.16 818.363 L1110.11 818.812 L1128.06 819.286 L1146.02 819.787 L1163.97 820.318 L1181.92 820.881 L1199.88 821.478 L1217.83 822.114 L1235.78 822.79 L1253.74 823.511 L1271.69 824.281 L1289.64 825.105 L1307.6 825.988 L1325.55 826.936 L1343.5 827.956 L1361.46 829.057 L1379.41 830.247 L1388.61 830.899 L1397.36 831.535 L1415.32 832.931 L1433.27 834.453 L1451.22 836.118 L1469.18 837.946 L1487.13 839.962 L1505.08 842.195 L1523.04 844.68 L1540.99 847.462 L1553.48 849.609 L1558.94 850.585 L1576.9 854.098 L1594.85 858.109 L1612.8 862.728 L1630.76 868.102 L1631.41 868.318 L1648.71 872.39 L1666.66 877.12 L1684.62 882.456 L1698.33 887.027 L1702.57 888.326 L1720.52 894.292 L1738.48 901.05 L1749.63 905.737 L1756.43 908.691 L1774.38 917.343 L1787.33 924.446 L1792.34 927.285 L1810.29 938.646 L1816.62 943.155 L1828.25 951.712 L1840.43 961.865 L1828.25 961.865 L1828.25 961.865 L1810.29 961.865 L1792.34 961.865 L1774.38 961.865 L1756.43 961.865 L1738.48 961.865 L1720.52 961.865 L1702.57 961.865 L1684.62 961.865 L1666.66 961.865 L1648.71 961.865 L1630.76 961.865 L1612.8 961.865 L1594.85 961.865 L1576.9 961.865 L1558.94 961.865 L1540.99 961.865 L1523.04 961.865 L1505.08 961.865 L1487.13 961.865 L1469.18 961.865 L1451.22 961.865 L1433.27 961.865 L1415.32 961.865 L1397.36 961.865 L1379.41 961.865 L1361.46 961.865 L1343.5 961.865 L1325.55 961.865 L1307.6 961.865 L1289.64 961.865 L1271.69 961.865 L1253.74 961.865 L1235.78 961.865 L1217.83 961.865 L1199.88 961.865 L1181.92 961.865 L1163.97 961.865 L1146.02 961.865 L1128.06 961.865 L1110.11 961.865 L1092.16 961.865 L1074.2 961.865 L1056.25 961.865 L1038.29 961.865 L1020.34 961.865 L1002.39 961.865 L984.435 961.865 L966.481 961.865 L948.528 961.865 L930.574 961.865 L912.621 961.865 L894.668 961.865 L876.714 961.865 L858.761 961.865 L840.807 961.865 L822.854 961.865 L804.901 961.865 L786.947 961.865 L768.994 961.865 L751.04 961.865 L733.087 961.865 L715.133 961.865 L697.18 961.865 L679.227 961.865 L661.273 961.865 L643.32 961.865 L625.366 961.865 L607.413 961.865 L589.46 961.865 L571.506 961.865 L553.553 961.865 L535.599 961.865 L517.646 961.865 L499.692 961.865 L481.739 961.865 L463.786 961.865 L445.832 961.865 L427.879 961.865 L409.925 961.865 L391.972 961.865 L374.019 961.865 L356.065 961.865 L338.112 961.865 L320.158 961.865 L302.205 961.865 L284.251 961.865 L266.298 961.865 L266.298 961.865 L266.298 961.865 L266.298 961.865 L266.298 943.155 L266.298 924.446 L266.298 905.737 L266.298 887.027 L266.298 868.318 L266.298 849.609 L266.298 830.899 L266.298 812.19 L266.298 793.481  Z" fill="#f9ba38" fill-rule="evenodd" fill-opacity="1"/>
<path clip-path="url(#clip452)" d="M266.298 849.609 L266.298 860.857 L284.251 861.115 L302.205 861.378 L320.158 861.646 L338.112 861.921 L356.065 862.201 L374.019 862.488 L391.972 862.782 L409.925 863.083 L427.879 863.392 L445.832 863.709 L463.786 864.035 L481.739 864.37 L499.692 864.714 L517.646 865.069 L535.599 865.435 L553.553 865.813 L571.506 866.202 L589.46 866.605 L607.413 867.021 L625.366 867.451 L643.32 867.896 L659.751 868.318 L661.273 868.356 L679.227 868.817 L697.18 869.293 L715.133 869.785 L733.087 870.295 L751.04 870.823 L768.994 871.37 L786.947 871.937 L804.901 872.525 L822.854 873.136 L840.807 873.77 L858.761 874.428 L876.714 875.113 L894.668 875.825 L912.621 876.566 L930.574 877.338 L948.528 878.142 L966.481 878.98 L984.435 879.854 L1002.39 880.767 L1020.34 881.72 L1038.29 882.716 L1056.25 883.758 L1074.2 884.848 L1092.16 885.99 L1107.75 887.027 L1110.11 887.181 L1128.06 888.394 L1146.02 889.663 L1163.97 890.994 L1181.92 892.39 L1199.88 893.855 L1217.83 895.393 L1235.78 897.012 L1253.74 898.715 L1271.69 900.509 L1289.64 902.401 L1307.6 904.399 L1319.03 905.737 L1325.55 906.504 L1343.5 908.721 L1361.46 911.068 L1379.41 913.557 L1397.36 916.201 L1415.32 919.012 L1433.27 922.007 L1447.03 924.446 L1451.22 925.195 L1469.18 928.571 L1487.13 932.183 L1505.08 936.057 L1523.04 940.22 L1534.89 943.155 L1540.99 944.68 L1558.94 949.443 L1576.9 954.592 L1594.85 960.176 L1599.95 961.865 L1594.85 961.865 L1594.85 961.865 L1576.9 961.865 L1558.94 961.865 L1540.99 961.865 L1523.04 961.865 L1505.08 961.865 L1487.13 961.865 L1469.18 961.865 L1451.22 961.865 L1433.27 961.865 L1415.32 961.865 L1397.36 961.865 L1379.41 961.865 L1361.46 961.865 L1343.5 961.865 L1325.55 961.865 L1307.6 961.865 L1289.64 961.865 L1271.69 961.865 L1253.74 961.865 L1235.78 961.865 L1217.83 961.865 L1199.88 961.865 L1181.92 961.865 L1163.97 961.865 L1146.02 961.865 L1128.06 961.865 L1110.11 961.865 L1092.16 961.865 L1074.2 961.865 L1056.25 961.865 L1038.29 961.865 L1020.34 961.865 L1002.39 961.865 L984.435 961.865 L966.481 961.865 L948.528 961.865 L930.574 961.865 L912.621 961.865 L894.668 961.865 L876.714 961.865 L858.761 961.865 L840.807 961.865 L822.854 961.865 L804.901 961.865 L786.947 961.865 L768.994 961.865 L751.04 961.865 L733.087 961.865 L715.133 961.865 L697.18 961.865 L679.227 961.865 L661.273 961.865 L643.32 961.865 L625.366 961.865 L607.413 961.865 L589.46 961.865 L571.506 961.865 L553.553 961.865 L535.599 961.865 L517.646 961.865 L499.692 961.865 L481.739 961.865 L463.786 961.865 L445.832 961.865 L427.879 961.865 L409.925 961.865 L391.972 961.865 L374.019 961.865 L356.065 961.865 L338.112 961.865 L320.158 961.865 L302.205 961.865 L284.251 961.865 L266.298 961.865 L266.298 961.865 L266.298 961.865 L266.298 961.865 L266.298 943.155 L266.298 924.446 L266.298 905.737 L266.298 887.027 L266.298 868.318 L266.298 849.609  Z" fill="#e5460a" fill-rule="evenodd" fill-opacity="1"/>
<path clip-path="url(#clip452)" d="M266.298 905.737 L266.298 911.461 L284.251 911.841 L302.205 912.228 L320.158 912.62 L338.112 913.02 L356.065 913.426 L374.019 913.841 L391.972 914.264 L409.925 914.696 L427.879 915.138 L445.832 915.59 L463.786 916.052 L481.739 916.526 L499.692 917.012 L517.646 917.511 L535.599 918.024 L553.553 918.551 L571.506 919.093 L589.46 919.651 L607.413 920.226 L625.366 920.818 L643.32 921.43 L661.273 922.061 L679.227 922.713 L697.18 923.387 L715.133 924.085 L724.148 924.446 L733.087 924.805 L751.04 925.55 L768.994 926.322 L786.947 927.121 L804.901 927.951 L822.854 928.811 L840.807 929.704 L858.761 930.632 L876.714 931.596 L894.668 932.598 L912.621 933.641 L930.574 934.726 L948.528 935.856 L966.481 937.033 L984.435 938.26 L1002.39 939.539 L1020.34 940.875 L1038.29 942.269 L1049.26 943.155 L1056.25 943.722 L1074.2 945.235 L1092.16 946.817 L1110.11 948.472 L1128.06 950.205 L1146.02 952.02 L1163.97 953.922 L1181.92 955.917 L1199.88 958.011 L1217.83 960.212 L1230.7 961.865 L1217.83 961.865 L1217.83 961.865 L1199.88 961.865 L1181.92 961.865 L1163.97 961.865 L1146.02 961.865 L1128.06 961.865 L1110.11 961.865 L1092.16 961.865 L1074.2 961.865 L1056.25 961.865 L1038.29 961.865 L1020.34 961.865 L1002.39 961.865 L984.435 961.865 L966.481 961.865 L948.528 961.865 L930.574 961.865 L912.621 961.865 L894.668 961.865 L876.714 961.865 L858.761 961.865 L840.807 961.865 L822.854 961.865 L804.901 961.865 L786.947 961.865 L768.994 961.865 L751.04 961.865 L733.087 961.865 L715.133 961.865 L697.18 961.865 L679.227 961.865 L661.273 961.865 L643.32 961.865 L625.366 961.865 L607.413 961.865 L589.46 961.865 L571.506 961.865 L553.553 961.865 L535.599 961.865 L517.646 961.865 L499.692 961.865 L481.739 961.865 L463.786 961.865 L445.832 961.865 L427.879 961.865 L409.925 961.865 L391.972 961.865 L374.019 961.865 L356.065 961.865 L338.112 961.865 L320.158 961.865 L302.205 961.865 L284.251 961.865 L266.298 961.865 L266.298 961.865 L266.298 961.865 L266.298 961.865 L266.298 943.155 L266.298 924.446 L266.298 905.737  Z" fill="#7a0402" fill-rule="evenodd" fill-opacity="1"/>
<polyline clip-path="url(#clip452)" style="stroke:#30123b; stroke-linecap:round; stroke-linejoin:round; stroke-width:4; stroke-opacity:1; fill:none" points="266.298,606.387 266.298,606.387 284.251,606.387 302.205,606.387 320.158,606.387 338.112,606.387 356.065,606.387 374.019,606.387 391.972,606.387 409.925,606.387 427.879,606.387 445.832,606.387 463.786,606.387 481.739,606.387 499.692,606.387 517.646,606.387 535.599,606.387 553.553,606.387 571.506,606.387 589.46,606.387 607.413,606.387 625.366,606.387 643.32,606.387 661.273,606.387 679.227,606.387 697.18,606.387 715.133,606.387 733.087,606.387 751.04,606.387 768.994,606.387 786.947,606.387 804.901,606.387 822.854,606.387 840.807,606.387 858.761,606.387 876.714,606.387 894.668,606.387 912.621,606.387 930.574,606.387 948.528,606.387 966.481,606.387 984.435,606.387 1002.39,606.387 1020.34,606.387 1038.29,606.387 1056.25,606.387 1074.2,606.387 1092.16,606.387 1110.11,606.387 1128.06,606.387 1146.02,606.387 1163.97,606.387 1181.92,606.387 1199.88,606.387 1217.83,606.387 1235.78,606.387 1253.74,606.387 1271.69,606.387 1289.64,606.387 1307.6,606.387 1325.55,606.387 1343.5,606.387 1361.46,606.387 1379.41,606.387 1397.36,606.387 1415.32,606.387 1433.27,606.387 1451.22,606.387 1469.18,606.387 1487.13,606.387 1505.08,606.387 1523.04,606.387 1540.99,606.387 1558.94,606.387 1576.9,606.387 1594.85,606.387 1612.8,606.387 1630.76,606.387 1648.71,606.387 1666.66,606.387 1684.62,606.387 1702.57,606.387 1720.52,606.387 1738.48,606.387 1756.43,606.387 1774.38,606.387 1792.34,606.387 1810.29,606.387 1828.25,606.387 1846.2,606.387 1864.15,606.387 1882.11,606.387 1900.06,606.387 1918.01,606.387 1935.97,606.387 1953.92,606.387 1971.87,606.387 1989.83,606.387 2007.78,606.387 2025.73,606.387 2043.69,606.387 2043.69,625.097 2043.69,643.806 2043.69,662.515 2043.69,681.225 2043.69,699.934 2043.69,718.643 2043.69,737.353 2043.69,756.062 2043.69,774.771 2043.69,793.481 2043.69,812.19 2043.69,830.899 2043.69,849.609 2043.69,868.318 2043.69,887.027 2043.69,905.737 2043.69,924.446 2043.69,943.155 2043.69,961.865 2025.73,961.865 2007.78,961.865 1989.83,961.865 1971.87,961.865 1953.92,961.865 1935.97,961.865 1918.01,961.865 1900.06,961.865 1882.11,961.865 1864.15,961.865 1846.2,961.865 1828.25,961.865 1810.29,961.865 1792.34,961.865 1774.38,961.865 1756.43,961.865 1738.48,961.865 1720.52,961.865 1702.57,961.865 1684.62,961.865 1666.66,961.865 1648.71,961.865 1630.76,961.865 1612.8,961.865 1594.85,961.865 1576.9,961.865 1558.94,961.865 1540.99,961.865 1523.04,961.865 1505.08,961.865 1487.13,961.865 1469.18,961.865 1451.22,961.865 1433.27,961.865 1415.32,961.865 1397.36,961.865 1379.41,961.865 1361.46,961.865 1343.5,961.865 1325.55,961.865 1307.6,961.865 1289.64,961.865 1271.69,961.865 1253.74,961.865 1235.78,961.865 1217.83,961.865 1199.88,961.865 1181.92,961.865 1163.97,961.865 1146.02,961.865 1128.06,961.865 1110.11,961.865 1092.16,961.865 1074.2,961.865 1056.25,961.865 1038.29,961.865 1020.34,961.865 1002.39,961.865 984.435,961.865 966.481,961.865 948.528,961.865 930.574,961.865 912.621,961.865 894.668,961.865 876.714,961.865 858.761,961.865 840.807,961.865 822.854,961.865 804.901,961.865 786.947,961.865 768.994,961.865 751.04,961.865 733.087,961.865 715.133,961.865 697.18,961.865 679.227,961.865 661.273,961.865 643.32,961.865 625.366,961.865 607.413,961.865 589.46,961.865 571.506,961.865 553.553,961.865 535.599,961.865 517.646,961.865 499.692,961.865 481.739,961.865 463.786,961.865 445.832,961.865 427.879,961.865 409.925,961.865 391.972,961.865 374.019,961.865 356.065,961.865 338.112,961.865 320.158,961.865 302.205,961.865 284.251,961.865 266.298,961.865 266.298,943.155 266.298,924.446 266.298,905.737 266.298,887.027 266.298,868.318 266.298,849.609 266.298,830.899 266.298,812.19 266.298,793.481 266.298,774.771 266.298,756.062 266.298,737.353 266.298,718.643 266.298,699.934 266.298,681.225 266.298,662.515 266.298,643.806 266.298,625.097 266.298,606.387 "/>
<polyline clip-path="url(#clip452)" style="stroke:#30123b; stroke-linecap:round; stroke-linejoin:round; stroke-width:4; stroke-opacity:1; fill:none" points="1235.78,606.387 1253.74,606.387 1271.69,606.387 1289.64,606.387 1307.6,606.387 1325.55,606.387 1343.5,606.387 1361.46,606.387 1379.41,606.387 1397.36,606.387 1415.32,606.387 1433.27,606.387 1451.22,606.387 1469.18,606.387 1487.13,606.387 1505.08,606.387 1523.04,606.387 1540.99,606.387 1558.94,606.387 1576.9,606.387 1594.85,606.387 1612.8,606.387 1630.76,606.387 1648.71,606.387 1666.66,606.387 1684.62,606.387 1702.57,606.387 1720.52,606.387 1738.48,606.387 1756.43,606.387 1774.38,606.387 1792.34,606.387 1810.29,606.387 1828.25,606.387 1846.2,606.387 1864.15,606.387 1882.11,606.387 1900.06,606.387 1918.01,606.387 1935.97,606.387 1953.92,606.387 1971.87,606.387 1989.83,606.387 2007.78,606.387 2025.73,606.387 2043.69,606.387 2043.69,625.097 2043.69,643.806 2043.69,662.515 2043.69,681.225 2043.69,699.934 2043.69,718.643 2043.69,737.353 2043.69,756.062 2043.69,774.771 2043.69,793.481 2043.69,812.19 2043.69,830.899 2043.69,849.609 2043.69,868.318 2043.69,887.027 2043.69,905.737 2043.69,924.446 2043.69,943.155 2043.69,961.865 2025.73,961.865 2007.78,961.865 1989.83,961.865 1971.87,961.865 1953.92,961.865 1935.97,961.865 1918.01,961.865 1900.06,961.865 1882.11,961.865 1864.15,961.865 1846.2,961.865 1828.25,961.865 1810.29,961.865 1792.34,961.865 1774.38,961.865 1756.43,961.865 1738.48,961.865 1720.52,961.865 1702.57,961.865 1684.62,961.865 1666.66,961.865 1648.71,961.865 1630.76,961.865 1612.8,961.865 1594.85,961.865 1576.9,961.865 1558.94,961.865 1540.99,961.865 1523.04,961.865 1505.08,961.865 1487.13,961.865 1469.18,961.865 1451.22,961.865 1433.27,961.865 1415.32,961.865 1397.36,961.865 1379.41,961.865 1361.46,961.865 1343.5,961.865 1325.55,961.865 1307.6,961.865 1289.64,961.865 1271.69,961.865 1253.74,961.865 1235.78,961.865 1217.83,961.865 1199.88,961.865 1181.92,961.865 1163.97,961.865 1146.02,961.865 1128.06,961.865 1110.11,961.865 1092.16,961.865 1074.2,961.865 1056.25,961.865 1038.29,961.865 1020.34,961.865 1002.39,961.865 984.435,961.865 966.481,961.865 948.528,961.865 930.574,961.865 912.621,961.865 894.668,961.865 876.714,961.865 858.761,961.865 840.807,961.865 822.854,961.865 804.901,961.865 786.947,961.865 768.994,961.865 751.04,961.865 733.087,961.865 715.133,961.865 697.18,961.865 679.227,961.865 661.273,961.865 643.32,961.865 625.366,961.865 607.413,961.865 589.46,961.865 571.506,961.865 553.553,961.865 535.599,961.865 517.646,961.865 499.692,961.865 481.739,961.865 463.786,961.865 445.832,961.865 427.879,961.865 409.925,961.865 391.972,961.865 374.019,961.865 356.065,961.865 338.112,961.865 320.158,961.865 302.205,961.865 284.251,961.865 266.298,961.865 266.298,943.155 266.298,924.446 266.298,905.737 266.298,887.027 266.298,868.318 266.298,849.609 266.298,830.899 266.298,812.19 266.298,793.481 266.298,774.771 266.298,756.062 266.298,737.353 266.298,718.643 266.298,699.934 266.298,681.225 266.298,662.515 266.298,643.806 266.298,656.853 284.251,656.458 302.205,656.056 320.158,655.648 338.112,655.232 356.065,654.809 374.019,654.377 391.972,653.937 409.925,653.487 427.879,653.027 445.832,652.556 463.786,652.074 481.739,651.58 499.692,651.074 517.646,650.554 535.599,650.02 553.553,649.471 571.506,648.906 589.46,648.325 607.413,647.727 625.366,647.11 643.32,646.474 661.273,645.817 679.227,645.139 697.18,644.439 712.867,643.806 715.133,643.714 733.087,642.967 751.04,642.193 768.994,641.392 786.947,640.563 804.901,639.703 822.854,638.811 840.807,637.885 858.761,636.924 876.714,635.926 894.668,634.889 912.621,633.81 930.574,632.688 948.528,631.52 966.481,630.304 984.435,629.037 1002.39,627.716 1020.34,626.337 1035.85,625.097 1038.29,624.9 1056.25,623.407 1074.2,621.847 1092.16,620.217 1110.11,618.512 1128.06,616.727 1146.02,614.859 1163.97,612.902 1181.92,610.849 1199.88,608.695 1217.83,606.432 1218.17,606.387 1217.83,606.387 1235.78,606.387 "/>
<polyline clip-path="url(#clip452)" style="stroke:#30123b; stroke-linecap:round; stroke-linejoin:round; stroke-width:4; stroke-opacity:1; fill:none" points="1594.85,606.387 1612.8,606.387 1630.76,606.387 1648.71,606.387 1666.66,606.387 1684.62,606.387 1702.57,606.387 1720.52,606.387 1738.48,606.387 1756.43,606.387 1774.38,606.387 1792.34,606.387 1810.29,606.387 1828.25,606.387 1846.2,606.387 1864.15,606.387 1882.11,606.387 1900.06,606.387 1918.01,606.387 1935.97,606.387 1953.92,606.387 1971.87,606.387 1989.83,606.387 2007.78,606.387 2025.73,606.387 2043.69,606.387 2043.69,625.097 2043.69,643.806 2043.69,662.515 2043.69,681.225 2043.69,699.934 2043.69,718.643 2043.69,737.353 2043.69,756.062 2043.69,774.771 2043.69,793.481 2043.69,812.19 2043.69,830.899 2043.69,849.609 2043.69,868.318 2043.69,887.027 2043.69,905.737 2043.69,924.446 2043.69,943.155 2043.69,961.865 2025.73,961.865 2007.78,961.865 1989.83,961.865 1971.87,961.865 1953.92,961.865 1935.97,961.865 1918.01,961.865 1900.06,961.865 1882.11,961.865 1864.15,961.865 1846.2,961.865 1828.25,961.865 1810.29,961.865 1792.34,961.865 1774.38,961.865 1756.43,961.865 1738.48,961.865 1720.52,961.865 1702.57,961.865 1684.62,961.865 1666.66,961.865 1648.71,961.865 1630.76,961.865 1612.8,961.865 1594.85,961.865 1576.9,961.865 1558.94,961.865 1540.99,961.865 1523.04,961.865 1505.08,961.865 1487.13,961.865 1469.18,961.865 1451.22,961.865 1433.27,961.865 1415.32,961.865 1397.36,961.865 1379.41,961.865 1361.46,961.865 1343.5,961.865 1325.55,961.865 1307.6,961.865 1289.64,961.865 1271.69,961.865 1253.74,961.865 1235.78,961.865 1217.83,961.865 1199.88,961.865 1181.92,961.865 1163.97,961.865 1146.02,961.865 1128.06,961.865 1110.11,961.865 1092.16,961.865 1074.2,961.865 1056.25,961.865 1038.29,961.865 1020.34,961.865 1002.39,961.865 984.435,961.865 966.481,961.865 948.528,961.865 930.574,961.865 912.621,961.865 894.668,961.865 876.714,961.865 858.761,961.865 840.807,961.865 822.854,961.865 804.901,961.865 786.947,961.865 768.994,961.865 751.04,961.865 733.087,961.865 715.133,961.865 697.18,961.865 679.227,961.865 661.273,961.865 643.32,961.865 625.366,961.865 607.413,961.865 589.46,961.865 571.506,961.865 553.553,961.865 535.599,961.865 517.646,961.865 499.692,961.865 481.739,961.865 463.786,961.865 445.832,961.865 427.879,961.865 409.925,961.865 391.972,961.865 374.019,961.865 356.065,961.865 338.112,961.865 320.158,961.865 302.205,961.865 284.251,961.865 266.298,961.865 266.298,943.155 266.298,924.446 266.298,905.737 266.298,887.027 266.298,868.318 266.298,849.609 266.298,830.899 266.298,812.19 266.298,793.481 266.298,774.771 266.298,756.062 266.298,737.353 266.298,718.643 266.298,699.934 266.298,707.52 284.251,707.247 302.205,706.969 320.158,706.685 338.112,706.394 356.065,706.097 374.019,705.793 391.972,705.482 409.925,705.163 427.879,704.835 445.832,704.499 463.786,704.154 481.739,703.798 499.692,703.433 517.646,703.056 535.599,702.668 553.553,702.268 571.506,701.855 589.46,701.429 607.413,700.988 625.366,700.533 643.32,700.061 648.028,699.934 661.273,699.586 679.227,699.099 697.18,698.596 715.133,698.076 733.087,697.538 751.04,696.981 768.994,696.405 786.947,695.807 804.901,695.188 822.854,694.545 840.807,693.878 858.761,693.186 876.714,692.466 894.668,691.718 912.621,690.94 930.574,690.13 948.528,689.287 966.481,688.409 984.435,687.492 1002.39,686.537 1020.34,685.539 1038.29,684.497 1056.25,683.408 1074.2,682.268 1089.93,681.225 1092.16,681.08 1110.11,679.871 1128.06,678.607 1146.02,677.284 1163.97,675.898 1181.92,674.445 1199.88,672.92 1217.83,671.319 1235.78,669.636 1253.74,667.865 1271.69,666 1289.64,664.034 1302.83,662.515 1307.6,661.963 1325.55,659.787 1343.5,657.486 1361.46,655.051 1379.41,652.468 1397.36,649.727 1415.32,646.811 1432.7,643.806 1433.27,643.707 1451.22,640.432 1469.18,636.935 1487.13,633.193 1505.08,629.181 1522.11,625.097 1523.04,624.873 1540.99,620.303 1558.94,615.374 1576.9,610.045 1588.38,606.387 1576.9,606.387 1594.85,606.387 "/>
<polyline clip-path="url(#clip452)" style="stroke:#30123b; stroke-linecap:round; stroke-linejoin:round; stroke-width:4; stroke-opacity:1; fill:none" points="1846.2,606.387 1864.15,606.387 1882.11,606.387 1900.06,606.387 1918.01,606.387 1935.97,606.387 1953.92,606.387 1971.87,606.387 1989.83,606.387 2007.78,606.387 2025.73,606.387 2043.69,606.387 2043.69,625.097 2043.69,643.806 2043.69,662.515 2043.69,681.225 2043.69,699.934 2043.69,718.643 2043.69,737.353 2043.69,756.062 2043.69,774.771 2043.69,793.481 2043.69,812.19 2043.69,830.899 2043.69,849.609 2043.69,864.368 2035.55,868.318 2025.73,884.365 2024.35,887.027 2022.4,905.737 2021.77,924.446 2022.15,943.155 2023.33,961.865 2007.78,961.865 1989.83,961.865 1971.87,961.865 1953.92,961.865 1935.97,961.865 1918.01,961.865 1900.06,961.865 1882.11,961.865 1864.15,961.865 1846.2,961.865 1828.25,961.865 1810.29,961.865 1792.34,961.865 1774.38,961.865 1756.43,961.865 1738.48,961.865 1720.52,961.865 1702.57,961.865 1684.62,961.865 1666.66,961.865 1648.71,961.865 1630.76,961.865 1612.8,961.865 1594.85,961.865 1576.9,961.865 1558.94,961.865 1540.99,961.865 1523.04,961.865 1505.08,961.865 1487.13,961.865 1469.18,961.865 1451.22,961.865 1433.27,961.865 1415.32,961.865 1397.36,961.865 1379.41,961.865 1361.46,961.865 1343.5,961.865 1325.55,961.865 1307.6,961.865 1289.64,961.865 1271.69,961.865 1253.74,961.865 1235.78,961.865 1217.83,961.865 1199.88,961.865 1181.92,961.865 1163.97,961.865 1146.02,961.865 1128.06,961.865 1110.11,961.865 1092.16,961.865 1074.2,961.865 1056.25,961.865 1038.29,961.865 1020.34,961.865 1002.39,961.865 984.435,961.865 966.481,961.865 948.528,961.865 930.574,961.865 912.621,961.865 894.668,961.865 876.714,961.865 858.761,961.865 840.807,961.865 822.854,961.865 804.901,961.865 786.947,961.865 768.994,961.865 751.04,961.865 733.087,961.865 715.133,961.865 697.18,961.865 679.227,961.865 661.273,961.865 643.32,961.865 625.366,961.865 607.413,961.865 589.46,961.865 571.506,961.865 553.553,961.865 535.599,961.865 517.646,961.865 499.692,961.865 481.739,961.865 463.786,961.865 445.832,961.865 427.879,961.865 409.925,961.865 391.972,961.865 374.019,961.865 356.065,961.865 338.112,961.865 320.158,961.865 302.205,961.865 284.251,961.865 266.298,961.865 266.298,943.155 266.298,924.446 266.298,905.737 266.298,887.027 266.298,868.318 266.298,849.609 266.298,830.899 266.298,812.19 266.298,793.481 266.298,774.771 266.298,756.062 266.298,758.649 284.251,758.553 302.205,758.455 320.158,758.355 338.112,758.252 356.065,758.147 374.019,758.04 391.972,757.93 409.925,757.817 427.879,757.701 445.832,757.582 463.786,757.459 481.739,757.333 499.692,757.204 517.646,757.071 535.599,756.933 553.553,756.791 571.506,756.645 589.46,756.494 607.413,756.338 625.366,756.177 637.722,756.062 643.32,756.01 661.273,755.837 679.227,755.658 697.18,755.473 715.133,755.28 733.087,755.081 751.04,754.873 768.994,754.658 786.947,754.434 804.901,754.201 822.854,753.959 840.807,753.706 858.761,753.443 876.714,753.168 894.668,752.881 912.621,752.582 930.574,752.269 948.528,751.942 966.481,751.599 984.435,751.24 1002.39,750.864 1020.34,750.469 1038.29,750.055 1056.25,749.619 1074.2,749.16 1092.16,748.677 1110.11,748.168 1128.06,747.631 1146.02,747.064 1163.97,746.464 1181.92,745.828 1199.88,745.154 1217.83,744.439 1235.78,743.678 1253.74,742.867 1271.69,742.002 1289.64,741.078 1307.6,740.089 1325.55,739.027 1343.5,737.886 1351.39,737.353 1361.46,736.658 1379.41,735.334 1397.36,733.9 1415.32,732.342 1433.27,730.645 1451.22,728.79 1469.18,726.754 1487.13,724.51 1505.08,722.026 1523.04,719.262 1526.76,718.643 1540.99,716.191 1558.94,712.744 1576.9,708.84 1594.85,704.384 1610.54,699.934 1612.8,699.454 1630.76,695.374 1648.71,690.829 1666.66,685.734 1680.9,681.225 1684.62,680.14 1702.57,674.476 1720.52,668.108 1734.6,662.515 1738.48,660.93 1756.43,652.896 1774.13,643.806 1774.38,643.673 1792.34,633.308 1804.79,625.097 1810.29,621.352 1828.25,607.638 1829.72,606.387 1828.25,606.387 1846.2,606.387 "/>
<polyline clip-path="url(#clip452)" style="stroke:#30123b; stroke-linecap:round; stroke-linejoin:round; stroke-width:4; stroke-opacity:1; fill:none" points="2025.73,606.387 2043.69,606.387 2043.69,625.097 2043.69,643.806 2043.69,662.515 2043.69,681.225 2043.69,699.934 2043.69,713.294 2025.73,704.979 2016.36,699.934 2008.23,681.225 2008.44,662.515 2009.42,643.806 2011.03,625.097 2013.19,606.387 2007.78,606.387 2025.73,606.387 "/>
<polyline clip-path="url(#clip452)" style="stroke:#30123b; stroke-linecap:round; stroke-linejoin:round; stroke-width:4; stroke-opacity:1; fill:none" points="266.298,793.481 266.298,809.772 284.251,809.853 302.205,809.937 320.158,810.022 338.112,810.109 356.065,810.198 374.019,810.289 391.972,810.382 409.925,810.477 427.879,810.575 445.832,810.676 463.786,810.779 481.739,810.885 499.692,810.994 517.646,811.107 535.599,811.223 553.553,811.343 571.506,811.466 589.46,811.594 607.413,811.726 625.366,811.863 643.32,812.005 661.273,812.151 665.839,812.19 679.227,812.304 697.18,812.462 715.133,812.625 733.087,812.796 751.04,812.973 768.994,813.157 786.947,813.349 804.901,813.549 822.854,813.758 840.807,813.976 858.761,814.203 876.714,814.44 894.668,814.688 912.621,814.948 930.574,815.22 948.528,815.504 966.481,815.803 984.435,816.116 1002.39,816.444 1020.34,816.79 1038.29,817.153 1056.25,817.536 1074.2,817.938 1092.16,818.363 1110.11,818.812 1128.06,819.286 1146.02,819.787 1163.97,820.318 1181.92,820.881 1199.88,821.478 1217.83,822.114 1235.78,822.79 1253.74,823.511 1271.69,824.281 1289.64,825.105 1307.6,825.988 1325.55,826.936 1343.5,827.956 1361.46,829.057 1379.41,830.247 1388.61,830.899 1397.36,831.535 1415.32,832.931 1433.27,834.453 1451.22,836.118 1469.18,837.946 1487.13,839.962 1505.08,842.195 1523.04,844.68 1540.99,847.462 1553.48,849.609 1558.94,850.585 1576.9,854.098 1594.85,858.109 1612.8,862.728 1630.76,868.102 1631.41,868.318 1648.71,872.39 1666.66,877.12 1684.62,882.456 1698.33,887.027 1702.57,888.326 1720.52,894.292 1738.48,901.05 1749.63,905.737 1756.43,908.691 1774.38,917.343 1787.33,924.446 1792.34,927.285 1810.29,938.646 1816.62,943.155 1828.25,951.712 1840.43,961.865 1828.25,961.865 1810.29,961.865 1792.34,961.865 1774.38,961.865 1756.43,961.865 1738.48,961.865 1720.52,961.865 1702.57,961.865 1684.62,961.865 1666.66,961.865 1648.71,961.865 1630.76,961.865 1612.8,961.865 1594.85,961.865 1576.9,961.865 1558.94,961.865 1540.99,961.865 1523.04,961.865 1505.08,961.865 1487.13,961.865 1469.18,961.865 1451.22,961.865 1433.27,961.865 1415.32,961.865 1397.36,961.865 1379.41,961.865 1361.46,961.865 1343.5,961.865 1325.55,961.865 1307.6,961.865 1289.64,961.865 1271.69,961.865 1253.74,961.865 1235.78,961.865 1217.83,961.865 1199.88,961.865 1181.92,961.865 1163.97,961.865 1146.02,961.865 1128.06,961.865 1110.11,961.865 1092.16,961.865 1074.2,961.865 1056.25,961.865 1038.29,961.865 1020.34,961.865 1002.39,961.865 984.435,961.865 966.481,961.865 948.528,961.865 930.574,961.865 912.621,961.865 894.668,961.865 876.714,961.865 858.761,961.865 840.807,961.865 822.854,961.865 804.901,961.865 786.947,961.865 768.994,961.865 751.04,961.865 733.087,961.865 715.133,961.865 697.18,961.865 679.227,961.865 661.273,961.865 643.32,961.865 625.366,961.865 607.413,961.865 589.46,961.865 571.506,961.865 553.553,961.865 535.599,961.865 517.646,961.865 499.692,961.865 481.739,961.865 463.786,961.865 445.832,961.865 427.879,961.865 409.925,961.865 391.972,961.865 374.019,961.865 356.065,961.865 338.112,961.865 320.158,961.865 302.205,961.865 284.251,961.865 266.298,961.865 266.298,943.155 266.298,924.446 266.298,905.737 266.298,887.027 266.298,868.318 266.298,849.609 266.298,830.899 266.298,812.19 266.298,793.481 "/>
<polyline clip-path="url(#clip452)" style="stroke:#30123b; stroke-linecap:round; stroke-linejoin:round; stroke-width:4; stroke-opacity:1; fill:none" points="266.298,849.609 266.298,860.857 284.251,861.115 302.205,861.378 320.158,861.646 338.112,861.921 356.065,862.201 374.019,862.488 391.972,862.782 409.925,863.083 427.879,863.392 445.832,863.709 463.786,864.035 481.739,864.37 499.692,864.714 517.646,865.069 535.599,865.435 553.553,865.813 571.506,866.202 589.46,866.605 607.413,867.021 625.366,867.451 643.32,867.896 659.751,868.318 661.273,868.356 679.227,868.817 697.18,869.293 715.133,869.785 733.087,870.295 751.04,870.823 768.994,871.37 786.947,871.937 804.901,872.525 822.854,873.136 840.807,873.77 858.761,874.428 876.714,875.113 894.668,875.825 912.621,876.566 930.574,877.338 948.528,878.142 966.481,878.98 984.435,879.854 1002.39,880.767 1020.34,881.72 1038.29,882.716 1056.25,883.758 1074.2,884.848 1092.16,885.99 1107.75,887.027 1110.11,887.181 1128.06,888.394 1146.02,889.663 1163.97,890.994 1181.92,892.39 1199.88,893.855 1217.83,895.393 1235.78,897.012 1253.74,898.715 1271.69,900.509 1289.64,902.401 1307.6,904.399 1319.03,905.737 1325.55,906.504 1343.5,908.721 1361.46,911.068 1379.41,913.557 1397.36,916.201 1415.32,919.012 1433.27,922.007 1447.03,924.446 1451.22,925.195 1469.18,928.571 1487.13,932.183 1505.08,936.057 1523.04,940.22 1534.89,943.155 1540.99,944.68 1558.94,949.443 1576.9,954.592 1594.85,960.176 1599.95,961.865 1594.85,961.865 1576.9,961.865 1558.94,961.865 1540.99,961.865 1523.04,961.865 1505.08,961.865 1487.13,961.865 1469.18,961.865 1451.22,961.865 1433.27,961.865 1415.32,961.865 1397.36,961.865 1379.41,961.865 1361.46,961.865 1343.5,961.865 1325.55,961.865 1307.6,961.865 1289.64,961.865 1271.69,961.865 1253.74,961.865 1235.78,961.865 1217.83,961.865 1199.88,961.865 1181.92,961.865 1163.97,961.865 1146.02,961.865 1128.06,961.865 1110.11,961.865 1092.16,961.865 1074.2,961.865 1056.25,961.865 1038.29,961.865 1020.34,961.865 1002.39,961.865 984.435,961.865 966.481,961.865 948.528,961.865 930.574,961.865 912.621,961.865 894.668,961.865 876.714,961.865 858.761,961.865 840.807,961.865 822.854,961.865 804.901,961.865 786.947,961.865 768.994,961.865 751.04,961.865 733.087,961.865 715.133,961.865 697.18,961.865 679.227,961.865 661.273,961.865 643.32,961.865 625.366,961.865 607.413,961.865 589.46,961.865 571.506,961.865 553.553,961.865 535.599,961.865 517.646,961.865 499.692,961.865 481.739,961.865 463.786,961.865 445.832,961.865 427.879,961.865 409.925,961.865 391.972,961.865 374.019,961.865 356.065,961.865 338.112,961.865 320.158,961.865 302.205,961.865 284.251,961.865 266.298,961.865 266.298,943.155 266.298,924.446 266.298,905.737 266.298,887.027 266.298,868.318 266.298,849.609 "/>
<polyline clip-path="url(#clip452)" style="stroke:#30123b; stroke-linecap:round; stroke-linejoin:round; stroke-width:4; stroke-opacity:1; fill:none" points="266.298,905.737 266.298,911.461 284.251,911.841 302.205,912.228 320.158,912.62 338.112,913.02 356.065,913.426 374.019,913.841 391.972,914.264 409.925,914.696 427.879,915.138 445.832,915.59 463.786,916.052 481.739,916.526 499.692,917.012 517.646,917.511 535.599,918.024 553.553,918.551 571.506,919.093 589.46,919.651 607.413,920.226 625.366,920.818 643.32,921.43 661.273,922.061 679.227,922.713 697.18,923.387 715.133,924.085 724.148,924.446 733.087,924.805 751.04,925.55 768.994,926.322 786.947,927.121 804.901,927.951 822.854,928.811 840.807,929.704 858.761,930.632 876.714,931.596 894.668,932.598 912.621,933.641 930.574,934.726 948.528,935.856 966.481,937.033 984.435,938.26 1002.39,939.539 1020.34,940.875 1038.29,942.269 1049.26,943.155 1056.25,943.722 1074.2,945.235 1092.16,946.817 1110.11,948.472 1128.06,950.205 1146.02,952.02 1163.97,953.922 1181.92,955.917 1199.88,958.011 1217.83,960.212 1230.7,961.865 1217.83,961.865 1199.88,961.865 1181.92,961.865 1163.97,961.865 1146.02,961.865 1128.06,961.865 1110.11,961.865 1092.16,961.865 1074.2,961.865 1056.25,961.865 1038.29,961.865 1020.34,961.865 1002.39,961.865 984.435,961.865 966.481,961.865 948.528,961.865 930.574,961.865 912.621,961.865 894.668,961.865 876.714,961.865 858.761,961.865 840.807,961.865 822.854,961.865 804.901,961.865 786.947,961.865 768.994,961.865 751.04,961.865 733.087,961.865 715.133,961.865 697.18,961.865 679.227,961.865 661.273,961.865 643.32,961.865 625.366,961.865 607.413,961.865 589.46,961.865 571.506,961.865 553.553,961.865 535.599,961.865 517.646,961.865 499.692,961.865 481.739,961.865 463.786,961.865 445.832,961.865 427.879,961.865 409.925,961.865 391.972,961.865 374.019,961.865 356.065,961.865 338.112,961.865 320.158,961.865 302.205,961.865 284.251,961.865 266.298,961.865 266.298,943.155 266.298,924.446 266.298,905.737 "/>
<polyline clip-path="url(#clip452)" style="stroke:#ff00ff; stroke-linecap:round; stroke-linejoin:round; stroke-width:4; stroke-opacity:1; fill:none" points="266.298,872.995 2043.69,872.995 "/>
<polyline clip-path="url(#clip452)" style="stroke:#ff00ff; stroke-linecap:round; stroke-linejoin:round; stroke-width:4; stroke-opacity:1; fill:none" points="266.298,695.257 2043.69,695.257 "/>
<defs>
  <clipPath id="clip453">
    <rect x="2145" y="144" width="73" height="1280"/>
  </clipPath>
</defs>
<path clip-path="url(#clip453)" d="M2145.01 1423.78 L2217.01 1423.78 L2217.01 1241.02 L2145.01 1241.02  Z" fill="#30123b" fill-rule="evenodd" fill-opacity="1"/>
<path clip-path="url(#clip453)" d="M2145.01 1241.02 L2217.01 1241.02 L2217.01 1058.26 L2145.01 1058.26  Z" fill="#4584f9" fill-rule="evenodd" fill-opacity="1"/>
<path clip-path="url(#clip453)" d="M2145.01 1058.26 L2217.01 1058.26 L2217.01 875.505 L2145.01 875.505  Z" fill="#1ae4b6" fill-rule="evenodd" fill-opacity="1"/>
<path clip-path="url(#clip453)" d="M2145.01 875.505 L2217.01 875.505 L2217.01 692.747 L2145.01 692.747  Z" fill="#a4fc3b" fill-rule="evenodd" fill-opacity="1"/>
<path clip-path="url(#clip453)" d="M2145.01 692.747 L2217.01 692.747 L2217.01 509.99 L2145.01 509.99  Z" fill="#f9ba38" fill-rule="evenodd" fill-opacity="1"/>
<path clip-path="url(#clip453)" d="M2145.01 509.99 L2217.01 509.99 L2217.01 327.232 L2145.01 327.232  Z" fill="#e5460a" fill-rule="evenodd" fill-opacity="1"/>
<path clip-path="url(#clip453)" d="M2145.01 327.232 L2217.01 327.232 L2217.01 144.475 L2145.01 144.475  Z" fill="#7a0402" fill-rule="evenodd" fill-opacity="1"/>
<path clip-path="url(#clip450)" d="M2253.01 1301.75 L2282.68 1301.75 L2282.68 1305.69 L2253.01 1305.69 L2253.01 1301.75 Z" fill="#000000" fill-rule="nonzero" fill-opacity="1" /><path clip-path="url(#clip450)" d="M2302.78 1287.1 Q2299.17 1287.1 2297.34 1290.66 Q2295.53 1294.2 2295.53 1301.33 Q2295.53 1308.44 2297.34 1312.01 Q2299.17 1315.55 2302.78 1315.55 Q2306.41 1315.55 2308.22 1312.01 Q2310.04 1308.44 2310.04 1301.33 Q2310.04 1294.2 2308.22 1290.66 Q2306.41 1287.1 2302.78 1287.1 M2302.78 1283.39 Q2308.59 1283.39 2311.64 1288 Q2314.72 1292.58 2314.72 1301.33 Q2314.72 1310.06 2311.64 1314.67 Q2308.59 1319.25 2302.78 1319.25 Q2296.97 1319.25 2293.89 1314.67 Q2290.83 1310.06 2290.83 1301.33 Q2290.83 1292.58 2293.89 1288 Q2296.97 1283.39 2302.78 1283.39 Z" fill="#000000" fill-rule="nonzero" fill-opacity="1" /><path clip-path="url(#clip450)" d="M2322.94 1312.7 L2327.82 1312.7 L2327.82 1318.58 L2322.94 1318.58 L2322.94 1312.7 Z" fill="#000000" fill-rule="nonzero" fill-opacity="1" /><path clip-path="url(#clip450)" d="M2336.83 1284.02 L2359.05 1284.02 L2359.05 1286.01 L2346.5 1318.58 L2341.62 1318.58 L2353.42 1287.95 L2336.83 1287.95 L2336.83 1284.02 Z" fill="#000000" fill-rule="nonzero" fill-opacity="1" /><path clip-path="url(#clip450)" d="M2368.22 1284.02 L2386.57 1284.02 L2386.57 1287.95 L2372.5 1287.95 L2372.5 1296.43 Q2373.52 1296.08 2374.54 1295.92 Q2375.55 1295.73 2376.57 1295.73 Q2382.36 1295.73 2385.74 1298.9 Q2389.12 1302.07 2389.12 1307.49 Q2389.12 1313.07 2385.65 1316.17 Q2382.17 1319.25 2375.85 1319.25 Q2373.68 1319.25 2371.41 1318.88 Q2369.16 1318.51 2366.76 1317.77 L2366.76 1313.07 Q2368.84 1314.2 2371.06 1314.76 Q2373.29 1315.32 2375.76 1315.32 Q2379.77 1315.32 2382.1 1313.21 Q2384.44 1311.1 2384.44 1307.49 Q2384.44 1303.88 2382.1 1301.77 Q2379.77 1299.67 2375.76 1299.67 Q2373.89 1299.67 2372.01 1300.08 Q2370.16 1300.5 2368.22 1301.38 L2368.22 1284.02 Z" fill="#000000" fill-rule="nonzero" fill-opacity="1" /><path clip-path="url(#clip450)" d="M2253.01 1161.96 L2282.68 1161.96 L2282.68 1165.9 L2253.01 1165.9 L2253.01 1161.96 Z" fill="#000000" fill-rule="nonzero" fill-opacity="1" /><path clip-path="url(#clip450)" d="M2302.78 1147.31 Q2299.17 1147.31 2297.34 1150.88 Q2295.53 1154.42 2295.53 1161.55 Q2295.53 1168.65 2297.34 1172.22 Q2299.17 1175.76 2302.78 1175.76 Q2306.41 1175.76 2308.22 1172.22 Q2310.04 1168.65 2310.04 1161.55 Q2310.04 1154.42 2308.22 1150.88 Q2306.41 1147.31 2302.78 1147.31 M2302.78 1143.61 Q2308.59 1143.61 2311.64 1148.21 Q2314.72 1152.8 2314.72 1161.55 Q2314.72 1170.27 2311.64 1174.88 Q2308.59 1179.46 2302.78 1179.46 Q2296.97 1179.46 2293.89 1174.88 Q2290.83 1170.27 2290.83 1161.55 Q2290.83 1152.8 2293.89 1148.21 Q2296.97 1143.61 2302.78 1143.61 Z" fill="#000000" fill-rule="nonzero" fill-opacity="1" /><path clip-path="url(#clip450)" d="M2322.94 1172.91 L2327.82 1172.91 L2327.82 1178.79 L2322.94 1178.79 L2322.94 1172.91 Z" fill="#000000" fill-rule="nonzero" fill-opacity="1" /><path clip-path="url(#clip450)" d="M2338.05 1144.23 L2356.41 1144.23 L2356.41 1148.17 L2342.34 1148.17 L2342.34 1156.64 Q2343.35 1156.29 2344.37 1156.13 Q2345.39 1155.95 2346.41 1155.95 Q2352.2 1155.95 2355.58 1159.12 Q2358.96 1162.29 2358.96 1167.71 Q2358.96 1173.28 2355.48 1176.39 Q2352.01 1179.46 2345.69 1179.46 Q2343.52 1179.46 2341.25 1179.09 Q2339 1178.72 2336.6 1177.98 L2336.6 1173.28 Q2338.68 1174.42 2340.9 1174.97 Q2343.12 1175.53 2345.6 1175.53 Q2349.6 1175.53 2351.94 1173.42 Q2354.28 1171.32 2354.28 1167.71 Q2354.28 1164.09 2351.94 1161.99 Q2349.6 1159.88 2345.6 1159.88 Q2343.72 1159.88 2341.85 1160.3 Q2340 1160.71 2338.05 1161.59 L2338.05 1144.23 Z" fill="#000000" fill-rule="nonzero" fill-opacity="1" /><path clip-path="url(#clip450)" d="M2378.17 1147.31 Q2374.56 1147.31 2372.73 1150.88 Q2370.92 1154.42 2370.92 1161.55 Q2370.92 1168.65 2372.73 1172.22 Q2374.56 1175.76 2378.17 1175.76 Q2381.8 1175.76 2383.61 1172.22 Q2385.44 1168.65 2385.44 1161.55 Q2385.44 1154.42 2383.61 1150.88 Q2381.8 1147.31 2378.17 1147.31 M2378.17 1143.61 Q2383.98 1143.61 2387.03 1148.21 Q2390.11 1152.8 2390.11 1161.55 Q2390.11 1170.27 2387.03 1174.88 Q2383.98 1179.46 2378.17 1179.46 Q2372.36 1179.46 2369.28 1174.88 Q2366.22 1170.27 2366.22 1161.55 Q2366.22 1152.8 2369.28 1148.21 Q2372.36 1143.61 2378.17 1143.61 Z" fill="#000000" fill-rule="nonzero" fill-opacity="1" /><path clip-path="url(#clip450)" d="M2253.01 1022.18 L2282.68 1022.18 L2282.68 1026.11 L2253.01 1026.11 L2253.01 1022.18 Z" fill="#000000" fill-rule="nonzero" fill-opacity="1" /><path clip-path="url(#clip450)" d="M2302.78 1007.53 Q2299.17 1007.53 2297.34 1011.09 Q2295.53 1014.63 2295.53 1021.76 Q2295.53 1028.87 2297.34 1032.43 Q2299.17 1035.97 2302.78 1035.97 Q2306.41 1035.97 2308.22 1032.43 Q2310.04 1028.87 2310.04 1021.76 Q2310.04 1014.63 2308.22 1011.09 Q2306.41 1007.53 2302.78 1007.53 M2302.78 1003.82 Q2308.59 1003.82 2311.64 1008.43 Q2314.72 1013.01 2314.72 1021.76 Q2314.72 1030.49 2311.64 1035.09 Q2308.59 1039.68 2302.78 1039.68 Q2296.97 1039.68 2293.89 1035.09 Q2290.83 1030.49 2290.83 1021.76 Q2290.83 1013.01 2293.89 1008.43 Q2296.97 1003.82 2302.78 1003.82 Z" fill="#000000" fill-rule="nonzero" fill-opacity="1" /><path clip-path="url(#clip450)" d="M2322.94 1033.13 L2327.82 1033.13 L2327.82 1039.01 L2322.94 1039.01 L2322.94 1033.13 Z" fill="#000000" fill-rule="nonzero" fill-opacity="1" /><path clip-path="url(#clip450)" d="M2342.04 1035.07 L2358.35 1035.07 L2358.35 1039.01 L2336.41 1039.01 L2336.41 1035.07 Q2339.07 1032.32 2343.66 1027.69 Q2348.26 1023.03 2349.44 1021.69 Q2351.69 1019.17 2352.57 1017.43 Q2353.47 1015.67 2353.47 1013.98 Q2353.47 1011.23 2351.53 1009.49 Q2349.6 1007.76 2346.5 1007.76 Q2344.3 1007.76 2341.85 1008.52 Q2339.42 1009.28 2336.64 1010.84 L2336.64 1006.11 Q2339.47 1004.98 2341.92 1004.4 Q2344.37 1003.82 2346.41 1003.82 Q2351.78 1003.82 2354.97 1006.51 Q2358.17 1009.19 2358.17 1013.68 Q2358.17 1015.81 2357.36 1017.73 Q2356.57 1019.63 2354.47 1022.22 Q2353.89 1022.9 2350.79 1026.11 Q2347.68 1029.31 2342.04 1035.07 Z" fill="#000000" fill-rule="nonzero" fill-opacity="1" /><path clip-path="url(#clip450)" d="M2368.22 1004.45 L2386.57 1004.45 L2386.57 1008.38 L2372.5 1008.38 L2372.5 1016.85 Q2373.52 1016.51 2374.54 1016.34 Q2375.55 1016.16 2376.57 1016.16 Q2382.36 1016.16 2385.74 1019.33 Q2389.12 1022.5 2389.12 1027.92 Q2389.12 1033.5 2385.65 1036.6 Q2382.17 1039.68 2375.85 1039.68 Q2373.68 1039.68 2371.41 1039.31 Q2369.16 1038.94 2366.76 1038.2 L2366.76 1033.5 Q2368.84 1034.63 2371.06 1035.19 Q2373.29 1035.74 2375.76 1035.74 Q2379.77 1035.74 2382.1 1033.64 Q2384.44 1031.53 2384.44 1027.92 Q2384.44 1024.31 2382.1 1022.2 Q2379.77 1020.09 2375.76 1020.09 Q2373.89 1020.09 2372.01 1020.51 Q2370.16 1020.93 2368.22 1021.81 L2368.22 1004.45 Z" fill="#000000" fill-rule="nonzero" fill-opacity="1" /><path clip-path="url(#clip450)" d="M2264.95 867.739 Q2261.34 867.739 2259.51 871.304 Q2257.71 874.846 2257.71 881.975 Q2257.71 889.082 2259.51 892.647 Q2261.34 896.188 2264.95 896.188 Q2268.59 896.188 2270.39 892.647 Q2272.22 889.082 2272.22 881.975 Q2272.22 874.846 2270.39 871.304 Q2268.59 867.739 2264.95 867.739 M2264.95 864.036 Q2270.76 864.036 2273.82 868.642 Q2276.9 873.225 2276.9 881.975 Q2276.9 890.702 2273.82 895.309 Q2270.76 899.892 2264.95 899.892 Q2259.14 899.892 2256.06 895.309 Q2253.01 890.702 2253.01 881.975 Q2253.01 873.225 2256.06 868.642 Q2259.14 864.036 2264.95 864.036 Z" fill="#000000" fill-rule="nonzero" fill-opacity="1" /><path clip-path="url(#clip450)" d="M2264.95 727.953 Q2261.34 727.953 2259.51 731.518 Q2257.71 735.059 2257.71 742.189 Q2257.71 749.295 2259.51 752.86 Q2261.34 756.402 2264.95 756.402 Q2268.59 756.402 2270.39 752.86 Q2272.22 749.295 2272.22 742.189 Q2272.22 735.059 2270.39 731.518 Q2268.59 727.953 2264.95 727.953 M2264.95 724.249 Q2270.76 724.249 2273.82 728.856 Q2276.9 733.439 2276.9 742.189 Q2276.9 750.916 2273.82 755.522 Q2270.76 760.106 2264.95 760.106 Q2259.14 760.106 2256.06 755.522 Q2253.01 750.916 2253.01 742.189 Q2253.01 733.439 2256.06 728.856 Q2259.14 724.249 2264.95 724.249 Z" fill="#000000" fill-rule="nonzero" fill-opacity="1" /><path clip-path="url(#clip450)" d="M2285.11 753.555 L2290 753.555 L2290 759.434 L2285.11 759.434 L2285.11 753.555 Z" fill="#000000" fill-rule="nonzero" fill-opacity="1" /><path clip-path="url(#clip450)" d="M2304.21 755.499 L2320.53 755.499 L2320.53 759.434 L2298.59 759.434 L2298.59 755.499 Q2301.25 752.744 2305.83 748.115 Q2310.44 743.462 2311.62 742.12 Q2313.86 739.596 2314.74 737.86 Q2315.65 736.101 2315.65 734.411 Q2315.65 731.657 2313.7 729.921 Q2311.78 728.184 2308.68 728.184 Q2306.48 728.184 2304.03 728.948 Q2301.6 729.712 2298.82 731.263 L2298.82 726.541 Q2301.64 725.407 2304.1 724.828 Q2306.55 724.249 2308.59 724.249 Q2313.96 724.249 2317.15 726.934 Q2320.35 729.62 2320.35 734.11 Q2320.35 736.24 2319.54 738.161 Q2318.75 740.059 2316.64 742.652 Q2316.06 743.323 2312.96 746.541 Q2309.86 749.735 2304.21 755.499 Z" fill="#000000" fill-rule="nonzero" fill-opacity="1" /><path clip-path="url(#clip450)" d="M2330.39 724.874 L2348.75 724.874 L2348.75 728.809 L2334.67 728.809 L2334.67 737.282 Q2335.69 736.934 2336.71 736.772 Q2337.73 736.587 2338.75 736.587 Q2344.54 736.587 2347.91 739.758 Q2351.29 742.93 2351.29 748.346 Q2351.29 753.925 2347.82 757.027 Q2344.35 760.106 2338.03 760.106 Q2335.85 760.106 2333.59 759.735 Q2331.34 759.365 2328.93 758.624 L2328.93 753.925 Q2331.02 755.059 2333.24 755.615 Q2335.46 756.17 2337.94 756.17 Q2341.94 756.17 2344.28 754.064 Q2346.62 751.957 2346.62 748.346 Q2346.62 744.735 2344.28 742.629 Q2341.94 740.522 2337.94 740.522 Q2336.06 740.522 2334.19 740.939 Q2332.34 741.356 2330.39 742.235 L2330.39 724.874 Z" fill="#000000" fill-rule="nonzero" fill-opacity="1" /><path clip-path="url(#clip450)" d="M2264.95 588.167 Q2261.34 588.167 2259.51 591.731 Q2257.71 595.273 2257.71 602.403 Q2257.71 609.509 2259.51 613.074 Q2261.34 616.616 2264.95 616.616 Q2268.59 616.616 2270.39 613.074 Q2272.22 609.509 2272.22 602.403 Q2272.22 595.273 2270.39 591.731 Q2268.59 588.167 2264.95 588.167 M2264.95 584.463 Q2270.76 584.463 2273.82 589.069 Q2276.9 593.653 2276.9 602.403 Q2276.9 611.129 2273.82 615.736 Q2270.76 620.319 2264.95 620.319 Q2259.14 620.319 2256.06 615.736 Q2253.01 611.129 2253.01 602.403 Q2253.01 593.653 2256.06 589.069 Q2259.14 584.463 2264.95 584.463 Z" fill="#000000" fill-rule="nonzero" fill-opacity="1" /><path clip-path="url(#clip450)" d="M2285.11 613.768 L2290 613.768 L2290 619.648 L2285.11 619.648 L2285.11 613.768 Z" fill="#000000" fill-rule="nonzero" fill-opacity="1" /><path clip-path="url(#clip450)" d="M2300.23 585.088 L2318.59 585.088 L2318.59 589.023 L2304.51 589.023 L2304.51 597.495 Q2305.53 597.148 2306.55 596.986 Q2307.57 596.801 2308.59 596.801 Q2314.37 596.801 2317.75 599.972 Q2321.13 603.143 2321.13 608.56 Q2321.13 614.139 2317.66 617.241 Q2314.19 620.319 2307.87 620.319 Q2305.69 620.319 2303.42 619.949 Q2301.18 619.578 2298.77 618.838 L2298.77 614.139 Q2300.85 615.273 2303.08 615.829 Q2305.3 616.384 2307.78 616.384 Q2311.78 616.384 2314.12 614.278 Q2316.46 612.171 2316.46 608.56 Q2316.46 604.949 2314.12 602.842 Q2311.78 600.736 2307.78 600.736 Q2305.9 600.736 2304.03 601.153 Q2302.17 601.569 2300.23 602.449 L2300.23 585.088 Z" fill="#000000" fill-rule="nonzero" fill-opacity="1" /><path clip-path="url(#clip450)" d="M2340.35 588.167 Q2336.73 588.167 2334.91 591.731 Q2333.1 595.273 2333.1 602.403 Q2333.1 609.509 2334.91 613.074 Q2336.73 616.616 2340.35 616.616 Q2343.98 616.616 2345.79 613.074 Q2347.61 609.509 2347.61 602.403 Q2347.61 595.273 2345.79 591.731 Q2343.98 588.167 2340.35 588.167 M2340.35 584.463 Q2346.16 584.463 2349.21 589.069 Q2352.29 593.653 2352.29 602.403 Q2352.29 611.129 2349.21 615.736 Q2346.16 620.319 2340.35 620.319 Q2334.54 620.319 2331.46 615.736 Q2328.4 611.129 2328.4 602.403 Q2328.4 593.653 2331.46 589.069 Q2334.54 584.463 2340.35 584.463 Z" fill="#000000" fill-rule="nonzero" fill-opacity="1" /><path clip-path="url(#clip450)" d="M2264.95 448.38 Q2261.34 448.38 2259.51 451.945 Q2257.71 455.487 2257.71 462.616 Q2257.71 469.723 2259.51 473.288 Q2261.34 476.829 2264.95 476.829 Q2268.59 476.829 2270.39 473.288 Q2272.22 469.723 2272.22 462.616 Q2272.22 455.487 2270.39 451.945 Q2268.59 448.38 2264.95 448.38 M2264.95 444.677 Q2270.76 444.677 2273.82 449.283 Q2276.9 453.866 2276.9 462.616 Q2276.9 471.343 2273.82 475.95 Q2270.76 480.533 2264.95 480.533 Q2259.14 480.533 2256.06 475.95 Q2253.01 471.343 2253.01 462.616 Q2253.01 453.866 2256.06 449.283 Q2259.14 444.677 2264.95 444.677 Z" fill="#000000" fill-rule="nonzero" fill-opacity="1" /><path clip-path="url(#clip450)" d="M2285.11 473.982 L2290 473.982 L2290 479.862 L2285.11 479.862 L2285.11 473.982 Z" fill="#000000" fill-rule="nonzero" fill-opacity="1" /><path clip-path="url(#clip450)" d="M2299 445.302 L2321.23 445.302 L2321.23 447.292 L2308.68 479.862 L2303.79 479.862 L2315.6 449.237 L2299 449.237 L2299 445.302 Z" fill="#000000" fill-rule="nonzero" fill-opacity="1" /><path clip-path="url(#clip450)" d="M2330.39 445.302 L2348.75 445.302 L2348.75 449.237 L2334.67 449.237 L2334.67 457.709 Q2335.69 457.362 2336.71 457.2 Q2337.73 457.015 2338.75 457.015 Q2344.54 457.015 2347.91 460.186 Q2351.29 463.357 2351.29 468.774 Q2351.29 474.352 2347.82 477.454 Q2344.35 480.533 2338.03 480.533 Q2335.85 480.533 2333.59 480.163 Q2331.34 479.792 2328.93 479.051 L2328.93 474.352 Q2331.02 475.487 2333.24 476.042 Q2335.46 476.598 2337.94 476.598 Q2341.94 476.598 2344.28 474.491 Q2346.62 472.385 2346.62 468.774 Q2346.62 465.163 2344.28 463.056 Q2341.94 460.95 2337.94 460.95 Q2336.06 460.95 2334.19 461.366 Q2332.34 461.783 2330.39 462.663 L2330.39 445.302 Z" fill="#000000" fill-rule="nonzero" fill-opacity="1" /><path clip-path="url(#clip450)" d="M2253.68 336.14 L2261.32 336.14 L2261.32 309.775 L2253.01 311.441 L2253.01 307.182 L2261.27 305.515 L2265.95 305.515 L2265.95 336.14 L2273.59 336.14 L2273.59 340.075 L2253.68 340.075 L2253.68 336.14 Z" fill="#000000" fill-rule="nonzero" fill-opacity="1" /><path clip-path="url(#clip450)" d="M2283.03 334.196 L2287.92 334.196 L2287.92 340.075 L2283.03 340.075 L2283.03 334.196 Z" fill="#000000" fill-rule="nonzero" fill-opacity="1" /><path clip-path="url(#clip450)" d="M2308.1 308.594 Q2304.49 308.594 2302.66 312.159 Q2300.85 315.7 2300.85 322.83 Q2300.85 329.936 2302.66 333.501 Q2304.49 337.043 2308.1 337.043 Q2311.73 337.043 2313.54 333.501 Q2315.37 329.936 2315.37 322.83 Q2315.37 315.7 2313.54 312.159 Q2311.73 308.594 2308.1 308.594 M2308.1 304.89 Q2313.91 304.89 2316.97 309.497 Q2320.04 314.08 2320.04 322.83 Q2320.04 331.557 2316.97 336.163 Q2313.91 340.747 2308.1 340.747 Q2302.29 340.747 2299.21 336.163 Q2296.16 331.557 2296.16 322.83 Q2296.16 314.08 2299.21 309.497 Q2302.29 304.89 2308.1 304.89 Z" fill="#000000" fill-rule="nonzero" fill-opacity="1" /><path clip-path="url(#clip450)" d="M2338.26 308.594 Q2334.65 308.594 2332.82 312.159 Q2331.02 315.7 2331.02 322.83 Q2331.02 329.936 2332.82 333.501 Q2334.65 337.043 2338.26 337.043 Q2341.9 337.043 2343.7 333.501 Q2345.53 329.936 2345.53 322.83 Q2345.53 315.7 2343.7 312.159 Q2341.9 308.594 2338.26 308.594 M2338.26 304.89 Q2344.07 304.89 2347.13 309.497 Q2350.21 314.08 2350.21 322.83 Q2350.21 331.557 2347.13 336.163 Q2344.07 340.747 2338.26 340.747 Q2332.45 340.747 2329.37 336.163 Q2326.32 331.557 2326.32 322.83 Q2326.32 314.08 2329.37 309.497 Q2332.45 304.89 2338.26 304.89 Z" fill="#000000" fill-rule="nonzero" fill-opacity="1" /><path clip-path="url(#clip450)" d="M2253.68 196.354 L2261.32 196.354 L2261.32 169.988 L2253.01 171.655 L2253.01 167.396 L2261.27 165.729 L2265.95 165.729 L2265.95 196.354 L2273.59 196.354 L2273.59 200.289 L2253.68 200.289 L2253.68 196.354 Z" fill="#000000" fill-rule="nonzero" fill-opacity="1" /><path clip-path="url(#clip450)" d="M2283.03 194.409 L2287.92 194.409 L2287.92 200.289 L2283.03 200.289 L2283.03 194.409 Z" fill="#000000" fill-rule="nonzero" fill-opacity="1" /><path clip-path="url(#clip450)" d="M2302.13 196.354 L2318.45 196.354 L2318.45 200.289 L2296.5 200.289 L2296.5 196.354 Q2299.17 193.599 2303.75 188.97 Q2308.35 184.317 2309.54 182.974 Q2311.78 180.451 2312.66 178.715 Q2313.56 176.956 2313.56 175.266 Q2313.56 172.511 2311.62 170.775 Q2309.7 169.039 2306.6 169.039 Q2304.4 169.039 2301.94 169.803 Q2299.51 170.567 2296.73 172.118 L2296.73 167.396 Q2299.56 166.261 2302.01 165.683 Q2304.47 165.104 2306.5 165.104 Q2311.87 165.104 2315.07 167.789 Q2318.26 170.474 2318.26 174.965 Q2318.26 177.095 2317.45 179.016 Q2316.66 180.914 2314.56 183.507 Q2313.98 184.178 2310.88 187.396 Q2307.78 190.59 2302.13 196.354 Z" fill="#000000" fill-rule="nonzero" fill-opacity="1" /><path clip-path="url(#clip450)" d="M2328.31 165.729 L2346.66 165.729 L2346.66 169.664 L2332.59 169.664 L2332.59 178.136 Q2333.61 177.789 2334.63 177.627 Q2335.65 177.442 2336.66 177.442 Q2342.45 177.442 2345.83 180.613 Q2349.21 183.784 2349.21 189.201 Q2349.21 194.78 2345.74 197.882 Q2342.27 200.96 2335.95 200.96 Q2333.77 200.96 2331.5 200.59 Q2329.26 200.22 2326.85 199.479 L2326.85 194.78 Q2328.93 195.914 2331.16 196.47 Q2333.38 197.025 2335.85 197.025 Q2339.86 197.025 2342.2 194.919 Q2344.54 192.812 2344.54 189.201 Q2344.54 185.59 2342.2 183.484 Q2339.86 181.377 2335.85 181.377 Q2333.98 181.377 2332.1 181.794 Q2330.25 182.21 2328.31 183.09 L2328.31 165.729 Z" fill="#000000" fill-rule="nonzero" fill-opacity="1" /><polyline clip-path="url(#clip450)" style="stroke:#000000; stroke-linecap:round; stroke-linejoin:round; stroke-width:4; stroke-opacity:1; fill:none" points="2217.01,1423.78 2217.01,1304.93 2241.01,1304.93 2217.01,1304.93 2217.01,1165.14 2241.01,1165.14 2217.01,1165.14 2217.01,1025.36 2241.01,1025.36 2217.01,1025.36 2217.01,885.569 2241.01,885.569 2217.01,885.569 2217.01,745.783 2241.01,745.783 2217.01,745.783 2217.01,605.997 2241.01,605.997 2217.01,605.997 2217.01,466.21 2241.01,466.21 2217.01,466.21 2217.01,326.424 2241.01,326.424 2217.01,326.424 2217.01,186.638 2241.01,186.638 2217.01,186.638 2217.01,144.475 "/>
</svg>
