<?xml version="1.0" encoding="utf-8"?>
<svg xmlns="http://www.w3.org/2000/svg" xmlns:xlink="http://www.w3.org/1999/xlink" width="600" height="400" viewBox="0 0 2400 1600">
<defs>
  <clipPath id="clip480">
    <rect x="0" y="0" width="2400" height="1600"/>
  </clipPath>
</defs>
<path clip-path="url(#clip480)" d="M0 1600 L2400 1600 L2400 0 L0 0  Z" fill="#ffffff" fill-rule="evenodd" fill-opacity="1"/>
<defs>
  <clipPath id="clip481">
    <rect x="480" y="0" width="1681" height="1600"/>
  </clipPath>
</defs>
<path clip-path="url(#clip480)" d="M212.976 1423.78 L2097.01 1423.78 L2097.01 144.475 L212.976 144.475  Z" fill="#ffffff" fill-rule="evenodd" fill-opacity="1"/>
<defs>
  <clipPath id="clip482">
    <rect x="212" y="144" width="1885" height="1280"/>
  </clipPath>
</defs>
<polyline clip-path="url(#clip482)" style="stroke:#000000; stroke-linecap:round; stroke-linejoin:round; stroke-width:2; stroke-opacity:0.1; fill:none" points="266.298,144.475 266.298,1423.78 "/>
<polyline clip-path="url(#clip482)" style="stroke:#000000; stroke-linecap:round; stroke-linejoin:round; stroke-width:2; stroke-opacity:0.1; fill:none" points="621.776,144.475 621.776,1423.78 "/>
<polyline clip-path="url(#clip482)" style="stroke:#000000; stroke-linecap:round; stroke-linejoin:round; stroke-width:2; stroke-opacity:0.1; fill:none" points="977.253,144.475 977.253,1423.78 "/>
<polyline clip-path="url(#clip482)" style="stroke:#000000; stroke-linecap:round; stroke-linejoin:round; stroke-width:2; stroke-opacity:0.1; fill:none" points="1332.73,144.475 1332.73,1423.78 "/>
<polyline clip-path="url(#clip482)" style="stroke:#000000; stroke-linecap:round; stroke-linejoin:round; stroke-width:2; stroke-opacity:0.1; fill:none" points="1688.21,144.475 1688.21,1423.78 "/>
<polyline clip-path="url(#clip482)" style="stroke:#000000; stroke-linecap:round; stroke-linejoin:round; stroke-width:2; stroke-opacity:0.1; fill:none" points="2043.69,144.475 2043.69,1423.78 "/>
<polyline clip-path="url(#clip480)" style="stroke:#000000; stroke-linecap:round; stroke-linejoin:round; stroke-width:4; stroke-opacity:1; fill:none" points="212.976,1423.78 2097.01,1423.78 "/>
<polyline clip-path="url(#clip480)" style="stroke:#000000; stroke-linecap:round; stroke-linejoin:round; stroke-width:4; stroke-opacity:1; fill:none" points="266.298,1423.78 266.298,1407.01 "/>
<polyline clip-path="url(#clip480)" style="stroke:#000000; stroke-linecap:round; stroke-linejoin:round; stroke-width:4; stroke-opacity:1; fill:none" points="621.776,1423.78 621.776,1407.01 "/>
<polyline clip-path="url(#clip480)" style="stroke:#000000; stroke-linecap:round; stroke-linejoin:round; stroke-width:4; stroke-opacity:1; fill:none" points="977.253,1423.78 977.253,1407.01 "/>
<polyline clip-path="url(#clip480)" style="stroke:#000000; stroke-linecap:round; stroke-linejoin:round; stroke-width:4; stroke-opacity:1; fill:none" points="1332.73,1423.78 1332.73,1407.01 "/>
<polyline clip-path="url(#clip480)" style="stroke:#000000; stroke-linecap:round; stroke-linejoin:round; stroke-width:4; stroke-opacity:1; fill:none" points="1688.21,1423.78 1688.21,1407.01 "/>
<polyline clip-path="url(#clip480)" style="stroke:#000000; stroke-linecap:round; stroke-linejoin:round; stroke-width:4; stroke-opacity:1; fill:none" points="2043.69,1423.78 2043.69,1407.01 "/>
<path clip-path="url(#clip480)" d="M266.298 1454.7 Q262.687 1454.7 260.858 1458.26 Q259.053 1461.8 259.053 1468.93 Q259.053 1476.04 260.858 1479.6 Q262.687 1483.14 266.298 1483.14 Q269.932 1483.14 271.738 1479.6 Q273.567 1476.04 273.567 1468.93 Q273.567 1461.8 271.738 1458.26 Q269.932 1454.7 266.298 1454.7 M266.298 1450.99 Q272.108 1450.99 275.164 1455.6 Q278.242 1460.18 278.242 1468.93 Q278.242 1477.66 275.164 1482.26 Q272.108 1486.85 266.298 1486.85 Q260.488 1486.85 257.409 1482.26 Q254.354 1477.66 254.354 1468.93 Q254.354 1460.18 257.409 1455.6 Q260.488 1450.99 266.298 1450.99 Z" fill="#000000" fill-rule="nonzero" fill-opacity="1" /><path clip-path="url(#clip480)" d="M612.158 1482.24 L619.797 1482.24 L619.797 1455.88 L611.486 1457.54 L611.486 1453.28 L619.75 1451.62 L624.426 1451.62 L624.426 1482.24 L632.065 1482.24 L632.065 1486.18 L612.158 1486.18 L612.158 1482.24 Z" fill="#000000" fill-rule="nonzero" fill-opacity="1" /><path clip-path="url(#clip480)" d="M971.906 1482.24 L988.225 1482.24 L988.225 1486.18 L966.281 1486.18 L966.281 1482.24 Q968.943 1479.49 973.526 1474.86 Q978.133 1470.2 979.313 1468.86 Q981.559 1466.34 982.438 1464.6 Q983.341 1462.84 983.341 1461.15 Q983.341 1458.4 981.397 1456.66 Q979.476 1454.93 976.374 1454.93 Q974.175 1454.93 971.721 1455.69 Q969.29 1456.45 966.513 1458.01 L966.513 1453.28 Q969.337 1452.15 971.79 1451.57 Q974.244 1450.99 976.281 1450.99 Q981.651 1450.99 984.846 1453.68 Q988.04 1456.36 988.04 1460.85 Q988.04 1462.98 987.23 1464.9 Q986.443 1466.8 984.337 1469.39 Q983.758 1470.07 980.656 1473.28 Q977.554 1476.48 971.906 1482.24 Z" fill="#000000" fill-rule="nonzero" fill-opacity="1" /><path clip-path="url(#clip480)" d="M1336.98 1467.54 Q1340.34 1468.26 1342.21 1470.53 Q1344.11 1472.8 1344.11 1476.13 Q1344.11 1481.25 1340.59 1484.05 Q1337.07 1486.85 1330.59 1486.85 Q1328.41 1486.85 1326.1 1486.41 Q1323.81 1485.99 1321.35 1485.14 L1321.35 1480.62 Q1323.3 1481.76 1325.61 1482.33 Q1327.93 1482.91 1330.45 1482.91 Q1334.85 1482.91 1337.14 1481.18 Q1339.46 1479.44 1339.46 1476.13 Q1339.46 1473.08 1337.3 1471.36 Q1335.17 1469.63 1331.35 1469.63 L1327.33 1469.63 L1327.33 1465.78 L1331.54 1465.78 Q1334.99 1465.78 1336.82 1464.42 Q1338.65 1463.03 1338.65 1460.44 Q1338.65 1457.77 1336.75 1456.36 Q1334.87 1454.93 1331.35 1454.93 Q1329.43 1454.93 1327.23 1455.34 Q1325.03 1455.76 1322.4 1456.64 L1322.4 1452.47 Q1325.06 1451.73 1327.37 1451.36 Q1329.71 1450.99 1331.77 1450.99 Q1337.09 1450.99 1340.2 1453.42 Q1343.3 1455.83 1343.3 1459.95 Q1343.3 1462.82 1341.65 1464.81 Q1340.01 1466.78 1336.98 1467.54 Z" fill="#000000" fill-rule="nonzero" fill-opacity="1" /><path clip-path="url(#clip480)" d="M1691.22 1455.69 L1679.41 1474.14 L1691.22 1474.14 L1691.22 1455.69 M1689.99 1451.62 L1695.87 1451.62 L1695.87 1474.14 L1700.8 1474.14 L1700.8 1478.03 L1695.87 1478.03 L1695.87 1486.18 L1691.22 1486.18 L1691.22 1478.03 L1675.62 1478.03 L1675.62 1473.52 L1689.99 1451.62 Z" fill="#000000" fill-rule="nonzero" fill-opacity="1" /><path clip-path="url(#clip480)" d="M2033.96 1451.62 L2052.32 1451.62 L2052.32 1455.55 L2038.25 1455.55 L2038.25 1464.02 Q2039.26 1463.68 2040.28 1463.52 Q2041.3 1463.33 2042.32 1463.33 Q2048.11 1463.33 2051.49 1466.5 Q2054.87 1469.67 2054.87 1475.09 Q2054.87 1480.67 2051.39 1483.77 Q2047.92 1486.85 2041.6 1486.85 Q2039.43 1486.85 2037.16 1486.48 Q2034.91 1486.11 2032.51 1485.37 L2032.51 1480.67 Q2034.59 1481.8 2036.81 1482.36 Q2039.03 1482.91 2041.51 1482.91 Q2045.51 1482.91 2047.85 1480.81 Q2050.19 1478.7 2050.19 1475.09 Q2050.19 1471.48 2047.85 1469.37 Q2045.51 1467.27 2041.51 1467.27 Q2039.64 1467.27 2037.76 1467.68 Q2035.91 1468.1 2033.96 1468.98 L2033.96 1451.62 Z" fill="#000000" fill-rule="nonzero" fill-opacity="1" /><path clip-path="url(#clip480)" d="M1171.61 1532.99 L1158.72 1550.34 L1172.28 1568.64 L1165.37 1568.64 L1154.99 1554.64 L1144.62 1568.64 L1137.71 1568.64 L1151.55 1549.99 L1138.89 1532.99 L1145.79 1532.99 L1155.25 1545.69 L1164.7 1532.99 L1171.61 1532.99 Z" fill="#000000" fill-rule="nonzero" fill-opacity="1" /><polyline clip-path="url(#clip482)" style="stroke:#000000; stroke-linecap:round; stroke-linejoin:round; stroke-width:2; stroke-opacity:0.1; fill:none" points="212.976,339.779 2097.01,339.779 "/>
<polyline clip-path="url(#clip482)" style="stroke:#000000; stroke-linecap:round; stroke-linejoin:round; stroke-width:2; stroke-opacity:0.1; fill:none" points="212.976,695.257 2097.01,695.257 "/>
<polyline clip-path="url(#clip482)" style="stroke:#000000; stroke-linecap:round; stroke-linejoin:round; stroke-width:2; stroke-opacity:0.1; fill:none" points="212.976,1050.73 2097.01,1050.73 "/>
<polyline clip-path="url(#clip482)" style="stroke:#000000; stroke-linecap:round; stroke-linejoin:round; stroke-width:2; stroke-opacity:0.1; fill:none" points="212.976,1406.21 2097.01,1406.21 "/>
<polyline clip-path="url(#clip480)" style="stroke:#000000; stroke-linecap:round; stroke-linejoin:round; stroke-width:4; stroke-opacity:1; fill:none" points="212.976,144.475 212.976,1423.78 "/>
<polyline clip-path="url(#clip480)" style="stroke:#000000; stroke-linecap:round; stroke-linejoin:round; stroke-width:4; stroke-opacity:1; fill:none" points="212.976,339.779 229.739,339.779 "/>
<polyline clip-path="url(#clip480)" style="stroke:#000000; stroke-linecap:round; stroke-linejoin:round; stroke-width:4; stroke-opacity:1; fill:none" points="212.976,695.257 229.739,695.257 "/>
<polyline clip-path="url(#clip480)" style="stroke:#000000; stroke-linecap:round; stroke-linejoin:round; stroke-width:4; stroke-opacity:1; fill:none" points="212.976,1050.73 229.739,1050.73 "/>
<polyline clip-path="url(#clip480)" style="stroke:#000000; stroke-linecap:round; stroke-linejoin:round; stroke-width:4; stroke-opacity:1; fill:none" points="212.976,1406.21 229.739,1406.21 "/>
<path clip-path="url(#clip480)" d="M116.491 340.23 L146.166 340.23 L146.166 344.165 L116.491 344.165 L116.491 340.23 Z" fill="#000000" fill-rule="nonzero" fill-opacity="1" /><path clip-path="url(#clip480)" d="M157.069 353.124 L164.708 353.124 L164.708 326.758 L156.398 328.425 L156.398 324.166 L164.662 322.499 L169.338 322.499 L169.338 353.124 L176.976 353.124 L176.976 357.059 L157.069 357.059 L157.069 353.124 Z" fill="#000000" fill-rule="nonzero" fill-opacity="1" /><path clip-path="url(#clip480)" d="M165.032 681.055 Q161.421 681.055 159.592 684.62 Q157.787 688.162 157.787 695.291 Q157.787 702.398 159.592 705.963 Q161.421 709.504 165.032 709.504 Q168.666 709.504 170.472 705.963 Q172.3 702.398 172.3 695.291 Q172.3 688.162 170.472 684.62 Q168.666 681.055 165.032 681.055 M165.032 677.352 Q170.842 677.352 173.898 681.958 Q176.976 686.541 176.976 695.291 Q176.976 704.018 173.898 708.625 Q170.842 713.208 165.032 713.208 Q159.222 713.208 156.143 708.625 Q153.088 704.018 153.088 695.291 Q153.088 686.541 156.143 681.958 Q159.222 677.352 165.032 677.352 Z" fill="#000000" fill-rule="nonzero" fill-opacity="1" /><path clip-path="url(#clip480)" d="M157.069 1064.08 L164.708 1064.08 L164.708 1037.71 L156.398 1039.38 L156.398 1035.12 L164.662 1033.45 L169.338 1033.45 L169.338 1064.08 L176.976 1064.08 L176.976 1068.01 L157.069 1068.01 L157.069 1064.08 Z" fill="#000000" fill-rule="nonzero" fill-opacity="1" /><path clip-path="url(#clip480)" d="M160.657 1419.56 L176.976 1419.56 L176.976 1423.49 L155.032 1423.49 L155.032 1419.56 Q157.694 1416.8 162.277 1412.17 Q166.884 1407.52 168.064 1406.18 Q170.31 1403.65 171.189 1401.92 Q172.092 1400.16 172.092 1398.47 Q172.092 1395.71 170.148 1393.98 Q168.226 1392.24 165.125 1392.24 Q162.926 1392.24 160.472 1393.01 Q158.041 1393.77 155.264 1395.32 L155.264 1390.6 Q158.088 1389.46 160.541 1388.89 Q162.995 1388.31 165.032 1388.31 Q170.402 1388.31 173.597 1390.99 Q176.791 1393.68 176.791 1398.17 Q176.791 1400.3 175.981 1402.22 Q175.194 1404.12 173.088 1406.71 Q172.509 1407.38 169.407 1410.6 Q166.305 1413.79 160.657 1419.56 Z" fill="#000000" fill-rule="nonzero" fill-opacity="1" /><path clip-path="url(#clip480)" d="M69.5448 782.439 Q75.9105 784.922 77.852 787.277 Q79.7935 789.632 79.7935 793.579 L79.7935 798.258 L74.892 798.258 L74.892 794.82 Q74.892 792.401 73.7461 791.065 Q72.6003 789.728 68.3353 788.105 L65.6617 787.054 L30.5866 801.473 L30.5866 795.266 L58.4684 784.126 L30.5866 772.986 L30.5866 766.779 L69.5448 782.439 Z" fill="#000000" fill-rule="nonzero" fill-opacity="1" /><path clip-path="url(#clip480)" d="M1118.21 54.671 L1118.21 27.2059 L1125.66 27.2059 L1125.66 54.3874 Q1125.66 60.8284 1128.18 64.0691 Q1130.69 67.2693 1135.71 67.2693 Q1141.75 67.2693 1145.23 63.421 Q1148.75 59.5726 1148.75 52.9291 L1148.75 27.2059 L1156.21 27.2059 L1156.21 72.576 L1148.75 72.576 L1148.75 65.6084 Q1146.04 69.7404 1142.43 71.7658 Q1138.87 73.7508 1134.13 73.7508 Q1126.31 73.7508 1122.26 68.8897 Q1118.21 64.0286 1118.21 54.671 M1136.97 26.1121 L1136.97 26.1121 Z" fill="#000000" fill-rule="nonzero" fill-opacity="1" /><path clip-path="url(#clip480)" d="M1174.6 67.958 L1191.77 67.958 L1191.77 72.576 L1167.55 72.576 L1167.55 68.12 Q1168.93 66.8642 1171.48 64.5957 Q1185.41 52.2405 1185.41 48.4326 Q1185.41 45.759 1183.31 44.1387 Q1181.2 42.4778 1177.76 42.4778 Q1175.65 42.4778 1173.18 43.2069 Q1170.71 43.8956 1167.79 45.3134 L1167.79 40.3308 Q1170.91 39.1965 1173.59 38.6294 Q1176.3 38.0623 1178.61 38.0623 Q1184.48 38.0623 1188.01 40.7359 Q1191.53 43.4095 1191.53 47.7845 Q1191.53 53.4152 1178.12 64.9198 Q1175.85 66.8642 1174.6 67.958 Z" fill="#000000" fill-rule="nonzero" fill-opacity="1" /><path clip-path="url(#clip482)" d="M266.298 606.387 L266.298 606.387 L284.251 606.387 L302.205 606.387 L320.158 606.387 L338.112 606.387 L356.065 606.387 L374.019 606.387 L391.972 606.387 L409.925 606.387 L427.879 606.387 L445.832 606.387 L463.786 606.387 L481.739 606.387 L499.692 606.387 L517.646 606.387 L535.599 606.387 L553.553 606.387 L571.506 606.387 L589.46 606.387 L607.413 606.387 L625.366 606.387 L643.32 606.387 L661.273 606.387 L679.227 606.387 L697.18 606.387 L715.133 606.387 L733.087 606.387 L751.04 606.387 L768.994 606.387 L786.947 606.387 L804.901 606.387 L822.854 606.387 L840.807 606.387 L858.761 606.387 L876.714 606.387 L894.668 606.387 L912.621 606.387 L930.574 606.387 L948.528 606.387 L966.481 606.387 L984.435 606.387 L1002.39 606.387 L1020.34 606.387 L1038.29 606.387 L1056.25 606.387 L1074.2 606.387 L1092.16 606.387 L1110.11 606.387 L1128.06 606.387 L1146.02 606.387 L1163.97 606.387 L1181.92 606.387 L1199.88 606.387 L1217.83 606.387 L1235.78 606.387 L1253.74 606.387 L1271.69 606.387 L1289.64 606.387 L1307.6 606.387 L1325.55 606.387 L1343.5 606.387 L1361.46 606.387 L1379.41 606.387 L1397.36 606.387 L1415.32 606.387 L1433.27 606.387 L1451.22 606.387 L1469.18 606.387 L1487.13 606.387 L1505.08 606.387 L1523.04 606.387 L1540.99 606.387 L1558.94 606.387 L1576.9 606.387 L1594.85 606.387 L1612.8 606.387 L1630.76 606.387 L1648.71 606.387 L1666.66 606.387 L1684.62 606.387 L1702.57 606.387 L1720.52 606.387 L1738.48 606.387 L1756.43 606.387 L1774.38 606.387 L1792.34 606.387 L1810.29 606.387 L1828.25 606.387 L1846.2 606.387 L1864.15 606.387 L1882.11 606.387 L1900.06 606.387 L1918.01 606.387 L1935.97 606.387 L1953.92 606.387 L1971.87 606.387 L1989.83 606.387 L2007.78 606.387 L2025.73 606.387 L2043.69 606.387 L2043.69 606.387 L2043.69 606.387 L2043.69 606.387 L2043.69 625.097 L2043.69 643.806 L2043.69 662.515 L2043.69 681.225 L2043.69 699.934 L2043.69 718.643 L2043.69 737.353 L2043.69 756.062 L2043.69 774.771 L2043.69 793.481 L2043.69 812.19 L2043.69 830.899 L2043.69 849.609 L2043.69 868.318 L2043.69 887.027 L2043.69 905.737 L2043.69 924.446 L2043.69 943.155 L2043.69 961.865 L2043.69 961.865 L2043.69 961.865 L2043.69 961.865 L2025.73 961.865 L2007.78 961.865 L1989.83 961.865 L1971.87 961.865 L1953.92 961.865 L1935.97 961.865 L1918.01 961.865 L1900.06 961.865 L1882.11 961.865 L1864.15 961.865 L1846.2 961.865 L1828.25 961.865 L1810.29 961.865 L1792.34 961.865 L1774.38 961.865 L1756.43 961.865 L1738.48 961.865 L1720.52 961.865 L1702.57 961.865 L1684.62 961.865 L1666.66 961.865 L1648.71 961.865 L1630.76 961.865 L1612.8 961.865 L1594.85 961.865 L1576.9 961.865 L1558.94 961.865 L1540.99 961.865 L1523.04 961.865 L1505.08 961.865 L1487.13 961.865 L1469.18 961.865 L1451.22 961.865 L1433.27 961.865 L1415.32 961.865 L1397.36 961.865 L1379.41 961.865 L1361.46 961.865 L1343.5 961.865 L1325.55 961.865 L1307.6 961.865 L1289.64 961.865 L1271.69 961.865 L1253.74 961.865 L1235.78 961.865 L1217.83 961.865 L1199.88 961.865 L1181.92 961.865 L1163.97 961.865 L1146.02 961.865 L1128.06 961.865 L1110.11 961.865 L1092.16 961.865 L1074.2 961.865 L1056.25 961.865 L1038.29 961.865 L1020.34 961.865 L1002.39 961.865 L984.435 961.865 L966.481 961.865 L948.528 961.865 L930.574 961.865 L912.621 961.865 L894.668 961.865 L876.714 961.865 L858.761 961.865 L840.807 961.865 L822.854 961.865 L804.901 961.865 L786.947 961.865 L768.994 961.865 L751.04 961.865 L733.087 961.865 L715.133 961.865 L697.18 961.865 L679.227 961.865 L661.273 961.865 L643.32 961.865 L625.366 961.865 L607.413 961.865 L589.46 961.865 L571.506 961.865 L553.553 961.865 L535.599 961.865 L517.646 961.865 L499.692 961.865 L481.739 961.865 L463.786 961.865 L445.832 961.865 L427.879 961.865 L409.925 961.865 L391.972 961.865 L374.019 961.865 L356.065 961.865 L338.112 961.865 L320.158 961.865 L302.205 961.865 L284.251 961.865 L266.298 961.865 L266.298 961.865 L266.298 961.865 L266.298 961.865 L266.298 943.155 L266.298 924.446 L266.298 905.737 L266.298 887.027 L266.298 868.318 L266.298 849.609 L266.298 830.899 L266.298 812.19 L266.298 793.481 L266.298 774.771 L266.298 756.062 L266.298 737.353 L266.298 718.643 L266.298 699.934 L266.298 681.225 L266.298 662.515 L266.298 643.806 L266.298 625.097 L266.298 606.387 L266.298 606.387 L266.298 606.387  Z" fill="#30123b" fill-rule="evenodd" fill-opacity="1"/>
<path clip-path="url(#clip482)" d="M266.298 606.387 L266.298 606.387 L284.251 606.387 L302.205 606.387 L320.158 606.387 L338.112 606.387 L356.065 606.387 L374.019 606.387 L391.972 606.387 L409.925 606.387 L427.879 606.387 L445.832 606.387 L463.786 606.387 L481.739 606.387 L499.692 606.387 L517.646 606.387 L535.599 606.387 L553.553 606.387 L571.506 606.387 L589.46 606.387 L607.413 606.387 L625.366 606.387 L643.32 606.387 L661.273 606.387 L679.227 606.387 L697.18 606.387 L715.133 606.387 L733.087 606.387 L751.04 606.387 L768.994 606.387 L786.947 606.387 L804.901 606.387 L822.854 606.387 L840.807 606.387 L858.761 606.387 L876.714 606.387 L894.668 606.387 L912.621 606.387 L930.574 606.387 L948.528 606.387 L966.481 606.387 L984.435 606.387 L1002.39 606.387 L1020.34 606.387 L1038.29 606.387 L1056.25 606.387 L1074.2 606.387 L1092.16 606.387 L1110.11 606.387 L1128.06 606.387 L1146.02 606.387 L1163.97 606.387 L1181.92 606.387 L1199.88 606.387 L1217.83 606.387 L1235.78 606.387 L1253.74 606.387 L1271.69 606.387 L1289.64 606.387 L1307.6 606.387 L1325.55 606.387 L1343.5 606.387 L1361.46 606.387 L1379.41 606.387 L1397.36 606.387 L1415.32 606.387 L1433.27 606.387 L1451.22 606.387 L1469.18 606.387 L1487.13 606.387 L1505.08 606.387 L1523.04 606.387 L1523.04 606.387 L1526.4 606.387 L1524.81 625.097 L1523.37 643.806 L1523.04 648.621 L1522.1 662.515 L1520.99 681.225 L1519.94 699.934 L1518.83 718.643 L1517.92 737.353 L1517.19 756.062 L1516.65 774.771 L1516.3 793.481 L1516.14 812.19 L1516.16 830.899 L1516.38 849.609 L1516.78 868.318 L1517.53 887.027 L1518.48 905.737 L1519.58 924.446 L1520.83 943.155 L1522.22 961.865 L1505.08 961.865 L1505.08 961.865 L1487.13 961.865 L1469.18 961.865 L1451.22 961.865 L1433.27 961.865 L1415.32 961.865 L1397.36 961.865 L1379.41 961.865 L1361.46 961.865 L1343.5 961.865 L1325.55 961.865 L1307.6 961.865 L1289.64 961.865 L1271.69 961.865 L1253.74 961.865 L1235.78 961.865 L1217.83 961.865 L1199.88 961.865 L1181.92 961.865 L1163.97 961.865 L1146.02 961.865 L1128.06 961.865 L1110.11 961.865 L1092.16 961.865 L1074.2 961.865 L1056.25 961.865 L1038.29 961.865 L1020.34 961.865 L1002.39 961.865 L984.435 961.865 L966.481 961.865 L948.528 961.865 L930.574 961.865 L912.621 961.865 L894.668 961.865 L876.714 961.865 L858.761 961.865 L840.807 961.865 L822.854 961.865 L804.901 961.865 L786.947 961.865 L768.994 961.865 L751.04 961.865 L733.087 961.865 L715.133 961.865 L697.18 961.865 L679.227 961.865 L661.273 961.865 L643.32 961.865 L625.366 961.865 L607.413 961.865 L589.46 961.865 L571.506 961.865 L553.553 961.865 L535.599 961.865 L517.646 961.865 L499.692 961.865 L481.739 961.865 L463.786 961.865 L445.832 961.865 L427.879 961.865 L409.925 961.865 L391.972 961.865 L374.019 961.865 L356.065 961.865 L338.112 961.865 L320.158 961.865 L302.205 961.865 L284.251 961.865 L266.298 961.865 L266.298 961.865 L266.298 961.865 L266.298 961.865 L266.298 943.155 L266.298 924.446 L266.298 905.737 L266.298 887.027 L266.298 868.318 L266.298 849.609 L266.298 830.899 L266.298 812.19 L266.298 793.481 L266.298 774.771 L266.298 756.062 L266.298 737.353 L266.298 718.643 L266.298 699.934 L266.298 681.225 L266.298 662.515 L266.298 643.806 L266.298 625.097 L266.298 606.387 L266.298 606.387 L266.298 606.387  Z" fill="#4584f9" fill-rule="evenodd" fill-opacity="1"/>
<path clip-path="url(#clip482)" d="M266.298 606.387 L266.298 606.387 L284.251 606.387 L302.205 606.387 L320.158 606.387 L338.112 606.387 L356.065 606.387 L374.019 606.387 L391.972 606.387 L409.925 606.387 L427.879 606.387 L445.832 606.387 L463.786 606.387 L481.739 606.387 L499.692 606.387 L517.646 606.387 L535.599 606.387 L553.553 606.387 L571.506 606.387 L589.46 606.387 L607.413 606.387 L625.366 606.387 L643.32 606.387 L661.273 606.387 L679.227 606.387 L697.18 606.387 L715.133 606.387 L733.087 606.387 L751.04 606.387 L768.994 606.387 L786.947 606.387 L804.901 606.387 L822.854 606.387 L840.807 606.387 L858.761 606.387 L876.714 606.387 L894.668 606.387 L912.621 606.387 L930.574 606.387 L948.528 606.387 L966.481 606.387 L984.435 606.387 L1002.39 606.387 L1020.34 606.387 L1038.29 606.387 L1056.25 606.387 L1074.2 606.387 L1092.16 606.387 L1110.11 606.387 L1128.06 606.387 L1146.02 606.387 L1163.97 606.387 L1181.92 606.387 L1199.88 606.387 L1217.83 606.387 L1235.78 606.387 L1253.74 606.387 L1253.74 606.387 L1261.86 606.387 L1261.01 625.097 L1260.23 643.806 L1259.53 662.515 L1258.9 681.225 L1258.3 699.934 L1257.61 718.643 L1257.03 737.353 L1256.57 756.062 L1256.22 774.771 L1255.98 793.481 L1255.84 812.19 L1255.82 830.899 L1255.91 849.609 L1256.11 868.318 L1256.52 887.027 L1257.04 905.737 L1257.63 924.446 L1258.3 943.155 L1259.04 961.865 L1253.74 961.865 L1253.74 961.865 L1235.78 961.865 L1217.83 961.865 L1199.88 961.865 L1181.92 961.865 L1163.97 961.865 L1146.02 961.865 L1128.06 961.865 L1110.11 961.865 L1092.16 961.865 L1074.2 961.865 L1056.25 961.865 L1038.29 961.865 L1020.34 961.865 L1002.39 961.865 L984.435 961.865 L966.481 961.865 L948.528 961.865 L930.574 961.865 L912.621 961.865 L894.668 961.865 L876.714 961.865 L858.761 961.865 L840.807 961.865 L822.854 961.865 L804.901 961.865 L786.947 961.865 L768.994 961.865 L751.04 961.865 L733.087 961.865 L715.133 961.865 L697.18 961.865 L679.227 961.865 L661.273 961.865 L643.32 961.865 L625.366 961.865 L607.413 961.865 L589.46 961.865 L571.506 961.865 L553.553 961.865 L535.599 961.865 L517.646 961.865 L499.692 961.865 L481.739 961.865 L463.786 961.865 L445.832 961.865 L427.879 961.865 L409.925 961.865 L391.972 961.865 L374.019 961.865 L356.065 961.865 L338.112 961.865 L320.158 961.865 L302.205 961.865 L284.251 961.865 L266.298 961.865 L266.298 961.865 L266.298 961.865 L266.298 961.865 L266.298 943.155 L266.298 924.446 L266.298 905.737 L266.298 887.027 L266.298 868.318 L266.298 849.609 L266.298 830.899 L266.298 812.19 L266.298 793.481 L266.298 774.771 L266.298 756.062 L266.298 737.353 L266.298 718.643 L266.298 699.934 L266.298 681.225 L266.298 662.515 L266.298 643.806 L266.298 625.097 L266.298 606.387 L266.298 606.387 L266.298 606.387  Z" fill="#1ae4b6" fill-rule="evenodd" fill-opacity="1"/>
<path clip-path="url(#clip482)" d="M266.298 606.387 L266.298 606.387 L284.251 606.387 L302.205 606.387 L320.158 606.387 L338.112 606.387 L356.065 606.387 L374.019 606.387 L391.972 606.387 L409.925 606.387 L427.879 606.387 L445.832 606.387 L463.786 606.387 L481.739 606.387 L499.692 606.387 L517.646 606.387 L535.599 606.387 L553.553 606.387 L571.506 606.387 L589.46 606.387 L607.413 606.387 L625.366 606.387 L643.32 606.387 L661.273 606.387 L679.227 606.387 L697.18 606.387 L715.133 606.387 L733.087 606.387 L751.04 606.387 L768.994 606.387 L786.947 606.387 L804.901 606.387 L822.854 606.387 L840.807 606.387 L858.761 606.387 L876.714 606.387 L894.668 606.387 L912.621 606.387 L930.574 606.387 L948.528 606.387 L966.481 606.387 L984.435 606.387 L1002.39 606.387 L1020.34 606.387 L1038.29 606.387 L1038.29 606.387 L1038.57 606.387 L1038.29 615.705 L1038.02 625.097 L1037.52 643.806 L1037.06 662.515 L1036.65 681.225 L1036.24 699.934 L1035.75 718.643 L1035.34 737.353 L1035 756.062 L1034.74 774.771 L1034.55 793.481 L1034.44 812.19 L1034.4 830.899 L1034.44 849.609 L1034.56 868.318 L1034.81 887.027 L1035.13 905.737 L1035.51 924.446 L1035.92 943.155 L1036.39 961.865 L1020.34 961.865 L1020.34 961.865 L1002.39 961.865 L984.435 961.865 L966.481 961.865 L948.528 961.865 L930.574 961.865 L912.621 961.865 L894.668 961.865 L876.714 961.865 L858.761 961.865 L840.807 961.865 L822.854 961.865 L804.901 961.865 L786.947 961.865 L768.994 961.865 L751.04 961.865 L733.087 961.865 L715.133 961.865 L697.18 961.865 L679.227 961.865 L661.273 961.865 L643.32 961.865 L625.366 961.865 L607.413 961.865 L589.46 961.865 L571.506 961.865 L553.553 961.865 L535.599 961.865 L517.646 961.865 L499.692 961.865 L481.739 961.865 L463.786 961.865 L445.832 961.865 L427.879 961.865 L409.925 961.865 L391.972 961.865 L374.019 961.865 L356.065 961.865 L338.112 961.865 L320.158 961.865 L302.205 961.865 L284.251 961.865 L266.298 961.865 L266.298 961.865 L266.298 961.865 L266.298 961.865 L266.298 943.155 L266.298 924.446 L266.298 905.737 L266.298 887.027 L266.298 868.318 L266.298 849.609 L266.298 830.899 L266.298 812.19 L266.298 793.481 L266.298 774.771 L266.298 756.062 L266.298 737.353 L266.298 718.643 L266.298 699.934 L266.298 681.225 L266.298 662.515 L266.298 643.806 L266.298 625.097 L266.298 606.387 L266.298 606.387 L266.298 606.387  Z" fill="#a1fc3d" fill-rule="evenodd" fill-opacity="1"/>
<path clip-path="url(#clip482)" d="M266.298 606.387 L266.298 606.387 L284.251 606.387 L302.205 606.387 L320.158 606.387 L338.112 606.387 L356.065 606.387 L374.019 606.387 L391.972 606.387 L409.925 606.387 L427.879 606.387 L445.832 606.387 L463.786 606.387 L481.739 606.387 L499.692 606.387 L517.646 606.387 L535.599 606.387 L553.553 606.387 L571.506 606.387 L589.46 606.387 L607.413 606.387 L625.366 606.387 L643.32 606.387 L661.273 606.387 L679.227 606.387 L697.18 606.387 L715.133 606.387 L733.087 606.387 L751.04 606.387 L768.994 606.387 L786.947 606.387 L804.901 606.387 L822.854 606.387 L822.854 606.387 L833.692 606.387 L833.314 625.097 L832.963 643.806 L832.642 662.515 L832.352 681.225 L832.053 699.934 L831.679 718.643 L831.36 737.353 L831.096 756.062 L830.888 774.771 L830.736 793.481 L830.639 812.19 L830.599 830.899 L830.613 849.609 L830.681 868.318 L830.853 887.027 L831.076 905.737 L831.33 924.446 L831.613 943.155 L831.923 961.865 L822.854 961.865 L822.854 961.865 L804.901 961.865 L786.947 961.865 L768.994 961.865 L751.04 961.865 L733.087 961.865 L715.133 961.865 L697.18 961.865 L679.227 961.865 L661.273 961.865 L643.32 961.865 L625.366 961.865 L607.413 961.865 L589.46 961.865 L571.506 961.865 L553.553 961.865 L535.599 961.865 L517.646 961.865 L499.692 961.865 L481.739 961.865 L463.786 961.865 L445.832 961.865 L427.879 961.865 L409.925 961.865 L391.972 961.865 L374.019 961.865 L356.065 961.865 L338.112 961.865 L320.158 961.865 L302.205 961.865 L284.251 961.865 L266.298 961.865 L266.298 961.865 L266.298 961.865 L266.298 961.865 L266.298 943.155 L266.298 924.446 L266.298 905.737 L266.298 887.027 L266.298 868.318 L266.298 849.609 L266.298 830.899 L266.298 812.19 L266.298 793.481 L266.298 774.771 L266.298 756.062 L266.298 737.353 L266.298 718.643 L266.298 699.934 L266.298 681.225 L266.298 662.515 L266.298 643.806 L266.298 625.097 L266.298 606.387 L266.298 606.387 L266.298 606.387  Z" fill="#f9ba38" fill-rule="evenodd" fill-opacity="1"/>
<path clip-path="url(#clip482)" d="M266.298 606.387 L266.298 606.387 L284.251 606.387 L302.205 606.387 L320.158 606.387 L338.112 606.387 L356.065 606.387 L374.019 606.387 L391.972 606.387 L409.925 606.387 L427.879 606.387 L445.832 606.387 L463.786 606.387 L481.739 606.387 L499.692 606.387 L517.646 606.387 L535.599 606.387 L553.553 606.387 L571.506 606.387 L589.46 606.387 L607.413 606.387 L625.366 606.387 L625.366 606.387 L638.893 606.387 L638.617 625.097 L638.359 643.806 L638.122 662.515 L637.907 681.225 L637.68 699.934 L637.387 718.643 L637.136 737.353 L636.926 756.062 L636.76 774.771 L636.636 793.481 L636.554 812.19 L636.515 830.899 L636.518 849.609 L636.562 868.318 L636.686 887.027 L636.846 905.737 L637.028 924.446 L637.231 943.155 L637.452 961.865 L625.366 961.865 L625.366 961.865 L607.413 961.865 L589.46 961.865 L571.506 961.865 L553.553 961.865 L535.599 961.865 L517.646 961.865 L499.692 961.865 L481.739 961.865 L463.786 961.865 L445.832 961.865 L427.879 961.865 L409.925 961.865 L391.972 961.865 L374.019 961.865 L356.065 961.865 L338.112 961.865 L320.158 961.865 L302.205 961.865 L284.251 961.865 L266.298 961.865 L266.298 961.865 L266.298 961.865 L266.298 961.865 L266.298 943.155 L266.298 924.446 L266.298 905.737 L266.298 887.027 L266.298 868.318 L266.298 849.609 L266.298 830.899 L266.298 812.19 L266.298 793.481 L266.298 774.771 L266.298 756.062 L266.298 737.353 L266.298 718.643 L266.298 699.934 L266.298 681.225 L266.298 662.515 L266.298 643.806 L266.298 625.097 L266.298 606.387 L266.298 606.387 L266.298 606.387  Z" fill="#e5460a" fill-rule="evenodd" fill-opacity="1"/>
<path clip-path="url(#clip482)" d="M266.298 606.387 L266.298 606.387 L284.251 606.387 L302.205 606.387 L320.158 606.387 L338.112 606.387 L356.065 606.387 L374.019 606.387 L391.972 606.387 L409.925 606.387 L427.879 606.387 L445.832 606.387 L445.832 606.387 L450.37 606.387 L450.156 625.097 L449.955 643.806 L449.771 662.515 L449.602 681.225 L449.424 699.934 L449.191 718.643 L448.99 737.353 L448.823 756.062 L448.69 774.771 L448.59 793.481 L448.523 812.19 L448.49 830.899 L448.491 849.609 L448.524 868.318 L448.619 887.027 L448.743 905.737 L448.884 924.446 L449.04 943.155 L449.21 961.865 L445.832 961.865 L445.832 961.865 L427.879 961.865 L409.925 961.865 L391.972 961.865 L374.019 961.865 L356.065 961.865 L338.112 961.865 L320.158 961.865 L302.205 961.865 L284.251 961.865 L266.298 961.865 L266.298 961.865 L266.298 961.865 L266.298 961.865 L266.298 943.155 L266.298 924.446 L266.298 905.737 L266.298 887.027 L266.298 868.318 L266.298 849.609 L266.298 830.899 L266.298 812.19 L266.298 793.481 L266.298 774.771 L266.298 756.062 L266.298 737.353 L266.298 718.643 L266.298 699.934 L266.298 681.225 L266.298 662.515 L266.298 643.806 L266.298 625.097 L266.298 606.387 L266.298 606.387 L266.298 606.387  Z" fill="#7a0402" fill-rule="evenodd" fill-opacity="1"/>
<polyline clip-path="url(#clip482)" style="stroke:#30123b; stroke-linecap:round; stroke-linejoin:round; stroke-width:4; stroke-opacity:1; fill:none" points="266.298,606.387 266.298,606.387 284.251,606.387 302.205,606.387 320.158,606.387 338.112,606.387 356.065,606.387 374.019,606.387 391.972,606.387 409.925,606.387 427.879,606.387 445.832,606.387 463.786,606.387 481.739,606.387 499.692,606.387 517.646,606.387 535.599,606.387 553.553,606.387 571.506,606.387 589.46,606.387 607.413,606.387 625.366,606.387 643.32,606.387 661.273,606.387 679.227,606.387 697.18,606.387 715.133,606.387 733.087,606.387 751.04,606.387 768.994,606.387 786.947,606.387 804.901,606.387 822.854,606.387 840.807,606.387 858.761,606.387 876.714,606.387 894.668,606.387 912.621,606.387 930.574,606.387 948.528,606.387 966.481,606.387 984.435,606.387 1002.39,606.387 1020.34,606.387 1038.29,606.387 1056.25,606.387 1074.2,606.387 1092.16,606.387 1110.11,606.387 1128.06,606.387 1146.02,606.387 1163.97,606.387 1181.92,606.387 1199.88,606.387 1217.83,606.387 1235.78,606.387 1253.74,606.387 1271.69,606.387 1289.64,606.387 1307.6,606.387 1325.55,606.387 1343.5,606.387 1361.46,606.387 1379.41,606.387 1397.36,606.387 1415.32,606.387 1433.27,606.387 1451.22,606.387 1469.18,606.387 1487.13,606.387 1505.08,606.387 1523.04,606.387 1540.99,606.387 1558.94,606.387 1576.9,606.387 1594.85,606.387 1612.8,606.387 1630.76,606.387 1648.71,606.387 1666.66,606.387 1684.62,606.387 1702.57,606.387 1720.52,606.387 1738.48,606.387 1756.43,606.387 1774.38,606.387 1792.34,606.387 1810.29,606.387 1828.25,606.387 1846.2,606.387 1864.15,606.387 1882.11,606.387 1900.06,606.387 1918.01,606.387 1935.97,606.387 1953.92,606.387 1971.87,606.387 1989.83,606.387 2007.78,606.387 2025.73,606.387 2043.69,606.387 2043.69,625.097 2043.69,643.806 2043.69,662.515 2043.69,681.225 2043.69,699.934 2043.69,718.643 2043.69,737.353 2043.69,756.062 2043.69,774.771 2043.69,793.481 2043.69,812.19 2043.69,830.899 2043.69,849.609 2043.69,868.318 2043.69,887.027 2043.69,905.737 2043.69,924.446 2043.69,943.155 2043.69,961.865 2025.73,961.865 2007.78,961.865 1989.83,961.865 1971.87,961.865 1953.92,961.865 1935.97,961.865 1918.01,961.865 1900.06,961.865 1882.11,961.865 1864.15,961.865 1846.2,961.865 1828.25,961.865 1810.29,961.865 1792.34,961.865 1774.38,961.865 1756.43,961.865 1738.48,961.865 1720.52,961.865 1702.57,961.865 1684.62,961.865 1666.66,961.865 1648.71,961.865 1630.76,961.865 1612.8,961.865 1594.85,961.865 1576.9,961.865 1558.94,961.865 1540.99,961.865 1523.04,961.865 1505.08,961.865 1487.13,961.865 1469.18,961.865 1451.22,961.865 1433.27,961.865 1415.32,961.865 1397.36,961.865 1379.41,961.865 1361.46,961.865 1343.5,961.865 1325.55,961.865 1307.6,961.865 1289.64,961.865 1271.69,961.865 1253.74,961.865 1235.78,961.865 1217.83,961.865 1199.88,961.865 1181.92,961.865 1163.97,961.865 1146.02,961.865 1128.06,961.865 1110.11,961.865 1092.16,961.865 1074.2,961.865 1056.25,961.865 1038.29,961.865 1020.34,961.865 1002.39,961.865 984.435,961.865 966.481,961.865 948.528,961.865 930.574,961.865 912.621,961.865 894.668,961.865 876.714,961.865 858.761,961.865 840.807,961.865 822.854,961.865 804.901,961.865 786.947,961.865 768.994,961.865 751.04,961.865 733.087,961.865 715.133,961.865 697.18,961.865 679.227,961.865 661.273,961.865 643.32,961.865 625.366,961.865 607.413,961.865 589.46,961.865 571.506,961.865 553.553,961.865 535.599,961.865 517.646,961.865 499.692,961.865 481.739,961.865 463.786,961.865 445.832,961.865 427.879,961.865 409.925,961.865 391.972,961.865 374.019,961.865 356.065,961.865 338.112,961.865 320.158,961.865 302.205,961.865 284.251,961.865 266.298,961.865 266.298,943.155 266.298,924.446 266.298,905.737 266.298,887.027 266.298,868.318 266.298,849.609 266.298,830.899 266.298,812.19 266.298,793.481 266.298,774.771 266.298,756.062 266.298,737.353 266.298,718.643 266.298,699.934 266.298,681.225 266.298,662.515 266.298,643.806 266.298,625.097 266.298,606.387 "/>
<polyline clip-path="url(#clip482)" style="stroke:#30123b; stroke-linecap:round; stroke-linejoin:round; stroke-width:4; stroke-opacity:1; fill:none" points="266.298,606.387 266.298,606.387 284.251,606.387 302.205,606.387 320.158,606.387 338.112,606.387 356.065,606.387 374.019,606.387 391.972,606.387 409.925,606.387 427.879,606.387 445.832,606.387 463.786,606.387 481.739,606.387 499.692,606.387 517.646,606.387 535.599,606.387 553.553,606.387 571.506,606.387 589.46,606.387 607.413,606.387 625.366,606.387 643.32,606.387 661.273,606.387 679.227,606.387 697.18,606.387 715.133,606.387 733.087,606.387 751.04,606.387 768.994,606.387 786.947,606.387 804.901,606.387 822.854,606.387 840.807,606.387 858.761,606.387 876.714,606.387 894.668,606.387 912.621,606.387 930.574,606.387 948.528,606.387 966.481,606.387 984.435,606.387 1002.39,606.387 1020.34,606.387 1038.29,606.387 1056.25,606.387 1074.2,606.387 1092.16,606.387 1110.11,606.387 1128.06,606.387 1146.02,606.387 1163.97,606.387 1181.92,606.387 1199.88,606.387 1217.83,606.387 1235.78,606.387 1253.74,606.387 1271.69,606.387 1289.64,606.387 1307.6,606.387 1325.55,606.387 1343.5,606.387 1361.46,606.387 1379.41,606.387 1397.36,606.387 1415.32,606.387 1433.27,606.387 1451.22,606.387 1469.18,606.387 1487.13,606.387 1505.08,606.387 1523.04,606.387 1526.4,606.387 1524.81,625.097 1523.37,643.806 1523.04,648.621 1522.1,662.515 1520.99,681.225 1519.94,699.934 1518.83,718.643 1517.92,737.353 1517.19,756.062 1516.65,774.771 1516.3,793.481 1516.14,812.19 1516.16,830.899 1516.38,849.609 1516.78,868.318 1517.53,887.027 1518.48,905.737 1519.58,924.446 1520.83,943.155 1522.22,961.865 1505.08,961.865 1487.13,961.865 1469.18,961.865 1451.22,961.865 1433.27,961.865 1415.32,961.865 1397.36,961.865 1379.41,961.865 1361.46,961.865 1343.5,961.865 1325.55,961.865 1307.6,961.865 1289.64,961.865 1271.69,961.865 1253.74,961.865 1235.78,961.865 1217.83,961.865 1199.88,961.865 1181.92,961.865 1163.97,961.865 1146.02,961.865 1128.06,961.865 1110.11,961.865 1092.16,961.865 1074.2,961.865 1056.25,961.865 1038.29,961.865 1020.34,961.865 1002.39,961.865 984.435,961.865 966.481,961.865 948.528,961.865 930.574,961.865 912.621,961.865 894.668,961.865 876.714,961.865 858.761,961.865 840.807,961.865 822.854,961.865 804.901,961.865 786.947,961.865 768.994,961.865 751.04,961.865 733.087,961.865 715.133,961.865 697.18,961.865 679.227,961.865 661.273,961.865 643.32,961.865 625.366,961.865 607.413,961.865 589.46,961.865 571.506,961.865 553.553,961.865 535.599,961.865 517.646,961.865 499.692,961.865 481.739,961.865 463.786,961.865 445.832,961.865 427.879,961.865 409.925,961.865 391.972,961.865 374.019,961.865 356.065,961.865 338.112,961.865 320.158,961.865 302.205,961.865 284.251,961.865 266.298,961.865 266.298,943.155 266.298,924.446 266.298,905.737 266.298,887.027 266.298,868.318 266.298,849.609 266.298,830.899 266.298,812.19 266.298,793.481 266.298,774.771 266.298,756.062 266.298,737.353 266.298,718.643 266.298,699.934 266.298,681.225 266.298,662.515 266.298,643.806 266.298,625.097 266.298,606.387 "/>
<polyline clip-path="url(#clip482)" style="stroke:#30123b; stroke-linecap:round; stroke-linejoin:round; stroke-width:4; stroke-opacity:1; fill:none" points="266.298,606.387 266.298,606.387 284.251,606.387 302.205,606.387 320.158,606.387 338.112,606.387 356.065,606.387 374.019,606.387 391.972,606.387 409.925,606.387 427.879,606.387 445.832,606.387 463.786,606.387 481.739,606.387 499.692,606.387 517.646,606.387 535.599,606.387 553.553,606.387 571.506,606.387 589.46,606.387 607.413,606.387 625.366,606.387 643.32,606.387 661.273,606.387 679.227,606.387 697.18,606.387 715.133,606.387 733.087,606.387 751.04,606.387 768.994,606.387 786.947,606.387 804.901,606.387 822.854,606.387 840.807,606.387 858.761,606.387 876.714,606.387 894.668,606.387 912.621,606.387 930.574,606.387 948.528,606.387 966.481,606.387 984.435,606.387 1002.39,606.387 1020.34,606.387 1038.29,606.387 1056.25,606.387 1074.2,606.387 1092.16,606.387 1110.11,606.387 1128.06,606.387 1146.02,606.387 1163.97,606.387 1181.92,606.387 1199.88,606.387 1217.83,606.387 1235.78,606.387 1253.74,606.387 1261.86,606.387 1261.01,625.097 1260.23,643.806 1259.53,662.515 1258.9,681.225 1258.3,699.934 1257.61,718.643 1257.03,737.353 1256.57,756.062 1256.22,774.771 1255.98,793.481 1255.84,812.19 1255.82,830.899 1255.91,849.609 1256.11,868.318 1256.52,887.027 1257.04,905.737 1257.63,924.446 1258.3,943.155 1259.04,961.865 1253.74,961.865 1235.78,961.865 1217.83,961.865 1199.88,961.865 1181.92,961.865 1163.97,961.865 1146.02,961.865 1128.06,961.865 1110.11,961.865 1092.16,961.865 1074.2,961.865 1056.25,961.865 1038.29,961.865 1020.34,961.865 1002.39,961.865 984.435,961.865 966.481,961.865 948.528,961.865 930.574,961.865 912.621,961.865 894.668,961.865 876.714,961.865 858.761,961.865 840.807,961.865 822.854,961.865 804.901,961.865 786.947,961.865 768.994,961.865 751.04,961.865 733.087,961.865 715.133,961.865 697.18,961.865 679.227,961.865 661.273,961.865 643.32,961.865 625.366,961.865 607.413,961.865 589.46,961.865 571.506,961.865 553.553,961.865 535.599,961.865 517.646,961.865 499.692,961.865 481.739,961.865 463.786,961.865 445.832,961.865 427.879,961.865 409.925,961.865 391.972,961.865 374.019,961.865 356.065,961.865 338.112,961.865 320.158,961.865 302.205,961.865 284.251,961.865 266.298,961.865 266.298,943.155 266.298,924.446 266.298,905.737 266.298,887.027 266.298,868.318 266.298,849.609 266.298,830.899 266.298,812.19 266.298,793.481 266.298,774.771 266.298,756.062 266.298,737.353 266.298,718.643 266.298,699.934 266.298,681.225 266.298,662.515 266.298,643.806 266.298,625.097 266.298,606.387 "/>
<polyline clip-path="url(#clip482)" style="stroke:#30123b; stroke-linecap:round; stroke-linejoin:round; stroke-width:4; stroke-opacity:1; fill:none" points="266.298,606.387 266.298,606.387 284.251,606.387 302.205,606.387 320.158,606.387 338.112,606.387 356.065,606.387 374.019,606.387 391.972,606.387 409.925,606.387 427.879,606.387 445.832,606.387 463.786,606.387 481.739,606.387 499.692,606.387 517.646,606.387 535.599,606.387 553.553,606.387 571.506,606.387 589.46,606.387 607.413,606.387 625.366,606.387 643.32,606.387 661.273,606.387 679.227,606.387 697.18,606.387 715.133,606.387 733.087,606.387 751.04,606.387 768.994,606.387 786.947,606.387 804.901,606.387 822.854,606.387 840.807,606.387 858.761,606.387 876.714,606.387 894.668,606.387 912.621,606.387 930.574,606.387 948.528,606.387 966.481,606.387 984.435,606.387 1002.39,606.387 1020.34,606.387 1038.29,606.387 1038.57,606.387 1038.29,615.705 1038.02,625.097 1037.52,643.806 1037.06,662.515 1036.65,681.225 1036.24,699.934 1035.75,718.643 1035.34,737.353 1035,756.062 1034.74,774.771 1034.55,793.481 1034.44,812.19 1034.4,830.899 1034.44,849.609 1034.56,868.318 1034.81,887.027 1035.13,905.737 1035.51,924.446 1035.92,943.155 1036.39,961.865 1020.34,961.865 1002.39,961.865 984.435,961.865 966.481,961.865 948.528,961.865 930.574,961.865 912.621,961.865 894.668,961.865 876.714,961.865 858.761,961.865 840.807,961.865 822.854,961.865 804.901,961.865 786.947,961.865 768.994,961.865 751.04,961.865 733.087,961.865 715.133,961.865 697.18,961.865 679.227,961.865 661.273,961.865 643.32,961.865 625.366,961.865 607.413,961.865 589.46,961.865 571.506,961.865 553.553,961.865 535.599,961.865 517.646,961.865 499.692,961.865 481.739,961.865 463.786,961.865 445.832,961.865 427.879,961.865 409.925,961.865 391.972,961.865 374.019,961.865 356.065,961.865 338.112,961.865 320.158,961.865 302.205,961.865 284.251,961.865 266.298,961.865 266.298,943.155 266.298,924.446 266.298,905.737 266.298,887.027 266.298,868.318 266.298,849.609 266.298,830.899 266.298,812.19 266.298,793.481 266.298,774.771 266.298,756.062 266.298,737.353 266.298,718.643 266.298,699.934 266.298,681.225 266.298,662.515 266.298,643.806 266.298,625.097 266.298,606.387 "/>
<polyline clip-path="url(#clip482)" style="stroke:#30123b; stroke-linecap:round; stroke-linejoin:round; stroke-width:4; stroke-opacity:1; fill:none" points="266.298,606.387 266.298,606.387 284.251,606.387 302.205,606.387 320.158,606.387 338.112,606.387 356.065,606.387 374.019,606.387 391.972,606.387 409.925,606.387 427.879,606.387 445.832,606.387 463.786,606.387 481.739,606.387 499.692,606.387 517.646,606.387 535.599,606.387 553.553,606.387 571.506,606.387 589.46,606.387 607.413,606.387 625.366,606.387 643.32,606.387 661.273,606.387 679.227,606.387 697.18,606.387 715.133,606.387 733.087,606.387 751.04,606.387 768.994,606.387 786.947,606.387 804.901,606.387 822.854,606.387 833.692,606.387 833.314,625.097 832.963,643.806 832.642,662.515 832.352,681.225 832.053,699.934 831.679,718.643 831.36,737.353 831.096,756.062 830.888,774.771 830.736,793.481 830.639,812.19 830.599,830.899 830.613,849.609 830.681,868.318 830.853,887.027 831.076,905.737 831.33,924.446 831.613,943.155 831.923,961.865 822.854,961.865 804.901,961.865 786.947,961.865 768.994,961.865 751.04,961.865 733.087,961.865 715.133,961.865 697.18,961.865 679.227,961.865 661.273,961.865 643.32,961.865 625.366,961.865 607.413,961.865 589.46,961.865 571.506,961.865 553.553,961.865 535.599,961.865 517.646,961.865 499.692,961.865 481.739,961.865 463.786,961.865 445.832,961.865 427.879,961.865 409.925,961.865 391.972,961.865 374.019,961.865 356.065,961.865 338.112,961.865 320.158,961.865 302.205,961.865 284.251,961.865 266.298,961.865 266.298,943.155 266.298,924.446 266.298,905.737 266.298,887.027 266.298,868.318 266.298,849.609 266.298,830.899 266.298,812.19 266.298,793.481 266.298,774.771 266.298,756.062 266.298,737.353 266.298,718.643 266.298,699.934 266.298,681.225 266.298,662.515 266.298,643.806 266.298,625.097 266.298,606.387 "/>
<polyline clip-path="url(#clip482)" style="stroke:#30123b; stroke-linecap:round; stroke-linejoin:round; stroke-width:4; stroke-opacity:1; fill:none" points="266.298,606.387 266.298,606.387 284.251,606.387 302.205,606.387 320.158,606.387 338.112,606.387 356.065,606.387 374.019,606.387 391.972,606.387 409.925,606.387 427.879,606.387 445.832,606.387 463.786,606.387 481.739,606.387 499.692,606.387 517.646,606.387 535.599,606.387 553.553,606.387 571.506,606.387 589.46,606.387 607.413,606.387 625.366,606.387 638.893,606.387 638.617,625.097 638.359,643.806 638.122,662.515 637.907,681.225 637.68,699.934 637.387,718.643 637.136,737.353 636.926,756.062 636.76,774.771 636.636,793.481 636.554,812.19 636.515,830.899 636.518,849.609 636.562,868.318 636.686,887.027 636.846,905.737 637.028,924.446 637.231,943.155 637.452,961.865 625.366,961.865 607.413,961.865 589.46,961.865 571.506,961.865 553.553,961.865 535.599,961.865 517.646,961.865 499.692,961.865 481.739,961.865 463.786,961.865 445.832,961.865 427.879,961.865 409.925,961.865 391.972,961.865 374.019,961.865 356.065,961.865 338.112,961.865 320.158,961.865 302.205,961.865 284.251,961.865 266.298,961.865 266.298,943.155 266.298,924.446 266.298,905.737 266.298,887.027 266.298,868.318 266.298,849.609 266.298,830.899 266.298,812.19 266.298,793.481 266.298,774.771 266.298,756.062 266.298,737.353 266.298,718.643 266.298,699.934 266.298,681.225 266.298,662.515 266.298,643.806 266.298,625.097 266.298,606.387 "/>
<polyline clip-path="url(#clip482)" style="stroke:#30123b; stroke-linecap:round; stroke-linejoin:round; stroke-width:4; stroke-opacity:1; fill:none" points="266.298,606.387 266.298,606.387 284.251,606.387 302.205,606.387 320.158,606.387 338.112,606.387 356.065,606.387 374.019,606.387 391.972,606.387 409.925,606.387 427.879,606.387 445.832,606.387 450.37,606.387 450.156,625.097 449.955,643.806 449.771,662.515 449.602,681.225 449.424,699.934 449.191,718.643 448.99,737.353 448.823,756.062 448.69,774.771 448.59,793.481 448.523,812.19 448.49,830.899 448.491,849.609 448.524,868.318 448.619,887.027 448.743,905.737 448.884,924.446 449.04,943.155 449.21,961.865 445.832,961.865 427.879,961.865 409.925,961.865 391.972,961.865 374.019,961.865 356.065,961.865 338.112,961.865 320.158,961.865 302.205,961.865 284.251,961.865 266.298,961.865 266.298,943.155 266.298,924.446 266.298,905.737 266.298,887.027 266.298,868.318 266.298,849.609 266.298,830.899 266.298,812.19 266.298,793.481 266.298,774.771 266.298,756.062 266.298,737.353 266.298,718.643 266.298,699.934 266.298,681.225 266.298,662.515 266.298,643.806 266.298,625.097 266.298,606.387 "/>
<polyline clip-path="url(#clip482)" style="stroke:#ff00ff; stroke-linecap:round; stroke-linejoin:round; stroke-width:4; stroke-opacity:1; fill:none" points="266.298,872.995 2043.69,872.995 "/>
<polyline clip-path="url(#clip482)" style="stroke:#ff00ff; stroke-linecap:round; stroke-linejoin:round; stroke-width:4; stroke-opacity:1; fill:none" points="266.298,695.257 2043.69,695.257 "/>
<defs>
  <clipPath id="clip483">
    <rect x="2145" y="144" width="73" height="1280"/>
  </clipPath>
</defs>
<path clip-path="url(#clip483)" d="M2145.01 1423.78 L2217.01 1423.78 L2217.01 1241.02 L2145.01 1241.02  Z" fill="#30123b" fill-rule="evenodd" fill-opacity="1"/>
<path clip-path="url(#clip483)" d="M2145.01 1241.02 L2217.01 1241.02 L2217.01 1058.26 L2145.01 1058.26  Z" fill="#4584f9" fill-rule="evenodd" fill-opacity="1"/>
<path clip-path="url(#clip483)" d="M2145.01 1058.26 L2217.01 1058.26 L2217.01 875.505 L2145.01 875.505  Z" fill="#1ae4b6" fill-rule="evenodd" fill-opacity="1"/>
<path clip-path="url(#clip483)" d="M2145.01 875.505 L2217.01 875.505 L2217.01 692.747 L2145.01 692.747  Z" fill="#a4fc3b" fill-rule="evenodd" fill-opacity="1"/>
<path clip-path="url(#clip483)" d="M2145.01 692.747 L2217.01 692.747 L2217.01 509.99 L2145.01 509.99  Z" fill="#f9ba38" fill-rule="evenodd" fill-opacity="1"/>
<path clip-path="url(#clip483)" d="M2145.01 509.99 L2217.01 509.99 L2217.01 327.232 L2145.01 327.232  Z" fill="#e5460a" fill-rule="evenodd" fill-opacity="1"/>
<path clip-path="url(#clip483)" d="M2145.01 327.232 L2217.01 327.232 L2217.01 144.475 L2145.01 144.475  Z" fill="#7a0402" fill-rule="evenodd" fill-opacity="1"/>
<path clip-path="url(#clip480)" d="M2264.95 1404.76 Q2261.34 1404.76 2259.51 1408.32 Q2257.71 1411.86 2257.71 1418.99 Q2257.71 1426.1 2259.51 1429.67 Q2261.34 1433.21 2264.95 1433.21 Q2268.59 1433.21 2270.39 1429.67 Q2272.22 1426.1 2272.22 1418.99 Q2272.22 1411.86 2270.39 1408.32 Q2268.59 1404.76 2264.95 1404.76 M2264.95 1401.05 Q2270.76 1401.05 2273.82 1405.66 Q2276.9 1410.24 2276.9 1418.99 Q2276.9 1427.72 2273.82 1432.33 Q2270.76 1436.91 2264.95 1436.91 Q2259.14 1436.91 2256.06 1432.33 Q2253.01 1427.72 2253.01 1418.99 Q2253.01 1410.24 2256.06 1405.66 Q2259.14 1401.05 2264.95 1401.05 Z" fill="#000000" fill-rule="nonzero" fill-opacity="1" /><path clip-path="url(#clip480)" d="M2253.68 1277.5 L2261.32 1277.5 L2261.32 1251.14 L2253.01 1252.8 L2253.01 1248.55 L2261.27 1246.88 L2265.95 1246.88 L2265.95 1277.5 L2273.59 1277.5 L2273.59 1281.44 L2253.68 1281.44 L2253.68 1277.5 Z" fill="#000000" fill-rule="nonzero" fill-opacity="1" /><path clip-path="url(#clip480)" d="M2258.63 1122.7 L2274.95 1122.7 L2274.95 1126.64 L2253.01 1126.64 L2253.01 1122.7 Q2255.67 1119.95 2260.25 1115.32 Q2264.86 1110.67 2266.04 1109.32 Q2268.29 1106.8 2269.17 1105.06 Q2270.07 1103.31 2270.07 1101.62 Q2270.07 1098.86 2268.12 1097.13 Q2266.2 1095.39 2263.1 1095.39 Q2260.9 1095.39 2258.45 1096.15 Q2256.02 1096.92 2253.24 1098.47 L2253.24 1093.75 Q2256.06 1092.61 2258.52 1092.03 Q2260.97 1091.45 2263.01 1091.45 Q2268.38 1091.45 2271.57 1094.14 Q2274.77 1096.82 2274.77 1101.31 Q2274.77 1103.44 2273.96 1105.37 Q2273.17 1107.26 2271.06 1109.86 Q2270.48 1110.53 2267.38 1113.75 Q2264.28 1116.94 2258.63 1122.7 Z" fill="#000000" fill-rule="nonzero" fill-opacity="1" /><path clip-path="url(#clip480)" d="M2268.63 953.204 Q2271.99 953.922 2273.86 956.191 Q2275.76 958.459 2275.76 961.792 Q2275.76 966.908 2272.24 969.709 Q2268.73 972.51 2262.24 972.51 Q2260.07 972.51 2257.75 972.07 Q2255.46 971.653 2253.01 970.797 L2253.01 966.283 Q2254.95 967.417 2257.27 967.996 Q2259.58 968.575 2262.11 968.575 Q2266.5 968.575 2268.79 966.839 Q2271.11 965.103 2271.11 961.792 Q2271.11 958.737 2268.96 957.024 Q2266.83 955.288 2263.01 955.288 L2258.98 955.288 L2258.98 951.445 L2263.19 951.445 Q2266.64 951.445 2268.47 950.079 Q2270.3 948.691 2270.3 946.098 Q2270.3 943.436 2268.4 942.024 Q2266.53 940.589 2263.01 940.589 Q2261.09 940.589 2258.89 941.005 Q2256.69 941.422 2254.05 942.302 L2254.05 938.135 Q2256.71 937.394 2259.03 937.024 Q2261.36 936.654 2263.42 936.654 Q2268.75 936.654 2271.85 939.084 Q2274.95 941.492 2274.95 945.612 Q2274.95 948.482 2273.31 950.473 Q2271.67 952.441 2268.63 953.204 Z" fill="#000000" fill-rule="nonzero" fill-opacity="1" /><path clip-path="url(#clip480)" d="M2268.61 786.552 L2256.8 805.001 L2268.61 805.001 L2268.61 786.552 M2267.38 782.478 L2273.26 782.478 L2273.26 805.001 L2278.19 805.001 L2278.19 808.89 L2273.26 808.89 L2273.26 817.038 L2268.61 817.038 L2268.61 808.89 L2253.01 808.89 L2253.01 804.376 L2267.38 782.478 Z" fill="#000000" fill-rule="nonzero" fill-opacity="1" /><path clip-path="url(#clip480)" d="M2254.47 627.678 L2272.82 627.678 L2272.82 631.613 L2258.75 631.613 L2258.75 640.085 Q2259.77 639.738 2260.79 639.576 Q2261.8 639.391 2262.82 639.391 Q2268.61 639.391 2271.99 642.562 Q2275.37 645.734 2275.37 651.15 Q2275.37 656.729 2271.9 659.831 Q2268.42 662.909 2262.11 662.909 Q2259.93 662.909 2257.66 662.539 Q2255.42 662.169 2253.01 661.428 L2253.01 656.729 Q2255.09 657.863 2257.31 658.419 Q2259.54 658.974 2262.01 658.974 Q2266.02 658.974 2268.36 656.868 Q2270.69 654.761 2270.69 651.15 Q2270.69 647.539 2268.36 645.433 Q2266.02 643.326 2262.01 643.326 Q2260.14 643.326 2258.26 643.743 Q2256.41 644.16 2254.47 645.039 L2254.47 627.678 Z" fill="#000000" fill-rule="nonzero" fill-opacity="1" /><path clip-path="url(#clip480)" d="M2265.35 488.294 Q2262.2 488.294 2260.35 490.447 Q2258.52 492.6 2258.52 496.35 Q2258.52 500.077 2260.35 502.253 Q2262.2 504.406 2265.35 504.406 Q2268.49 504.406 2270.32 502.253 Q2272.17 500.077 2272.17 496.35 Q2272.17 492.6 2270.32 490.447 Q2268.49 488.294 2265.35 488.294 M2274.63 473.642 L2274.63 477.901 Q2272.87 477.068 2271.06 476.628 Q2269.28 476.188 2267.52 476.188 Q2262.89 476.188 2260.44 479.313 Q2258.01 482.438 2257.66 488.757 Q2259.03 486.744 2261.09 485.679 Q2263.15 484.591 2265.62 484.591 Q2270.83 484.591 2273.84 487.762 Q2276.87 490.91 2276.87 496.35 Q2276.87 501.674 2273.73 504.892 Q2270.58 508.109 2265.35 508.109 Q2259.35 508.109 2256.18 503.526 Q2253.01 498.919 2253.01 490.193 Q2253.01 481.998 2256.9 477.137 Q2260.79 472.253 2267.34 472.253 Q2269.1 472.253 2270.88 472.6 Q2272.68 472.947 2274.63 473.642 Z" fill="#000000" fill-rule="nonzero" fill-opacity="1" /><path clip-path="url(#clip480)" d="M2253.01 318.078 L2275.23 318.078 L2275.23 320.068 L2262.68 352.638 L2257.8 352.638 L2269.61 322.013 L2253.01 322.013 L2253.01 318.078 Z" fill="#000000" fill-rule="nonzero" fill-opacity="1" /><path clip-path="url(#clip480)" d="M2264.86 181.425 Q2261.53 181.425 2259.61 183.208 Q2257.71 184.99 2257.71 188.115 Q2257.71 191.24 2259.61 193.023 Q2261.53 194.805 2264.86 194.805 Q2268.19 194.805 2270.11 193.023 Q2272.04 191.217 2272.04 188.115 Q2272.04 184.99 2270.11 183.208 Q2268.22 181.425 2264.86 181.425 M2260.18 179.435 Q2257.17 178.694 2255.48 176.634 Q2253.82 174.574 2253.82 171.611 Q2253.82 167.467 2256.76 165.06 Q2259.72 162.652 2264.86 162.652 Q2270.02 162.652 2272.96 165.06 Q2275.9 167.467 2275.9 171.611 Q2275.9 174.574 2274.21 176.634 Q2272.54 178.694 2269.56 179.435 Q2272.94 180.222 2274.81 182.513 Q2276.71 184.805 2276.71 188.115 Q2276.71 193.138 2273.63 195.824 Q2270.58 198.509 2264.86 198.509 Q2259.14 198.509 2256.06 195.824 Q2253.01 193.138 2253.01 188.115 Q2253.01 184.805 2254.91 182.513 Q2256.8 180.222 2260.18 179.435 M2258.47 172.051 Q2258.47 174.736 2260.14 176.24 Q2261.83 177.745 2264.86 177.745 Q2267.87 177.745 2269.56 176.24 Q2271.27 174.736 2271.27 172.051 Q2271.27 169.365 2269.56 167.861 Q2267.87 166.356 2264.86 166.356 Q2261.83 166.356 2260.14 167.861 Q2258.47 169.365 2258.47 172.051 Z" fill="#000000" fill-rule="nonzero" fill-opacity="1" /><polyline clip-path="url(#clip480)" style="stroke:#000000; stroke-linecap:round; stroke-linejoin:round; stroke-width:4; stroke-opacity:1; fill:none" points="2217.01,1423.78 2217.01,1422.59 2241.01,1422.59 2217.01,1422.59 2217.01,1267.79 2241.01,1267.79 2217.01,1267.79 2217.01,1112.99 2241.01,1112.99 2217.01,1112.99 2217.01,958.187 2241.01,958.187 2217.01,958.187 2217.01,803.387 2241.01,803.387 2217.01,803.387 2217.01,648.587 2241.01,648.587 2217.01,648.587 2217.01,493.787 2241.01,493.787 2217.01,493.787 2217.01,338.986 2241.01,338.986 2217.01,338.986 2217.01,184.186 2241.01,184.186 2217.01,184.186 2217.01,144.475 "/>
</svg>
